<?xml version="1.0" encoding="iso-8859-1"?>
<!-- Generator: Adobe Illustrator 19.0.0, SVG Export Plug-In . SVG Version: 6.00 Build 0)  -->
<svg version="1.1" id="Capa_1" xmlns="http://www.w3.org/2000/svg" xmlns:xlink="http://www.w3.org/1999/xlink" x="0px" y="0px"
	 viewBox="0 0 512 512" style="enable-background:new 0 0 512 512;" xml:space="preserve">
<g>
	<g>
		<path d="M256,0C149.952,0,64,85.952,64,192s128,320,192,320s192-213.952,192-320S362.048,0,256,0z M256,320
			c-70.688,0-128-57.312-128-128c0-12.992,2.496-25.28,6.112-37.088C144.288,176.768,166.304,192,192,192c35.36,0,64-28.64,64-64
			c0-25.696-15.232-47.712-37.088-57.888C230.72,66.496,243.008,64,256,64c70.688,0,128,57.312,128,128S326.688,320,256,320z"/>
	</g>
</g>
<g>
</g>
<g>
</g>
<g>
</g>
<g>
</g>
<g>
</g>
<g>
</g>
<g>
</g>
<g>
</g>
<g>
</g>
<g>
</g>
<g>
</g>
<g>
</g>
<g>
</g>
<g>
</g>
<g>
</g>
</svg>
