<?xml version="1.0" encoding="UTF-8"?>
<svg xmlns="http://www.w3.org/2000/svg" xmlns:xlink="http://www.w3.org/1999/xlink" version="1.2" >
<font id="CO Bd">
<font-face  font-family="CO" units-per-em="1000" ascent="1000" descent="-300" font-style="normal" font-weight="700" font-stretch="normal" cap-height="700" x-height="526" underline-position="-109" underline-thickness="73" />
<missing-glyph  horiz-adv-x="791" d="M34 349 Q34 424 62.5 490 Q91 556 140 604.5 Q189 653 255 681.5 Q321 710 396 710 Q471 710 537 681.5 Q603 653 651.5 604.5 Q700 556 728.5 490 Q757 424 757 349 Q757 274 728.5 209 Q700 144 650.5 95 Q601 46 535.5 18 Q470 -10 395 -10 Q320 -10 254 18 Q188 46 139.5 95 Q91 144 62.5 209 Q34 274 34 349 Z M109 349 Q109 289 131 237 Q153 185 192 146 Q231 107 283 84.5 Q335 62 395 62 Q455 62 507 84.5 Q559 107 597.5 146 Q636 185 658.5 237 Q681 289 681 349 Q681 409 659 461.5 Q637 514 598.5 553 Q560 592 508 614.5 Q456 637 396 637 Q336 637 283.5 614.5 Q231 592 192.5 553 Q154 514 131.5 461.5 Q109 409 109 349 Z M273 509 Q290 520 311 529 Q329 537 353 543 Q377 549 404 549 Q445 549 473 540 Q501 531 518.5 516 Q536 501 544 482 Q552 463 552 444 Q552 406 533 381.5 Q514 357 472 338 Q443 325 433 317.5 Q423 310 423 296 L423 285 L405 259 L359 259 L340 285 L340 296 Q340 316 345 329 Q350 342 359 351.5 Q368 361 381 368 Q394 375 410 383 Q441 398 447 413 Q453 428 453 439 Q453 459 439 474 Q425 489 393 489 Q376 489 362.5 485 Q349 481 337 477 L331 469 L331 421 L273 421 L273 509 Z M327 169 Q327 191 342 206 Q357 221 383 221 Q408 221 423 206 Q438 191 438 169 Q438 147 423 131.5 Q408 116 383 116 Q357 116 342 131.5 Q327 147 327 169 Z " />
<glyph glyph-name="NULL" d="" />
<glyph glyph-name="nonmarkingreturn" unicode="&#xd;" d="" />
<glyph glyph-name="space" unicode="&#x20;" horiz-adv-x="212" d="" />
<glyph glyph-name="exclam" unicode="&#x21;" horiz-adv-x="280" d="M51 75 Q51 91 58 106.5 Q65 122 77 133.5 Q89 145 105.5 152 Q122 159 140 159 Q159 159 175.5 152 Q192 145 204 133.5 Q216 122 223 106.5 Q230 91 230 75 Q230 40 204 15 Q178 -10 140 -10 Q103 -10 77 15 Q51 40 51 75 Z M108 225 L76 269 L52 529 L52 700 L228 700 L228 529 L204 269 L173 225 L108 225 Z " />
<glyph glyph-name="quotedbl" unicode="&#x22;" horiz-adv-x="402" d="M69 442 L47 628 L47 700 L181 700 L181 628 L159 442 L69 442 Z M243 442 L221 628 L221 700 L355 700 L355 628 L333 442 L243 442 Z " />
<glyph glyph-name="numbersign" unicode="&#x23;" horiz-adv-x="561" d="M490 146 L380 146 L332 0 L240 0 L288 146 L196 146 L148 0 L56 0 L104 146 L32 146 L32 222 L129 222 L158 309 L72 309 L72 385 L183 385 L231 530 L323 530 L275 385 L367 385 L415 530 L507 530 L459 385 L530 385 L530 309 L434 309 L405 222 L490 222 L490 146 Z M221 222 L313 222 L342 309 L250 309 L221 222 Z " />
<glyph glyph-name="dollar" unicode="&#x24;" horiz-adv-x="577" d="M326 710 Q367 709 402 705.5 Q437 702 463 697 Q493 692 518 684 L518 514 L425 514 L425 597 L408 613 Q390 615 369.5 617.5 Q349 620 326 621 L326 424 L327 424 Q377 411 417.5 393.5 Q458 376 486 351.5 Q514 327 529 293.5 Q544 260 544 215 Q544 165 528.5 126.5 Q513 88 484.5 60.5 Q456 33 415.5 16.5 Q375 0 326 -6 L326 -102 L261 -102 L261 -10 Q214 -10 174.5 -5.5 Q135 -1 106 4 Q72 10 45 17 L45 196 L138 196 L138 105 L155 88 Q177 84 203 81.5 Q229 79 261 79 L261 286 Q208 301 167.5 319 Q127 337 100 362.5 Q73 388 59 422.5 Q45 457 45 504 Q45 549 60.5 584 Q76 619 104.5 644 Q133 669 173 684.5 Q213 700 261 706 L261 787 L326 787 L326 710 Z M189 532 Q189 516 191.5 503.5 Q194 491 202 480.5 Q210 470 224 461 Q238 452 261 444 L261 614 Q226 604 207.5 582.5 Q189 561 189 532 Z M389 177 Q389 211 375 230.5 Q361 250 326 265 L326 86 Q362 97 375.5 121 Q389 145 389 177 Z " />
<glyph glyph-name="percent" unicode="&#x25;" horiz-adv-x="673" d="M304 540 Q304 453 266.5 413 Q229 373 167 373 Q105 373 67.5 413.5 Q30 454 30 541 Q30 628 67 667.5 Q104 707 167 707 Q228 707 266 667 Q304 627 304 540 Z M208 540 Q208 592 200 616.5 Q192 641 167 641 Q142 641 134 616.5 Q126 592 126 541 Q126 490 134 464.5 Q142 439 167 439 Q192 439 200 464 Q208 489 208 540 Z M642 162 Q642 75 604.5 35 Q567 -5 505 -5 Q443 -5 405.5 35.5 Q368 76 368 163 Q368 250 405 289.5 Q442 329 505 329 Q566 329 604 289 Q642 249 642 162 Z M546 162 Q546 214 538 238.5 Q530 263 505 263 Q480 263 472 238.5 Q464 214 464 163 Q464 112 472 86.5 Q480 61 505 61 Q530 61 538 86 Q546 111 546 162 Z M63 0 L550 700 L619 700 L133 0 L63 0 Z " />
<glyph glyph-name="ampersand" unicode="&#x26;" horiz-adv-x="732" d="M699 402 L699 317 L648 317 L631 299 Q619 270 603.5 239 Q588 208 568 176 L630 101 L650 85 L707 85 L707 0 L562 0 Q529 0 510.5 14.5 Q492 29 477 47 L465 61 Q423 29 369.5 9.5 Q316 -10 247 -10 Q191 -10 150 5 Q109 20 82 45 Q55 70 41.5 102 Q28 134 28 168 Q28 220 48.5 256.5 Q69 293 98.5 316 Q128 339 159 351 Q190 363 211 368 L204 377 Q182 405 168.5 428.5 Q155 452 147.5 471.5 Q140 491 137.5 507.5 Q135 524 135 540 Q135 571 148.5 601.5 Q162 632 188.5 656 Q215 680 253 695 Q291 710 341 710 Q392 710 428.5 698.5 Q465 687 488.5 667 Q512 647 523 620 Q534 593 534 563 Q534 533 522.5 507 Q511 481 492 459 Q473 437 448 418.5 Q423 400 395 385 L511 244 Q518 257 524.5 270.5 Q531 284 538 299 L520 317 L492 317 L492 402 L699 402 Z M292 93 Q321 93 351 101 Q381 109 410 128 L250 320 Q241 315 230 305.5 Q219 296 210 281 Q201 266 194.5 245 Q188 224 188 196 Q188 154 213 123.5 Q238 93 292 93 Z M274 571 Q274 548 287.5 523 Q301 498 324 471 L354 434 Q377 455 398 488.5 Q419 522 419 567 Q419 605 397.5 621.5 Q376 638 350 638 Q315 638 294.5 619.5 Q274 601 274 571 Z " />
<glyph glyph-name="quotesingle" unicode="&#x27;" horiz-adv-x="231" d="M69 442 L47 628 L47 700 L184 700 L184 628 L162 442 L69 442 Z " />
<glyph glyph-name="parenleft" unicode="&#x28;" horiz-adv-x="355" d="M311 -113 Q253 -79 203.5 -39 Q154 1 117.5 47.5 Q81 94 60 148 Q39 202 39 265 L39 416 Q39 479 60 533.5 Q81 588 117.5 635 Q154 682 203.5 721.5 Q253 761 311 796 L342 756 Q266 686 225.5 602.5 Q185 519 185 416 L185 265 Q185 162 225.5 79.5 Q266 -3 342 -73 L311 -113 Z " />
<glyph glyph-name="parenright" unicode="&#x29;" horiz-adv-x="355" d="M13 -73 Q89 -3 129.5 79.5 Q170 162 170 265 L170 416 Q170 519 129.5 602.5 Q89 686 13 756 L44 796 Q102 761 151.5 721.5 Q201 682 237.5 635 Q274 588 295 533.5 Q316 479 316 416 L316 265 Q316 202 295 148 Q274 94 237.5 47.5 Q201 1 151.5 -39 Q102 -79 44 -113 L13 -73 Z " />
<glyph glyph-name="asterisk" unicode="&#x2a;" horiz-adv-x="450" d="M255 563 L316 623 L368 650 L417 553 L366 527 L269 509 L342 456 L376 410 L290 345 L255 391 L225 474 L195 391 L160 345 L74 410 L108 456 L181 509 L84 527 L33 553 L82 650 L134 623 L195 563 L171 643 L171 700 L279 700 L279 643 L255 563 Z " />
<glyph glyph-name="plus" unicode="&#x2b;" horiz-adv-x="496" d="M34 386 L199 386 L199 552 L297 552 L297 386 L462 386 L462 291 L297 291 L297 124 L199 124 L199 291 L34 291 L34 386 Z " />
<glyph glyph-name="comma" unicode="&#x2c;" horiz-adv-x="257" d="M43 71 Q43 108 64 129.5 Q85 151 128 151 Q171 151 192.5 129.5 Q214 108 214 71 Q214 57 208.5 43.5 Q203 30 197 18 L118 -130 L54 -96 L92 -24 L84 -1 Q43 17 43 71 Z " />
<glyph glyph-name="hyphen" unicode="&#x2d;" horiz-adv-x="349" d="M54 335 L295 335 L295 230 L54 230 L54 335 Z " />
<glyph glyph-name="period" unicode="&#x2e;" horiz-adv-x="252" d="M41 71 Q41 87 47.5 101.5 Q54 116 65.5 127 Q77 138 92.5 144.5 Q108 151 126 151 Q144 151 159.5 144.5 Q175 138 186.5 127 Q198 116 205 101.5 Q212 87 212 71 Q212 54 205 39.5 Q198 25 186.5 14 Q175 3 159.5 -3.5 Q144 -10 126 -10 Q108 -10 92.5 -3.5 Q77 3 65.5 14 Q54 25 47.5 39.5 Q41 54 41 71 Z " />
<glyph glyph-name="slash" unicode="&#x2f;" horiz-adv-x="429" d="M21 -102 L313 787 L409 787 L117 -102 L21 -102 Z " />
<glyph glyph-name="zero" unicode="0" horiz-adv-x="636" d="M594 350 Q594 259 573 191.5 Q552 124 515.5 79 Q479 34 428.5 12 Q378 -10 318 -10 Q258 -10 207.5 12 Q157 34 120.5 79 Q84 124 63 191.5 Q42 259 42 350 Q42 441 63 509 Q84 577 120.5 621.5 Q157 666 207.5 688 Q258 710 318 710 Q378 710 428.5 688 Q479 666 515.5 621.5 Q552 577 573 509 Q594 441 594 350 Z M424 350 Q424 478 401.5 542 Q379 606 318 606 Q257 606 234.5 542 Q212 478 212 350 Q212 222 234.5 158 Q257 94 318 94 Q379 94 401.5 158 Q424 222 424 350 Z " />
<glyph glyph-name="one" unicode="1" horiz-adv-x="425" d="M111 651 Q131 651 150 655.5 Q169 660 184.5 668.5 Q200 677 211 687.5 Q222 698 226 710 L307 710 L307 103 L324 85 L409 85 L409 0 L43 0 L43 85 L127 85 L145 103 L145 545 L127 563 L43 563 L43 651 L111 651 Z " />
<glyph glyph-name="two" unicode="2" horiz-adv-x="578" d="M55 654 Q84 670 119 682 Q149 693 189.5 701.5 Q230 710 278 710 Q342 710 387 693.5 Q432 677 460.5 650 Q489 623 502 588.5 Q515 554 515 517 Q515 478 503.5 446 Q492 414 468 385 Q444 356 407 326 Q370 296 318 261 Q281 236 259.5 218.5 Q238 201 227 187.5 Q216 174 213 162.5 Q210 151 210 138 L210 122 L422 122 L440 139 L440 219 L533 219 L533 0 L46 0 L46 131 Q46 158 55 182.5 Q64 207 84.5 232.5 Q105 258 138.5 286.5 Q172 315 222 349 Q261 376 286 396.5 Q311 417 324.5 435 Q338 453 343 471 Q348 489 348 511 Q348 552 325.5 578.5 Q303 605 254 605 Q207 605 170 592 L154 576 L154 502 L55 502 L55 654 Z " />
<glyph glyph-name="three" unicode="3" horiz-adv-x="565" d="M57 660 Q85 674 118 685 Q147 694 184.5 702 Q222 710 267 710 Q334 710 380 694.5 Q426 679 455 653.5 Q484 628 497 595.5 Q510 563 510 529 Q510 491 500.5 462.5 Q491 434 474 413.5 Q457 393 434 379.5 Q411 366 383 359 L383 355 Q449 339 485.5 302 Q522 265 522 189 Q522 151 508.5 115 Q495 79 464 51 Q433 23 384 5.5 Q335 -12 264 -12 Q218 -12 178.5 -4.5 Q139 3 110 12 Q76 23 47 36 L47 196 L144 196 L144 116 L157 102 Q176 95 198 91 Q220 87 246 87 Q302 87 328.5 117 Q355 147 355 193 Q355 259 328.5 285.5 Q302 312 254 312 L180 312 L180 405 L253 405 Q292 405 318.5 430 Q345 455 345 511 Q345 531 340 549.5 Q335 568 324 581.5 Q313 595 294.5 603 Q276 611 249 611 Q226 611 205.5 606.5 Q185 602 168 596 L154 582 L154 502 L57 502 L57 660 Z " />
<glyph glyph-name="four" unicode="4" horiz-adv-x="603" d="M19 284 L336 710 L482 710 L482 284 L564 284 L564 192 L482 192 L482 103 L499 85 L564 85 L564 0 L228 0 L228 85 L302 85 L320 103 L320 192 L19 192 L19 284 Z M320 284 L320 544 L123 284 L320 284 Z " />
<glyph glyph-name="five" unicode="5" horiz-adv-x="562" d="M180 578 L180 426 L251 426 Q385 426 456.5 372.5 Q528 319 528 219 Q528 178 513.5 137 Q499 96 466.5 63 Q434 30 383 9.5 Q332 -11 259 -11 Q214 -11 175.5 -4 Q137 3 108 12 Q75 22 47 35 L47 196 L146 196 L146 124 L162 107 Q199 94 246 94 Q276 94 298 103.5 Q320 113 334.5 129 Q349 145 355.5 165.5 Q362 186 362 208 Q362 268 326 292.5 Q290 317 227 317 L68 317 L68 700 L487 700 L487 497 L392 497 L392 561 L374 578 L180 578 Z " />
<glyph glyph-name="six" unicode="6" horiz-adv-x="585" d="M345 425 Q385 425 422.5 412.5 Q460 400 489 374 Q518 348 535.5 308 Q553 268 553 213 Q553 156 532.5 114.5 Q512 73 477 45 Q442 17 396 3.5 Q350 -10 300 -10 Q241 -10 193.5 8 Q146 26 112 64.5 Q78 103 60 162 Q42 221 42 303 Q42 377 56 450 Q70 523 105.5 580.5 Q141 638 201.5 674 Q262 710 355 710 Q387 710 415 706 Q443 702 464 697 Q489 692 509 685 L509 521 L412 521 L412 595 L395 613 Q377 616 354 616 Q308 616 279 593.5 Q250 571 233.5 535 Q217 499 210 454.5 Q203 410 202 366 Q231 395 268 410 Q305 425 345 425 Z M307 329 Q281 329 254 318.5 Q227 308 201 282 Q202 231 207 194 Q212 157 223 133 Q234 109 253.5 97.5 Q273 86 302 86 Q357 86 378 116.5 Q399 147 399 209 Q399 329 307 329 Z " />
<glyph glyph-name="seven" unicode="7" horiz-adv-x="519" d="M505 700 L505 618 L276 0 L107 0 L383 578 L143 578 L125 561 L125 493 L30 493 L30 700 L505 700 Z " />
<glyph glyph-name="eight" unicode="8" horiz-adv-x="586" d="M523 538 Q523 483 497 445.5 Q471 408 432 385 Q483 358 514 317.5 Q545 277 545 213 Q545 159 526 117 Q507 75 472.5 47 Q438 19 391 4.5 Q344 -10 287 -10 Q218 -10 170.5 5 Q123 20 94 45 Q65 70 52.5 101 Q40 132 40 165 Q40 205 52.5 234.5 Q65 264 83 284.5 Q101 305 122 318 Q143 331 160 338 Q116 365 88.5 405 Q61 445 61 506 Q61 552 78.5 590 Q96 628 127.5 654.5 Q159 681 203.5 695.5 Q248 710 302 710 Q366 710 408.5 694 Q451 678 476.5 653 Q502 628 512.5 597.5 Q523 567 523 538 Z M222 307 Q216 301 208.5 290 Q201 279 193.5 263.5 Q186 248 181 228.5 Q176 209 176 186 Q176 166 181.5 148 Q187 130 200.5 116 Q214 102 235.5 94 Q257 86 289 86 Q315 86 334 94.5 Q353 103 365.5 117 Q378 131 384 148.5 Q390 166 390 185 Q390 217 366 240.5 Q342 264 279 287 L222 307 Z M198 539 Q198 524 202 510.5 Q206 497 220 483.5 Q234 470 262.5 456 Q291 442 339 424 L361 416 Q375 433 384.5 456.5 Q394 480 394 512 Q394 561 367.5 587.5 Q341 614 293 614 Q248 614 223 593 Q198 572 198 539 Z " />
<glyph glyph-name="nine" unicode="9" horiz-adv-x="585" d="M240 275 Q200 275 162.5 287.5 Q125 300 96 326 Q67 352 49.5 392 Q32 432 32 487 Q32 542 53 584 Q74 626 109.5 654 Q145 682 190.5 696 Q236 710 285 710 Q344 710 391.5 691.5 Q439 673 473 635 Q507 597 525 538 Q543 479 543 397 Q543 325 530 252 Q517 179 482.5 121 Q448 63 387 26.5 Q326 -10 230 -10 Q198 -10 170 -6 Q142 -2 121 3 Q96 8 76 16 L76 180 L173 180 L173 106 L190 88 Q199 86 209 85 Q219 84 231 84 Q277 84 306 106 Q335 128 351.5 163.5 Q368 199 374.5 243.5 Q381 288 383 332 Q324 275 240 275 Z M275 371 Q301 371 329 381.5 Q357 392 384 418 Q382 519 361 566.5 Q340 614 285 614 Q233 614 209.5 582.5 Q186 551 186 491 Q186 371 275 371 Z " />
<glyph glyph-name="colon" unicode="&#x3a;" horiz-adv-x="279" d="M54 71 Q54 87 60.5 101.5 Q67 116 78.5 127 Q90 138 105.5 144.5 Q121 151 139 151 Q157 151 172.5 144.5 Q188 138 199.5 127 Q211 116 218 101.5 Q225 87 225 71 Q225 54 218 39.5 Q211 25 199.5 14 Q188 3 172.5 -3.5 Q157 -10 139 -10 Q121 -10 105.5 -3.5 Q90 3 78.5 14 Q67 25 60.5 39.5 Q54 54 54 71 Z M54 460 Q54 476 60.5 490.5 Q67 505 78.5 516 Q90 527 105.5 533.5 Q121 540 139 540 Q157 540 172.5 533.5 Q188 527 199.5 516 Q211 505 218 490.5 Q225 476 225 460 Q225 443 218 428.5 Q211 414 199.5 403 Q188 392 172.5 385.5 Q157 379 139 379 Q121 379 105.5 385.5 Q90 392 78.5 403 Q67 414 60.5 428.5 Q54 443 54 460 Z " />
<glyph glyph-name="semicolon" unicode="&#x3b;" horiz-adv-x="281" d="M55 460 Q55 476 61.5 490.5 Q68 505 79.5 516 Q91 527 106.5 533.5 Q122 540 140 540 Q158 540 173.5 533.5 Q189 527 200.5 516 Q212 505 219 490.5 Q226 476 226 460 Q226 443 219 428.5 Q212 414 200.5 403 Q189 392 173.5 385.5 Q158 379 140 379 Q122 379 106.5 385.5 Q91 392 79.5 403 Q68 414 61.5 428.5 Q55 443 55 460 Z M55 71 Q55 108 76 129.5 Q97 151 140 151 Q183 151 204.5 129.5 Q226 108 226 71 Q226 57 220.5 43.5 Q215 30 209 18 L130 -130 L66 -96 L104 -24 L96 -1 Q55 17 55 71 Z " />
<glyph glyph-name="less" unicode="&#x3c;" horiz-adv-x="518" d="M32 305 L32 372 L460 545 L460 442 L186 340 L460 233 L460 131 L32 305 Z " />
<glyph glyph-name="equal" unicode="&#x3d;" horiz-adv-x="542" d="M57 470 L485 470 L485 375 L57 375 L57 470 Z M57 305 L485 305 L485 210 L57 210 L57 305 Z " />
<glyph glyph-name="greater" unicode="&#x3e;" horiz-adv-x="518" d="M58 233 L332 340 L58 442 L58 545 L486 372 L486 305 L58 131 L58 233 Z " />
<glyph glyph-name="question" unicode="&#x3f;" horiz-adv-x="525" d="M34 644 Q63 662 97 677 Q126 689 165.5 699.5 Q205 710 251 710 Q319 710 366 695 Q413 680 442 655 Q471 630 484 598.5 Q497 567 497 534 Q497 472 466 430.5 Q435 389 364 358 Q340 347 324.5 339.5 Q309 332 299.5 324.5 Q290 317 286.5 309 Q283 301 283 289 L283 269 L252 225 L177 225 L145 269 L145 289 Q145 322 153 344 Q161 366 176 381.5 Q191 397 212.5 408.5 Q234 420 261 433 Q287 445 301 458 Q315 471 322 483 Q329 495 330 506 Q331 517 331 526 Q331 560 308.5 584.5 Q286 609 233 609 Q206 609 183 603 Q160 597 141 588 L127 574 L127 496 L34 496 L34 644 Z M123 76 Q123 113 147.5 138.5 Q172 164 214 164 Q258 164 282.5 138.5 Q307 113 307 76 Q307 41 282.5 15.5 Q258 -10 214 -10 Q172 -10 147.5 15.5 Q123 41 123 76 Z " />
<glyph glyph-name="at" unicode="&#x40;" horiz-adv-x="893" d="M659 -51 Q617 -70 561.5 -82.5 Q506 -95 440 -95 Q414 -95 374.5 -91 Q335 -87 290 -74.5 Q245 -62 200 -38.5 Q155 -15 119 25 Q83 65 60.5 123 Q38 181 38 263 Q38 359 70.5 441 Q103 523 161.5 583 Q220 643 302.5 676.5 Q385 710 486 710 Q577 710 646 682.5 Q715 655 760.5 609 Q806 563 829 503 Q852 443 852 378 Q852 297 828.5 241.5 Q805 186 769.5 152 Q734 118 691 103 Q648 88 609 88 Q552 88 520 106.5 Q488 125 476 164 Q467 153 453.5 142 Q440 131 424 122 Q408 113 390.5 107 Q373 101 356 101 Q296 101 258 139 Q220 177 220 262 Q220 330 239 380.5 Q258 431 287.5 464 Q317 497 352.5 513.5 Q388 530 420 530 Q452 530 478.5 512.5 Q505 495 516 475 L535 504 Q542 515 549 518.5 Q556 522 573 522 L649 522 L598 245 Q595 230 595 215 Q595 195 606 179.5 Q617 164 650 164 Q670 164 690 176.5 Q710 189 726 215.5 Q742 242 752 282 Q762 322 762 378 Q762 430 744.5 477.5 Q727 525 692.5 561 Q658 597 606.5 618.5 Q555 640 486 640 Q406 640 340 611.5 Q274 583 227 533 Q180 483 154 413.5 Q128 344 128 263 Q128 197 146.5 150.5 Q165 104 194 72 Q223 40 259.5 21 Q296 2 331.5 -8 Q367 -18 398.5 -21 Q430 -24 450 -24 Q511 -24 557.5 -16.5 Q604 -9 644 2 L659 -51 Z M401 195 Q428 195 469 221 L469 227 Q469 232 470 243.5 Q471 255 473 263 L500 417 Q486 428 471 432 Q456 436 445 436 Q418 436 400.5 416.5 Q383 397 372.5 369 Q362 341 357.5 310 Q353 279 353 256 Q353 195 401 195 Z " />
<glyph glyph-name="A" unicode="A" horiz-adv-x="663" d="M424 181 L197 181 L172 101 L188 85 L231 85 L231 0 L-7 0 L-7 85 L28 85 L46 103 L258 702 L400 702 L622 101 L639 85 L674 85 L674 0 L401 0 L401 85 L437 85 L452 101 L424 181 Z M227 276 L390 276 L305 520 L227 276 Z " />
<glyph glyph-name="B" unicode="B" horiz-adv-x="653" d="M40 85 L84 85 L102 103 L102 597 L84 615 L40 615 L40 700 L338 700 Q395 700 441.5 689 Q488 678 521 656 Q554 634 572 601 Q590 568 590 523 Q590 461 562.5 424 Q535 387 484 367 L484 363 Q548 342 584 300.5 Q620 259 620 190 Q620 141 602 105 Q584 69 550 46 Q516 23 468.5 11.5 Q421 0 362 0 L40 0 L40 85 Z M262 602 L262 407 L326 407 Q378 407 403.5 430 Q429 453 429 503 Q429 602 326 602 L262 602 Z M262 309 L262 98 L354 98 Q406 98 430 124.5 Q454 151 454 205 Q454 258 430 283.5 Q406 309 354 309 L262 309 Z " />
<glyph glyph-name="C" unicode="C" horiz-adv-x="601" d="M567 30 Q536 16 489 3 Q442 -10 369 -10 Q291 -10 229.5 11 Q168 32 125 76 Q82 120 59.5 187.5 Q37 255 37 349 Q37 440 62.5 508 Q88 576 134 621 Q180 666 244.5 688 Q309 710 387 710 Q422 710 452.5 706.5 Q483 703 506 699 Q532 695 555 689 L555 499 L458 499 L458 584 L441 601 Q428 603 415 604 Q402 605 387 605 Q336 605 301.5 587 Q267 569 246 536.5 Q225 504 216 458.5 Q207 413 207 359 Q207 296 216.5 247.5 Q226 199 248 166 Q270 133 306 116 Q342 99 395 99 L424 99 Q438 99 452 101 L470 119 L470 211 L567 211 L567 30 Z " />
<glyph glyph-name="D" unicode="D" horiz-adv-x="704" d="M40 85 L84 85 L102 103 L102 597 L84 615 L40 615 L40 700 L338 700 Q412 700 472.5 679 Q533 658 576.5 615.5 Q620 573 643.5 508 Q667 443 667 355 Q667 265 643.5 198 Q620 131 576.5 87 Q533 43 472.5 21.5 Q412 0 338 0 L40 0 L40 85 Z M264 104 L338 104 Q383 104 413.5 119.5 Q444 135 462.5 166 Q481 197 489 244.5 Q497 292 497 355 Q497 416 489 461.5 Q481 507 462.5 537 Q444 567 413.5 581.5 Q383 596 338 596 L264 596 L264 104 Z " />
<glyph glyph-name="E" unicode="E" horiz-adv-x="627" d="M264 600 L264 406 L373 406 L390 422 L390 462 L475 462 L475 253 L390 253 L390 293 L374 308 L264 308 L264 100 L479 100 L497 117 L497 197 L590 197 L590 0 L40 0 L40 85 L84 85 L102 103 L102 597 L84 615 L40 615 L40 700 L580 700 L580 503 L487 503 L487 583 L469 600 L264 600 Z " />
<glyph glyph-name="F" unicode="F" horiz-adv-x="616" d="M264 598 L264 396 L387 396 L404 412 L404 452 L489 452 L489 243 L404 243 L404 283 L388 298 L264 298 L264 103 L281 85 L346 85 L346 0 L40 0 L40 85 L84 85 L102 103 L102 597 L84 615 L40 615 L40 700 L595 700 L595 503 L501 503 L501 581 L483 598 L264 598 Z " />
<glyph glyph-name="G" unicode="G" horiz-adv-x="643" d="M571 240 L571 30 Q539 17 490.5 3.5 Q442 -10 367 -10 Q290 -10 228.5 10.5 Q167 31 124.5 74.5 Q82 118 59.5 186 Q37 254 37 350 Q37 441 62 509 Q87 577 132.5 621.5 Q178 666 242.5 688 Q307 710 385 710 Q423 710 456 706.5 Q489 703 514 699 Q543 695 567 689 L567 499 L474 499 L474 588 L458 603 Q442 606 424 608 Q406 610 385 610 Q334 610 300 593 Q266 576 245.5 544 Q225 512 216 466.5 Q207 421 207 364 Q207 298 216.5 246.5 Q226 195 247.5 159.5 Q269 124 305 106 Q341 88 395 88 L428 88 L428 240 L410 258 L372 258 L372 343 L617 343 L617 258 L588 258 L571 240 Z " />
<glyph glyph-name="H" unicode="H" horiz-adv-x="740" d="M476 305 L264 305 L264 103 L281 85 L326 85 L326 0 L40 0 L40 85 L84 85 L102 103 L102 597 L84 615 L40 615 L40 700 L326 700 L326 615 L281 615 L264 597 L264 409 L476 409 L476 597 L458 615 L414 615 L414 700 L700 700 L700 615 L655 615 L638 597 L638 103 L655 85 L700 85 L700 0 L414 0 L414 85 L458 85 L476 103 L476 305 Z " />
<glyph glyph-name="I" unicode="I" horiz-adv-x="366" d="M102 597 L84 615 L40 615 L40 700 L326 700 L326 615 L281 615 L264 597 L264 103 L281 85 L326 85 L326 0 L40 0 L40 85 L84 85 L102 103 L102 597 Z " />
<glyph glyph-name="J" unicode="J" horiz-adv-x="530" d="M282 597 L264 615 L220 615 L220 700 L506 700 L506 615 L461 615 L444 597 L444 200 Q444 159 430.5 121 Q417 83 388.5 54 Q360 25 316.5 7.5 Q273 -10 213 -10 Q160 -10 123.5 -0.5 Q87 9 64 21 Q37 34 19 52 L19 208 L123 208 L123 123 L138 107 Q165 95 189 95 Q240 95 261 116 Q282 137 282 194 L282 597 Z " />
<glyph glyph-name="K" unicode="K" horiz-adv-x="707" d="M435 391 L643 100 L662 85 L700 85 L700 0 L417 0 L417 85 L454 85 L465 97 L312 316 L264 316 L264 103 L281 85 L326 85 L326 0 L40 0 L40 85 L84 85 L102 103 L102 597 L84 615 L40 615 L40 700 L326 700 L326 615 L281 615 L264 597 L264 402 L308 402 L490 604 L480 615 L442 615 L442 700 L684 700 L684 615 L652 615 L628 600 L435 391 Z " />
<glyph glyph-name="L" unicode="L" horiz-adv-x="571" d="M264 102 L438 102 L456 119 L456 211 L549 211 L549 0 L40 0 L40 85 L84 85 L102 103 L102 597 L84 615 L40 615 L40 700 L326 700 L326 615 L281 615 L264 597 L264 102 Z " />
<glyph glyph-name="M" unicode="M" horiz-adv-x="839" d="M40 85 L84 85 L102 103 L102 597 L84 615 L40 615 L40 700 L251 700 L422 355 L597 700 L799 700 L799 615 L755 615 L737 597 L737 103 L754 85 L799 85 L799 0 L527 0 L527 85 L571 85 L589 103 L589 457 L452 197 L351 197 L227 440 L227 103 L244 85 L289 85 L289 0 L40 0 L40 85 Z " />
<glyph glyph-name="N" unicode="N" horiz-adv-x="731" d="M39 0 L39 85 L83 85 L101 103 L101 597 L83 615 L39 615 L39 700 L241 700 L517 275 L517 597 L499 615 L455 615 L455 700 L699 700 L699 615 L654 615 L637 597 L637 -3 L523 -3 L221 461 L221 103 L238 85 L283 85 L283 0 L39 0 Z " />
<glyph glyph-name="O" unicode="O" horiz-adv-x="674" d="M37 350 Q37 441 59.5 509 Q82 577 122 621.5 Q162 666 217 688 Q272 710 337 710 Q402 710 457 688 Q512 666 552 621.5 Q592 577 614.5 509 Q637 441 637 350 Q637 258 614.5 190.5 Q592 123 552 78.5 Q512 34 457 12 Q402 -10 337 -10 Q272 -10 217 12 Q162 34 122 78.5 Q82 123 59.5 190.5 Q37 258 37 350 Z M207 350 Q207 220 236 158.5 Q265 97 337 97 Q409 97 438 158.5 Q467 220 467 350 Q467 480 438 541.5 Q409 603 337 603 Q265 603 236 541.5 Q207 480 207 350 Z " />
<glyph glyph-name="P" unicode="P" horiz-adv-x="640" d="M102 597 L84 615 L40 615 L40 700 L339 700 Q468 700 542.5 647.5 Q617 595 617 483 Q617 423 597.5 379 Q578 335 541.5 306.5 Q505 278 453.5 264 Q402 250 339 250 L264 250 L264 103 L281 85 L334 85 L334 0 L40 0 L40 85 L84 85 L102 103 L102 597 Z M264 602 L264 348 L339 348 Q403 348 426 379 Q449 410 449 475 Q449 538 426 570 Q403 602 339 602 L264 602 Z " />
<glyph glyph-name="Q" unicode="Q" horiz-adv-x="674" d="M37 350 Q37 441 59.5 509 Q82 577 122 621.5 Q162 666 217 688 Q272 710 337 710 Q402 710 457 688 Q512 666 552 621.5 Q592 577 614.5 509 Q637 441 637 350 Q637 224 595.5 143.5 Q554 63 484 25 L550 -42 L584 -57 L636 -57 L636 -142 L486 -142 Q457 -142 430 -130.5 Q403 -119 389 -100 L318 -9 Q257 -6 205.5 17.5 Q154 41 116.5 85.5 Q79 130 58 196 Q37 262 37 350 Z M207 350 Q207 220 236 158.5 Q265 97 337 97 Q409 97 438 158.5 Q467 220 467 350 Q467 480 438 541.5 Q409 603 337 603 Q265 603 236 541.5 Q207 480 207 350 Z " />
<glyph glyph-name="R" unicode="R" horiz-adv-x="677" d="M102 597 L84 615 L40 615 L40 700 L342 700 Q403 700 453 689 Q503 678 538 654 Q573 630 592 593.5 Q611 557 611 506 Q611 463 596.5 431 Q582 399 559.5 377.5 Q537 356 509.5 344.5 Q482 333 457 330 L457 329 Q498 325 524.5 303 Q551 281 570 223 L609 101 L629 85 L662 85 L662 0 L512 0 Q484 0 468.5 14 Q453 28 446 52 L399 222 Q389 256 381.5 268 Q374 280 356 280 L264 280 L264 103 L281 85 L334 85 L334 0 L40 0 L40 85 L84 85 L102 103 L102 597 Z M264 602 L264 378 L338 378 Q395 378 419.5 407 Q444 436 444 497 Q444 547 419.5 574.5 Q395 602 338 602 L264 602 Z " />
<glyph glyph-name="S" unicode="S" horiz-adv-x="559" d="M525 219 Q525 161 505.5 118 Q486 75 450 46.5 Q414 18 364 4 Q314 -10 254 -10 Q209 -10 170.5 -6 Q132 -2 104 3 Q71 9 44 17 L44 211 L141 211 L141 120 L159 102 Q179 98 202.5 96 Q226 94 254 94 Q318 94 343 118.5 Q368 143 368 182 Q368 201 362.5 215.5 Q357 230 344.5 242 Q332 254 310 264 Q288 274 255 283 Q203 298 164 316.5 Q125 335 99 361 Q73 387 60 422 Q47 457 47 505 Q47 553 66.5 591.5 Q86 630 121 656 Q156 682 203.5 696 Q251 710 308 710 Q350 710 385 706 Q420 702 446 697 Q476 691 501 684 L501 499 L404 499 L404 582 L387 599 Q370 602 351 604 Q332 606 310 606 Q256 606 226 584.5 Q196 563 196 527 Q196 512 199.5 499 Q203 486 216 473.5 Q229 461 253 449 Q277 437 319 425 Q367 411 405.5 392.5 Q444 374 470.5 349.5 Q497 325 511 293 Q525 261 525 219 Z " />
<glyph glyph-name="T" unicode="T" horiz-adv-x="602" d="M23 700 L579 700 L579 499 L490 499 L490 578 L472 596 L382 596 L382 103 L399 85 L454 85 L454 0 L148 0 L148 85 L202 85 L220 103 L220 596 L130 596 L112 578 L112 499 L23 499 L23 700 Z " />
<glyph glyph-name="U" unicode="U" horiz-adv-x="679" d="M469 597 L451 615 L407 615 L407 700 L655 700 L655 615 L610 615 L593 597 L593 231 Q593 169 575.5 123.5 Q558 78 525.5 48.5 Q493 19 447.5 4.5 Q402 -10 346 -10 Q287 -10 239.5 4.5 Q192 19 158 48.5 Q124 78 105.5 123.5 Q87 169 87 231 L87 597 L69 615 L25 615 L25 700 L313 700 L313 615 L268 615 L251 597 L251 229 Q251 163 275 130 Q299 97 356 97 Q390 97 411.5 105.5 Q433 114 446 130.5 Q459 147 464 171.5 Q469 196 469 229 L469 597 Z " />
<glyph glyph-name="V" unicode="V" horiz-adv-x="650" d="M459 615 L416 615 L416 700 L654 700 L654 615 L619 615 L602 598 L399 -2 L257 -2 L43 600 L28 615 L-7 615 L-7 700 L267 700 L267 615 L231 615 L215 598 L347 188 L475 597 L459 615 Z " />
<glyph glyph-name="W" unicode="W" horiz-adv-x="962" d="M965 615 L930 615 L913 598 L735 -2 L601 -2 L485 407 L364 -2 L230 -2 L44 601 L31 615 L-4 615 L-4 700 L268 700 L268 615 L232 615 L215 597 L321 211 L454 700 L554 700 L688 218 L790 597 L774 615 L731 615 L731 700 L965 700 L965 615 Z " />
<glyph glyph-name="X" unicode="X" horiz-adv-x="687" d="M45 85 L58 94 L253 348 L79 603 L64 615 L19 615 L19 700 L319 700 L319 615 L280 615 L268 602 L361 459 L475 606 L467 615 L432 615 L432 700 L662 700 L662 615 L630 615 L612 601 L428 377 L623 95 L636 85 L679 85 L679 0 L377 0 L377 85 L415 85 L429 100 L322 257 L204 96 L215 85 L244 85 L244 0 L13 0 L13 85 L45 85 Z " />
<glyph glyph-name="Y" unicode="Y" horiz-adv-x="624" d="M238 259 L40 598 L24 615 L-11 615 L-11 700 L271 700 L271 615 L235 615 L221 600 L338 391 L448 598 L433 615 L390 615 L390 700 L622 700 L622 615 L589 615 L572 598 L400 287 L400 103 L417 85 L462 85 L462 0 L176 0 L176 85 L220 85 L238 103 L238 259 Z " />
<glyph glyph-name="Z" unicode="Z" horiz-adv-x="606" d="M571 0 L34 0 L34 84 L366 597 L160 597 L144 581 L144 500 L47 500 L47 700 L553 700 L553 616 L223 104 L458 104 L474 120 L474 201 L571 201 L571 0 Z " />
<glyph glyph-name="bracketleft" unicode="&#x5b;" horiz-adv-x="314" d="M58 -102 L58 786 L288 786 L288 716 L199 716 L199 -33 L288 -33 L288 -102 L58 -102 Z " />
<glyph glyph-name="backslash" unicode="&#x5c;" horiz-adv-x="429" d="M20 787 L116 787 L408 -102 L312 -102 L20 787 Z " />
<glyph glyph-name="bracketright" unicode="&#x5d;" horiz-adv-x="314" d="M256.004 -102 L256.004 786 L26.0176 786 L26.0176 716 L115.012 716 L115.012 -33 L26.0176 -33 L26.0176 -102 L256.004 -102 Z " />
<glyph glyph-name="asciicircum" unicode="&#x5e;" horiz-adv-x="434" d="M297 387 L215 593 L136 387 L37 387 L167 700 L264 700 L397 387 L297 387 Z " />
<glyph glyph-name="underscore" unicode="&#x5f;" horiz-adv-x="519" d="M0 -80 L519 -80 L519 -158 L0 -158 L0 -80 Z " />
<glyph glyph-name="grave" unicode="&#x60;" horiz-adv-x="417" d="M280 577 L260 577 L94 668 L165 756 L191 756 L322 623 L280 577 Z " />
<glyph glyph-name="a" unicode="a" horiz-adv-x="537" d="M525 0 L368 0 Q338 0 330 14 Q322 28 322 44 L322 63 L317 63 Q311 55 298.5 42.5 Q286 30 268 18.5 Q250 7 227 -1.5 Q204 -10 177 -10 Q136 -10 107 2 Q78 14 59.5 34.5 Q41 55 32 83 Q23 111 23 143 Q23 221 71 262 Q119 303 201 303 L313 303 L313 346 Q313 368 311 386 Q309 404 300.5 417.5 Q292 431 274 438.5 Q256 446 224 446 Q204 446 180 443 L165 428 L165 361 L68 361 L68 508 Q102 518 155 529 Q208 540 276 540 Q330 540 365.5 526.5 Q401 513 423 490 Q445 467 454 436 Q463 405 463 370 L463 98 L481 80 L525 80 L525 0 Z M236 103 Q261 103 281.5 113.5 Q302 124 313 132 L313 218 L242 218 Q206 218 189.5 203.5 Q173 189 173 160 Q173 133 187 118 Q201 103 236 103 Z " />
<glyph glyph-name="b" unicode="b" horiz-adv-x="590" d="M185 730 Q215 730 223 716 Q231 702 231 686 L231 473 Q253 500 287 520 Q321 540 371 540 Q411 540 445.5 523 Q480 506 505.5 472.5 Q531 439 545.5 388.5 Q560 338 560 272 Q560 205 543 152.5 Q526 100 497.5 64 Q469 28 430.5 9 Q392 -10 349 -10 Q308 -10 276.5 8 Q245 26 224 49 L222 49 L222 44 Q222 28 214 14 Q206 0 176 0 L17 0 L17 80 L61 80 L79 98 L79 627 L61 645 L17 645 L17 730 L185 730 Z M310 428 Q294 428 272.5 422.5 Q251 417 231 401 L231 131 Q265 98 312 98 Q357 98 379.5 138 Q402 178 402 270 Q402 316 396.5 346.5 Q391 377 379.5 395 Q368 413 350.5 420.5 Q333 428 310 428 Z " />
<glyph glyph-name="c" unicode="c" horiz-adv-x="467" d="M432 30 Q412 10 370.5 0 Q329 -10 284 -10 Q233 -10 186.5 6 Q140 22 105 55 Q70 88 49 138.5 Q28 189 28 258 Q28 329 49.5 382 Q71 435 107.5 470 Q144 505 193 522.5 Q242 540 296 540 Q325 540 350.5 536.5 Q376 533 394 529 Q415 524 433 518 L433 348 L336 348 L336 429 L318 446 Q314 447 307 447 Q243 447 214.5 400 Q186 353 186 264 Q186 175 221.5 131.5 Q257 88 326 88 Q342 88 359 90.5 Q376 93 390.5 96 Q405 99 416 102 Q427 105 432 107 L432 30 Z " />
<glyph glyph-name="d" unicode="d" horiz-adv-x="590" d="M415 0 Q385 0 377 14 Q369 28 369 44 L369 63 L366 63 Q344 33 308.5 11 Q273 -11 220 -11 Q180 -11 145 6 Q110 23 84.5 56.5 Q59 90 44.5 140.5 Q30 191 30 258 Q30 325 47 377.5 Q64 430 93 466 Q122 502 160.5 521 Q199 540 242 540 Q279 540 309 524.5 Q339 509 360 488 L360 627 L342 645 L298 645 L298 730 L466 730 Q496 730 504 716 Q512 702 512 686 L512 98 L530 80 L574 80 L574 0 L415 0 Z M281 101 Q297 101 318 106.5 Q339 112 360 127 L360 399 Q324 432 279 432 Q234 432 211.5 392 Q189 352 189 260 Q189 213 194.5 182.5 Q200 152 211.5 134 Q223 116 240.5 108.5 Q258 101 281 101 Z " />
<glyph glyph-name="e" unicode="e" horiz-adv-x="499" d="M454 224 L186 224 Q194 149 232 118.5 Q270 88 328 88 Q370 88 400.5 96.5 Q431 105 444 109 L444 27 Q424 13 383 1.5 Q342 -10 276 -10 Q226 -10 181.5 5 Q137 20 103 52.5 Q69 85 49 135 Q29 185 29 255 Q29 324 46.5 377 Q64 430 94.5 466.5 Q125 503 167.5 521.5 Q210 540 261 540 Q364 540 418 481.5 Q472 423 472 325 L472 243 L454 224 Z M260 444 Q223 444 206.5 411 Q190 378 186 309 L324 309 L324 344 Q324 395 310.5 419.5 Q297 444 260 444 Z " />
<glyph glyph-name="f" unicode="f" horiz-adv-x="367" d="M240 445 L240 98 L257 80 L318 80 L318 0 L26 0 L26 80 L70 80 L88 98 L88 445 L26 445 L26 528 L70 528 L88 546 L88 558 Q88 592 98 625 Q108 658 130.5 683.5 Q153 709 190 724.5 Q227 740 281 740 Q307 740 326.5 738 Q346 736 360 734 Q376 731 389 729 L389 611 L300 611 L300 649 L287 662 L286 662 Q271 662 262 654 Q253 646 248 633 Q243 620 241.5 602.5 Q240 585 240 567 L240 528 L352 528 L352 445 L240 445 Z " />
<glyph glyph-name="g" unicode="g" horiz-adv-x="544" d="M473 371 Q473 328 455.5 296 Q438 264 408.5 243 Q379 222 339.5 211.5 Q300 201 257 201 Q221 201 190 207 Q170 190 170 171 Q170 142 213 142 L347 142 Q383 142 415 135 Q447 128 471.5 112 Q496 96 510 70 Q524 44 524 7 Q524 -41 501.5 -76 Q479 -111 440.5 -134.5 Q402 -158 350 -169 Q298 -180 239 -180 Q188 -180 147 -174.5 Q106 -169 76.5 -156.5 Q47 -144 31.5 -123.5 Q16 -103 16 -73 Q16 -56 23 -41.5 Q30 -27 41.5 -15 Q53 -3 67 6 Q81 15 96 22 Q69 35 52.5 59 Q36 83 36 115 Q36 145 56.5 175.5 Q77 206 123 232 Q86 252 64 286.5 Q42 321 42 371 Q42 414 59.5 446 Q77 478 106 499 Q135 520 174 530 Q213 540 257 540 Q279 540 299.5 537.5 Q320 535 339 530 L518 530 L518 445 L463 445 L458 440 Q473 410 473 371 Z M325 371 Q325 463 257 463 Q190 463 190 371 Q190 278 257 278 Q325 278 325 371 Z M166 10 Q160 2 154 -11.5 Q148 -25 148 -45 Q148 -71 174.5 -88 Q201 -105 258 -105 Q283 -105 305 -101 Q327 -97 343.5 -88.5 Q360 -80 370 -67 Q380 -54 380 -36 Q380 -7 363 1.5 Q346 10 314 10 L166 10 Z " />
<glyph glyph-name="h" unicode="h" horiz-adv-x="607" d="M327 0 L327 80 L360 80 L377 98 L377 356 Q377 367 375.5 379.5 Q374 392 367.5 402.5 Q361 413 348 420 Q335 427 311 427 Q285 427 264 417.5 Q243 408 232 400 L232 98 L249 80 L282 80 L282 0 L18 0 L18 80 L62 80 L80 98 L80 627 L62 645 L18 645 L18 730 L186 730 Q216 730 224 716 Q232 702 232 686 L232 474 Q240 483 253 494 Q266 505 284 515.5 Q302 526 325 533 Q348 540 375 540 Q420 540 449.5 527.5 Q479 515 496.5 493 Q514 471 521.5 442 Q529 413 529 380 L529 98 L547 80 L591 80 L591 0 L327 0 Z " />
<glyph glyph-name="i" unicode="i" horiz-adv-x="319" d="M194 530 Q224 530 232 516 Q240 502 240 486 L240 98 L257 80 L302 80 L302 0 L26 0 L26 80 L70 80 L88 98 L88 427 L70 445 L26 445 L26 530 L194 530 Z M70 665 Q70 702 91 723.5 Q112 745 155 745 Q198 745 219 723.5 Q240 702 240 665 Q240 628 219 606.5 Q198 585 155 585 Q112 585 91 606.5 Q70 628 70 665 Z " />
<glyph glyph-name="j" unicode="j" horiz-adv-x="300" d="M64 665 Q64 702 85 723.5 Q106 745 149 745 Q192 745 213 723.5 Q234 702 234 665 Q234 628 213 606.5 Q192 585 149 585 Q106 585 85 606.5 Q64 628 64 665 Z M-67 -46 L22 -46 L22 -91 L35 -104 L36 -104 Q51 -104 60 -93.5 Q69 -83 74 -67 Q79 -51 80.5 -32.5 Q82 -14 82 1 L82 427 L64 445 L20 445 L20 530 L188 530 Q218 530 226 516 Q234 502 234 486 L234 10 Q234 -24 224 -58 Q214 -92 190.5 -119 Q167 -146 129.5 -163 Q92 -180 37 -180 Q-13 -180 -41 -175 Q-56 -172 -67 -169 L-67 -46 Z " />
<glyph glyph-name="k" unicode="k" horiz-adv-x="605" d="M389 318 L543 94 L560 80 L593 80 L593 0 L340 0 L340 80 L363 80 L374 93 L273 249 L232 249 L232 98 L249 80 L282 80 L282 0 L18 0 L18 80 L62 80 L80 98 L80 627 L62 645 L18 645 L18 730 L186 730 Q216 730 224 716 Q232 702 232 686 L232 322 L267 322 L395 437 L388 445 L359 445 L359 530 L582 530 L582 445 L541 445 L520 432 L389 318 Z " />
<glyph glyph-name="l" unicode="l" horiz-adv-x="312" d="M186 730 Q216 730 224 716 Q232 702 232 686 L232 98 L249 80 L294 80 L294 0 L18 0 L18 80 L62 80 L80 98 L80 627 L62 645 L18 645 L18 730 L186 730 Z " />
<glyph glyph-name="m" unicode="m" horiz-adv-x="903" d="M26 0 L26 80 L70 80 L88 98 L88 427 L70 445 L26 445 L26 530 L185 530 Q215 530 223 516 Q231 502 231 486 L231 468 L234 468 Q239 474 251 486 Q263 498 281 510 Q299 522 323.5 531 Q348 540 378 540 Q438 540 471 518 Q504 496 518 460 Q524 468 536.5 481.5 Q549 495 568.5 508 Q588 521 613 530.5 Q638 540 670 540 Q715 540 744.5 527.5 Q774 515 791.5 493 Q809 471 816.5 442 Q824 413 824 380 L824 98 L842 80 L886 80 L886 0 L622 0 L622 80 L655 80 L672 98 L672 356 Q672 367 670.5 379.5 Q669 392 663 402.5 Q657 413 645 420 Q633 427 611 427 Q584 427 563 417 Q542 407 531 399 Q532 394 532 389 L532 98 L550 80 L590 80 L590 0 L334 0 L334 80 L363 80 L380 98 L380 356 Q380 367 378.5 379.5 Q377 392 371 402.5 Q365 413 353 420 Q341 427 319 427 Q293 427 272 417.5 Q251 408 240 400 L240 98 L257 80 L290 80 L290 0 L26 0 Z " />
<glyph glyph-name="n" unicode="n" horiz-adv-x="616" d="M26 0 L26 80 L70 80 L88 98 L88 427 L70 445 L26 445 L26 530 L185 530 Q215 530 223 516 Q231 502 231 486 L231 468 L234 468 Q240 475 253 487.5 Q266 500 285 511.5 Q304 523 328.5 531.5 Q353 540 383 540 Q428 540 457.5 527.5 Q487 515 504.5 493 Q522 471 529.5 442 Q537 413 537 380 L537 98 L555 80 L599 80 L599 0 L335 0 L335 80 L368 80 L385 98 L385 356 Q385 367 383.5 379.5 Q382 392 375.5 402.5 Q369 413 356 420 Q343 427 319 427 Q293 427 272 417.5 Q251 408 240 400 L240 98 L257 80 L290 80 L290 0 L26 0 Z " />
<glyph glyph-name="o" unicode="o" horiz-adv-x="544" d="M515 265 Q515 195 495.5 143 Q476 91 443 57 Q410 23 366 6.5 Q322 -10 272 -10 Q222 -10 178 6.5 Q134 23 101 57 Q68 91 48.5 143 Q29 195 29 265 Q29 335 48.5 387 Q68 439 101 473 Q134 507 178 523.5 Q222 540 272 540 Q322 540 366 523.5 Q410 507 443 473 Q476 439 495.5 387 Q515 335 515 265 Z M357 265 Q357 353 339 397.5 Q321 442 272 442 Q223 442 205 397.5 Q187 353 187 265 Q187 177 205 132.5 Q223 88 272 88 Q321 88 339 132.5 Q357 177 357 265 Z " />
<glyph glyph-name="p" unicode="p" horiz-adv-x="590" d="M17 530 L176 530 Q206 530 214 516 Q222 502 222 486 L222 467 L225 467 Q247 496 282.5 518 Q318 540 371 540 Q411 540 445.5 523 Q480 506 505.5 472.5 Q531 439 545.5 388.5 Q560 338 560 272 Q560 205 543 152.5 Q526 100 497.5 64 Q469 28 430.5 9 Q392 -10 349 -10 Q311 -10 281.5 5.5 Q252 21 231 42 L231 -72 L248 -90 L299 -90 L299 -170 L17 -170 L17 -90 L61 -90 L79 -72 L79 427 L61 445 L17 445 L17 530 Z M310 428 Q294 428 272.5 422.5 Q251 417 231 401 L231 131 Q265 98 312 98 Q357 98 379.5 138 Q402 178 402 270 Q402 316 396.5 346.5 Q391 377 379.5 395 Q368 413 350.5 420.5 Q333 428 310 428 Z " />
<glyph glyph-name="q" unicode="q" horiz-adv-x="591" d="M292 -170 L292 -90 L343 -90 L360 -72 L360 55 Q337 28 303 8.5 Q269 -11 220 -11 Q180 -11 145 6 Q110 23 84.5 56.5 Q59 90 44.5 140.5 Q30 191 30 258 Q30 325 47 377.5 Q64 430 93 466 Q122 502 160.5 521 Q199 540 242 540 Q282 540 313.5 522 Q345 504 367 481 L369 481 L369 486 Q369 502 377 516 Q385 530 415 530 L574 530 L574 445 L530 445 L512 427 L512 -72 L530 -90 L574 -90 L574 -170 L292 -170 Z M281 101 Q297 101 318 106.5 Q339 112 360 127 L360 399 Q324 432 279 432 Q234 432 211.5 392 Q189 352 189 260 Q189 213 194.5 182.5 Q200 152 211.5 134 Q223 116 240.5 108.5 Q258 101 281 101 Z " />
<glyph glyph-name="r" unicode="r" horiz-adv-x="436" d="M257 80 L313 80 L313 0 L26 0 L26 80 L70 80 L88 98 L88 427 L70 445 L26 445 L26 530 L185 530 Q215 530 223 516 Q231 502 231 486 L231 459 L234 459 Q239 466 251.5 479.5 Q264 493 282.5 506.5 Q301 520 325.5 530 Q350 540 380 540 Q388 540 394.5 539.5 Q401 539 407 538 Q413 537 420 537 L420 328 L328 328 L328 398 L311 414 Q288 409 269.5 401 Q251 393 240 387 L240 98 L257 80 Z " />
<glyph glyph-name="s" unicode="s" horiz-adv-x="467" d="M439 168 Q439 125 422 92 Q405 59 375 36.5 Q345 14 303.5 2 Q262 -10 214 -10 Q172 -10 140 -7 Q108 -4 85 1 Q58 6 37 13 L37 162 L126 162 L126 103 L143 85 Q158 83 175 81.5 Q192 80 212 80 Q253 80 271.5 97.5 Q290 115 290 136 Q290 149 287 159 Q284 169 274 176.5 Q264 184 245 191 Q226 198 195 207 Q148 220 117.5 238 Q87 256 69.5 277.5 Q52 299 45 324.5 Q38 350 38 377 Q38 413 53.5 442.5 Q69 472 97.5 494 Q126 516 167.5 528 Q209 540 260 540 Q292 540 320.5 537 Q349 534 371 531 Q396 527 417 523 L417 378 L328 378 L328 430 L311 446 Q299 448 285.5 449.5 Q272 451 258 451 Q221 451 200.5 437 Q180 423 180 400 Q180 390 182 381.5 Q184 373 192.5 365.5 Q201 358 216.5 350.5 Q232 343 259 335 Q307 321 341 306 Q375 291 396.5 271.5 Q418 252 428.5 227 Q439 202 439 168 Z " />
<glyph glyph-name="t" unicode="t" horiz-adv-x="359" d="M233 445 L233 98 L251 80 L348 80 L348 0 Q329 -3 307 -5 Q288 -7 263.5 -8.5 Q239 -10 213 -10 Q147 -10 114 17.5 Q81 45 81 114 L81 445 L19 445 L19 528 L63 528 L81 546 L138 670 L233 670 L233 528 L345 528 L345 445 L233 445 Z " />
<glyph glyph-name="u" unicode="u" horiz-adv-x="600" d="M476 530 Q506 530 514 516 Q522 502 522 486 L522 98 L540 80 L584 80 L584 0 L425 0 Q395 0 387 14 Q379 28 379 44 L379 62 L376 62 Q369 54 356 41.5 Q343 29 325 17.5 Q307 6 283.5 -2 Q260 -10 232 -10 Q187 -10 157.5 2.5 Q128 15 110.5 37 Q93 59 85.5 88 Q78 117 78 150 L78 427 L60 445 L16 445 L16 530 L184 530 Q214 530 222 514 Q230 498 230 481 L230 174 Q230 163 231.5 150.5 Q233 138 239 127.5 Q245 117 257 110 Q269 103 291 103 Q317 103 337.5 112.5 Q358 122 370 130 L370 427 L352 445 L308 445 L308 530 L476 530 Z " />
<glyph glyph-name="v" unicode="v" horiz-adv-x="557" d="M520 445 L502 427 L342 -2 L222 -2 L51 427 L33 445 L0 445 L0 530 L260 530 L260 445 L231 445 L214 427 L301 178 L387 427 L371 445 L335 445 L335 530 L550 530 L550 445 L520 445 Z " />
<glyph glyph-name="w" unicode="w" horiz-adv-x="791" d="M463 530 L560 194 L630 427 L613 445 L578 445 L578 530 L783 530 L783 445 L752 445 L736 429 L595 -2 L485 -2 L400 273 L316 -2 L205 -2 L49 429 L34 445 L1 445 L1 530 L245 530 L245 445 L216 445 L201 427 L278 183 L378 530 L463 530 Z " />
<glyph glyph-name="x" unicode="x" horiz-adv-x="599" d="M45 80 L58 90 L219 258 L76 428 L55 445 L22 445 L22 530 L286 530 L286 445 L259 445 L252 437 L322 352 L403 435 L394 445 L367 445 L367 530 L574 530 L574 445 L546 445 L531 434 L381 290 L537 97 L559 80 L588 80 L588 0 L321 0 L321 80 L351 80 L359 89 L277 192 L185 91 L196 80 L219 80 L219 0 L13 0 L13 80 L45 80 Z " />
<glyph glyph-name="y" unicode="y" horiz-adv-x="558" d="M522 445 L504 427 L317 -72 L334 -90 L373 -90 L373 -170 L127 -170 L127 -90 L192 -90 L210 -72 L231 -13 L52 428 L35 445 L2 445 L2 530 L262 530 L262 445 L233 445 L216 427 L301 184 L388 427 L371 445 L338 445 L338 530 L552 530 L552 445 L522 445 Z " />
<glyph glyph-name="z" unicode="z" horiz-adv-x="516" d="M293 442 L150 442 L134 426 L134 358 L37 358 L37 530 L474 530 L474 456 L214 88 L374 88 L390 105 L390 172 L487 172 L487 0 L29 0 L29 68 L293 442 Z " />
<glyph glyph-name="braceleft" unicode="&#x7b;" horiz-adv-x="356" d="M333 -103 Q318 -105 304.5 -106 Q291 -107 277 -107 Q183 -107 140 -68.5 Q97 -30 97 59 L97 214 Q97 242 95 260 Q93 278 85.5 288.5 Q78 299 63 304 Q48 309 23 311 L23 386 Q48 388 62.5 393 Q77 398 84.5 408.5 Q92 419 94.5 436.5 Q97 454 97 483 L97 624 Q97 713 140 751.5 Q183 790 277 790 Q291 790 304.5 789 Q318 788 333 786 L333 731 L307 729 Q293 727 281 724 Q269 721 261 712.5 Q253 704 248.5 690 Q244 676 244 653 L244 526 Q244 476 239 444.5 Q234 413 222.5 394.5 Q211 376 192 366.5 Q173 357 145 350 L145 347 Q173 340 192 330.5 Q211 321 222.5 302.5 Q234 284 239 252.5 Q244 221 244 171 L244 30 Q244 7 248.5 -7 Q253 -21 261 -29.5 Q269 -38 280.5 -41.5 Q292 -45 306 -46 L333 -48 L333 -103 Z " />
<glyph glyph-name="bar" unicode="&#x7c;" horiz-adv-x="208" d="M58 -102 L58 787 L150 787 L150 -102 L58 -102 Z " />
<glyph glyph-name="braceright" unicode="&#x7d;" horiz-adv-x="356" d="M23.0203 -103 Q38.0194 -105 51.5186 -106 Q65.0178 -107 79.0169 -107 Q173.011 -107 216.009 -68.5 Q259.006 -30 259.006 59 L259.006 214 Q259.006 242 261.006 260 Q263.006 278 270.505 288.5 Q278.005 299 293.004 304 Q308.003 309 333.001 311 L333.001 386 Q308.003 388 293.504 393 Q279.005 398 271.505 408.5 Q264.006 419 261.506 436.5 Q259.006 454 259.006 483 L259.006 624 Q259.006 713 216.009 751.5 Q173.011 790 79.0169 790 Q65.0178 790 51.5186 789 Q38.0194 788 23.0203 786 L23.0203 731 L49.0187 729 Q63.0179 727 75.0172 724 Q87.0164 721 95.0159 712.5 Q103.015 704 107.515 690 Q112.015 676 112.015 653 L112.015 526 Q112.015 476 117.015 444.5 Q122.014 413 133.514 394.5 Q145.013 376 164.012 366.5 Q183.011 357 211.009 350 L211.009 347 Q183.011 340 164.012 330.5 Q145.013 321 133.514 302.5 Q122.014 284 117.015 252.5 Q112.015 221 112.015 171 L112.015 30 Q112.015 7 107.515 -7 Q103.015 -21 95.0159 -29.5 Q87.0164 -38 75.5171 -41.5 Q64.0178 -45 50.0187 -46 L23.0203 -48 L23.0203 -103 Z " />
<glyph glyph-name="asciitilde" unicode="&#x7e;" horiz-adv-x="648" d="M48 278 Q75 329 120 361.5 Q165 394 225 394 Q262 394 292.5 382 Q323 370 349.5 355 Q376 340 400 328 Q424 316 448 316 Q466 316 484 325 L546 389 L602 341 Q574 290 529 258 Q484 226 424 226 Q387 226 356.5 238 Q326 250 299.5 265 Q273 280 249 292 Q225 304 201 304 Q183 304 165 295 L103 231 L48 278 Z " />
<glyph glyph-name="uni00A0" unicode="&#xa0;" horiz-adv-x="212" d="" />
<glyph glyph-name="exclamdown" unicode="&#xa1;" horiz-adv-x="273" d="M47 455.005 Q47 439.006 54 423.507 Q61 408.007 73 396.508 Q85 385.009 101.5 378.009 Q118 371.01 136 371.01 Q155 371.01 171.5 378.009 Q188 385.009 200 396.508 Q212 408.007 219 423.507 Q226 439.006 226 455.005 Q226 490.002 200 515.001 Q174 539.999 136 539.999 Q99 539.999 73 515.001 Q47 490.002 47 455.005 Z M104 305.014 L72 261.016 L48 1.03229 L48 -169.957 L224 -169.957 L224 1.03229 L200 261.016 L169 305.014 L104 305.014 Z " />
<glyph glyph-name="cent" unicode="&#xa2;" horiz-adv-x="496" d="M322 626 Q350 625 373 622 Q396 619 413 615 Q432 611 449 604 L449 440 L361 440 L361 519 L344 536 Q339 536 335.5 536.5 Q332 537 327 537 L322 537 L322 167 Q327 166 331 166 L341 166 Q357 166 374 168.5 Q391 171 405.5 174.5 Q420 178 431.5 181.5 Q443 185 448 187 L448 116 Q431 99 396 88.5 Q361 78 322 76 L322 -10 L257 -10 L257 78 Q211 84 171 102 Q131 120 101 152.5 Q71 185 54 232.5 Q37 280 37 344 Q37 405 54 453 Q71 501 100.5 535.5 Q130 570 170 591.5 Q210 613 257 621 L257 710 L322 710 L322 626 Z M186 350 Q186 281 204 241 Q222 201 257 183 L257 522 Q219 502 202.5 459 Q186 416 186 350 Z " />
<glyph glyph-name="sterling" unicode="&#xa3;" horiz-adv-x="618" d="M42 85 L86 85 L104 103 L104 307 L42 307 L42 380 L104 380 L104 474 Q104 518 118 560.5 Q132 603 162 636 Q192 669 240 689.5 Q288 710 357 710 Q402 710 439 702.5 Q476 695 503 687 Q535 676 560 664 L560 508 L467 508 L467 586 L454 598 Q437 604 417.5 607.5 Q398 611 375 611 Q346 611 325.5 604.5 Q305 598 291.5 582.5 Q278 567 272 540.5 Q266 514 266 474 L266 380 L402 380 L402 307 L266 307 L266 233 Q266 195 257 163.5 Q248 132 235 106 L462 106 L480 123 L480 211 L569 211 L569 0 L42 0 L42 85 Z " />
<glyph glyph-name="currency" unicode="&#xa4;" horiz-adv-x="516" d="M115 542 L194 462 Q222 477 258 477 Q275 477 291.5 473 Q308 469 322 462 L402 542 L474 471 L393 391 Q409 359 409 326 Q409 292 393 260 L473 182 L401 111 L322 190 Q291 176 258 176 Q223 176 193 191 L114 111 L42 182 L122 262 Q108 292 108 326 Q108 343 112 359.5 Q116 376 123 391 L43 471 L115 542 Z M191 326 Q191 296 211.5 275 Q232 254 259 254 Q286 254 306 275 Q326 296 326 326 Q326 356 306 377 Q286 398 259 398 Q232 398 211.5 377 Q191 356 191 326 Z " />
<glyph glyph-name="yen" unicode="&#xa5;" horiz-adv-x="687" d="M106 383 L204 383 L78 598 L62 615 L27 615 L27 700 L309 700 L309 615 L273 615 L259 600 L376 391 L486 598 L471 615 L428 615 L428 700 L660 700 L660 615 L627 615 L610 598 L491 383 L576 383 L576 310 L450 310 L438 287 L438 261 L576 261 L576 188 L438 188 L438 103 L455 85 L500 85 L500 0 L214 0 L214 85 L258 85 L276 103 L276 188 L106 188 L106 261 L275 261 L246 310 L106 310 L106 383 Z " />
<glyph glyph-name="brokenbar" unicode="&#xa6;" horiz-adv-x="218" d="M63 -102 L63 270 L155 270 L155 -102 L63 -102 Z M63 416 L63 787 L155 787 L155 416 L63 416 Z " />
<glyph glyph-name="section" unicode="&#xa7;" horiz-adv-x="582" d="M41 267 Q41 312 60.5 343.5 Q80 375 113 394 Q87 417 75 446 Q63 475 63 517 Q63 562 84 598 Q105 634 141 658.5 Q177 683 226.5 696.5 Q276 710 333 710 Q373 710 407 706.5 Q441 703 467 698 Q497 693 522 686 L522 515 L429 515 L429 599 L413 615 Q396 617 371.5 619 Q347 621 324 621 Q266 621 232 601 Q198 581 198 546 Q198 531 202 519 Q206 507 219.5 496.5 Q233 486 258.5 476 Q284 466 328 455 Q376 442 415.5 427.5 Q455 413 483 392 Q511 371 526 340 Q541 309 541 263 Q541 217 521.5 186 Q502 155 468 136 Q494 113 506.5 83.5 Q519 54 519 13 Q519 -32 498 -68 Q477 -104 441 -128.5 Q405 -153 355.5 -166.5 Q306 -180 249 -180 Q209 -180 175 -176.5 Q141 -173 115 -168 Q85 -163 60 -156 L60 15 L153 15 L153 -69 L169 -85 Q186 -87 210.5 -89 Q235 -91 258 -91 Q316 -91 350 -71 Q384 -51 384 -16 Q384 -1 380 11 Q376 23 362.5 33.5 Q349 44 323 54 Q297 64 254 75 Q206 88 166.5 102.5 Q127 117 99 138 Q71 159 56 190 Q41 221 41 267 Z M301 209 Q333 200 360.5 191 Q388 182 411 171 Q422 193 422 223 Q422 243 416 256.5 Q410 270 394 280.5 Q378 291 350.5 300.5 Q323 310 281 321 Q215 338 171 358 Q160 336 160 307 Q160 287 166 273 Q172 259 188 248.5 Q204 238 231.5 229 Q259 220 301 209 Z " />
<glyph glyph-name="dieresis" unicode="&#xa8;" horiz-adv-x="341" d="M23 670 Q23 696 41.5 715.5 Q60 735 89 735 Q118 735 135.5 715.5 Q153 696 153 670 Q153 643 135.5 624.5 Q118 606 89 606 Q60 606 41.5 624.5 Q23 643 23 670 Z M188 670 Q188 696 206 715.5 Q224 735 253 735 Q282 735 300 715.5 Q318 696 318 670 Q318 643 300 624.5 Q282 606 253 606 Q224 606 206 624.5 Q188 643 188 670 Z " />
<glyph glyph-name="copyright" unicode="&#xa9;" horiz-adv-x="795" d="M38 349 Q38 423 66 488.5 Q94 554 143 603 Q192 652 257 680.5 Q322 709 397 709 Q471 709 536.5 680.5 Q602 652 651 603 Q700 554 728.5 488.5 Q757 423 757 349 Q757 274 728.5 209 Q700 144 651 95 Q602 46 536.5 18 Q471 -10 397 -10 Q322 -10 257 18 Q192 46 143 95 Q94 144 66 209 Q38 274 38 349 Z M96 349 Q96 285 119.5 229 Q143 173 184 131.5 Q225 90 280 66 Q335 42 397 42 Q459 42 514 66 Q569 90 610 131.5 Q651 173 674.5 229 Q698 285 698 349 Q698 413 674.5 469 Q651 525 610 567 Q569 609 514 633 Q459 657 397 657 Q335 657 280 633 Q225 609 184 567 Q143 525 119.5 469 Q96 413 96 349 Z M542 145 Q521 136 489 127.5 Q457 119 406 119 Q298 119 239.5 178 Q181 237 181 349 Q181 457 243.5 518 Q306 579 420 579 Q443 579 464 576.5 Q485 574 501 572 Q519 568 534 565 L534 438 L466 438 L466 489 L455 500 Q448 501 438.5 501.5 Q429 502 420 502 Q362 501 337.5 463 Q313 425 313 358 Q313 280 339 239 Q365 198 425 198 L443 198 Q454 198 462 199 L474 211 L474 267 L542 267 L542 145 Z " />
<glyph glyph-name="ordfeminine" unicode="&#xaa;" horiz-adv-x="395" d="M354 440 L354 386 L249 386 Q231 386 226 394.5 Q221 403 221 412 L221 423 L219 423 Q216 419 208.5 411.5 Q201 404 190 397 Q179 390 165 385 Q151 380 133 380 Q85 380 61 408.5 Q37 437 37 475 Q37 518 67 541.5 Q97 565 148 565 L216 565 L216 594 Q216 607 215 618 Q214 629 208.5 637 Q203 645 192.5 649.5 Q182 654 163 654 L155 654 Q151 654 146 653 L137 643 L137 601 L66 601 L66 693 Q67 693 77 695.5 Q87 698 104.5 701.5 Q122 705 146.5 707.5 Q171 710 200 710 Q234 710 256.5 702 Q279 694 292.5 680 Q306 666 311.5 647.5 Q317 629 317 608 L317 451 L328 440 L354 440 Z M175 448 Q188 448 198.5 453 Q209 458 216 463 L216 516 L178 516 Q138 516 138 484 Q138 465 146 456.5 Q154 448 175 448 Z " />
<glyph glyph-name="guillemotleft" unicode="&#xab;" horiz-adv-x="512" d="M30.0172 232 L196.007 46 L273.002 46 L160.009 256 L273.002 463 L196.007 463 L30.0172 277 L30.0172 232 Z M230.017 232 L396.007 46 L473.002 46 L360.009 256 L473.002 463 L396.007 463 L230.017 277 L230.017 232 Z " />
<glyph glyph-name="logicalnot" unicode="&#xac;" horiz-adv-x="546" d="M57 386 L485 386 L485 157 L390 157 L390 292 L57 292 L57 386 Z " />
<glyph glyph-name="uni00AD" unicode="&#xad;" horiz-adv-x="349" d="M54 335 L295 335 L295 230 L54 230 L54 335 Z " />
<glyph glyph-name="registered" unicode="&#xae;" horiz-adv-x="654" d="M91 421 Q91 370 109.5 325.5 Q128 281 160.5 248 Q193 215 236 195.5 Q279 176 328 176 Q377 176 420 195.5 Q463 215 495 249 Q527 283 545.5 327 Q564 371 564 421 Q564 472 545.5 516.5 Q527 561 495 594 Q463 627 420 646.5 Q377 666 328 666 Q279 666 236 646.5 Q193 627 160.5 594 Q128 561 109.5 516.5 Q91 472 91 421 Z M301 514 L301 445 L336 445 Q358 445 365.5 453.5 Q373 462 373 481 Q373 496 365.5 505 Q358 514 336 514 L301 514 Z M201 318 L209 326 L209 518 L201 525 L181 525 L181 578 L338 578 Q398 578 433 557.5 Q468 537 468 491 Q468 471 461.5 457 Q455 443 445 434 Q435 425 423 420 Q411 415 399 414 L399 412 Q416 409 425 398.5 Q434 388 444 365 L462 325 L472 318 L485 318 L485 265 L400 265 Q376 265 371 288 L352 354 Q347 371 344 375.5 Q341 380 331 380 L301 380 L301 326 L309 318 L332 318 L332 265 L181 265 L181 318 L201 318 Z M41 421 Q41 481 63.5 533.5 Q86 586 125 625 Q164 664 216 687 Q268 710 327 710 Q387 710 439 687 Q491 664 530 625 Q569 586 591.5 533.5 Q614 481 614 421 Q614 361 591.5 308.5 Q569 256 530 217 Q491 178 439 155 Q387 132 327 132 Q268 132 216 155 Q164 178 125 217 Q86 256 63.5 308.5 Q41 361 41 421 Z " />
<glyph glyph-name="macron" unicode="&#xaf;" horiz-adv-x="400" d="M68 706 L332 706 L332 618 L68 618 L68 706 Z " />
<glyph glyph-name="degree" unicode="&#xb0;" horiz-adv-x="367" d="M33 559 Q33 590 45 617.5 Q57 645 77.5 665.5 Q98 686 125 698 Q152 710 183 710 Q214 710 241.5 698 Q269 686 289.5 665.5 Q310 645 322 617.5 Q334 590 334 559 Q334 528 322 501 Q310 474 289.5 453.5 Q269 433 241.5 421 Q214 409 183 409 Q152 409 125 421 Q98 433 77.5 453.5 Q57 474 45 501 Q33 528 33 559 Z M115 559 Q115 529 135.5 508 Q156 487 183 487 Q210 487 230 508 Q250 529 250 559 Q250 589 230 610 Q210 631 183 631 Q156 631 135.5 610 Q115 589 115 559 Z " />
<glyph glyph-name="plusminus" unicode="&#xb1;" horiz-adv-x="544" d="M58 461 L225 461 L225 603 L319 603 L319 461 L486 461 L486 367 L319 367 L319 225 L225 225 L225 367 L58 367 L58 461 Z M58 182 L486 182 L486 88 L58 88 L58 182 Z " />
<glyph glyph-name="twosuperior" unicode="&#xb2;" horiz-adv-x="293" d="M32 809 Q46 816 64 822 Q79 827 98.5 831 Q118 835 141 835 Q174 835 196.5 827.5 Q219 820 233 807 Q247 794 253 777 Q259 760 259 742 Q259 725 253.5 710.5 Q248 696 237 682.5 Q226 669 208 655.5 Q190 642 165 626 Q135 608 127.5 600.5 Q120 593 120 582 L120 573 L198 573 L206 581 L206 615 L266 615 L266 506 L27 506 L27 560 Q27 582 30.5 597 Q34 612 43.5 625 Q53 638 69 650 Q85 662 110 678 Q143 699 153 711.5 Q163 724 163 742 Q163 755 156 764 Q149 773 131 773 Q121 773 114.5 772 Q108 771 102 769 L94 761 L94 729 L32 729 L32 809 Z " />
<glyph glyph-name="threesuperior" unicode="&#xb3;" horiz-adv-x="285" d="M32 814 Q46 820 63 824 Q77 828 96 831.5 Q115 835 136 835 Q169 835 192 827.5 Q215 820 228.5 808 Q242 796 248 781 Q254 766 254 750 Q254 721 240.5 701 Q227 681 204 672 L204 669 Q231 661 246 644 Q261 627 261 598 Q261 580 254 563 Q247 546 232 532 Q217 518 193 509.5 Q169 501 135 501 Q113 501 94 504 Q75 507 60 511 Q42 515 27 522 L27 603 L91 603 L91 572 L97 564 Q107 559 124 559 Q144 559 153 571 Q162 583 162 601 Q162 645 128 645 L87 645 L87 700 L128 700 Q141 700 149 710 Q157 720 157 742 Q157 756 149 766 Q141 776 123 776 Q115 776 110.5 775 Q106 774 103 773 L95 765 L95 733 L32 733 L32 814 Z " />
<glyph glyph-name="acute" unicode="&#xb4;" horiz-adv-x="417" d="M136 577 L94 623 L225 756 L251 756 L322 668 L156 577 L136 577 Z " />
<glyph glyph-name="paragraph" unicode="&#xb6;" horiz-adv-x="641" d="M380 700 L380 -170 L300 -170 L300 250 Q237 250 186.5 264 Q136 278 100.5 306.5 Q65 335 45.5 377.5 Q26 420 26 478 Q26 536 45.5 578 Q65 620 101.5 647 Q138 674 189.5 687 Q241 700 304 700 L380 700 Z M540 597 L540 -170 L460 -170 L460 700 L602 700 L602 615 L558 615 L540 597 Z " />
<glyph glyph-name="periodcentered" unicode="&#xb7;" horiz-adv-x="259" d="M44 378 Q44 394 50.5 408.5 Q57 423 68.5 434 Q80 445 95.5 451.5 Q111 458 129 458 Q147 458 162.5 451.5 Q178 445 189.5 434 Q201 423 208 408.5 Q215 394 215 378 Q215 361 208 346.5 Q201 332 189.5 321 Q178 310 162.5 303.5 Q147 297 129 297 Q111 297 95.5 303.5 Q80 310 68.5 321 Q57 332 50.5 346.5 Q44 361 44 378 Z " />
<glyph glyph-name="cedilla" unicode="&#xb8;" horiz-adv-x="400" d="M173 -180 Q141 -180 111.5 -171.5 Q82 -163 65 -151 L86 -109 Q95 -114 117.5 -122 Q140 -130 160 -130 Q174 -130 183 -125.5 Q192 -121 192 -107 Q192 -90 169.5 -80.5 Q147 -71 109 -66 L109 -46 L161 15 L241 15 L200 -36 Q242 -38 268.5 -53.5 Q295 -69 295 -102 Q295 -124 284.5 -139 Q274 -154 257 -163 Q240 -172 218 -176 Q196 -180 173 -180 Z " />
<glyph glyph-name="onesuperior" unicode="&#xb9;" horiz-adv-x="233" d="M67 805 Q83 805 96 813.5 Q109 822 112 833 L170 833 L170 562 L178 554 L217 554 L217 506 L27 506 L27 554 L65 554 L73 562 L73 749 L65 757 L27 757 L27 805 L67 805 Z " />
<glyph glyph-name="ordmasculine" unicode="&#xba;" horiz-adv-x="370" d="M333 545 Q333 502 321.5 471 Q310 440 290 419.5 Q270 399 242.5 389.5 Q215 380 184 380 Q152 380 125 389.5 Q98 399 78.5 419.5 Q59 440 47.5 471 Q36 502 36 545 Q36 588 47.5 619 Q59 650 78.5 670 Q98 690 125 700 Q152 710 184 710 Q215 710 242.5 700 Q270 690 290 670 Q310 650 321.5 619 Q333 588 333 545 Z M230 545 Q230 598 221 623 Q212 648 184 648 Q157 648 148 623 Q139 598 139 545 Q139 492 148 467 Q157 442 184 442 Q212 442 221 467 Q230 492 230 545 Z " />
<glyph glyph-name="guillemotright" unicode="&#xbb;" horiz-adv-x="512" d="M282 232 L116 46 L39 46 L152 256 L39 463 L116 463 L282 277 L282 232 Z M482 232 L316 46 L239 46 L352 256 L239 463 L316 463 L482 277 L482 232 Z " />
<glyph glyph-name="onequarter" unicode="&#xbc;" horiz-adv-x="615" d="M436 327 L525 327 L525 139 L561 139 L561 87 L525 87 L525 56 L533 48 L561 48 L561 0 L388 0 L388 48 L422 48 L430 56 L430 87 L294 87 L294 133 L436 327 Z M430 139 L430 225 L365 139 L430 139 Z M100 675 Q116 675 129 683.5 Q142 692 145 703 L203 703 L203 432 L211 424 L250 424 L250 376 L60 376 L60 424 L98 424 L106 432 L106 619 L98 627 L60 627 L60 675 L100 675 Z M31 0 L518 700 L587 700 L101 0 L31 0 Z " />
<glyph glyph-name="onehalf" unicode="&#xbd;" horiz-adv-x="626" d="M348 303 Q362 310 380 316 Q395 321 414.5 325 Q434 329 457 329 Q490 329 512.5 321.5 Q535 314 549 301 Q563 288 569 271 Q575 254 575 236 Q575 219 569.5 204.5 Q564 190 553 176.5 Q542 163 524 149.5 Q506 136 481 120 Q451 102 443.5 94.5 Q436 87 436 76 L436 67 L514 67 L522 75 L522 109 L582 109 L582 0 L343 0 L343 54 Q343 76 346.5 91 Q350 106 359.5 119 Q369 132 385 144 Q401 156 426 172 Q459 193 469 205.5 Q479 218 479 236 Q479 249 472 258 Q465 267 447 267 Q437 267 430.5 266 Q424 265 418 263 L410 255 L410 223 L348 223 L348 303 Z M98 675 Q114 675 127 683.5 Q140 692 143 703 L201 703 L201 432 L209 424 L248 424 L248 376 L58 376 L58 424 L96 424 L104 432 L104 619 L96 627 L58 627 L58 675 L98 675 Z M29 0 L516 700 L585 700 L99 0 L29 0 Z " />
<glyph glyph-name="threequarters" unicode="&#xbe;" horiz-adv-x="630" d="M451 327 L540 327 L540 139 L576 139 L576 87 L540 87 L540 56 L548 48 L576 48 L576 0 L403 0 L403 48 L437 48 L445 56 L445 87 L309 87 L309 133 L451 327 Z M445 139 L445 225 L380 139 L445 139 Z M46 0 L533 700 L602 700 L116 0 L46 0 Z M54 684 Q68 690 85 694 Q99 698 118 701.5 Q137 705 158 705 Q191 705 214 697.5 Q237 690 250.5 678 Q264 666 270 651 Q276 636 276 620 Q276 591 262.5 571 Q249 551 226 542 L226 539 Q253 531 268 514 Q283 497 283 468 Q283 450 276 433 Q269 416 254 402 Q239 388 215 379.5 Q191 371 157 371 Q135 371 116 374 Q97 377 82 381 Q64 385 49 392 L49 473 L113 473 L113 442 L119 434 Q129 429 146 429 Q166 429 175 441 Q184 453 184 471 Q184 515 150 515 L109 515 L109 570 L150 570 Q163 570 171 580 Q179 590 179 612 Q179 626 171 636 Q163 646 145 646 Q137 646 132.5 645 Q128 644 125 643 L117 635 L117 603 L54 603 L54 684 Z " />
<glyph glyph-name="questiondown" unicode="&#xbf;" horiz-adv-x="520" d="M488.002 -113.961 Q459.004 -131.96 425.006 -146.959 Q396.008 -158.958 356.51 -169.457 Q317.013 -179.957 271.015 -179.957 Q203.019 -179.957 156.022 -164.958 Q109.025 -149.958 80.027 -124.96 Q51.0287 -99.9615 38.0295 -68.4635 Q25.0303 -36.9654 25.0303 -3.96741 Q25.0303 58.0288 56.0284 99.5263 Q87.0266 141.024 158.022 172.022 Q182.021 183.021 197.52 190.521 Q213.019 198.02 222.518 205.52 Q232.018 213.019 235.517 221.019 Q239.017 229.018 239.017 241.018 L239.017 261.016 L270.015 305.014 L345.011 305.014 L377.009 261.016 L377.009 241.018 Q377.009 208.02 369.009 186.021 Q361.01 164.022 346.011 148.523 Q331.012 133.024 309.513 121.525 Q288.014 110.026 261.016 97.0264 Q235.018 85.0272 221.018 72.028 Q207.019 59.0287 200.02 47.0295 Q193.02 35.0302 192.02 24.0309 Q191.02 13.0316 191.02 4.0321 Q191.02 -29.9658 213.519 -54.4643 Q236.017 -78.9628 289.014 -78.9628 Q316.013 -78.9628 339.011 -72.9632 Q362.01 -66.9636 381.009 -57.9641 L395.008 -43.965 L395.008 34.0303 L488.002 34.0303 L488.002 -113.961 Z M399.008 454.005 Q399.008 417.007 374.509 391.508 Q350.01 366.01 308.013 366.01 Q264.016 366.01 239.517 391.508 Q215.019 417.007 215.019 454.005 Q215.019 489.003 239.517 514.501 Q264.016 539.999 308.013 539.999 Q350.01 539.999 374.509 514.501 Q399.008 489.003 399.008 454.005 Z " />
<glyph glyph-name="Agrave" unicode="&#xc0;" horiz-adv-x="663" d="M424 181 L197 181 L172 101 L188 85 L231 85 L231 0 L-7 0 L-7 85 L28 85 L46 103 L258 702 L400 702 L622 101 L639 85 L674 85 L674 0 L401 0 L401 85 L437 85 L452 101 L424 181 Z M227 276 L390 276 L305 520 L227 276 Z M333 747 L313 747 L147 838 L218 926 L244 926 L375 793 L333 747 Z " />
<glyph glyph-name="Aacute" unicode="&#xc1;" horiz-adv-x="663" d="M424 181 L197 181 L172 101 L188 85 L231 85 L231 0 L-7 0 L-7 85 L28 85 L46 103 L258 702 L400 702 L622 101 L639 85 L674 85 L674 0 L401 0 L401 85 L437 85 L452 101 L424 181 Z M227 276 L390 276 L305 520 L227 276 Z M312 747 L270 793 L401 926 L427 926 L498 838 L332 747 L312 747 Z " />
<glyph glyph-name="Acircumflex" unicode="&#xc2;" horiz-adv-x="663" d="M424 181 L197 181 L172 101 L188 85 L231 85 L231 0 L-7 0 L-7 85 L28 85 L46 103 L258 702 L400 702 L622 101 L639 85 L674 85 L674 0 L401 0 L401 85 L437 85 L452 101 L424 181 Z M227 276 L390 276 L305 520 L227 276 Z M194 747 L165 782 L305 929 L354 929 L494 782 L465 747 L442 747 L330 816 L217 747 L194 747 Z " />
<glyph glyph-name="Atilde" unicode="&#xc3;" horiz-adv-x="663" d="M424 181 L197 181 L172 101 L188 85 L231 85 L231 0 L-7 0 L-7 85 L28 85 L46 103 L258 702 L400 702 L622 101 L639 85 L674 85 L674 0 L401 0 L401 85 L437 85 L452 101 L424 181 Z M227 276 L390 276 L305 520 L227 276 Z M491 898 L491 853 Q491 802 467.5 779.5 Q444 757 404 757 Q383 757 364 762.5 Q345 768 327 775 Q309 782 293 787.5 Q277 793 262 793 Q254 793 249.5 791.5 Q245 790 242 788 Q238 786 237 784 L237 746 L173 746 L173 787 Q173 848 196.5 870 Q220 892 256 892 Q277 892 295.5 885.5 Q314 879 332 871.5 Q350 864 367.5 857.5 Q385 851 403 851 Q412 851 417 853 Q422 855 425 858 Q428 861 429 865 L429 898 L491 898 Z " />
<glyph glyph-name="Adieresis" unicode="&#xc4;" horiz-adv-x="663" d="M424 181 L197 181 L172 101 L188 85 L231 85 L231 0 L-7 0 L-7 85 L28 85 L46 103 L258 702 L400 702 L622 101 L639 85 L674 85 L674 0 L401 0 L401 85 L437 85 L452 101 L424 181 Z M227 276 L390 276 L305 520 L227 276 Z M182 839 Q182 865 200.5 884.5 Q219 904 248 904 Q277 904 294.5 884.5 Q312 865 312 839 Q312 812 294.5 793.5 Q277 775 248 775 Q219 775 200.5 793.5 Q182 812 182 839 Z M347 839 Q347 865 365 884.5 Q383 904 412 904 Q441 904 459 884.5 Q477 865 477 839 Q477 812 459 793.5 Q441 775 412 775 Q383 775 365 793.5 Q347 812 347 839 Z " />
<glyph glyph-name="Aring" unicode="&#xc5;" horiz-adv-x="663" d="M424 181 L197 181 L172 101 L188 85 L231 85 L231 0 L-7 0 L-7 85 L28 85 L46 103 L258 702 L400 702 L622 101 L639 85 L674 85 L674 0 L401 0 L401 85 L437 85 L452 101 L424 181 Z M227 276 L390 276 L305 520 L227 276 Z M457 826 Q457 781 421 759.5 Q385 738 331 738 Q278 738 242 759.5 Q206 781 206 826 Q206 871 242 892.5 Q278 914 331 914 Q385 914 421 892.5 Q457 871 457 826 Z M375 826 Q375 870 331 870 Q288 870 288 826 Q288 782 331 782 Q375 782 375 826 Z " />
<glyph glyph-name="AE" unicode="&#xc6;" horiz-adv-x="981" d="M934 503 L841 503 L841 583 L823 600 L618 600 L618 406 L727 406 L744 422 L744 462 L829 462 L829 253 L744 253 L744 293 L728 308 L618 308 L618 100 L833 100 L851 117 L851 197 L944 197 L944 0 L394 0 L394 85 L438 85 L456 103 L456 184 L229 184 L183 94 L192 85 L229 85 L229 0 L-7 0 L-7 85 L34 85 L51 102 L376 700 L934 700 L934 503 Z M441 599 L276 278 L456 278 L456 599 L441 599 Z " />
<glyph glyph-name="Ccedilla" unicode="&#xc7;" horiz-adv-x="601" d="M567 30 Q536 16 489 3 Q442 -10 369 -10 Q291 -10 229.5 11 Q168 32 125 76 Q82 120 59.5 187.5 Q37 255 37 349 Q37 440 62.5 508 Q88 576 134 621 Q180 666 244.5 688 Q309 710 387 710 Q422 710 452.5 706.5 Q483 703 506 699 Q532 695 555 689 L555 499 L458 499 L458 584 L441 601 Q428 603 415 604 Q402 605 387 605 Q336 605 301.5 587 Q267 569 246 536.5 Q225 504 216 458.5 Q207 413 207 359 Q207 296 216.5 247.5 Q226 199 248 166 Q270 133 306 116 Q342 99 395 99 L424 99 Q438 99 452 101 L470 119 L470 211 L567 211 L567 30 Z M321 -180 Q289 -180 259.5 -171.5 Q230 -163 213 -151 L234 -109 Q243 -114 265.5 -122 Q288 -130 308 -130 Q322 -130 331 -125.5 Q340 -121 340 -107 Q340 -90 317.5 -80.5 Q295 -71 257 -66 L257 -46 L309 15 L389 15 L348 -36 Q390 -38 416.5 -53.5 Q443 -69 443 -102 Q443 -124 432.5 -139 Q422 -154 405 -163 Q388 -172 366 -176 Q344 -180 321 -180 Z " />
<glyph glyph-name="Egrave" unicode="&#xc8;" horiz-adv-x="627" d="M341 747 L321 747 L155 838 L226 926 L252 926 L383 793 L341 747 Z M264 600 L264 406 L373 406 L390 422 L390 462 L475 462 L475 253 L390 253 L390 293 L374 308 L264 308 L264 100 L479 100 L497 117 L497 197 L590 197 L590 0 L40 0 L40 85 L84 85 L102 103 L102 597 L84 615 L40 615 L40 700 L580 700 L580 503 L487 503 L487 583 L469 600 L264 600 Z " />
<glyph glyph-name="Eacute" unicode="&#xc9;" horiz-adv-x="627" d="M264 600 L264 406 L373 406 L390 422 L390 462 L475 462 L475 253 L390 253 L390 293 L374 308 L264 308 L264 100 L479 100 L497 117 L497 197 L590 197 L590 0 L40 0 L40 85 L84 85 L102 103 L102 597 L84 615 L40 615 L40 700 L580 700 L580 503 L487 503 L487 583 L469 600 L264 600 Z M320 747 L278 793 L409 926 L435 926 L506 838 L340 747 L320 747 Z " />
<glyph glyph-name="Ecircumflex" unicode="&#xca;" horiz-adv-x="627" d="M202 747 L173 782 L313 929 L362 929 L502 782 L473 747 L450 747 L338 816 L225 747 L202 747 Z M264 600 L264 406 L373 406 L390 422 L390 462 L475 462 L475 253 L390 253 L390 293 L374 308 L264 308 L264 100 L479 100 L497 117 L497 197 L590 197 L590 0 L40 0 L40 85 L84 85 L102 103 L102 597 L84 615 L40 615 L40 700 L580 700 L580 503 L487 503 L487 583 L469 600 L264 600 Z " />
<glyph glyph-name="Edieresis" unicode="&#xcb;" horiz-adv-x="627" d="M264 600 L264 406 L373 406 L390 422 L390 462 L475 462 L475 253 L390 253 L390 293 L374 308 L264 308 L264 100 L479 100 L497 117 L497 197 L590 197 L590 0 L40 0 L40 85 L84 85 L102 103 L102 597 L84 615 L40 615 L40 700 L580 700 L580 503 L487 503 L487 583 L469 600 L264 600 Z M190 839 Q190 865 208.5 884.5 Q227 904 256 904 Q285 904 302.5 884.5 Q320 865 320 839 Q320 812 302.5 793.5 Q285 775 256 775 Q227 775 208.5 793.5 Q190 812 190 839 Z M355 839 Q355 865 373 884.5 Q391 904 420 904 Q449 904 467 884.5 Q485 865 485 839 Q485 812 467 793.5 Q449 775 420 775 Q391 775 373 793.5 Q355 812 355 839 Z " />
<glyph glyph-name="Igrave" unicode="&#xcc;" horiz-adv-x="366" d="M102 597 L84 615 L40 615 L40 700 L326 700 L326 615 L281 615 L264 597 L264 103 L281 85 L326 85 L326 0 L40 0 L40 85 L84 85 L102 103 L102 597 Z M186 747 L166 747 L0 838 L71 926 L97 926 L228 793 L186 747 Z " />
<glyph glyph-name="Iacute" unicode="&#xcd;" horiz-adv-x="366" d="M102 597 L84 615 L40 615 L40 700 L326 700 L326 615 L281 615 L264 597 L264 103 L281 85 L326 85 L326 0 L40 0 L40 85 L84 85 L102 103 L102 597 Z M165 747 L123 793 L254 926 L280 926 L351 838 L185 747 L165 747 Z " />
<glyph glyph-name="Icircumflex" unicode="&#xce;" horiz-adv-x="366" d="M102 597 L84 615 L40 615 L40 700 L326 700 L326 615 L281 615 L264 597 L264 103 L281 85 L326 85 L326 0 L40 0 L40 85 L84 85 L102 103 L102 597 Z M47 747 L18 782 L158 929 L207 929 L347 782 L318 747 L295 747 L183 816 L70 747 L47 747 Z " />
<glyph glyph-name="Idieresis" unicode="&#xcf;" horiz-adv-x="366" d="M102 597 L84 615 L40 615 L40 700 L326 700 L326 615 L281 615 L264 597 L264 103 L281 85 L326 85 L326 0 L40 0 L40 85 L84 85 L102 103 L102 597 Z M35 839 Q35 865 53.5 884.5 Q72 904 101 904 Q130 904 147.5 884.5 Q165 865 165 839 Q165 812 147.5 793.5 Q130 775 101 775 Q72 775 53.5 793.5 Q35 812 35 839 Z M200 839 Q200 865 218 884.5 Q236 904 265 904 Q294 904 312 884.5 Q330 865 330 839 Q330 812 312 793.5 Q294 775 265 775 Q236 775 218 793.5 Q200 812 200 839 Z " />
<glyph glyph-name="Eth" unicode="&#xd0;" horiz-adv-x="704" d="M45 393 L102 393 L102 598 L84 616 L40 616 L40 701 L338 701 Q412 701 472.5 680 Q533 659 576.5 616.5 Q620 574 643.5 509 Q667 444 667 356 Q667 266 643.5 199 Q620 132 576.5 88 Q533 44 472.5 22.5 Q412 1 338 1 L40 1 L40 86 L84 86 L102 104 L102 320 L45 320 L45 393 Z M264 393 L413 393 L413 320 L264 320 L264 105 L338 105 Q383 105 413.5 120.5 Q444 136 462.5 167 Q481 198 489 245.5 Q497 293 497 356 Q497 417 489 462.5 Q481 508 462.5 538 Q444 568 413.5 582.5 Q383 597 338 597 L264 597 L264 393 Z " />
<glyph glyph-name="Ntilde" unicode="&#xd1;" horiz-adv-x="731" d="M533 898 L533 853 Q533 802 509.5 779.5 Q486 757 446 757 Q425 757 406 762.5 Q387 768 369 775 Q351 782 335 787.5 Q319 793 304 793 Q296 793 291.5 791.5 Q287 790 284 788 Q280 786 279 784 L279 746 L215 746 L215 787 Q215 848 238.5 870 Q262 892 298 892 Q319 892 337.5 885.5 Q356 879 374 871.5 Q392 864 409.5 857.5 Q427 851 445 851 Q454 851 459 853 Q464 855 467 858 Q470 861 471 865 L471 898 L533 898 Z M39 0 L39 85 L83 85 L101 103 L101 597 L83 615 L39 615 L39 700 L241 700 L517 275 L517 597 L499 615 L455 615 L455 700 L699 700 L699 615 L654 615 L637 597 L637 -3 L523 -3 L221 461 L221 103 L238 85 L283 85 L283 0 L39 0 Z " />
<glyph glyph-name="Ograve" unicode="&#xd2;" horiz-adv-x="674" d="M344 747 L324 747 L158 838 L229 926 L255 926 L386 793 L344 747 Z M37 350 Q37 441 59.5 509 Q82 577 122 621.5 Q162 666 217 688 Q272 710 337 710 Q402 710 457 688 Q512 666 552 621.5 Q592 577 614.5 509 Q637 441 637 350 Q637 258 614.5 190.5 Q592 123 552 78.5 Q512 34 457 12 Q402 -10 337 -10 Q272 -10 217 12 Q162 34 122 78.5 Q82 123 59.5 190.5 Q37 258 37 350 Z M207 350 Q207 220 236 158.5 Q265 97 337 97 Q409 97 438 158.5 Q467 220 467 350 Q467 480 438 541.5 Q409 603 337 603 Q265 603 236 541.5 Q207 480 207 350 Z " />
<glyph glyph-name="Oacute" unicode="&#xd3;" horiz-adv-x="674" d="M323 747 L281 793 L412 926 L438 926 L509 838 L343 747 L323 747 Z M37 350 Q37 441 59.5 509 Q82 577 122 621.5 Q162 666 217 688 Q272 710 337 710 Q402 710 457 688 Q512 666 552 621.5 Q592 577 614.5 509 Q637 441 637 350 Q637 258 614.5 190.5 Q592 123 552 78.5 Q512 34 457 12 Q402 -10 337 -10 Q272 -10 217 12 Q162 34 122 78.5 Q82 123 59.5 190.5 Q37 258 37 350 Z M207 350 Q207 220 236 158.5 Q265 97 337 97 Q409 97 438 158.5 Q467 220 467 350 Q467 480 438 541.5 Q409 603 337 603 Q265 603 236 541.5 Q207 480 207 350 Z " />
<glyph glyph-name="Ocircumflex" unicode="&#xd4;" horiz-adv-x="674" d="M205 747 L176 782 L316 929 L365 929 L505 782 L476 747 L453 747 L341 816 L228 747 L205 747 Z M37 350 Q37 441 59.5 509 Q82 577 122 621.5 Q162 666 217 688 Q272 710 337 710 Q402 710 457 688 Q512 666 552 621.5 Q592 577 614.5 509 Q637 441 637 350 Q637 258 614.5 190.5 Q592 123 552 78.5 Q512 34 457 12 Q402 -10 337 -10 Q272 -10 217 12 Q162 34 122 78.5 Q82 123 59.5 190.5 Q37 258 37 350 Z M207 350 Q207 220 236 158.5 Q265 97 337 97 Q409 97 438 158.5 Q467 220 467 350 Q467 480 438 541.5 Q409 603 337 603 Q265 603 236 541.5 Q207 480 207 350 Z " />
<glyph glyph-name="Otilde" unicode="&#xd5;" horiz-adv-x="674" d="M37 350 Q37 441 59.5 509 Q82 577 122 621.5 Q162 666 217 688 Q272 710 337 710 Q402 710 457 688 Q512 666 552 621.5 Q592 577 614.5 509 Q637 441 637 350 Q637 258 614.5 190.5 Q592 123 552 78.5 Q512 34 457 12 Q402 -10 337 -10 Q272 -10 217 12 Q162 34 122 78.5 Q82 123 59.5 190.5 Q37 258 37 350 Z M207 350 Q207 220 236 158.5 Q265 97 337 97 Q409 97 438 158.5 Q467 220 467 350 Q467 480 438 541.5 Q409 603 337 603 Q265 603 236 541.5 Q207 480 207 350 Z M502 898 L502 853 Q502 802 478.5 779.5 Q455 757 415 757 Q394 757 375 762.5 Q356 768 338 775 Q320 782 304 787.5 Q288 793 273 793 Q265 793 260.5 791.5 Q256 790 253 788 Q249 786 248 784 L248 746 L184 746 L184 787 Q184 848 207.5 870 Q231 892 267 892 Q288 892 306.5 885.5 Q325 879 343 871.5 Q361 864 378.5 857.5 Q396 851 414 851 Q423 851 428 853 Q433 855 436 858 Q439 861 440 865 L440 898 L502 898 Z " />
<glyph glyph-name="Odieresis" unicode="&#xd6;" horiz-adv-x="674" d="M37 350 Q37 441 59.5 509 Q82 577 122 621.5 Q162 666 217 688 Q272 710 337 710 Q402 710 457 688 Q512 666 552 621.5 Q592 577 614.5 509 Q637 441 637 350 Q637 258 614.5 190.5 Q592 123 552 78.5 Q512 34 457 12 Q402 -10 337 -10 Q272 -10 217 12 Q162 34 122 78.5 Q82 123 59.5 190.5 Q37 258 37 350 Z M207 350 Q207 220 236 158.5 Q265 97 337 97 Q409 97 438 158.5 Q467 220 467 350 Q467 480 438 541.5 Q409 603 337 603 Q265 603 236 541.5 Q207 480 207 350 Z M193 839 Q193 865 211.5 884.5 Q230 904 259 904 Q288 904 305.5 884.5 Q323 865 323 839 Q323 812 305.5 793.5 Q288 775 259 775 Q230 775 211.5 793.5 Q193 812 193 839 Z M358 839 Q358 865 376 884.5 Q394 904 423 904 Q452 904 470 884.5 Q488 865 488 839 Q488 812 470 793.5 Q452 775 423 775 Q394 775 376 793.5 Q358 812 358 839 Z " />
<glyph glyph-name="multiply" unicode="&#xd7;" horiz-adv-x="492" d="M44 206 L175 336 L44 467 L116 538 L246 407 L376 538 L448 467 L316 336 L448 206 L377 134 L246 266 L115 134 L44 206 Z " />
<glyph glyph-name="Oslash" unicode="&#xd8;" horiz-adv-x="678" d="M38 350 Q38 441 60.5 509 Q83 577 123 621.5 Q163 666 218 688 Q273 710 338 710 Q448 710 525 648 L570 710 L651 710 L571 598 Q603 553 620.5 492 Q638 431 638 350 Q638 258 615.5 190.5 Q593 123 553 78.5 Q513 34 458 12 Q403 -10 338 -10 Q238 -10 168 39 L133 -10 L51 -10 L118 84 Q80 129 59 194.5 Q38 260 38 350 Z M208 350 Q208 273 217 221 L442 533 Q412 603 338 603 Q266 603 237 541.5 Q208 480 208 350 Z M468 350 Q468 378 466.5 402.5 Q465 427 463 449 L244 145 Q275 97 338 97 Q410 97 439 158.5 Q468 220 468 350 Z " />
<glyph glyph-name="Ugrave" unicode="&#xd9;" horiz-adv-x="679" d="M362 747 L342 747 L176 838 L247 926 L273 926 L404 793 L362 747 Z M469 597 L451 615 L407 615 L407 700 L655 700 L655 615 L610 615 L593 597 L593 231 Q593 169 575.5 123.5 Q558 78 525.5 48.5 Q493 19 447.5 4.5 Q402 -10 346 -10 Q287 -10 239.5 4.5 Q192 19 158 48.5 Q124 78 105.5 123.5 Q87 169 87 231 L87 597 L69 615 L25 615 L25 700 L313 700 L313 615 L268 615 L251 597 L251 229 Q251 163 275 130 Q299 97 356 97 Q390 97 411.5 105.5 Q433 114 446 130.5 Q459 147 464 171.5 Q469 196 469 229 L469 597 Z " />
<glyph glyph-name="Uacute" unicode="&#xda;" horiz-adv-x="679" d="M469 597 L451 615 L407 615 L407 700 L655 700 L655 615 L610 615 L593 597 L593 231 Q593 169 575.5 123.5 Q558 78 525.5 48.5 Q493 19 447.5 4.5 Q402 -10 346 -10 Q287 -10 239.5 4.5 Q192 19 158 48.5 Q124 78 105.5 123.5 Q87 169 87 231 L87 597 L69 615 L25 615 L25 700 L313 700 L313 615 L268 615 L251 597 L251 229 Q251 163 275 130 Q299 97 356 97 Q390 97 411.5 105.5 Q433 114 446 130.5 Q459 147 464 171.5 Q469 196 469 229 L469 597 Z M341 747 L299 793 L430 926 L456 926 L527 838 L361 747 L341 747 Z " />
<glyph glyph-name="Ucircumflex" unicode="&#xdb;" horiz-adv-x="679" d="M223 747 L194 782 L334 929 L383 929 L523 782 L494 747 L471 747 L359 816 L246 747 L223 747 Z M469 597 L451 615 L407 615 L407 700 L655 700 L655 615 L610 615 L593 597 L593 231 Q593 169 575.5 123.5 Q558 78 525.5 48.5 Q493 19 447.5 4.5 Q402 -10 346 -10 Q287 -10 239.5 4.5 Q192 19 158 48.5 Q124 78 105.5 123.5 Q87 169 87 231 L87 597 L69 615 L25 615 L25 700 L313 700 L313 615 L268 615 L251 597 L251 229 Q251 163 275 130 Q299 97 356 97 Q390 97 411.5 105.5 Q433 114 446 130.5 Q459 147 464 171.5 Q469 196 469 229 L469 597 Z " />
<glyph glyph-name="Udieresis" unicode="&#xdc;" horiz-adv-x="679" d="M469 597 L451 615 L407 615 L407 700 L655 700 L655 615 L610 615 L593 597 L593 231 Q593 169 575.5 123.5 Q558 78 525.5 48.5 Q493 19 447.5 4.5 Q402 -10 346 -10 Q287 -10 239.5 4.5 Q192 19 158 48.5 Q124 78 105.5 123.5 Q87 169 87 231 L87 597 L69 615 L25 615 L25 700 L313 700 L313 615 L268 615 L251 597 L251 229 Q251 163 275 130 Q299 97 356 97 Q390 97 411.5 105.5 Q433 114 446 130.5 Q459 147 464 171.5 Q469 196 469 229 L469 597 Z M211 839 Q211 865 229.5 884.5 Q248 904 277 904 Q306 904 323.5 884.5 Q341 865 341 839 Q341 812 323.5 793.5 Q306 775 277 775 Q248 775 229.5 793.5 Q211 812 211 839 Z M376 839 Q376 865 394 884.5 Q412 904 441 904 Q470 904 488 884.5 Q506 865 506 839 Q506 812 488 793.5 Q470 775 441 775 Q412 775 394 793.5 Q376 812 376 839 Z " />
<glyph glyph-name="Yacute" unicode="&#xdd;" horiz-adv-x="624" d="M238 259 L40 598 L24 615 L-11 615 L-11 700 L271 700 L271 615 L235 615 L221 600 L338 391 L448 598 L433 615 L390 615 L390 700 L622 700 L622 615 L589 615 L572 598 L400 287 L400 103 L417 85 L462 85 L462 0 L176 0 L176 85 L220 85 L238 103 L238 259 Z M309 747 L267 793 L398 926 L424 926 L495 838 L329 747 L309 747 Z " />
<glyph glyph-name="Ygrave" unicode="&#x1ef2;" horiz-adv-x="624" d="M238 259 L40 598 L24 615 L-11 615 L-11 700 L271 700 L271 615 L235 615 L221 600 L338 391 L448 598 L433 615 L390 615 L390 700 L622 700 L622 615 L589 615 L572 598 L400 287 L400 103 L417 85 L462 85 L462 0 L176 0 L176 85 L220 85 L238 103 L238 259 Z M341 747 L321 747 L155 838 L226 926 L252 926 L383 793 L341 747 Z " />
<glyph glyph-name="Thorn" unicode="&#xde;" horiz-adv-x="639" d="M40 0 L40 85 L84 85 L102 103 L102 597 L84 615 L40 615 L40 700 L326 700 L326 615 L281 615 L264 597 L264 564 L338 564 Q401 564 452.5 552 Q504 540 540.5 515 Q577 490 596.5 451 Q616 412 616 358 Q616 304 596.5 264 Q577 224 540.5 198 Q504 172 452.5 159 Q401 146 338 146 L264 146 L264 103 L281 85 L326 85 L326 0 L40 0 Z M264 466 L264 244 L338 244 Q402 244 425 271 Q448 298 448 355 Q448 410 425 438 Q402 466 338 466 L264 466 Z " />
<glyph glyph-name="germandbls" unicode="&#xdf;" horiz-adv-x="625" d="M26 85 L70 85 L88 103 L88 445 L26 445 L26 528 L70 528 L88 546 L88 547 Q88 581 102.5 615.5 Q117 650 146.5 677.5 Q176 705 219.5 722.5 Q263 740 322 740 Q354 740 390.5 733 Q427 726 458.5 707 Q490 688 510.5 656 Q531 624 531 573 Q531 539 516 515 Q501 491 482.5 472.5 Q464 454 449 438.5 Q434 423 434 405 Q434 384 449 368 L538 280 Q560 258 577 235.5 Q594 213 604.5 187.5 Q615 162 615 131 Q615 69 574.5 29.5 Q534 -10 462 -10 Q430 -10 405.5 -7 Q381 -4 364 1 Q344 6 329 13 L329 141 L409 141 L409 83 L425 67 L430 67 Q451 67 462.5 78.5 Q474 90 474 119 Q474 143 449.5 168.5 Q425 194 392 223 Q347 261 326 293 Q305 325 305 367 Q305 387 312 401 Q319 415 330 427.5 Q341 440 353.5 452 Q366 464 377 480.5 Q388 497 395 518.5 Q402 540 402 571 Q402 603 394.5 623 Q387 643 375.5 654.5 Q364 666 350 670 Q336 674 323 674 Q306 674 291 669 Q276 664 264.5 651 Q253 638 246.5 615.5 Q240 593 240 559 L240 102 L257 84 L296 84 L296 0 L26 0 L26 85 Z " />
<glyph glyph-name="agrave" unicode="&#xe0;" horiz-adv-x="537" d="M525 0 L368 0 Q338 0 330 14 Q322 28 322 44 L322 63 L317 63 Q311 55 298.5 42.5 Q286 30 268 18.5 Q250 7 227 -1.5 Q204 -10 177 -10 Q136 -10 107 2 Q78 14 59.5 34.5 Q41 55 32 83 Q23 111 23 143 Q23 221 71 262 Q119 303 201 303 L313 303 L313 346 Q313 368 311 386 Q309 404 300.5 417.5 Q292 431 274 438.5 Q256 446 224 446 Q204 446 180 443 L165 428 L165 361 L68 361 L68 508 Q102 518 155 529 Q208 540 276 540 Q330 540 365.5 526.5 Q401 513 423 490 Q445 467 454 436 Q463 405 463 370 L463 98 L481 80 L525 80 L525 0 Z M236 103 Q261 103 281.5 113.5 Q302 124 313 132 L313 218 L242 218 Q206 218 189.5 203.5 Q173 189 173 160 Q173 133 187 118 Q201 103 236 103 Z M286 577 L266 577 L100 668 L171 756 L197 756 L328 623 L286 577 Z " />
<glyph glyph-name="aacute" unicode="&#xe1;" horiz-adv-x="537" d="M525 0 L368 0 Q338 0 330 14 Q322 28 322 44 L322 63 L317 63 Q311 55 298.5 42.5 Q286 30 268 18.5 Q250 7 227 -1.5 Q204 -10 177 -10 Q136 -10 107 2 Q78 14 59.5 34.5 Q41 55 32 83 Q23 111 23 143 Q23 221 71 262 Q119 303 201 303 L313 303 L313 346 Q313 368 311 386 Q309 404 300.5 417.5 Q292 431 274 438.5 Q256 446 224 446 Q204 446 180 443 L165 428 L165 361 L68 361 L68 508 Q102 518 155 529 Q208 540 276 540 Q330 540 365.5 526.5 Q401 513 423 490 Q445 467 454 436 Q463 405 463 370 L463 98 L481 80 L525 80 L525 0 Z M236 103 Q261 103 281.5 113.5 Q302 124 313 132 L313 218 L242 218 Q206 218 189.5 203.5 Q173 189 173 160 Q173 133 187 118 Q201 103 236 103 Z M265 577 L223 623 L354 756 L380 756 L451 668 L285 577 L265 577 Z " />
<glyph glyph-name="acircumflex" unicode="&#xe2;" horiz-adv-x="537" d="M525 0 L368 0 Q338 0 330 14 Q322 28 322 44 L322 63 L317 63 Q311 55 298.5 42.5 Q286 30 268 18.5 Q250 7 227 -1.5 Q204 -10 177 -10 Q136 -10 107 2 Q78 14 59.5 34.5 Q41 55 32 83 Q23 111 23 143 Q23 221 71 262 Q119 303 201 303 L313 303 L313 346 Q313 368 311 386 Q309 404 300.5 417.5 Q292 431 274 438.5 Q256 446 224 446 Q204 446 180 443 L165 428 L165 361 L68 361 L68 508 Q102 518 155 529 Q208 540 276 540 Q330 540 365.5 526.5 Q401 513 423 490 Q445 467 454 436 Q463 405 463 370 L463 98 L481 80 L525 80 L525 0 Z M236 103 Q261 103 281.5 113.5 Q302 124 313 132 L313 218 L242 218 Q206 218 189.5 203.5 Q173 189 173 160 Q173 133 187 118 Q201 103 236 103 Z M132 577 L105 610 L242 756 L288 756 L425 610 L398 577 L376 577 L265 650 L154 577 L132 577 Z " />
<glyph glyph-name="atilde" unicode="&#xe3;" horiz-adv-x="537" d="M525 0 L368 0 Q338 0 330 14 Q322 28 322 44 L322 63 L317 63 Q311 55 298.5 42.5 Q286 30 268 18.5 Q250 7 227 -1.5 Q204 -10 177 -10 Q136 -10 107 2 Q78 14 59.5 34.5 Q41 55 32 83 Q23 111 23 143 Q23 221 71 262 Q119 303 201 303 L313 303 L313 346 Q313 368 311 386 Q309 404 300.5 417.5 Q292 431 274 438.5 Q256 446 224 446 Q204 446 180 443 L165 428 L165 361 L68 361 L68 508 Q102 518 155 529 Q208 540 276 540 Q330 540 365.5 526.5 Q401 513 423 490 Q445 467 454 436 Q463 405 463 370 L463 98 L481 80 L525 80 L525 0 Z M236 103 Q261 103 281.5 113.5 Q302 124 313 132 L313 218 L242 218 Q206 218 189.5 203.5 Q173 189 173 160 Q173 133 187 118 Q201 103 236 103 Z M424 728 L424 683 Q424 632 400.5 609.5 Q377 587 337 587 Q316 587 297 592.5 Q278 598 260 605 Q242 612 226 617.5 Q210 623 195 623 Q187 623 182.5 621.5 Q178 620 175 618 Q171 616 170 614 L170 576 L106 576 L106 617 Q106 678 129.5 700 Q153 722 189 722 Q210 722 228.5 715.5 Q247 709 265 701.5 Q283 694 300.5 687.5 Q318 681 336 681 Q345 681 350 683 Q355 685 358 688 Q361 691 362 695 L362 728 L424 728 Z " />
<glyph glyph-name="adieresis" unicode="&#xe4;" horiz-adv-x="537" d="M525 0 L368 0 Q338 0 330 14 Q322 28 322 44 L322 63 L317 63 Q311 55 298.5 42.5 Q286 30 268 18.5 Q250 7 227 -1.5 Q204 -10 177 -10 Q136 -10 107 2 Q78 14 59.5 34.5 Q41 55 32 83 Q23 111 23 143 Q23 221 71 262 Q119 303 201 303 L313 303 L313 346 Q313 368 311 386 Q309 404 300.5 417.5 Q292 431 274 438.5 Q256 446 224 446 Q204 446 180 443 L165 428 L165 361 L68 361 L68 508 Q102 518 155 529 Q208 540 276 540 Q330 540 365.5 526.5 Q401 513 423 490 Q445 467 454 436 Q463 405 463 370 L463 98 L481 80 L525 80 L525 0 Z M236 103 Q261 103 281.5 113.5 Q302 124 313 132 L313 218 L242 218 Q206 218 189.5 203.5 Q173 189 173 160 Q173 133 187 118 Q201 103 236 103 Z M117 669 Q117 695 135.5 714.5 Q154 734 183 734 Q212 734 229.5 714.5 Q247 695 247 669 Q247 642 229.5 623.5 Q212 605 183 605 Q154 605 135.5 623.5 Q117 642 117 669 Z M282 669 Q282 695 300 714.5 Q318 734 347 734 Q376 734 394 714.5 Q412 695 412 669 Q412 642 394 623.5 Q376 605 347 605 Q318 605 300 623.5 Q282 642 282 669 Z " />
<glyph glyph-name="aring" unicode="&#xe5;" horiz-adv-x="537" d="M525 0 L368 0 Q338 0 330 14 Q322 28 322 44 L322 63 L317 63 Q311 55 298.5 42.5 Q286 30 268 18.5 Q250 7 227 -1.5 Q204 -10 177 -10 Q136 -10 107 2 Q78 14 59.5 34.5 Q41 55 32 83 Q23 111 23 143 Q23 221 71 262 Q119 303 201 303 L313 303 L313 346 Q313 368 311 386 Q309 404 300.5 417.5 Q292 431 274 438.5 Q256 446 224 446 Q204 446 180 443 L165 428 L165 361 L68 361 L68 508 Q102 518 155 529 Q208 540 276 540 Q330 540 365.5 526.5 Q401 513 423 490 Q445 467 454 436 Q463 405 463 370 L463 98 L481 80 L525 80 L525 0 Z M236 103 Q261 103 281.5 113.5 Q302 124 313 132 L313 218 L242 218 Q206 218 189.5 203.5 Q173 189 173 160 Q173 133 187 118 Q201 103 236 103 Z M390 656 Q390 611 354 589.5 Q318 568 264 568 Q211 568 175 589.5 Q139 611 139 656 Q139 701 175 722.5 Q211 744 264 744 Q318 744 354 722.5 Q390 701 390 656 Z M308 656 Q308 700 264 700 Q221 700 221 656 Q221 612 264 612 Q308 612 308 656 Z " />
<glyph glyph-name="ae" unicode="&#xe6;" horiz-adv-x="781" d="M468 224 Q476 149 514 118.5 Q552 88 610 88 Q652 88 682.5 96.5 Q713 105 726 109 L726 27 Q706 13 665 1.5 Q624 -10 558 -10 Q500 -10 449 10.5 Q398 31 364 76 Q354 65 336.5 50.5 Q319 36 295.5 22.5 Q272 9 242 -0.5 Q212 -10 177 -10 Q136 -10 107 2 Q78 14 59.5 34.5 Q41 55 32 83 Q23 111 23 143 Q23 221 71 262 Q119 303 201 303 L313 303 L313 346 Q313 368 311 386 Q309 404 300.5 417.5 Q292 431 274 438.5 Q256 446 224 446 Q204 446 180 443 L165 428 L165 361 L68 361 L68 508 Q102 518 155 529 Q208 540 276 540 Q324 540 354.5 524.5 Q385 509 402 483 Q454 540 543 540 Q646 540 700 481.5 Q754 423 754 325 L754 243 L736 224 L468 224 Z M542 444 Q505 444 488.5 411 Q472 378 468 309 L606 309 L606 344 Q606 395 592.5 419.5 Q579 444 542 444 Z M236 103 Q264 103 288.5 113 Q313 123 332 135 Q319 171 314 218 L242 218 Q206 218 189.5 203.5 Q173 189 173 160 Q173 133 187 118 Q201 103 236 103 Z " />
<glyph glyph-name="ccedilla" unicode="&#xe7;" horiz-adv-x="467" d="M432 30 Q412 10 370.5 0 Q329 -10 284 -10 Q233 -10 186.5 6 Q140 22 105 55 Q70 88 49 138.5 Q28 189 28 258 Q28 329 49.5 382 Q71 435 107.5 470 Q144 505 193 522.5 Q242 540 296 540 Q325 540 350.5 536.5 Q376 533 394 529 Q415 524 433 518 L433 348 L336 348 L336 429 L318 446 Q314 447 307 447 Q243 447 214.5 400 Q186 353 186 264 Q186 175 221.5 131.5 Q257 88 326 88 Q342 88 359 90.5 Q376 93 390.5 96 Q405 99 416 102 Q427 105 432 107 L432 30 Z M206 -180 Q174 -180 144.5 -171.5 Q115 -163 98 -151 L119 -109 Q128 -114 150.5 -122 Q173 -130 193 -130 Q207 -130 216 -125.5 Q225 -121 225 -107 Q225 -90 202.5 -80.5 Q180 -71 142 -66 L142 -46 L194 15 L274 15 L233 -36 Q275 -38 301.5 -53.5 Q328 -69 328 -102 Q328 -124 317.5 -139 Q307 -154 290 -163 Q273 -172 251 -176 Q229 -180 206 -180 Z " />
<glyph glyph-name="egrave" unicode="&#xe8;" horiz-adv-x="499" d="M454 224 L186 224 Q194 149 232 118.5 Q270 88 328 88 Q370 88 400.5 96.5 Q431 105 444 109 L444 27 Q424 13 383 1.5 Q342 -10 276 -10 Q226 -10 181.5 5 Q137 20 103 52.5 Q69 85 49 135 Q29 185 29 255 Q29 324 46.5 377 Q64 430 94.5 466.5 Q125 503 167.5 521.5 Q210 540 261 540 Q364 540 418 481.5 Q472 423 472 325 L472 243 L454 224 Z M260 444 Q223 444 206.5 411 Q190 378 186 309 L324 309 L324 344 Q324 395 310.5 419.5 Q297 444 260 444 Z M288 577 L268 577 L102 668 L173 756 L199 756 L330 623 L288 577 Z " />
<glyph glyph-name="eacute" unicode="&#xe9;" horiz-adv-x="499" d="M267 577 L225 623 L356 756 L382 756 L453 668 L287 577 L267 577 Z M454 224 L186 224 Q194 149 232 118.5 Q270 88 328 88 Q370 88 400.5 96.5 Q431 105 444 109 L444 27 Q424 13 383 1.5 Q342 -10 276 -10 Q226 -10 181.5 5 Q137 20 103 52.5 Q69 85 49 135 Q29 185 29 255 Q29 324 46.5 377 Q64 430 94.5 466.5 Q125 503 167.5 521.5 Q210 540 261 540 Q364 540 418 481.5 Q472 423 472 325 L472 243 L454 224 Z M260 444 Q223 444 206.5 411 Q190 378 186 309 L324 309 L324 344 Q324 395 310.5 419.5 Q297 444 260 444 Z " />
<glyph glyph-name="ecircumflex" unicode="&#xea;" horiz-adv-x="499" d="M134 577 L107 610 L244 756 L290 756 L427 610 L400 577 L378 577 L267 650 L156 577 L134 577 Z M454 224 L186 224 Q194 149 232 118.5 Q270 88 328 88 Q370 88 400.5 96.5 Q431 105 444 109 L444 27 Q424 13 383 1.5 Q342 -10 276 -10 Q226 -10 181.5 5 Q137 20 103 52.5 Q69 85 49 135 Q29 185 29 255 Q29 324 46.5 377 Q64 430 94.5 466.5 Q125 503 167.5 521.5 Q210 540 261 540 Q364 540 418 481.5 Q472 423 472 325 L472 243 L454 224 Z M260 444 Q223 444 206.5 411 Q190 378 186 309 L324 309 L324 344 Q324 395 310.5 419.5 Q297 444 260 444 Z " />
<glyph glyph-name="edieresis" unicode="&#xeb;" horiz-adv-x="499" d="M119 669 Q119 695 137.5 714.5 Q156 734 185 734 Q214 734 231.5 714.5 Q249 695 249 669 Q249 642 231.5 623.5 Q214 605 185 605 Q156 605 137.5 623.5 Q119 642 119 669 Z M284 669 Q284 695 302 714.5 Q320 734 349 734 Q378 734 396 714.5 Q414 695 414 669 Q414 642 396 623.5 Q378 605 349 605 Q320 605 302 623.5 Q284 642 284 669 Z M454 224 L186 224 Q194 149 232 118.5 Q270 88 328 88 Q370 88 400.5 96.5 Q431 105 444 109 L444 27 Q424 13 383 1.5 Q342 -10 276 -10 Q226 -10 181.5 5 Q137 20 103 52.5 Q69 85 49 135 Q29 185 29 255 Q29 324 46.5 377 Q64 430 94.5 466.5 Q125 503 167.5 521.5 Q210 540 261 540 Q364 540 418 481.5 Q472 423 472 325 L472 243 L454 224 Z M260 444 Q223 444 206.5 411 Q190 378 186 309 L324 309 L324 344 Q324 395 310.5 419.5 Q297 444 260 444 Z " />
<glyph glyph-name="igrave" unicode="&#xec;" horiz-adv-x="319" d="M194 530 Q224 530 232 516 Q240 502 240 486 L240 98 L257 80 L302 80 L302 0 L26 0 L26 80 L70 80 L88 98 L88 427 L70 445 L26 445 L26 530 L194 530 Z M183 577 L163 577 L-3 668 L68 756 L94 756 L225 623 L183 577 Z " />
<glyph glyph-name="iacute" unicode="&#xed;" horiz-adv-x="319" d="M161 577 L119 623 L250 756 L276 756 L347 668 L181 577 L161 577 Z M194 530 Q224 530 232 516 Q240 502 240 486 L240 98 L257 80 L302 80 L302 0 L26 0 L26 80 L70 80 L88 98 L88 427 L70 445 L26 445 L26 530 L194 530 Z " />
<glyph glyph-name="icircumflex" unicode="&#xee;" horiz-adv-x="319" d="M29 577 L2 610 L139 756 L185 756 L322 610 L295 577 L273 577 L162 650 L51 577 L29 577 Z M194 530 Q224 530 232 516 Q240 502 240 486 L240 98 L257 80 L302 80 L302 0 L26 0 L26 80 L70 80 L88 98 L88 427 L70 445 L26 445 L26 530 L194 530 Z " />
<glyph glyph-name="idieresis" unicode="&#xef;" horiz-adv-x="319" d="M14 669 Q14 695 32.5 714.5 Q51 734 80 734 Q109 734 126.5 714.5 Q144 695 144 669 Q144 642 126.5 623.5 Q109 605 80 605 Q51 605 32.5 623.5 Q14 642 14 669 Z M179 669 Q179 695 197 714.5 Q215 734 244 734 Q273 734 291 714.5 Q309 695 309 669 Q309 642 291 623.5 Q273 605 244 605 Q215 605 197 623.5 Q179 642 179 669 Z M194 530 Q224 530 232 516 Q240 502 240 486 L240 98 L257 80 L302 80 L302 0 L26 0 L26 80 L70 80 L88 98 L88 427 L70 445 L26 445 L26 530 L194 530 Z " />
<glyph glyph-name="eth" unicode="&#xf0;" horiz-adv-x="546" d="M167 622 L214 643 Q188 669 164 690 L211 741 Q260 718 307 685 L378 717 L403 663 L357 643 Q430 573 472.5 478 Q515 383 515 265 Q515 195 495.5 143 Q476 91 443 57 Q410 23 366 6.5 Q322 -10 272 -10 Q222 -10 178 6.5 Q134 23 101 57 Q68 91 48.5 143 Q29 195 29 265 Q29 335 48.5 387 Q68 439 101 473 Q134 507 178 523.5 Q222 540 272 540 Q288 540 303 537 Q292 553 280.5 568 Q269 583 256 598 L191 569 L167 622 Z M357 265 Q357 353 339 397.5 Q321 442 272 442 Q223 442 205 397.5 Q187 353 187 265 Q187 177 205 132.5 Q223 88 272 88 Q321 88 339 132.5 Q357 177 357 265 Z " />
<glyph glyph-name="ntilde" unicode="&#xf1;" horiz-adv-x="616" d="M26 0 L26 80 L70 80 L88 98 L88 427 L70 445 L26 445 L26 530 L185 530 Q215 530 223 516 Q231 502 231 486 L231 468 L234 468 Q240 475 253 487.5 Q266 500 285 511.5 Q304 523 328.5 531.5 Q353 540 383 540 Q428 540 457.5 527.5 Q487 515 504.5 493 Q522 471 529.5 442 Q537 413 537 380 L537 98 L555 80 L599 80 L599 0 L335 0 L335 80 L368 80 L385 98 L385 356 Q385 367 383.5 379.5 Q382 392 375.5 402.5 Q369 413 356 420 Q343 427 319 427 Q293 427 272 417.5 Q251 408 240 400 L240 98 L257 80 L290 80 L290 0 L26 0 Z M469 728 L469 683 Q469 632 445.5 609.5 Q422 587 382 587 Q361 587 342 592.5 Q323 598 305 605 Q287 612 271 617.5 Q255 623 240 623 Q232 623 227.5 621.5 Q223 620 220 618 Q216 616 215 614 L215 576 L151 576 L151 617 Q151 678 174.5 700 Q198 722 234 722 Q255 722 273.5 715.5 Q292 709 310 701.5 Q328 694 345.5 687.5 Q363 681 381 681 Q390 681 395 683 Q400 685 403 688 Q406 691 407 695 L407 728 L469 728 Z " />
<glyph glyph-name="ograve" unicode="&#xf2;" horiz-adv-x="544" d="M515 265 Q515 195 495.5 143 Q476 91 443 57 Q410 23 366 6.5 Q322 -10 272 -10 Q222 -10 178 6.5 Q134 23 101 57 Q68 91 48.5 143 Q29 195 29 265 Q29 335 48.5 387 Q68 439 101 473 Q134 507 178 523.5 Q222 540 272 540 Q322 540 366 523.5 Q410 507 443 473 Q476 439 495.5 387 Q515 335 515 265 Z M357 265 Q357 353 339 397.5 Q321 442 272 442 Q223 442 205 397.5 Q187 353 187 265 Q187 177 205 132.5 Q223 88 272 88 Q321 88 339 132.5 Q357 177 357 265 Z M302 577 L282 577 L116 668 L187 756 L213 756 L344 623 L302 577 Z " />
<glyph glyph-name="oacute" unicode="&#xf3;" horiz-adv-x="544" d="M281 577 L239 623 L370 756 L396 756 L467 668 L301 577 L281 577 Z M515 265 Q515 195 495.5 143 Q476 91 443 57 Q410 23 366 6.5 Q322 -10 272 -10 Q222 -10 178 6.5 Q134 23 101 57 Q68 91 48.5 143 Q29 195 29 265 Q29 335 48.5 387 Q68 439 101 473 Q134 507 178 523.5 Q222 540 272 540 Q322 540 366 523.5 Q410 507 443 473 Q476 439 495.5 387 Q515 335 515 265 Z M357 265 Q357 353 339 397.5 Q321 442 272 442 Q223 442 205 397.5 Q187 353 187 265 Q187 177 205 132.5 Q223 88 272 88 Q321 88 339 132.5 Q357 177 357 265 Z " />
<glyph glyph-name="ocircumflex" unicode="&#xf4;" horiz-adv-x="544" d="M148 577 L121 610 L258 756 L304 756 L441 610 L414 577 L392 577 L281 650 L170 577 L148 577 Z M515 265 Q515 195 495.5 143 Q476 91 443 57 Q410 23 366 6.5 Q322 -10 272 -10 Q222 -10 178 6.5 Q134 23 101 57 Q68 91 48.5 143 Q29 195 29 265 Q29 335 48.5 387 Q68 439 101 473 Q134 507 178 523.5 Q222 540 272 540 Q322 540 366 523.5 Q410 507 443 473 Q476 439 495.5 387 Q515 335 515 265 Z M357 265 Q357 353 339 397.5 Q321 442 272 442 Q223 442 205 397.5 Q187 353 187 265 Q187 177 205 132.5 Q223 88 272 88 Q321 88 339 132.5 Q357 177 357 265 Z " />
<glyph glyph-name="otilde" unicode="&#xf5;" horiz-adv-x="544" d="M515 265 Q515 195 495.5 143 Q476 91 443 57 Q410 23 366 6.5 Q322 -10 272 -10 Q222 -10 178 6.5 Q134 23 101 57 Q68 91 48.5 143 Q29 195 29 265 Q29 335 48.5 387 Q68 439 101 473 Q134 507 178 523.5 Q222 540 272 540 Q322 540 366 523.5 Q410 507 443 473 Q476 439 495.5 387 Q515 335 515 265 Z M357 265 Q357 353 339 397.5 Q321 442 272 442 Q223 442 205 397.5 Q187 353 187 265 Q187 177 205 132.5 Q223 88 272 88 Q321 88 339 132.5 Q357 177 357 265 Z M440 728 L440 683 Q440 632 416.5 609.5 Q393 587 353 587 Q332 587 313 592.5 Q294 598 276 605 Q258 612 242 617.5 Q226 623 211 623 Q203 623 198.5 621.5 Q194 620 191 618 Q187 616 186 614 L186 576 L122 576 L122 617 Q122 678 145.5 700 Q169 722 205 722 Q226 722 244.5 715.5 Q263 709 281 701.5 Q299 694 316.5 687.5 Q334 681 352 681 Q361 681 366 683 Q371 685 374 688 Q377 691 378 695 L378 728 L440 728 Z " />
<glyph glyph-name="odieresis" unicode="&#xf6;" horiz-adv-x="544" d="M133 669 Q133 695 151.5 714.5 Q170 734 199 734 Q228 734 245.5 714.5 Q263 695 263 669 Q263 642 245.5 623.5 Q228 605 199 605 Q170 605 151.5 623.5 Q133 642 133 669 Z M298 669 Q298 695 316 714.5 Q334 734 363 734 Q392 734 410 714.5 Q428 695 428 669 Q428 642 410 623.5 Q392 605 363 605 Q334 605 316 623.5 Q298 642 298 669 Z M515 265 Q515 195 495.5 143 Q476 91 443 57 Q410 23 366 6.5 Q322 -10 272 -10 Q222 -10 178 6.5 Q134 23 101 57 Q68 91 48.5 143 Q29 195 29 265 Q29 335 48.5 387 Q68 439 101 473 Q134 507 178 523.5 Q222 540 272 540 Q322 540 366 523.5 Q410 507 443 473 Q476 439 495.5 387 Q515 335 515 265 Z M357 265 Q357 353 339 397.5 Q321 442 272 442 Q223 442 205 397.5 Q187 353 187 265 Q187 177 205 132.5 Q223 88 272 88 Q321 88 339 132.5 Q357 177 357 265 Z " />
<glyph glyph-name="divide" unicode="&#xf7;" horiz-adv-x="512" d="M42 386 L470 386 L470 291 L42 291 L42 386 Z M190 175 Q190 203 210 222 Q230 241 256 241 Q282 241 302 222 Q322 203 322 175 Q322 149 302 129.5 Q282 110 256 110 Q230 110 210 129.5 Q190 149 190 175 Z M190 501 Q190 529 210 548 Q230 567 256 567 Q282 567 302 548 Q322 529 322 501 Q322 475 302 455.5 Q282 436 256 436 Q230 436 210 455.5 Q190 475 190 501 Z " />
<glyph glyph-name="oslash" unicode="&#xf8;" horiz-adv-x="550" d="M42 -10 L96 64 Q66 98 48.5 148 Q31 198 31 265 Q31 335 50.5 387 Q70 439 103 473 Q136 507 180 523.5 Q224 540 274 540 Q313 540 349 529.5 Q385 519 415 498 L445 540 L522 540 L460 455 Q486 421 501.5 374 Q517 327 517 265 Q517 195 497.5 143 Q478 91 445 57 Q412 23 368 6.5 Q324 -10 274 -10 Q239 -10 206 -1.5 Q173 7 145 24 L120 -10 L42 -10 Z M189 265 Q189 225 192 195 L341 397 Q321 442 274 442 Q225 442 207 397.5 Q189 353 189 265 Z M359 265 Q359 279 358.5 291 Q358 303 357 314 L214 119 Q235 88 274 88 Q323 88 341 132.5 Q359 177 359 265 Z " />
<glyph glyph-name="ugrave" unicode="&#xf9;" horiz-adv-x="600" d="M476 530 Q506 530 514 516 Q522 502 522 486 L522 98 L540 80 L584 80 L584 0 L425 0 Q395 0 387 14 Q379 28 379 44 L379 62 L376 62 Q369 54 356 41.5 Q343 29 325 17.5 Q307 6 283.5 -2 Q260 -10 232 -10 Q187 -10 157.5 2.5 Q128 15 110.5 37 Q93 59 85.5 88 Q78 117 78 150 L78 427 L60 445 L16 445 L16 530 L184 530 Q214 530 222 514 Q230 498 230 481 L230 174 Q230 163 231.5 150.5 Q233 138 239 127.5 Q245 117 257 110 Q269 103 291 103 Q317 103 337.5 112.5 Q358 122 370 130 L370 427 L352 445 L308 445 L308 530 L476 530 Z M298 577 L278 577 L112 668 L183 756 L209 756 L340 623 L298 577 Z " />
<glyph glyph-name="uacute" unicode="&#xfa;" horiz-adv-x="600" d="M277 577 L235 623 L366 756 L392 756 L463 668 L297 577 L277 577 Z M476 530 Q506 530 514 516 Q522 502 522 486 L522 98 L540 80 L584 80 L584 0 L425 0 Q395 0 387 14 Q379 28 379 44 L379 62 L376 62 Q369 54 356 41.5 Q343 29 325 17.5 Q307 6 283.5 -2 Q260 -10 232 -10 Q187 -10 157.5 2.5 Q128 15 110.5 37 Q93 59 85.5 88 Q78 117 78 150 L78 427 L60 445 L16 445 L16 530 L184 530 Q214 530 222 514 Q230 498 230 481 L230 174 Q230 163 231.5 150.5 Q233 138 239 127.5 Q245 117 257 110 Q269 103 291 103 Q317 103 337.5 112.5 Q358 122 370 130 L370 427 L352 445 L308 445 L308 530 L476 530 Z " />
<glyph glyph-name="ucircumflex" unicode="&#xfb;" horiz-adv-x="600" d="M144 577 L117 610 L254 756 L300 756 L437 610 L410 577 L388 577 L277 650 L166 577 L144 577 Z M476 530 Q506 530 514 516 Q522 502 522 486 L522 98 L540 80 L584 80 L584 0 L425 0 Q395 0 387 14 Q379 28 379 44 L379 62 L376 62 Q369 54 356 41.5 Q343 29 325 17.5 Q307 6 283.5 -2 Q260 -10 232 -10 Q187 -10 157.5 2.5 Q128 15 110.5 37 Q93 59 85.5 88 Q78 117 78 150 L78 427 L60 445 L16 445 L16 530 L184 530 Q214 530 222 514 Q230 498 230 481 L230 174 Q230 163 231.5 150.5 Q233 138 239 127.5 Q245 117 257 110 Q269 103 291 103 Q317 103 337.5 112.5 Q358 122 370 130 L370 427 L352 445 L308 445 L308 530 L476 530 Z " />
<glyph glyph-name="udieresis" unicode="&#xfc;" horiz-adv-x="600" d="M129 669 Q129 695 147.5 714.5 Q166 734 195 734 Q224 734 241.5 714.5 Q259 695 259 669 Q259 642 241.5 623.5 Q224 605 195 605 Q166 605 147.5 623.5 Q129 642 129 669 Z M294 669 Q294 695 312 714.5 Q330 734 359 734 Q388 734 406 714.5 Q424 695 424 669 Q424 642 406 623.5 Q388 605 359 605 Q330 605 312 623.5 Q294 642 294 669 Z M476 530 Q506 530 514 516 Q522 502 522 486 L522 98 L540 80 L584 80 L584 0 L425 0 Q395 0 387 14 Q379 28 379 44 L379 62 L376 62 Q369 54 356 41.5 Q343 29 325 17.5 Q307 6 283.5 -2 Q260 -10 232 -10 Q187 -10 157.5 2.5 Q128 15 110.5 37 Q93 59 85.5 88 Q78 117 78 150 L78 427 L60 445 L16 445 L16 530 L184 530 Q214 530 222 514 Q230 498 230 481 L230 174 Q230 163 231.5 150.5 Q233 138 239 127.5 Q245 117 257 110 Q269 103 291 103 Q317 103 337.5 112.5 Q358 122 370 130 L370 427 L352 445 L308 445 L308 530 L476 530 Z " />
<glyph glyph-name="yacute" unicode="&#xfd;" horiz-adv-x="558" d="M522 445 L504 427 L317 -72 L334 -90 L373 -90 L373 -170 L127 -170 L127 -90 L192 -90 L210 -72 L231 -13 L52 428 L35 445 L2 445 L2 530 L262 530 L262 445 L233 445 L216 427 L301 184 L388 427 L371 445 L338 445 L338 530 L552 530 L552 445 L522 445 Z M295 577 L253 623 L384 756 L410 756 L481 668 L315 577 L295 577 Z " />
<glyph glyph-name="ygrave" unicode="&#x1ef3;" horiz-adv-x="558" d="M522 445 L504 427 L317 -72 L334 -90 L373 -90 L373 -170 L127 -170 L127 -90 L192 -90 L210 -72 L231 -13 L52 428 L35 445 L2 445 L2 530 L262 530 L262 445 L233 445 L216 427 L301 184 L388 427 L371 445 L338 445 L338 530 L552 530 L552 445 L522 445 Z M311 577 L291 577 L125 668 L196 756 L222 756 L353 623 L311 577 Z " />
<glyph glyph-name="thorn" unicode="&#xfe;" horiz-adv-x="578" d="M5 730 L173 730 Q203 730 211 716 Q219 702 219 686 L219 473 Q241 500 275 520 Q309 540 359 540 Q399 540 433.5 523 Q468 506 493.5 472.5 Q519 439 533.5 388.5 Q548 338 548 272 Q548 205 531 152.5 Q514 100 485.5 64 Q457 28 418.5 9 Q380 -10 337 -10 Q299 -10 269.5 5.5 Q240 21 219 42 L219 -72 L236 -90 L287 -90 L287 -170 L5 -170 L5 -90 L49 -90 L67 -72 L67 627 L49 645 L5 645 L5 730 Z M298 428 Q282 428 260.5 422.5 Q239 417 219 401 L219 131 Q253 98 300 98 Q345 98 367.5 138 Q390 178 390 270 Q390 316 384.5 346.5 Q379 377 367.5 395 Q356 413 338.5 420.5 Q321 428 298 428 Z " />
<glyph glyph-name="ydieresis" unicode="&#xff;" horiz-adv-x="558" d="M522 445 L504 427 L317 -72 L334 -90 L373 -90 L373 -170 L127 -170 L127 -90 L192 -90 L210 -72 L231 -13 L52 428 L35 445 L2 445 L2 530 L262 530 L262 445 L233 445 L216 427 L301 184 L388 427 L371 445 L338 445 L338 530 L552 530 L552 445 L522 445 Z M147 669 Q147 695 165.5 714.5 Q184 734 213 734 Q242 734 259.5 714.5 Q277 695 277 669 Q277 642 259.5 623.5 Q242 605 213 605 Q184 605 165.5 623.5 Q147 642 147 669 Z M312 669 Q312 695 330 714.5 Q348 734 377 734 Q406 734 424 714.5 Q442 695 442 669 Q442 642 424 623.5 Q406 605 377 605 Q348 605 330 623.5 Q312 642 312 669 Z " />
<glyph glyph-name="Amacron" unicode="&#x100;" horiz-adv-x="663" d="M424 181 L197 181 L172 101 L188 85 L231 85 L231 0 L-7 0 L-7 85 L28 85 L46 103 L258 702 L400 702 L622 101 L639 85 L674 85 L674 0 L401 0 L401 85 L437 85 L452 101 L424 181 Z M227 276 L390 276 L305 520 L227 276 Z M200 876 L464 876 L464 788 L200 788 L200 876 Z " />
<glyph glyph-name="amacron" unicode="&#x101;" horiz-adv-x="537" d="M525 0 L368 0 Q338 0 330 14 Q322 28 322 44 L322 63 L317 63 Q311 55 298.5 42.5 Q286 30 268 18.5 Q250 7 227 -1.5 Q204 -10 177 -10 Q136 -10 107 2 Q78 14 59.5 34.5 Q41 55 32 83 Q23 111 23 143 Q23 221 71 262 Q119 303 201 303 L313 303 L313 346 Q313 368 311 386 Q309 404 300.5 417.5 Q292 431 274 438.5 Q256 446 224 446 Q204 446 180 443 L165 428 L165 361 L68 361 L68 508 Q102 518 155 529 Q208 540 276 540 Q330 540 365.5 526.5 Q401 513 423 490 Q445 467 454 436 Q463 405 463 370 L463 98 L481 80 L525 80 L525 0 Z M236 103 Q261 103 281.5 113.5 Q302 124 313 132 L313 218 L242 218 Q206 218 189.5 203.5 Q173 189 173 160 Q173 133 187 118 Q201 103 236 103 Z M133 706 L397 706 L397 618 L133 618 L133 706 Z " />
<glyph glyph-name="Abreve" unicode="&#x102;" horiz-adv-x="663" d="M424 181 L197 181 L172 101 L188 85 L231 85 L231 0 L-7 0 L-7 85 L28 85 L46 103 L258 702 L400 702 L622 101 L639 85 L674 85 L674 0 L401 0 L401 85 L437 85 L452 101 L424 181 Z M227 276 L390 276 L305 520 L227 276 Z M465 876 Q460 853 450 832.5 Q440 812 423.5 795.5 Q407 779 384.5 769.5 Q362 760 333 760 Q304 760 281.5 769.5 Q259 779 242.5 795.5 Q226 812 215.5 832.5 Q205 853 201 876 L271 895 Q277 875 292 858.5 Q307 842 334 842 Q363 842 380 857 Q397 872 403 891 L465 876 Z " />
<glyph glyph-name="abreve" unicode="&#x103;" horiz-adv-x="537" d="M525 0 L368 0 Q338 0 330 14 Q322 28 322 44 L322 63 L317 63 Q311 55 298.5 42.5 Q286 30 268 18.5 Q250 7 227 -1.5 Q204 -10 177 -10 Q136 -10 107 2 Q78 14 59.5 34.5 Q41 55 32 83 Q23 111 23 143 Q23 221 71 262 Q119 303 201 303 L313 303 L313 346 Q313 368 311 386 Q309 404 300.5 417.5 Q292 431 274 438.5 Q256 446 224 446 Q204 446 180 443 L165 428 L165 361 L68 361 L68 508 Q102 518 155 529 Q208 540 276 540 Q330 540 365.5 526.5 Q401 513 423 490 Q445 467 454 436 Q463 405 463 370 L463 98 L481 80 L525 80 L525 0 Z M236 103 Q261 103 281.5 113.5 Q302 124 313 132 L313 218 L242 218 Q206 218 189.5 203.5 Q173 189 173 160 Q173 133 187 118 Q201 103 236 103 Z M396 706 Q391 683 381 662.5 Q371 642 354.5 625.5 Q338 609 315.5 599.5 Q293 590 264 590 Q235 590 212.5 599.5 Q190 609 173.5 625.5 Q157 642 146.5 662.5 Q136 683 132 706 L202 725 Q208 705 223 688.5 Q238 672 265 672 Q294 672 311 687 Q328 702 334 721 L396 706 Z " />
<glyph glyph-name="Aogonek" unicode="&#x104;" horiz-adv-x="662" d="M423 181 L196 181 L171 101 L187 85 L230 85 L230 0 L-8 0 L-8 85 L27 85 L45 103 L257 702 L399 702 L621 101 L638 85 L673 85 L673 0 L638 0 Q592 -9 565.5 -28.5 Q539 -48 539 -77 Q539 -106 553.5 -116 Q568 -126 591 -126 Q605 -126 622 -120 Q639 -114 645 -109 L666 -151 Q649 -163 619.5 -171.5 Q590 -180 558 -180 Q502 -180 469 -160.5 Q436 -141 436 -97 Q436 -64 455.5 -40.5 Q475 -17 506 0 L400 0 L400 85 L436 85 L451 101 L423 181 Z M226 276 L389 276 L304 520 L226 276 Z " />
<glyph glyph-name="aogonek" unicode="&#x105;" horiz-adv-x="537" d="M525 0 L486 0 Q440 -9 413.5 -28.5 Q387 -48 387 -77 Q387 -106 401.5 -116 Q416 -126 439 -126 Q453 -126 470 -120 Q487 -114 493 -109 L514 -151 Q497 -163 467.5 -171.5 Q438 -180 406 -180 Q350 -180 317 -160.5 Q284 -141 284 -97 Q284 -64 304 -40 Q324 -16 356 0 Q333 3 327.5 16.5 Q322 30 322 44 L322 63 L317 63 Q311 55 298.5 42.5 Q286 30 268 18.5 Q250 7 227 -1.5 Q204 -10 177 -10 Q136 -10 107 2 Q78 14 59.5 34.5 Q41 55 32 83 Q23 111 23 143 Q23 221 71 262 Q119 303 201 303 L313 303 L313 346 Q313 368 311 386 Q309 404 300.5 417.5 Q292 431 274 438.5 Q256 446 224 446 Q204 446 180 443 L165 428 L165 361 L68 361 L68 508 Q102 518 155 529 Q208 540 276 540 Q330 540 365.5 526.5 Q401 513 423 490 Q445 467 454 436 Q463 405 463 370 L463 98 L481 80 L525 80 L525 0 Z M236 103 Q261 103 281.5 113.5 Q302 124 313 132 L313 218 L242 218 Q206 218 189.5 203.5 Q173 189 173 160 Q173 133 187 118 Q201 103 236 103 Z " />
<glyph glyph-name="Cacute" unicode="&#x106;" horiz-adv-x="601" d="M567 30 Q536 16 489 3 Q442 -10 369 -10 Q291 -10 229.5 11 Q168 32 125 76 Q82 120 59.5 187.5 Q37 255 37 349 Q37 440 62.5 508 Q88 576 134 621 Q180 666 244.5 688 Q309 710 387 710 Q422 710 452.5 706.5 Q483 703 506 699 Q532 695 555 689 L555 499 L458 499 L458 584 L441 601 Q428 603 415 604 Q402 605 387 605 Q336 605 301.5 587 Q267 569 246 536.5 Q225 504 216 458.5 Q207 413 207 359 Q207 296 216.5 247.5 Q226 199 248 166 Q270 133 306 116 Q342 99 395 99 L424 99 Q438 99 452 101 L470 119 L470 211 L567 211 L567 30 Z M358 747 L316 793 L447 926 L473 926 L544 838 L378 747 L358 747 Z " />
<glyph glyph-name="cacute" unicode="&#x107;" horiz-adv-x="467" d="M295 577 L253 623 L384 756 L410 756 L481 668 L315 577 L295 577 Z M432 30 Q412 10 370.5 0 Q329 -10 284 -10 Q233 -10 186.5 6 Q140 22 105 55 Q70 88 49 138.5 Q28 189 28 258 Q28 329 49.5 382 Q71 435 107.5 470 Q144 505 193 522.5 Q242 540 296 540 Q325 540 350.5 536.5 Q376 533 394 529 Q415 524 433 518 L433 348 L336 348 L336 429 L318 446 Q314 447 307 447 Q243 447 214.5 400 Q186 353 186 264 Q186 175 221.5 131.5 Q257 88 326 88 Q342 88 359 90.5 Q376 93 390.5 96 Q405 99 416 102 Q427 105 432 107 L432 30 Z " />
<glyph glyph-name="Ccircumflex" unicode="&#x108;" horiz-adv-x="601" d="M567 30 Q536 16 489 3 Q442 -10 369 -10 Q291 -10 229.5 11 Q168 32 125 76 Q82 120 59.5 187.5 Q37 255 37 349 Q37 440 62.5 508 Q88 576 134 621 Q180 666 244.5 688 Q309 710 387 710 Q422 710 452.5 706.5 Q483 703 506 699 Q532 695 555 689 L555 499 L458 499 L458 584 L441 601 Q428 603 415 604 Q402 605 387 605 Q336 605 301.5 587 Q267 569 246 536.5 Q225 504 216 458.5 Q207 413 207 359 Q207 296 216.5 247.5 Q226 199 248 166 Q270 133 306 116 Q342 99 395 99 L424 99 Q438 99 452 101 L470 119 L470 211 L567 211 L567 30 Z M240 747 L211 782 L351 929 L400 929 L540 782 L511 747 L488 747 L376 816 L263 747 L240 747 Z " />
<glyph glyph-name="ccircumflex" unicode="&#x109;" horiz-adv-x="467" d="M162 577 L135 610 L272 756 L318 756 L455 610 L428 577 L406 577 L295 650 L184 577 L162 577 Z M432 30 Q412 10 370.5 0 Q329 -10 284 -10 Q233 -10 186.5 6 Q140 22 105 55 Q70 88 49 138.5 Q28 189 28 258 Q28 329 49.5 382 Q71 435 107.5 470 Q144 505 193 522.5 Q242 540 296 540 Q325 540 350.5 536.5 Q376 533 394 529 Q415 524 433 518 L433 348 L336 348 L336 429 L318 446 Q314 447 307 447 Q243 447 214.5 400 Q186 353 186 264 Q186 175 221.5 131.5 Q257 88 326 88 Q342 88 359 90.5 Q376 93 390.5 96 Q405 99 416 102 Q427 105 432 107 L432 30 Z " />
<glyph glyph-name="Cdotaccent" unicode="&#x10a;" horiz-adv-x="601" d="M292 830 Q292 846 298.5 860.5 Q305 875 316.5 886 Q328 897 343.5 903.5 Q359 910 377 910 Q395 910 410.5 903.5 Q426 897 437.5 886 Q449 875 456 860.5 Q463 846 463 830 Q463 813 456 798.5 Q449 784 437.5 773 Q426 762 410.5 755.5 Q395 749 377 749 Q359 749 343.5 755.5 Q328 762 316.5 773 Q305 784 298.5 798.5 Q292 813 292 830 Z M567 30 Q536 16 489 3 Q442 -10 369 -10 Q291 -10 229.5 11 Q168 32 125 76 Q82 120 59.5 187.5 Q37 255 37 349 Q37 440 62.5 508 Q88 576 134 621 Q180 666 244.5 688 Q309 710 387 710 Q422 710 452.5 706.5 Q483 703 506 699 Q532 695 555 689 L555 499 L458 499 L458 584 L441 601 Q428 603 415 604 Q402 605 387 605 Q336 605 301.5 587 Q267 569 246 536.5 Q225 504 216 458.5 Q207 413 207 359 Q207 296 216.5 247.5 Q226 199 248 166 Q270 133 306 116 Q342 99 395 99 L424 99 Q438 99 452 101 L470 119 L470 211 L567 211 L567 30 Z " />
<glyph glyph-name="cdotaccent" unicode="&#x10b;" horiz-adv-x="467" d="M432 30 Q412 10 370.5 0 Q329 -10 284 -10 Q233 -10 186.5 6 Q140 22 105 55 Q70 88 49 138.5 Q28 189 28 258 Q28 329 49.5 382 Q71 435 107.5 470 Q144 505 193 522.5 Q242 540 296 540 Q325 540 350.5 536.5 Q376 533 394 529 Q415 524 433 518 L433 348 L336 348 L336 429 L318 446 Q314 447 307 447 Q243 447 214.5 400 Q186 353 186 264 Q186 175 221.5 131.5 Q257 88 326 88 Q342 88 359 90.5 Q376 93 390.5 96 Q405 99 416 102 Q427 105 432 107 L432 30 Z M209 660 Q209 676 215.5 690.5 Q222 705 233.5 716 Q245 727 260.5 733.5 Q276 740 294 740 Q312 740 327.5 733.5 Q343 727 354.5 716 Q366 705 373 690.5 Q380 676 380 660 Q380 643 373 628.5 Q366 614 354.5 603 Q343 592 327.5 585.5 Q312 579 294 579 Q276 579 260.5 585.5 Q245 592 233.5 603 Q222 614 215.5 628.5 Q209 643 209 660 Z " />
<glyph glyph-name="Ccaron" unicode="&#x10c;" horiz-adv-x="601" d="M567 30 Q536 16 489 3 Q442 -10 369 -10 Q291 -10 229.5 11 Q168 32 125 76 Q82 120 59.5 187.5 Q37 255 37 349 Q37 440 62.5 508 Q88 576 134 621 Q180 666 244.5 688 Q309 710 387 710 Q422 710 452.5 706.5 Q483 703 506 699 Q532 695 555 689 L555 499 L458 499 L458 584 L441 601 Q428 603 415 604 Q402 605 387 605 Q336 605 301.5 587 Q267 569 246 536.5 Q225 504 216 458.5 Q207 413 207 359 Q207 296 216.5 247.5 Q226 199 248 166 Q270 133 306 116 Q342 99 395 99 L424 99 Q438 99 452 101 L470 119 L470 211 L567 211 L567 30 Z M514 929 L543 894 L403 747 L354 747 L213 894 L242 929 L265 929 L378 860 L491 929 L514 929 Z " />
<glyph glyph-name="ccaron" unicode="&#x10d;" horiz-adv-x="467" d="M431 759 L460 724 L320 577 L271 577 L131 724 L160 759 L183 759 L295 690 L408 759 L431 759 Z M432 30 Q412 10 370.5 0 Q329 -10 284 -10 Q233 -10 186.5 6 Q140 22 105 55 Q70 88 49 138.5 Q28 189 28 258 Q28 329 49.5 382 Q71 435 107.5 470 Q144 505 193 522.5 Q242 540 296 540 Q325 540 350.5 536.5 Q376 533 394 529 Q415 524 433 518 L433 348 L336 348 L336 429 L318 446 Q314 447 307 447 Q243 447 214.5 400 Q186 353 186 264 Q186 175 221.5 131.5 Q257 88 326 88 Q342 88 359 90.5 Q376 93 390.5 96 Q405 99 416 102 Q427 105 432 107 L432 30 Z " />
<glyph glyph-name="Dcaron" unicode="&#x10e;" horiz-adv-x="704" d="M40 85 L84 85 L102 103 L102 597 L84 615 L40 615 L40 700 L338 700 Q412 700 472.5 679 Q533 658 576.5 615.5 Q620 573 643.5 508 Q667 443 667 355 Q667 265 643.5 198 Q620 131 576.5 87 Q533 43 472.5 21.5 Q412 0 338 0 L40 0 L40 85 Z M264 104 L338 104 Q383 104 413.5 119.5 Q444 135 462.5 166 Q481 197 489 244.5 Q497 292 497 355 Q497 416 489 461.5 Q481 507 462.5 537 Q444 567 413.5 581.5 Q383 596 338 596 L264 596 L264 104 Z M474 929 L503 894 L363 747 L314 747 L173 894 L202 929 L225 929 L338 860 L451 929 L474 929 Z " />
<glyph glyph-name="dcaron" unicode="&#x10f;" horiz-adv-x="620" d="M604 582 L604 780 L713 780 L713 719 L694 582 L604 582 Z M415 0 Q385 0 377 14 Q369 28 369 44 L369 63 L366 63 Q344 33 308.5 11 Q273 -11 220 -11 Q180 -11 145 6 Q110 23 84.5 56.5 Q59 90 44.5 140.5 Q30 191 30 258 Q30 325 47 377.5 Q64 430 93 466 Q122 502 160.5 521 Q199 540 242 540 Q279 540 309 524.5 Q339 509 360 488 L360 627 L342 645 L298 645 L298 730 L466 730 Q496 730 504 716 Q512 702 512 686 L512 98 L530 80 L574 80 L574 0 L415 0 Z M281 101 Q297 101 318 106.5 Q339 112 360 127 L360 399 Q324 432 279 432 Q234 432 211.5 392 Q189 352 189 260 Q189 213 194.5 182.5 Q200 152 211.5 134 Q223 116 240.5 108.5 Q258 101 281 101 Z " />
<glyph glyph-name="Dcroat" unicode="&#x110;" horiz-adv-x="704" d="M45 393 L102 393 L102 598 L84 616 L40 616 L40 701 L338 701 Q412 701 472.5 680 Q533 659 576.5 616.5 Q620 574 643.5 509 Q667 444 667 356 Q667 266 643.5 199 Q620 132 576.5 88 Q533 44 472.5 22.5 Q412 1 338 1 L40 1 L40 86 L84 86 L102 104 L102 320 L45 320 L45 393 Z M264 393 L413 393 L413 320 L264 320 L264 105 L338 105 Q383 105 413.5 120.5 Q444 136 462.5 167 Q481 198 489 245.5 Q497 293 497 356 Q497 417 489 462.5 Q481 508 462.5 538 Q444 568 413.5 582.5 Q383 597 338 597 L264 597 L264 393 Z " />
<glyph glyph-name="dcroat" unicode="&#x111;" horiz-adv-x="590" d="M245 620 L360 620 L360 627 L342 645 L298 645 L298 730 L466 730 Q496 730 504 716 Q512 702 512 686 L512 620 L579 620 L579 560 L512 560 L512 98 L530 80 L574 80 L574 0 L415 0 Q385 0 377 14 Q369 28 369 44 L369 63 L366 63 Q344 33 308.5 11 Q273 -11 220 -11 Q180 -11 145 6 Q110 23 84.5 56.5 Q59 90 44.5 140.5 Q30 191 30 258 Q30 325 47 377.5 Q64 430 93 466 Q122 502 160.5 521 Q199 540 242 540 Q279 540 309 524.5 Q339 509 360 488 L360 560 L245 560 L245 620 Z M281 101 Q297 101 318 106.5 Q339 112 360 127 L360 399 Q324 432 279 432 Q234 432 211.5 392 Q189 352 189 260 Q189 213 194.5 182.5 Q200 152 211.5 134 Q223 116 240.5 108.5 Q258 101 281 101 Z " />
<glyph glyph-name="Emacron" unicode="&#x112;" horiz-adv-x="627" d="M264 600 L264 406 L373 406 L390 422 L390 462 L475 462 L475 253 L390 253 L390 293 L374 308 L264 308 L264 100 L479 100 L497 117 L497 197 L590 197 L590 0 L40 0 L40 85 L84 85 L102 103 L102 597 L84 615 L40 615 L40 700 L580 700 L580 503 L487 503 L487 583 L469 600 L264 600 Z M208 876 L472 876 L472 788 L208 788 L208 876 Z " />
<glyph glyph-name="emacron" unicode="&#x113;" horiz-adv-x="499" d="M454 224 L186 224 Q194 149 232 118.5 Q270 88 328 88 Q370 88 400.5 96.5 Q431 105 444 109 L444 27 Q424 13 383 1.5 Q342 -10 276 -10 Q226 -10 181.5 5 Q137 20 103 52.5 Q69 85 49 135 Q29 185 29 255 Q29 324 46.5 377 Q64 430 94.5 466.5 Q125 503 167.5 521.5 Q210 540 261 540 Q364 540 418 481.5 Q472 423 472 325 L472 243 L454 224 Z M260 444 Q223 444 206.5 411 Q190 378 186 309 L324 309 L324 344 Q324 395 310.5 419.5 Q297 444 260 444 Z M135 706 L399 706 L399 618 L135 618 L135 706 Z " />
<glyph glyph-name="Ebreve" unicode="&#x114;" horiz-adv-x="627" d="M264 600 L264 406 L373 406 L390 422 L390 462 L475 462 L475 253 L390 253 L390 293 L374 308 L264 308 L264 100 L479 100 L497 117 L497 197 L590 197 L590 0 L40 0 L40 85 L84 85 L102 103 L102 597 L84 615 L40 615 L40 700 L580 700 L580 503 L487 503 L487 583 L469 600 L264 600 Z M473 876 Q468 853 458 832.5 Q448 812 431.5 795.5 Q415 779 392.5 769.5 Q370 760 341 760 Q312 760 289.5 769.5 Q267 779 250.5 795.5 Q234 812 223.5 832.5 Q213 853 209 876 L279 895 Q285 875 300 858.5 Q315 842 342 842 Q371 842 388 857 Q405 872 411 891 L473 876 Z " />
<glyph glyph-name="ebreve" unicode="&#x115;" horiz-adv-x="499" d="M454 224 L186 224 Q194 149 232 118.5 Q270 88 328 88 Q370 88 400.5 96.5 Q431 105 444 109 L444 27 Q424 13 383 1.5 Q342 -10 276 -10 Q226 -10 181.5 5 Q137 20 103 52.5 Q69 85 49 135 Q29 185 29 255 Q29 324 46.5 377 Q64 430 94.5 466.5 Q125 503 167.5 521.5 Q210 540 261 540 Q364 540 418 481.5 Q472 423 472 325 L472 243 L454 224 Z M260 444 Q223 444 206.5 411 Q190 378 186 309 L324 309 L324 344 Q324 395 310.5 419.5 Q297 444 260 444 Z M398 706 Q393 683 383 662.5 Q373 642 356.5 625.5 Q340 609 317.5 599.5 Q295 590 266 590 Q237 590 214.5 599.5 Q192 609 175.5 625.5 Q159 642 148.5 662.5 Q138 683 134 706 L204 725 Q210 705 225 688.5 Q240 672 267 672 Q296 672 313 687 Q330 702 336 721 L398 706 Z " />
<glyph glyph-name="Edotaccent" unicode="&#x116;" horiz-adv-x="627" d="M254 830 Q254 846 260.5 860.5 Q267 875 278.5 886 Q290 897 305.5 903.5 Q321 910 339 910 Q357 910 372.5 903.5 Q388 897 399.5 886 Q411 875 418 860.5 Q425 846 425 830 Q425 813 418 798.5 Q411 784 399.5 773 Q388 762 372.5 755.5 Q357 749 339 749 Q321 749 305.5 755.5 Q290 762 278.5 773 Q267 784 260.5 798.5 Q254 813 254 830 Z M264 600 L264 406 L373 406 L390 422 L390 462 L475 462 L475 253 L390 253 L390 293 L374 308 L264 308 L264 100 L479 100 L497 117 L497 197 L590 197 L590 0 L40 0 L40 85 L84 85 L102 103 L102 597 L84 615 L40 615 L40 700 L580 700 L580 503 L487 503 L487 583 L469 600 L264 600 Z " />
<glyph glyph-name="edotaccent" unicode="&#x117;" horiz-adv-x="499" d="M454 224 L186 224 Q194 149 232 118.5 Q270 88 328 88 Q370 88 400.5 96.5 Q431 105 444 109 L444 27 Q424 13 383 1.5 Q342 -10 276 -10 Q226 -10 181.5 5 Q137 20 103 52.5 Q69 85 49 135 Q29 185 29 255 Q29 324 46.5 377 Q64 430 94.5 466.5 Q125 503 167.5 521.5 Q210 540 261 540 Q364 540 418 481.5 Q472 423 472 325 L472 243 L454 224 Z M260 444 Q223 444 206.5 411 Q190 378 186 309 L324 309 L324 344 Q324 395 310.5 419.5 Q297 444 260 444 Z M181 660 Q181 676 187.5 690.5 Q194 705 205.5 716 Q217 727 232.5 733.5 Q248 740 266 740 Q284 740 299.5 733.5 Q315 727 326.5 716 Q338 705 345 690.5 Q352 676 352 660 Q352 643 345 628.5 Q338 614 326.5 603 Q315 592 299.5 585.5 Q284 579 266 579 Q248 579 232.5 585.5 Q217 592 205.5 603 Q194 614 187.5 628.5 Q181 643 181 660 Z " />
<glyph glyph-name="Eogonek" unicode="&#x118;" horiz-adv-x="626" d="M264 600 L264 406 L373 406 L390 422 L390 462 L475 462 L475 253 L390 253 L390 293 L374 308 L264 308 L264 100 L479 100 L497 117 L497 197 L590 197 L590 0 L535 0 Q489 -9 462.5 -28.5 Q436 -48 436 -77 Q436 -106 450.5 -116 Q465 -126 488 -126 Q502 -126 519 -120 Q536 -114 542 -109 L563 -151 Q546 -163 516.5 -171.5 Q487 -180 455 -180 Q399 -180 366 -160.5 Q333 -141 333 -97 Q333 -64 352.5 -40.5 Q372 -17 403 0 L40 0 L40 85 L84 85 L102 103 L102 597 L84 615 L40 615 L40 700 L580 700 L580 503 L487 503 L487 583 L469 600 L264 600 Z " />
<glyph glyph-name="eogonek" unicode="&#x119;" horiz-adv-x="496" d="M410 -151 Q393 -163 363.5 -171.5 Q334 -180 302 -180 Q246 -180 213 -160.5 Q180 -141 180 -97 Q180 -68 195.5 -46 Q211 -24 237 -8 Q193 -3 155 15 Q117 33 88 65 Q59 97 42.5 144.5 Q26 192 26 255 Q26 324 43.5 377 Q61 430 91.5 466.5 Q122 503 164.5 521.5 Q207 540 258 540 Q361 540 415 481.5 Q469 423 469 325 L469 243 L451 224 L184 224 Q192 149 230 118.5 Q268 88 325 88 Q367 88 397.5 96.5 Q428 105 441 109 L441 27 Q430 19 410 11.5 Q390 4 382 2 Q337 -12 310 -30.5 Q283 -49 283 -77 Q283 -106 297.5 -116 Q312 -126 335 -126 Q349 -126 366 -120 Q383 -114 389 -109 L410 -151 Z M257 444 Q220 444 203.5 411 Q187 378 183 309 L321 309 L321 344 Q321 395 307.5 419.5 Q294 444 257 444 Z " />
<glyph glyph-name="Ecaron" unicode="&#x11a;" horiz-adv-x="627" d="M264 600 L264 406 L373 406 L390 422 L390 462 L475 462 L475 253 L390 253 L390 293 L374 308 L264 308 L264 100 L479 100 L497 117 L497 197 L590 197 L590 0 L40 0 L40 85 L84 85 L102 103 L102 597 L84 615 L40 615 L40 700 L580 700 L580 503 L487 503 L487 583 L469 600 L264 600 Z M476 929 L505 894 L365 747 L316 747 L175 894 L204 929 L227 929 L340 860 L453 929 L476 929 Z " />
<glyph glyph-name="ecaron" unicode="&#x11b;" horiz-adv-x="499" d="M403 759 L432 724 L292 577 L243 577 L103 724 L132 759 L155 759 L267 690 L380 759 L403 759 Z M454 224 L186 224 Q194 149 232 118.5 Q270 88 328 88 Q370 88 400.5 96.5 Q431 105 444 109 L444 27 Q424 13 383 1.5 Q342 -10 276 -10 Q226 -10 181.5 5 Q137 20 103 52.5 Q69 85 49 135 Q29 185 29 255 Q29 324 46.5 377 Q64 430 94.5 466.5 Q125 503 167.5 521.5 Q210 540 261 540 Q364 540 418 481.5 Q472 423 472 325 L472 243 L454 224 Z M260 444 Q223 444 206.5 411 Q190 378 186 309 L324 309 L324 344 Q324 395 310.5 419.5 Q297 444 260 444 Z " />
<glyph glyph-name="Gcircumflex" unicode="&#x11c;" horiz-adv-x="643" d="M237 747 L208 782 L348 929 L397 929 L537 782 L508 747 L485 747 L373 816 L260 747 L237 747 Z M571 240 L571 30 Q539 17 490.5 3.5 Q442 -10 367 -10 Q290 -10 228.5 10.5 Q167 31 124.5 74.5 Q82 118 59.5 186 Q37 254 37 350 Q37 441 62 509 Q87 577 132.5 621.5 Q178 666 242.5 688 Q307 710 385 710 Q423 710 456 706.5 Q489 703 514 699 Q543 695 567 689 L567 499 L474 499 L474 588 L458 603 Q442 606 424 608 Q406 610 385 610 Q334 610 300 593 Q266 576 245.5 544 Q225 512 216 466.5 Q207 421 207 364 Q207 298 216.5 246.5 Q226 195 247.5 159.5 Q269 124 305 106 Q341 88 395 88 L428 88 L428 240 L410 258 L372 258 L372 343 L617 343 L617 258 L588 258 L571 240 Z " />
<glyph glyph-name="gcircumflex" unicode="&#x11d;" horiz-adv-x="544" d="M122 577 L95 610 L232 756 L278 756 L415 610 L388 577 L366 577 L255 650 L144 577 L122 577 Z M473 371 Q473 328 455.5 296 Q438 264 408.5 243 Q379 222 339.5 211.5 Q300 201 257 201 Q221 201 190 207 Q170 190 170 171 Q170 142 213 142 L347 142 Q383 142 415 135 Q447 128 471.5 112 Q496 96 510 70 Q524 44 524 7 Q524 -41 501.5 -76 Q479 -111 440.5 -134.5 Q402 -158 350 -169 Q298 -180 239 -180 Q188 -180 147 -174.5 Q106 -169 76.5 -156.5 Q47 -144 31.5 -123.5 Q16 -103 16 -73 Q16 -56 23 -41.5 Q30 -27 41.5 -15 Q53 -3 67 6 Q81 15 96 22 Q69 35 52.5 59 Q36 83 36 115 Q36 145 56.5 175.5 Q77 206 123 232 Q86 252 64 286.5 Q42 321 42 371 Q42 414 59.5 446 Q77 478 106 499 Q135 520 174 530 Q213 540 257 540 Q279 540 299.5 537.5 Q320 535 339 530 L518 530 L518 445 L463 445 L458 440 Q473 410 473 371 Z M325 371 Q325 463 257 463 Q190 463 190 371 Q190 278 257 278 Q325 278 325 371 Z M166 10 Q160 2 154 -11.5 Q148 -25 148 -45 Q148 -71 174.5 -88 Q201 -105 258 -105 Q283 -105 305 -101 Q327 -97 343.5 -88.5 Q360 -80 370 -67 Q380 -54 380 -36 Q380 -7 363 1.5 Q346 10 314 10 L166 10 Z " />
<glyph glyph-name="Gbreve" unicode="&#x11e;" horiz-adv-x="643" d="M571 240 L571 30 Q539 17 490.5 3.5 Q442 -10 367 -10 Q290 -10 228.5 10.5 Q167 31 124.5 74.5 Q82 118 59.5 186 Q37 254 37 350 Q37 441 62 509 Q87 577 132.5 621.5 Q178 666 242.5 688 Q307 710 385 710 Q423 710 456 706.5 Q489 703 514 699 Q543 695 567 689 L567 499 L474 499 L474 588 L458 603 Q442 606 424 608 Q406 610 385 610 Q334 610 300 593 Q266 576 245.5 544 Q225 512 216 466.5 Q207 421 207 364 Q207 298 216.5 246.5 Q226 195 247.5 159.5 Q269 124 305 106 Q341 88 395 88 L428 88 L428 240 L410 258 L372 258 L372 343 L617 343 L617 258 L588 258 L571 240 Z M508 876 Q503 853 493 832.5 Q483 812 466.5 795.5 Q450 779 427.5 769.5 Q405 760 376 760 Q347 760 324.5 769.5 Q302 779 285.5 795.5 Q269 812 258.5 832.5 Q248 853 244 876 L314 895 Q320 875 335 858.5 Q350 842 377 842 Q406 842 423 857 Q440 872 446 891 L508 876 Z " />
<glyph glyph-name="gbreve" unicode="&#x11f;" horiz-adv-x="544" d="M473 371 Q473 328 455.5 296 Q438 264 408.5 243 Q379 222 339.5 211.5 Q300 201 257 201 Q221 201 190 207 Q170 190 170 171 Q170 142 213 142 L347 142 Q383 142 415 135 Q447 128 471.5 112 Q496 96 510 70 Q524 44 524 7 Q524 -41 501.5 -76 Q479 -111 440.5 -134.5 Q402 -158 350 -169 Q298 -180 239 -180 Q188 -180 147 -174.5 Q106 -169 76.5 -156.5 Q47 -144 31.5 -123.5 Q16 -103 16 -73 Q16 -56 23 -41.5 Q30 -27 41.5 -15 Q53 -3 67 6 Q81 15 96 22 Q69 35 52.5 59 Q36 83 36 115 Q36 145 56.5 175.5 Q77 206 123 232 Q86 252 64 286.5 Q42 321 42 371 Q42 414 59.5 446 Q77 478 106 499 Q135 520 174 530 Q213 540 257 540 Q279 540 299.5 537.5 Q320 535 339 530 L518 530 L518 445 L463 445 L458 440 Q473 410 473 371 Z M325 371 Q325 463 257 463 Q190 463 190 371 Q190 278 257 278 Q325 278 325 371 Z M166 10 Q160 2 154 -11.5 Q148 -25 148 -45 Q148 -71 174.5 -88 Q201 -105 258 -105 Q283 -105 305 -101 Q327 -97 343.5 -88.5 Q360 -80 370 -67 Q380 -54 380 -36 Q380 -7 363 1.5 Q346 10 314 10 L166 10 Z M386 706 Q381 683 371 662.5 Q361 642 344.5 625.5 Q328 609 305.5 599.5 Q283 590 254 590 Q225 590 202.5 599.5 Q180 609 163.5 625.5 Q147 642 136.5 662.5 Q126 683 122 706 L192 725 Q198 705 213 688.5 Q228 672 255 672 Q284 672 301 687 Q318 702 324 721 L386 706 Z " />
<glyph glyph-name="Gdotaccent" unicode="&#x120;" horiz-adv-x="643" d="M289 830 Q289 846 295.5 860.5 Q302 875 313.5 886 Q325 897 340.5 903.5 Q356 910 374 910 Q392 910 407.5 903.5 Q423 897 434.5 886 Q446 875 453 860.5 Q460 846 460 830 Q460 813 453 798.5 Q446 784 434.5 773 Q423 762 407.5 755.5 Q392 749 374 749 Q356 749 340.5 755.5 Q325 762 313.5 773 Q302 784 295.5 798.5 Q289 813 289 830 Z M571 240 L571 30 Q539 17 490.5 3.5 Q442 -10 367 -10 Q290 -10 228.5 10.5 Q167 31 124.5 74.5 Q82 118 59.5 186 Q37 254 37 350 Q37 441 62 509 Q87 577 132.5 621.5 Q178 666 242.5 688 Q307 710 385 710 Q423 710 456 706.5 Q489 703 514 699 Q543 695 567 689 L567 499 L474 499 L474 588 L458 603 Q442 606 424 608 Q406 610 385 610 Q334 610 300 593 Q266 576 245.5 544 Q225 512 216 466.5 Q207 421 207 364 Q207 298 216.5 246.5 Q226 195 247.5 159.5 Q269 124 305 106 Q341 88 395 88 L428 88 L428 240 L410 258 L372 258 L372 343 L617 343 L617 258 L588 258 L571 240 Z " />
<glyph glyph-name="gdotaccent" unicode="&#x121;" horiz-adv-x="544" d="M473 371 Q473 328 455.5 296 Q438 264 408.5 243 Q379 222 339.5 211.5 Q300 201 257 201 Q221 201 190 207 Q170 190 170 171 Q170 142 213 142 L347 142 Q383 142 415 135 Q447 128 471.5 112 Q496 96 510 70 Q524 44 524 7 Q524 -41 501.5 -76 Q479 -111 440.5 -134.5 Q402 -158 350 -169 Q298 -180 239 -180 Q188 -180 147 -174.5 Q106 -169 76.5 -156.5 Q47 -144 31.5 -123.5 Q16 -103 16 -73 Q16 -56 23 -41.5 Q30 -27 41.5 -15 Q53 -3 67 6 Q81 15 96 22 Q69 35 52.5 59 Q36 83 36 115 Q36 145 56.5 175.5 Q77 206 123 232 Q86 252 64 286.5 Q42 321 42 371 Q42 414 59.5 446 Q77 478 106 499 Q135 520 174 530 Q213 540 257 540 Q279 540 299.5 537.5 Q320 535 339 530 L518 530 L518 445 L463 445 L458 440 Q473 410 473 371 Z M325 371 Q325 463 257 463 Q190 463 190 371 Q190 278 257 278 Q325 278 325 371 Z M166 10 Q160 2 154 -11.5 Q148 -25 148 -45 Q148 -71 174.5 -88 Q201 -105 258 -105 Q283 -105 305 -101 Q327 -97 343.5 -88.5 Q360 -80 370 -67 Q380 -54 380 -36 Q380 -7 363 1.5 Q346 10 314 10 L166 10 Z M169 660 Q169 676 175.5 690.5 Q182 705 193.5 716 Q205 727 220.5 733.5 Q236 740 254 740 Q272 740 287.5 733.5 Q303 727 314.5 716 Q326 705 333 690.5 Q340 676 340 660 Q340 643 333 628.5 Q326 614 314.5 603 Q303 592 287.5 585.5 Q272 579 254 579 Q236 579 220.5 585.5 Q205 592 193.5 603 Q182 614 175.5 628.5 Q169 643 169 660 Z " />
<glyph glyph-name="uni0122" unicode="&#x122;" horiz-adv-x="643" d="M309 -258 L337 -210 L328 -190 Q294 -174 294 -132 Q294 -96 311.5 -77 Q329 -58 367 -58 Q404 -58 422.5 -76.5 Q441 -95 441 -128 Q441 -139 436.5 -151 Q432 -163 426 -175 L365 -287 L309 -258 Z M571 240 L571 30 Q539 17 490.5 3.5 Q442 -10 367 -10 Q290 -10 228.5 10.5 Q167 31 124.5 74.5 Q82 118 59.5 186 Q37 254 37 350 Q37 441 62 509 Q87 577 132.5 621.5 Q178 666 242.5 688 Q307 710 385 710 Q423 710 456 706.5 Q489 703 514 699 Q543 695 567 689 L567 499 L474 499 L474 588 L458 603 Q442 606 424 608 Q406 610 385 610 Q334 610 300 593 Q266 576 245.5 544 Q225 512 216 466.5 Q207 421 207 364 Q207 298 216.5 246.5 Q226 195 247.5 159.5 Q269 124 305 106 Q341 88 395 88 L428 88 L428 240 L410 258 L372 258 L372 343 L617 343 L617 258 L588 258 L571 240 Z " />
<glyph glyph-name="uni0123" unicode="&#x123;" horiz-adv-x="544" d="M325 779 L297 731 L306 711 Q340 695 340 653 Q340 616 322.5 597.5 Q305 579 267 579 Q230 579 211.5 597.5 Q193 616 193 649 Q193 660 197.5 672 Q202 684 208 696 L269 808 L325 779 Z M473 371 Q473 328 455.5 296 Q438 264 408.5 243 Q379 222 339.5 211.5 Q300 201 257 201 Q221 201 190 207 Q170 190 170 171 Q170 142 213 142 L347 142 Q383 142 415 135 Q447 128 471.5 112 Q496 96 510 70 Q524 44 524 7 Q524 -41 501.5 -76 Q479 -111 440.5 -134.5 Q402 -158 350 -169 Q298 -180 239 -180 Q188 -180 147 -174.5 Q106 -169 76.5 -156.5 Q47 -144 31.5 -123.5 Q16 -103 16 -73 Q16 -56 23 -41.5 Q30 -27 41.5 -15 Q53 -3 67 6 Q81 15 96 22 Q69 35 52.5 59 Q36 83 36 115 Q36 145 56.5 175.5 Q77 206 123 232 Q86 252 64 286.5 Q42 321 42 371 Q42 414 59.5 446 Q77 478 106 499 Q135 520 174 530 Q213 540 257 540 Q279 540 299.5 537.5 Q320 535 339 530 L518 530 L518 445 L463 445 L458 440 Q473 410 473 371 Z M325 371 Q325 463 257 463 Q190 463 190 371 Q190 278 257 278 Q325 278 325 371 Z M166 10 Q160 2 154 -11.5 Q148 -25 148 -45 Q148 -71 174.5 -88 Q201 -105 258 -105 Q283 -105 305 -101 Q327 -97 343.5 -88.5 Q360 -80 370 -67 Q380 -54 380 -36 Q380 -7 363 1.5 Q346 10 314 10 L166 10 Z " />
<glyph glyph-name="Hcircumflex" unicode="&#x124;" horiz-adv-x="740" d="M476 305 L264 305 L264 103 L281 85 L326 85 L326 0 L40 0 L40 85 L84 85 L102 103 L102 597 L84 615 L40 615 L40 700 L326 700 L326 615 L281 615 L264 597 L264 409 L476 409 L476 597 L458 615 L414 615 L414 700 L700 700 L700 615 L655 615 L638 597 L638 103 L655 85 L700 85 L700 0 L414 0 L414 85 L458 85 L476 103 L476 305 Z M232 747 L203 782 L343 929 L392 929 L532 782 L503 747 L480 747 L368 816 L255 747 L232 747 Z " />
<glyph glyph-name="hcircumflex" unicode="&#x125;" horiz-adv-x="607" d="M21 777 L-6 810 L131 956 L177 956 L314 810 L287 777 L265 777 L154 850 L43 777 L21 777 Z M327 0 L327 80 L360 80 L377 98 L377 356 Q377 367 375.5 379.5 Q374 392 367.5 402.5 Q361 413 348 420 Q335 427 311 427 Q285 427 264 417.5 Q243 408 232 400 L232 98 L249 80 L282 80 L282 0 L18 0 L18 80 L62 80 L80 98 L80 627 L62 645 L18 645 L18 730 L186 730 Q216 730 224 716 Q232 702 232 686 L232 474 Q240 483 253 494 Q266 505 284 515.5 Q302 526 325 533 Q348 540 375 540 Q420 540 449.5 527.5 Q479 515 496.5 493 Q514 471 521.5 442 Q529 413 529 380 L529 98 L547 80 L591 80 L591 0 L327 0 Z " />
<glyph glyph-name="Hbar" unicode="&#x126;" horiz-adv-x="740" d="M40 545 L102 545 L102 597 L84 615 L40 615 L40 700 L326 700 L326 615 L281 615 L264 597 L264 545 L476 545 L476 597 L458 615 L414 615 L414 700 L700 700 L700 615 L655 615 L638 597 L638 545 L700 545 L700 472 L638 472 L638 103 L655 85 L700 85 L700 0 L414 0 L414 85 L458 85 L476 103 L476 305 L264 305 L264 103 L281 85 L326 85 L326 0 L40 0 L40 85 L84 85 L102 103 L102 472 L40 472 L40 545 Z M476 409 L476 472 L264 472 L264 409 L476 409 Z " />
<glyph glyph-name="hbar" unicode="&#x127;" horiz-adv-x="607" d="M17 620 L80 620 L80 628 L62 646 L18 646 L18 731 L186 731 Q216 731 224 717 Q232 703 232 687 L232 620 L351 620 L351 560 L232 560 L232 475 Q240 484 253 495 Q266 506 284 516.5 Q302 527 325 534 Q348 541 375 541 Q420 541 449.5 528.5 Q479 516 496.5 494 Q514 472 521.5 443 Q529 414 529 381 L529 99 L547 81 L591 81 L591 1 L327 1 L327 81 L360 81 L377 99 L377 357 Q377 368 375.5 380.5 Q374 393 367.5 403.5 Q361 414 348 421 Q335 428 311 428 Q285 428 264 418.5 Q243 409 232 401 L232 99 L249 81 L282 81 L282 1 L18 1 L18 81 L62 81 L80 99 L80 560 L17 560 L17 620 Z " />
<glyph glyph-name="Itilde" unicode="&#x128;" horiz-adv-x="366" d="M102 597 L84 615 L40 615 L40 700 L326 700 L326 615 L281 615 L264 597 L264 103 L281 85 L326 85 L326 0 L40 0 L40 85 L84 85 L102 103 L102 597 Z M344 898 L344 853 Q344 802 320.5 779.5 Q297 757 257 757 Q236 757 217 762.5 Q198 768 180 775 Q162 782 146 787.5 Q130 793 115 793 Q107 793 102.5 791.5 Q98 790 95 788 Q91 786 90 784 L90 746 L26 746 L26 787 Q26 848 49.5 870 Q73 892 109 892 Q130 892 148.5 885.5 Q167 879 185 871.5 Q203 864 220.5 857.5 Q238 851 256 851 Q265 851 270 853 Q275 855 278 858 Q281 861 282 865 L282 898 L344 898 Z " />
<glyph glyph-name="itilde" unicode="&#x129;" horiz-adv-x="319" d="M194 530 Q224 530 232 516 Q240 502 240 486 L240 98 L257 80 L302 80 L302 0 L26 0 L26 80 L70 80 L88 98 L88 427 L70 445 L26 445 L26 530 L194 530 Z M321 728 L321 683 Q321 632 297.5 609.5 Q274 587 234 587 Q213 587 194 592.5 Q175 598 157 605 Q139 612 123 617.5 Q107 623 92 623 Q84 623 79.5 621.5 Q75 620 72 618 Q68 616 67 614 L67 576 L3 576 L3 617 Q3 678 26.5 700 Q50 722 86 722 Q107 722 125.5 715.5 Q144 709 162 701.5 Q180 694 197.5 687.5 Q215 681 233 681 Q242 681 247 683 Q252 685 255 688 Q258 691 259 695 L259 728 L321 728 Z " />
<glyph glyph-name="Imacron" unicode="&#x12a;" horiz-adv-x="366" d="M102 597 L84 615 L40 615 L40 700 L326 700 L326 615 L281 615 L264 597 L264 103 L281 85 L326 85 L326 0 L40 0 L40 85 L84 85 L102 103 L102 597 Z M53 876 L317 876 L317 788 L53 788 L53 876 Z " />
<glyph glyph-name="imacron" unicode="&#x12b;" horiz-adv-x="319" d="M194 530 Q224 530 232 516 Q240 502 240 486 L240 98 L257 80 L302 80 L302 0 L26 0 L26 80 L70 80 L88 98 L88 427 L70 445 L26 445 L26 530 L194 530 Z M30 706 L294 706 L294 618 L30 618 L30 706 Z " />
<glyph glyph-name="Iogonek" unicode="&#x12e;" horiz-adv-x="364" d="M101 597 L83 615 L39 615 L39 700 L325 700 L325 615 L280 615 L263 597 L263 103 L280 85 L325 85 L325 0 L283 0 Q237 -9 210.5 -28.5 Q184 -48 184 -77 Q184 -106 198.5 -116 Q213 -126 236 -126 Q250 -126 267 -120 Q284 -114 290 -109 L311 -151 Q294 -163 264.5 -171.5 Q235 -180 203 -180 Q147 -180 114 -160.5 Q81 -141 81 -97 Q81 -64 100.5 -40.5 Q120 -17 151 0 L39 0 L39 85 L83 85 L101 103 L101 597 Z " />
<glyph glyph-name="iogonek" unicode="&#x12f;" horiz-adv-x="319" d="M194 530 Q224 530 232 516 Q240 502 240 486 L240 98 L257 80 L302 80 L302 0 L262 0 Q216 -9 189.5 -28.5 Q163 -48 163 -77 Q163 -106 177.5 -116 Q192 -126 215 -126 Q229 -126 246 -120 Q263 -114 269 -109 L290 -151 Q273 -163 243.5 -171.5 Q214 -180 182 -180 Q126 -180 93 -160.5 Q60 -141 60 -97 Q60 -64 79.5 -40.5 Q99 -17 130 0 L26 0 L26 80 L70 80 L88 98 L88 427 L70 445 L26 445 L26 530 L194 530 Z M70 665 Q70 702 91 723.5 Q112 745 155 745 Q198 745 219 723.5 Q240 702 240 665 Q240 628 219 606.5 Q198 585 155 585 Q112 585 91 606.5 Q70 628 70 665 Z " />
<glyph glyph-name="Idotaccent" unicode="&#x130;" horiz-adv-x="366" d="M102 597 L84 615 L40 615 L40 700 L326 700 L326 615 L281 615 L264 597 L264 103 L281 85 L326 85 L326 0 L40 0 L40 85 L84 85 L102 103 L102 597 Z M99 830 Q99 846 105.5 860.5 Q112 875 123.5 886 Q135 897 150.5 903.5 Q166 910 184 910 Q202 910 217.5 903.5 Q233 897 244.5 886 Q256 875 263 860.5 Q270 846 270 830 Q270 813 263 798.5 Q256 784 244.5 773 Q233 762 217.5 755.5 Q202 749 184 749 Q166 749 150.5 755.5 Q135 762 123.5 773 Q112 784 105.5 798.5 Q99 813 99 830 Z " />
<glyph glyph-name="dotlessi" unicode="&#x131;" horiz-adv-x="319" d="M194 530 Q224 530 232 516 Q240 502 240 486 L240 98 L257 80 L302 80 L302 0 L26 0 L26 80 L70 80 L88 98 L88 427 L70 445 L26 445 L26 530 L194 530 Z " />
<glyph glyph-name="IJ" unicode="&#x132;" horiz-adv-x="675" d="M97 597 L79 615 L35 615 L35 700 L321 700 L321 615 L276 615 L259 597 L259 340 L276 322 L321 322 L321 237 L35 237 L35 322 L79 322 L97 340 L97 597 Z M429 597 L411 615 L367 615 L367 700 L653 700 L653 615 L608 615 L591 597 L591 197 Q591 157 576 119.5 Q561 82 529.5 53.5 Q498 25 449 7.5 Q400 -10 333 -10 Q277 -10 238 -0.5 Q199 9 174 21 Q145 34 126 52 L126 208 L230 208 L230 123 L245 107 Q261 99 277 97 Q293 95 307 95 Q373 95 401 114.5 Q429 134 429 183 L429 597 Z " />
<glyph glyph-name="ij" unicode="&#x133;" horiz-adv-x="651" d="M194 530 Q224 530 232 516 Q240 502 240 486 L240 98 L257 80 L302 80 L302 0 L26 0 L26 80 L70 80 L88 98 L88 427 L70 445 L26 445 L26 530 L194 530 Z M70 665 Q70 702 91 723.5 Q112 745 155 745 Q198 745 219 723.5 Q240 702 240 665 Q240 628 219 606.5 Q198 585 155 585 Q112 585 91 606.5 Q70 628 70 665 Z M415 665 Q415 702 436 723.5 Q457 745 500 745 Q543 745 564 723.5 Q585 702 585 665 Q585 628 564 606.5 Q543 585 500 585 Q457 585 436 606.5 Q415 628 415 665 Z M284 -46 L373 -46 L373 -91 L386 -104 L387 -104 Q402 -104 411 -93.5 Q420 -83 425 -67 Q430 -51 431.5 -32.5 Q433 -14 433 1 L433 427 L415 445 L371 445 L371 530 L539 530 Q569 530 577 516 Q585 502 585 486 L585 10 Q585 -24 575 -58 Q565 -92 541.5 -119 Q518 -146 480.5 -163 Q443 -180 388 -180 Q338 -180 310 -175 Q295 -172 284 -169 L284 -46 Z " />
<glyph glyph-name="Jcircumflex" unicode="&#x134;" horiz-adv-x="530" d="M282 597 L264 615 L220 615 L220 700 L506 700 L506 615 L461 615 L444 597 L444 200 Q444 159 430.5 121 Q417 83 388.5 54 Q360 25 316.5 7.5 Q273 -10 213 -10 Q160 -10 123.5 -0.5 Q87 9 64 21 Q37 34 19 52 L19 208 L123 208 L123 123 L138 107 Q165 95 189 95 Q240 95 261 116 Q282 137 282 194 L282 597 Z M228 749 L199 784 L339 931 L388 931 L528 784 L499 749 L476 749 L364 818 L251 749 L228 749 Z " />
<glyph glyph-name="jcircumflex" unicode="&#x135;" horiz-adv-x="300" d="M-67 -46 L22 -46 L22 -91 L35 -104 L36 -104 Q51 -104 60 -93.5 Q69 -83 74 -67 Q79 -51 80.5 -32.5 Q82 -14 82 1 L82 427 L64 445 L20 445 L20 530 L188 530 Q218 530 226 516 Q234 502 234 486 L234 10 Q234 -24 224 -58 Q214 -92 190.5 -119 Q167 -146 129.5 -163 Q92 -180 37 -180 Q-13 -180 -41 -175 Q-56 -172 -67 -169 L-67 -46 Z M0 577 L-27 610 L110 756 L156 756 L293 610 L266 577 L244 577 L133 650 L22 577 L0 577 Z " />
<glyph glyph-name="uni0136" unicode="&#x136;" horiz-adv-x="707" d="M308 -258 L336 -210 L327 -190 Q293 -174 293 -132 Q293 -96 310.5 -77 Q328 -58 366 -58 Q403 -58 421.5 -76.5 Q440 -95 440 -128 Q440 -139 435.5 -151 Q431 -163 425 -175 L364 -287 L308 -258 Z M435 391 L643 100 L662 85 L700 85 L700 0 L417 0 L417 85 L454 85 L465 97 L312 316 L264 316 L264 103 L281 85 L326 85 L326 0 L40 0 L40 85 L84 85 L102 103 L102 597 L84 615 L40 615 L40 700 L326 700 L326 615 L281 615 L264 597 L264 402 L308 402 L490 604 L480 615 L442 615 L442 700 L684 700 L684 615 L652 615 L628 600 L435 391 Z " />
<glyph glyph-name="uni0137" unicode="&#x137;" horiz-adv-x="605" d="M246 -258 L274 -210 L265 -190 Q231 -174 231 -132 Q231 -96 248.5 -77 Q266 -58 304 -58 Q341 -58 359.5 -76.5 Q378 -95 378 -128 Q378 -139 373.5 -151 Q369 -163 363 -175 L302 -287 L246 -258 Z M389 318 L543 94 L560 80 L593 80 L593 0 L340 0 L340 80 L363 80 L374 93 L273 249 L232 249 L232 98 L249 80 L282 80 L282 0 L18 0 L18 80 L62 80 L80 98 L80 627 L62 645 L18 645 L18 730 L186 730 Q216 730 224 716 Q232 702 232 686 L232 322 L267 322 L395 437 L388 445 L359 445 L359 530 L582 530 L582 445 L541 445 L520 432 L389 318 Z " />
<glyph glyph-name="kgreenlandic" unicode="&#x138;" horiz-adv-x="613" d="M290 0 L26 0 L26 80 L70 80 L88 98 L88 427 L70 445 L26 445 L26 530 L194 530 Q224 530 232 516 Q240 502 240 486 L240 322 L275 322 L403 437 L396 445 L367 445 L367 530 L590 530 L590 445 L549 445 L528 432 L397 319 L551 94 L568 80 L601 80 L601 0 L348 0 L348 80 L371 80 L382 93 L281 249 L240 249 L240 98 L257 80 L290 80 L290 0 Z " />
<glyph glyph-name="Lacute" unicode="&#x139;" horiz-adv-x="571" d="M167 747 L125 793 L256 926 L282 926 L353 838 L187 747 L167 747 Z M264 102 L438 102 L456 119 L456 211 L549 211 L549 0 L40 0 L40 85 L84 85 L102 103 L102 597 L84 615 L40 615 L40 700 L326 700 L326 615 L281 615 L264 597 L264 102 Z " />
<glyph glyph-name="lacute" unicode="&#x13a;" horiz-adv-x="312" d="M156 777 L114 823 L245 956 L271 956 L342 868 L176 777 L156 777 Z M186 730 Q216 730 224 716 Q232 702 232 686 L232 98 L249 80 L294 80 L294 0 L18 0 L18 80 L62 80 L80 98 L80 627 L62 645 L18 645 L18 730 L186 730 Z " />
<glyph glyph-name="uni013B" unicode="&#x13b;" horiz-adv-x="571" d="M278 -258 L306 -210 L297 -190 Q263 -174 263 -132 Q263 -96 280.5 -77 Q298 -58 336 -58 Q373 -58 391.5 -76.5 Q410 -95 410 -128 Q410 -139 405.5 -151 Q401 -163 395 -175 L334 -287 L278 -258 Z M264 102 L438 102 L456 119 L456 211 L549 211 L549 0 L40 0 L40 85 L84 85 L102 103 L102 597 L84 615 L40 615 L40 700 L326 700 L326 615 L281 615 L264 597 L264 102 Z " />
<glyph glyph-name="uni013C" unicode="&#x13c;" horiz-adv-x="312" d="M99 -258 L127 -210 L118 -190 Q84 -174 84 -132 Q84 -96 101.5 -77 Q119 -58 157 -58 Q194 -58 212.5 -76.5 Q231 -95 231 -128 Q231 -139 226.5 -151 Q222 -163 216 -175 L155 -287 L99 -258 Z M186 730 Q216 730 224 716 Q232 702 232 686 L232 98 L249 80 L294 80 L294 0 L18 0 L18 80 L62 80 L80 98 L80 627 L62 645 L18 645 L18 730 L186 730 Z " />
<glyph glyph-name="Lcaron" unicode="&#x13d;" horiz-adv-x="578" d="M439 582 L439 780 L548 780 L548 719 L529 582 L439 582 Z M263 102 L437 102 L455 119 L455 211 L548 211 L548 0 L39 0 L39 85 L83 85 L101 103 L101 597 L83 615 L39 615 L39 700 L325 700 L325 615 L280 615 L263 597 L263 102 Z " />
<glyph glyph-name="lcaron" unicode="&#x13e;" horiz-adv-x="342" d="M325 582 L325 780 L434 780 L434 719 L415 582 L325 582 Z M186 730 Q216 730 224 716 Q232 702 232 686 L232 98 L249 80 L294 80 L294 0 L18 0 L18 80 L62 80 L80 98 L80 627 L62 645 L18 645 L18 730 L186 730 Z " />
<glyph glyph-name="Ldot" unicode="&#x13f;" horiz-adv-x="600" d="M264 102 L438 102 L456 119 L456 211 L549 211 L549 0 L40 0 L40 85 L84 85 L102 103 L102 597 L84 615 L40 615 L40 700 L326 700 L326 615 L281 615 L264 597 L264 102 Z M399 378 Q399 394 405.5 408.5 Q412 423 423.5 434 Q435 445 450.5 451.5 Q466 458 484 458 Q502 458 517.5 451.5 Q533 445 544.5 434 Q556 423 563 408.5 Q570 394 570 378 Q570 361 563 346.5 Q556 332 544.5 321 Q533 310 517.5 303.5 Q502 297 484 297 Q466 297 450.5 303.5 Q435 310 423.5 321 Q412 332 405.5 346.5 Q399 361 399 378 Z " />
<glyph glyph-name="ldot" unicode="&#x140;" horiz-adv-x="485" d="M312 368 Q312 384 318.5 398.5 Q325 413 336.5 424 Q348 435 363.5 441.5 Q379 448 397 448 Q415 448 430.5 441.5 Q446 435 457.5 424 Q469 413 476 398.5 Q483 384 483 368 Q483 351 476 336.5 Q469 322 457.5 311 Q446 300 430.5 293.5 Q415 287 397 287 Q379 287 363.5 293.5 Q348 300 336.5 311 Q325 322 318.5 336.5 Q312 351 312 368 Z M186 730 Q216 730 224 716 Q232 702 232 686 L232 98 L249 80 L294 80 L294 0 L18 0 L18 80 L62 80 L80 98 L80 627 L62 645 L18 645 L18 730 L186 730 Z " />
<glyph glyph-name="Lslash" unicode="&#x141;" horiz-adv-x="572" d="M265 426 L375 478 L375 394 L265 342 L265 102 L439 102 L457 119 L457 211 L550 211 L550 0 L41 0 L41 85 L85 85 L103 103 L103 267 L30 233 L30 317 L103 351 L103 597 L85 615 L41 615 L41 700 L327 700 L327 615 L282 615 L265 597 L265 426 Z " />
<glyph glyph-name="lslash" unicode="&#x142;" horiz-adv-x="322" d="M187 730 Q217 730 225 716 Q233 702 233 686 L233 439 L312 480 L312 396 L233 355 L233 98 L250 80 L295 80 L295 0 L19 0 L19 80 L63 80 L81 98 L81 276 L1 235 L1 319 L81 360 L81 627 L63 645 L19 645 L19 730 L187 730 Z " />
<glyph glyph-name="Nacute" unicode="&#x143;" horiz-adv-x="731" d="M354 747 L312 793 L443 926 L469 926 L540 838 L374 747 L354 747 Z M39 0 L39 85 L83 85 L101 103 L101 597 L83 615 L39 615 L39 700 L241 700 L517 275 L517 597 L499 615 L455 615 L455 700 L699 700 L699 615 L654 615 L637 597 L637 -3 L523 -3 L221 461 L221 103 L238 85 L283 85 L283 0 L39 0 Z " />
<glyph glyph-name="nacute" unicode="&#x144;" horiz-adv-x="616" d="M310 577 L268 623 L399 756 L425 756 L496 668 L330 577 L310 577 Z M26 0 L26 80 L70 80 L88 98 L88 427 L70 445 L26 445 L26 530 L185 530 Q215 530 223 516 Q231 502 231 486 L231 468 L234 468 Q240 475 253 487.5 Q266 500 285 511.5 Q304 523 328.5 531.5 Q353 540 383 540 Q428 540 457.5 527.5 Q487 515 504.5 493 Q522 471 529.5 442 Q537 413 537 380 L537 98 L555 80 L599 80 L599 0 L335 0 L335 80 L368 80 L385 98 L385 356 Q385 367 383.5 379.5 Q382 392 375.5 402.5 Q369 413 356 420 Q343 427 319 427 Q293 427 272 417.5 Q251 408 240 400 L240 98 L257 80 L290 80 L290 0 L26 0 Z " />
<glyph glyph-name="uni0145" unicode="&#x145;" horiz-adv-x="731" d="M312 -258 L340 -210 L331 -190 Q297 -174 297 -132 Q297 -96 314.5 -77 Q332 -58 370 -58 Q407 -58 425.5 -76.5 Q444 -95 444 -128 Q444 -139 439.5 -151 Q435 -163 429 -175 L368 -287 L312 -258 Z M39 0 L39 85 L83 85 L101 103 L101 597 L83 615 L39 615 L39 700 L241 700 L517 275 L517 597 L499 615 L455 615 L455 700 L699 700 L699 615 L654 615 L637 597 L637 -3 L523 -3 L221 461 L221 103 L238 85 L283 85 L283 0 L39 0 Z " />
<glyph glyph-name="uni0146" unicode="&#x146;" horiz-adv-x="616" d="M253 -258 L281 -210 L272 -190 Q238 -174 238 -132 Q238 -96 255.5 -77 Q273 -58 311 -58 Q348 -58 366.5 -76.5 Q385 -95 385 -128 Q385 -139 380.5 -151 Q376 -163 370 -175 L309 -287 L253 -258 Z M26 0 L26 80 L70 80 L88 98 L88 427 L70 445 L26 445 L26 530 L185 530 Q215 530 223 516 Q231 502 231 486 L231 468 L234 468 Q240 475 253 487.5 Q266 500 285 511.5 Q304 523 328.5 531.5 Q353 540 383 540 Q428 540 457.5 527.5 Q487 515 504.5 493 Q522 471 529.5 442 Q537 413 537 380 L537 98 L555 80 L599 80 L599 0 L335 0 L335 80 L368 80 L385 98 L385 356 Q385 367 383.5 379.5 Q382 392 375.5 402.5 Q369 413 356 420 Q343 427 319 427 Q293 427 272 417.5 Q251 408 240 400 L240 98 L257 80 L290 80 L290 0 L26 0 Z " />
<glyph glyph-name="Ncaron" unicode="&#x147;" horiz-adv-x="731" d="M39 0 L39 85 L83 85 L101 103 L101 597 L83 615 L39 615 L39 700 L241 700 L517 275 L517 597 L499 615 L455 615 L455 700 L699 700 L699 615 L654 615 L637 597 L637 -3 L523 -3 L221 461 L221 103 L238 85 L283 85 L283 0 L39 0 Z M510 929 L539 894 L399 747 L350 747 L209 894 L238 929 L261 929 L374 860 L487 929 L510 929 Z " />
<glyph glyph-name="ncaron" unicode="&#x148;" horiz-adv-x="616" d="M446 759 L475 724 L335 577 L286 577 L146 724 L175 759 L198 759 L310 690 L423 759 L446 759 Z M26 0 L26 80 L70 80 L88 98 L88 427 L70 445 L26 445 L26 530 L185 530 Q215 530 223 516 Q231 502 231 486 L231 468 L234 468 Q240 475 253 487.5 Q266 500 285 511.5 Q304 523 328.5 531.5 Q353 540 383 540 Q428 540 457.5 527.5 Q487 515 504.5 493 Q522 471 529.5 442 Q537 413 537 380 L537 98 L555 80 L599 80 L599 0 L335 0 L335 80 L368 80 L385 98 L385 356 Q385 367 383.5 379.5 Q382 392 375.5 402.5 Q369 413 356 420 Q343 427 319 427 Q293 427 272 417.5 Q251 408 240 400 L240 98 L257 80 L290 80 L290 0 L26 0 Z " />
<glyph glyph-name="napostrophe" unicode="&#x149;" horiz-adv-x="616" d="M43 599 L71 647 L62 667 Q28 683 28 725 Q28 761 45.5 780 Q63 799 101 799 Q138 799 156.5 780.5 Q175 762 175 729 Q175 718 170.5 706 Q166 694 160 682 L99 570 L43 599 Z M26 0 L26 80 L70 80 L88 98 L88 427 L70 445 L26 445 L26 530 L185 530 Q215 530 223 516 Q231 502 231 486 L231 468 L234 468 Q240 475 253 487.5 Q266 500 285 511.5 Q304 523 328.5 531.5 Q353 540 383 540 Q428 540 457.5 527.5 Q487 515 504.5 493 Q522 471 529.5 442 Q537 413 537 380 L537 98 L555 80 L599 80 L599 0 L335 0 L335 80 L368 80 L385 98 L385 356 Q385 367 383.5 379.5 Q382 392 375.5 402.5 Q369 413 356 420 Q343 427 319 427 Q293 427 272 417.5 Q251 408 240 400 L240 98 L257 80 L290 80 L290 0 L26 0 Z " />
<glyph glyph-name="Omacron" unicode="&#x14c;" horiz-adv-x="674" d="M37 350 Q37 441 59.5 509 Q82 577 122 621.5 Q162 666 217 688 Q272 710 337 710 Q402 710 457 688 Q512 666 552 621.5 Q592 577 614.5 509 Q637 441 637 350 Q637 258 614.5 190.5 Q592 123 552 78.5 Q512 34 457 12 Q402 -10 337 -10 Q272 -10 217 12 Q162 34 122 78.5 Q82 123 59.5 190.5 Q37 258 37 350 Z M207 350 Q207 220 236 158.5 Q265 97 337 97 Q409 97 438 158.5 Q467 220 467 350 Q467 480 438 541.5 Q409 603 337 603 Q265 603 236 541.5 Q207 480 207 350 Z M211 876 L475 876 L475 788 L211 788 L211 876 Z " />
<glyph glyph-name="omacron" unicode="&#x14d;" horiz-adv-x="544" d="M149 706 L413 706 L413 618 L149 618 L149 706 Z M515 265 Q515 195 495.5 143 Q476 91 443 57 Q410 23 366 6.5 Q322 -10 272 -10 Q222 -10 178 6.5 Q134 23 101 57 Q68 91 48.5 143 Q29 195 29 265 Q29 335 48.5 387 Q68 439 101 473 Q134 507 178 523.5 Q222 540 272 540 Q322 540 366 523.5 Q410 507 443 473 Q476 439 495.5 387 Q515 335 515 265 Z M357 265 Q357 353 339 397.5 Q321 442 272 442 Q223 442 205 397.5 Q187 353 187 265 Q187 177 205 132.5 Q223 88 272 88 Q321 88 339 132.5 Q357 177 357 265 Z " />
<glyph glyph-name="Obreve" unicode="&#x14e;" horiz-adv-x="674" d="M37 350 Q37 441 59.5 509 Q82 577 122 621.5 Q162 666 217 688 Q272 710 337 710 Q402 710 457 688 Q512 666 552 621.5 Q592 577 614.5 509 Q637 441 637 350 Q637 258 614.5 190.5 Q592 123 552 78.5 Q512 34 457 12 Q402 -10 337 -10 Q272 -10 217 12 Q162 34 122 78.5 Q82 123 59.5 190.5 Q37 258 37 350 Z M207 350 Q207 220 236 158.5 Q265 97 337 97 Q409 97 438 158.5 Q467 220 467 350 Q467 480 438 541.5 Q409 603 337 603 Q265 603 236 541.5 Q207 480 207 350 Z M476 876 Q471 853 461 832.5 Q451 812 434.5 795.5 Q418 779 395.5 769.5 Q373 760 344 760 Q315 760 292.5 769.5 Q270 779 253.5 795.5 Q237 812 226.5 832.5 Q216 853 212 876 L282 895 Q288 875 303 858.5 Q318 842 345 842 Q374 842 391 857 Q408 872 414 891 L476 876 Z " />
<glyph glyph-name="obreve" unicode="&#x14f;" horiz-adv-x="544" d="M515 265 Q515 195 495.5 143 Q476 91 443 57 Q410 23 366 6.5 Q322 -10 272 -10 Q222 -10 178 6.5 Q134 23 101 57 Q68 91 48.5 143 Q29 195 29 265 Q29 335 48.5 387 Q68 439 101 473 Q134 507 178 523.5 Q222 540 272 540 Q322 540 366 523.5 Q410 507 443 473 Q476 439 495.5 387 Q515 335 515 265 Z M357 265 Q357 353 339 397.5 Q321 442 272 442 Q223 442 205 397.5 Q187 353 187 265 Q187 177 205 132.5 Q223 88 272 88 Q321 88 339 132.5 Q357 177 357 265 Z M412 706 Q407 683 397 662.5 Q387 642 370.5 625.5 Q354 609 331.5 599.5 Q309 590 280 590 Q251 590 228.5 599.5 Q206 609 189.5 625.5 Q173 642 162.5 662.5 Q152 683 148 706 L218 725 Q224 705 239 688.5 Q254 672 281 672 Q310 672 327 687 Q344 702 350 721 L412 706 Z " />
<glyph glyph-name="Ohungarumlaut" unicode="&#x150;" horiz-adv-x="674" d="M263 747 L227 787 L346 926 L372 926 L428 867 L283 747 L263 747 Z M399 747 L373 784 L494 901 L520 901 L580 833 L419 747 L399 747 Z M37 350 Q37 441 59.5 509 Q82 577 122 621.5 Q162 666 217 688 Q272 710 337 710 Q402 710 457 688 Q512 666 552 621.5 Q592 577 614.5 509 Q637 441 637 350 Q637 258 614.5 190.5 Q592 123 552 78.5 Q512 34 457 12 Q402 -10 337 -10 Q272 -10 217 12 Q162 34 122 78.5 Q82 123 59.5 190.5 Q37 258 37 350 Z M207 350 Q207 220 236 158.5 Q265 97 337 97 Q409 97 438 158.5 Q467 220 467 350 Q467 480 438 541.5 Q409 603 337 603 Q265 603 236 541.5 Q207 480 207 350 Z " />
<glyph glyph-name="ohungarumlaut" unicode="&#x151;" horiz-adv-x="544" d="M202 577 L166 617 L285 756 L311 756 L367 697 L222 577 L202 577 Z M338 577 L312 614 L433 731 L459 731 L519 663 L358 577 L338 577 Z M515 265 Q515 195 495.5 143 Q476 91 443 57 Q410 23 366 6.5 Q322 -10 272 -10 Q222 -10 178 6.5 Q134 23 101 57 Q68 91 48.5 143 Q29 195 29 265 Q29 335 48.5 387 Q68 439 101 473 Q134 507 178 523.5 Q222 540 272 540 Q322 540 366 523.5 Q410 507 443 473 Q476 439 495.5 387 Q515 335 515 265 Z M357 265 Q357 353 339 397.5 Q321 442 272 442 Q223 442 205 397.5 Q187 353 187 265 Q187 177 205 132.5 Q223 88 272 88 Q321 88 339 132.5 Q357 177 357 265 Z " />
<glyph glyph-name="OE" unicode="&#x152;" horiz-adv-x="990" d="M355 710 Q391 710 423.5 707.5 Q456 705 485 700 L944 700 L944 503 L851 503 L851 583 L833 600 L628 600 L628 406 L737 406 L754 422 L754 462 L839 462 L839 253 L754 253 L754 293 L738 308 L628 308 L628 100 L843 100 L861 117 L861 197 L954 197 L954 0 L482 0 Q453 -5 421.5 -7.5 Q390 -10 355 -10 Q283 -10 224 11.5 Q165 33 123.5 77 Q82 121 59.5 189 Q37 257 37 350 Q37 443 59.5 511 Q82 579 123.5 623 Q165 667 224 688.5 Q283 710 355 710 Z M355 97 Q389 97 417 101 Q445 105 466 114 L466 583 Q426 603 355 603 Q311 603 282 587.5 Q253 572 236 540.5 Q219 509 212 461.5 Q205 414 205 350 Q205 286 212 238.5 Q219 191 236 159.5 Q253 128 282 112.5 Q311 97 355 97 Z " />
<glyph glyph-name="oe" unicode="&#x153;" horiz-adv-x="816" d="M29 265 Q29 335 48.5 387 Q68 439 101 473 Q134 507 178 523.5 Q222 540 272 540 Q381 540 431 463 Q482 540 578 540 Q681 540 735 481.5 Q789 423 789 325 L789 243 L771 224 L503 224 Q511 149 549 118.5 Q587 88 645 88 Q687 88 717.5 96.5 Q748 105 761 109 L761 27 Q741 13 700 1.5 Q659 -10 593 -10 Q539 -10 497.5 8 Q456 26 429 64 Q379 -10 272 -10 Q222 -10 178 6.5 Q134 23 101 57 Q68 91 48.5 143 Q29 195 29 265 Z M187 265 Q187 177 205 132.5 Q223 88 272 88 Q321 88 339 132.5 Q357 177 357 265 Q357 353 339 397.5 Q321 442 272 442 Q223 442 205 397.5 Q187 353 187 265 Z M577 444 Q513 444 504 309 L641 309 L641 344 Q641 395 627.5 419.5 Q614 444 577 444 Z " />
<glyph glyph-name="Racute" unicode="&#x154;" horiz-adv-x="677" d="M102 597 L84 615 L40 615 L40 700 L342 700 Q403 700 453 689 Q503 678 538 654 Q573 630 592 593.5 Q611 557 611 506 Q611 463 596.5 431 Q582 399 559.5 377.5 Q537 356 509.5 344.5 Q482 333 457 330 L457 329 Q498 325 524.5 303 Q551 281 570 223 L609 101 L629 85 L662 85 L662 0 L512 0 Q484 0 468.5 14 Q453 28 446 52 L399 222 Q389 256 381.5 268 Q374 280 356 280 L264 280 L264 103 L281 85 L334 85 L334 0 L40 0 L40 85 L84 85 L102 103 L102 597 Z M264 602 L264 378 L338 378 Q395 378 419.5 407 Q444 436 444 497 Q444 547 419.5 574.5 Q395 602 338 602 L264 602 Z M320 747 L278 793 L409 926 L435 926 L506 838 L340 747 L320 747 Z " />
<glyph glyph-name="racute" unicode="&#x155;" horiz-adv-x="436" d="M220 577 L178 623 L309 756 L335 756 L406 668 L240 577 L220 577 Z M257 80 L313 80 L313 0 L26 0 L26 80 L70 80 L88 98 L88 427 L70 445 L26 445 L26 530 L185 530 Q215 530 223 516 Q231 502 231 486 L231 459 L234 459 Q239 466 251.5 479.5 Q264 493 282.5 506.5 Q301 520 325.5 530 Q350 540 380 540 Q388 540 394.5 539.5 Q401 539 407 538 Q413 537 420 537 L420 328 L328 328 L328 398 L311 414 Q288 409 269.5 401 Q251 393 240 387 L240 98 L257 80 Z " />
<glyph glyph-name="uni0156" unicode="&#x156;" horiz-adv-x="677" d="M325 -258 L353 -210 L344 -190 Q310 -174 310 -132 Q310 -96 327.5 -77 Q345 -58 383 -58 Q420 -58 438.5 -76.5 Q457 -95 457 -128 Q457 -139 452.5 -151 Q448 -163 442 -175 L381 -287 L325 -258 Z M102 597 L84 615 L40 615 L40 700 L342 700 Q403 700 453 689 Q503 678 538 654 Q573 630 592 593.5 Q611 557 611 506 Q611 463 596.5 431 Q582 399 559.5 377.5 Q537 356 509.5 344.5 Q482 333 457 330 L457 329 Q498 325 524.5 303 Q551 281 570 223 L609 101 L629 85 L662 85 L662 0 L512 0 Q484 0 468.5 14 Q453 28 446 52 L399 222 Q389 256 381.5 268 Q374 280 356 280 L264 280 L264 103 L281 85 L334 85 L334 0 L40 0 L40 85 L84 85 L102 103 L102 597 Z M264 602 L264 378 L338 378 Q395 378 419.5 407 Q444 436 444 497 Q444 547 419.5 574.5 Q395 602 338 602 L264 602 Z " />
<glyph glyph-name="uni0157" unicode="&#x157;" horiz-adv-x="436" d="M106 -258 L134 -210 L125 -190 Q91 -174 91 -132 Q91 -96 108.5 -77 Q126 -58 164 -58 Q201 -58 219.5 -76.5 Q238 -95 238 -128 Q238 -139 233.5 -151 Q229 -163 223 -175 L162 -287 L106 -258 Z M257 80 L313 80 L313 0 L26 0 L26 80 L70 80 L88 98 L88 427 L70 445 L26 445 L26 530 L185 530 Q215 530 223 516 Q231 502 231 486 L231 459 L234 459 Q239 466 251.5 479.5 Q264 493 282.5 506.5 Q301 520 325.5 530 Q350 540 380 540 Q388 540 394.5 539.5 Q401 539 407 538 Q413 537 420 537 L420 328 L328 328 L328 398 L311 414 Q288 409 269.5 401 Q251 393 240 387 L240 98 L257 80 Z " />
<glyph glyph-name="Rcaron" unicode="&#x158;" horiz-adv-x="677" d="M102 597 L84 615 L40 615 L40 700 L342 700 Q403 700 453 689 Q503 678 538 654 Q573 630 592 593.5 Q611 557 611 506 Q611 463 596.5 431 Q582 399 559.5 377.5 Q537 356 509.5 344.5 Q482 333 457 330 L457 329 Q498 325 524.5 303 Q551 281 570 223 L609 101 L629 85 L662 85 L662 0 L512 0 Q484 0 468.5 14 Q453 28 446 52 L399 222 Q389 256 381.5 268 Q374 280 356 280 L264 280 L264 103 L281 85 L334 85 L334 0 L40 0 L40 85 L84 85 L102 103 L102 597 Z M264 602 L264 378 L338 378 Q395 378 419.5 407 Q444 436 444 497 Q444 547 419.5 574.5 Q395 602 338 602 L264 602 Z M476 929 L505 894 L365 747 L316 747 L175 894 L204 929 L227 929 L340 860 L453 929 L476 929 Z " />
<glyph glyph-name="rcaron" unicode="&#x159;" horiz-adv-x="436" d="M366 759 L395 724 L255 577 L206 577 L66 724 L95 759 L118 759 L230 690 L343 759 L366 759 Z M257 80 L313 80 L313 0 L26 0 L26 80 L70 80 L88 98 L88 427 L70 445 L26 445 L26 530 L185 530 Q215 530 223 516 Q231 502 231 486 L231 459 L234 459 Q239 466 251.5 479.5 Q264 493 282.5 506.5 Q301 520 325.5 530 Q350 540 380 540 Q388 540 394.5 539.5 Q401 539 407 538 Q413 537 420 537 L420 328 L328 328 L328 398 L311 414 Q288 409 269.5 401 Q251 393 240 387 L240 98 L257 80 Z " />
<glyph glyph-name="Sacute" unicode="&#x15a;" horiz-adv-x="559" d="M525 219 Q525 161 505.5 118 Q486 75 450 46.5 Q414 18 364 4 Q314 -10 254 -10 Q209 -10 170.5 -6 Q132 -2 104 3 Q71 9 44 17 L44 211 L141 211 L141 120 L159 102 Q179 98 202.5 96 Q226 94 254 94 Q318 94 343 118.5 Q368 143 368 182 Q368 201 362.5 215.5 Q357 230 344.5 242 Q332 254 310 264 Q288 274 255 283 Q203 298 164 316.5 Q125 335 99 361 Q73 387 60 422 Q47 457 47 505 Q47 553 66.5 591.5 Q86 630 121 656 Q156 682 203.5 696 Q251 710 308 710 Q350 710 385 706 Q420 702 446 697 Q476 691 501 684 L501 499 L404 499 L404 582 L387 599 Q370 602 351 604 Q332 606 310 606 Q256 606 226 584.5 Q196 563 196 527 Q196 512 199.5 499 Q203 486 216 473.5 Q229 461 253 449 Q277 437 319 425 Q367 411 405.5 392.5 Q444 374 470.5 349.5 Q497 325 511 293 Q525 261 525 219 Z M293 747 L251 793 L382 926 L408 926 L479 838 L313 747 L293 747 Z " />
<glyph glyph-name="sacute" unicode="&#x15b;" horiz-adv-x="467" d="M246 577 L204 623 L335 756 L361 756 L432 668 L266 577 L246 577 Z M439 168 Q439 125 422 92 Q405 59 375 36.5 Q345 14 303.5 2 Q262 -10 214 -10 Q172 -10 140 -7 Q108 -4 85 1 Q58 6 37 13 L37 162 L126 162 L126 103 L143 85 Q158 83 175 81.5 Q192 80 212 80 Q253 80 271.5 97.5 Q290 115 290 136 Q290 149 287 159 Q284 169 274 176.5 Q264 184 245 191 Q226 198 195 207 Q148 220 117.5 238 Q87 256 69.5 277.5 Q52 299 45 324.5 Q38 350 38 377 Q38 413 53.5 442.5 Q69 472 97.5 494 Q126 516 167.5 528 Q209 540 260 540 Q292 540 320.5 537 Q349 534 371 531 Q396 527 417 523 L417 378 L328 378 L328 430 L311 446 Q299 448 285.5 449.5 Q272 451 258 451 Q221 451 200.5 437 Q180 423 180 400 Q180 390 182 381.5 Q184 373 192.5 365.5 Q201 358 216.5 350.5 Q232 343 259 335 Q307 321 341 306 Q375 291 396.5 271.5 Q418 252 428.5 227 Q439 202 439 168 Z " />
<glyph glyph-name="Scircumflex" unicode="&#x15c;" horiz-adv-x="559" d="M525 219 Q525 161 505.5 118 Q486 75 450 46.5 Q414 18 364 4 Q314 -10 254 -10 Q209 -10 170.5 -6 Q132 -2 104 3 Q71 9 44 17 L44 211 L141 211 L141 120 L159 102 Q179 98 202.5 96 Q226 94 254 94 Q318 94 343 118.5 Q368 143 368 182 Q368 201 362.5 215.5 Q357 230 344.5 242 Q332 254 310 264 Q288 274 255 283 Q203 298 164 316.5 Q125 335 99 361 Q73 387 60 422 Q47 457 47 505 Q47 553 66.5 591.5 Q86 630 121 656 Q156 682 203.5 696 Q251 710 308 710 Q350 710 385 706 Q420 702 446 697 Q476 691 501 684 L501 499 L404 499 L404 582 L387 599 Q370 602 351 604 Q332 606 310 606 Q256 606 226 584.5 Q196 563 196 527 Q196 512 199.5 499 Q203 486 216 473.5 Q229 461 253 449 Q277 437 319 425 Q367 411 405.5 392.5 Q444 374 470.5 349.5 Q497 325 511 293 Q525 261 525 219 Z M175 747 L146 782 L286 929 L335 929 L475 782 L446 747 L423 747 L311 816 L198 747 L175 747 Z " />
<glyph glyph-name="scircumflex" unicode="&#x15d;" horiz-adv-x="467" d="M117 577 L90 610 L227 756 L273 756 L410 610 L383 577 L361 577 L250 650 L139 577 L117 577 Z M439 168 Q439 125 422 92 Q405 59 375 36.5 Q345 14 303.5 2 Q262 -10 214 -10 Q172 -10 140 -7 Q108 -4 85 1 Q58 6 37 13 L37 162 L126 162 L126 103 L143 85 Q158 83 175 81.5 Q192 80 212 80 Q253 80 271.5 97.5 Q290 115 290 136 Q290 149 287 159 Q284 169 274 176.5 Q264 184 245 191 Q226 198 195 207 Q148 220 117.5 238 Q87 256 69.5 277.5 Q52 299 45 324.5 Q38 350 38 377 Q38 413 53.5 442.5 Q69 472 97.5 494 Q126 516 167.5 528 Q209 540 260 540 Q292 540 320.5 537 Q349 534 371 531 Q396 527 417 523 L417 378 L328 378 L328 430 L311 446 Q299 448 285.5 449.5 Q272 451 258 451 Q221 451 200.5 437 Q180 423 180 400 Q180 390 182 381.5 Q184 373 192.5 365.5 Q201 358 216.5 350.5 Q232 343 259 335 Q307 321 341 306 Q375 291 396.5 271.5 Q418 252 428.5 227 Q439 202 439 168 Z " />
<glyph glyph-name="Scedilla" unicode="&#x15e;" horiz-adv-x="559" d="M525 219 Q525 161 505.5 118 Q486 75 450 46.5 Q414 18 364 4 Q314 -10 254 -10 Q209 -10 170.5 -6 Q132 -2 104 3 Q71 9 44 17 L44 211 L141 211 L141 120 L159 102 Q179 98 202.5 96 Q226 94 254 94 Q318 94 343 118.5 Q368 143 368 182 Q368 201 362.5 215.5 Q357 230 344.5 242 Q332 254 310 264 Q288 274 255 283 Q203 298 164 316.5 Q125 335 99 361 Q73 387 60 422 Q47 457 47 505 Q47 553 66.5 591.5 Q86 630 121 656 Q156 682 203.5 696 Q251 710 308 710 Q350 710 385 706 Q420 702 446 697 Q476 691 501 684 L501 499 L404 499 L404 582 L387 599 Q370 602 351 604 Q332 606 310 606 Q256 606 226 584.5 Q196 563 196 527 Q196 512 199.5 499 Q203 486 216 473.5 Q229 461 253 449 Q277 437 319 425 Q367 411 405.5 392.5 Q444 374 470.5 349.5 Q497 325 511 293 Q525 261 525 219 Z M232 -180 Q200 -180 170.5 -171.5 Q141 -163 124 -151 L145 -109 Q154 -114 176.5 -122 Q199 -130 219 -130 Q233 -130 242 -125.5 Q251 -121 251 -107 Q251 -90 228.5 -80.5 Q206 -71 168 -66 L168 -46 L220 15 L300 15 L259 -36 Q301 -38 327.5 -53.5 Q354 -69 354 -102 Q354 -124 343.5 -139 Q333 -154 316 -163 Q299 -172 277 -176 Q255 -180 232 -180 Z " />
<glyph glyph-name="scedilla" unicode="&#x15f;" horiz-adv-x="467" d="M439 168 Q439 125 422 92 Q405 59 375 36.5 Q345 14 303.5 2 Q262 -10 214 -10 Q172 -10 140 -7 Q108 -4 85 1 Q58 6 37 13 L37 162 L126 162 L126 103 L143 85 Q158 83 175 81.5 Q192 80 212 80 Q253 80 271.5 97.5 Q290 115 290 136 Q290 149 287 159 Q284 169 274 176.5 Q264 184 245 191 Q226 198 195 207 Q148 220 117.5 238 Q87 256 69.5 277.5 Q52 299 45 324.5 Q38 350 38 377 Q38 413 53.5 442.5 Q69 472 97.5 494 Q126 516 167.5 528 Q209 540 260 540 Q292 540 320.5 537 Q349 534 371 531 Q396 527 417 523 L417 378 L328 378 L328 430 L311 446 Q299 448 285.5 449.5 Q272 451 258 451 Q221 451 200.5 437 Q180 423 180 400 Q180 390 182 381.5 Q184 373 192.5 365.5 Q201 358 216.5 350.5 Q232 343 259 335 Q307 321 341 306 Q375 291 396.5 271.5 Q418 252 428.5 227 Q439 202 439 168 Z M188 -180 Q156 -180 126.5 -171.5 Q97 -163 80 -151 L101 -109 Q110 -114 132.5 -122 Q155 -130 175 -130 Q189 -130 198 -125.5 Q207 -121 207 -107 Q207 -90 184.5 -80.5 Q162 -71 124 -66 L124 -46 L176 15 L256 15 L215 -36 Q257 -38 283.5 -53.5 Q310 -69 310 -102 Q310 -124 299.5 -139 Q289 -154 272 -163 Q255 -172 233 -176 Q211 -180 188 -180 Z " />
<glyph glyph-name="Scaron" unicode="&#x160;" horiz-adv-x="559" d="M525 219 Q525 161 505.5 118 Q486 75 450 46.5 Q414 18 364 4 Q314 -10 254 -10 Q209 -10 170.5 -6 Q132 -2 104 3 Q71 9 44 17 L44 211 L141 211 L141 120 L159 102 Q179 98 202.5 96 Q226 94 254 94 Q318 94 343 118.5 Q368 143 368 182 Q368 201 362.5 215.5 Q357 230 344.5 242 Q332 254 310 264 Q288 274 255 283 Q203 298 164 316.5 Q125 335 99 361 Q73 387 60 422 Q47 457 47 505 Q47 553 66.5 591.5 Q86 630 121 656 Q156 682 203.5 696 Q251 710 308 710 Q350 710 385 706 Q420 702 446 697 Q476 691 501 684 L501 499 L404 499 L404 582 L387 599 Q370 602 351 604 Q332 606 310 606 Q256 606 226 584.5 Q196 563 196 527 Q196 512 199.5 499 Q203 486 216 473.5 Q229 461 253 449 Q277 437 319 425 Q367 411 405.5 392.5 Q444 374 470.5 349.5 Q497 325 511 293 Q525 261 525 219 Z M449 929 L478 894 L338 747 L289 747 L148 894 L177 929 L200 929 L313 860 L426 929 L449 929 Z " />
<glyph glyph-name="scaron" unicode="&#x161;" horiz-adv-x="467" d="M398 759 L427 724 L287 577 L238 577 L98 724 L127 759 L150 759 L262 690 L375 759 L398 759 Z M439 168 Q439 125 422 92 Q405 59 375 36.5 Q345 14 303.5 2 Q262 -10 214 -10 Q172 -10 140 -7 Q108 -4 85 1 Q58 6 37 13 L37 162 L126 162 L126 103 L143 85 Q158 83 175 81.5 Q192 80 212 80 Q253 80 271.5 97.5 Q290 115 290 136 Q290 149 287 159 Q284 169 274 176.5 Q264 184 245 191 Q226 198 195 207 Q148 220 117.5 238 Q87 256 69.5 277.5 Q52 299 45 324.5 Q38 350 38 377 Q38 413 53.5 442.5 Q69 472 97.5 494 Q126 516 167.5 528 Q209 540 260 540 Q292 540 320.5 537 Q349 534 371 531 Q396 527 417 523 L417 378 L328 378 L328 430 L311 446 Q299 448 285.5 449.5 Q272 451 258 451 Q221 451 200.5 437 Q180 423 180 400 Q180 390 182 381.5 Q184 373 192.5 365.5 Q201 358 216.5 350.5 Q232 343 259 335 Q307 321 341 306 Q375 291 396.5 271.5 Q418 252 428.5 227 Q439 202 439 168 Z " />
<glyph glyph-name="uni0162" unicode="&#x162;" horiz-adv-x="602" d="M284 -180 Q252 -180 222.5 -171.5 Q193 -163 176 -151 L197 -109 Q206 -114 228.5 -122 Q251 -130 271 -130 Q285 -130 294 -125.5 Q303 -121 303 -107 Q303 -90 280.5 -80.5 Q258 -71 220 -66 L220 -46 L272 15 L352 15 L311 -36 Q353 -38 379.5 -53.5 Q406 -69 406 -102 Q406 -124 395.5 -139 Q385 -154 368 -163 Q351 -172 329 -176 Q307 -180 284 -180 Z M23 700 L579 700 L579 499 L490 499 L490 578 L472 596 L382 596 L382 103 L399 85 L454 85 L454 0 L148 0 L148 85 L202 85 L220 103 L220 596 L130 596 L112 578 L112 499 L23 499 L23 700 Z " />
<glyph glyph-name="uni0163" unicode="&#x163;" horiz-adv-x="359" d="M185 -180 Q153 -180 123.5 -171.5 Q94 -163 77 -151 L98 -109 Q107 -114 129.5 -122 Q152 -130 172 -130 Q186 -130 195 -125.5 Q204 -121 204 -107 Q204 -90 181.5 -80.5 Q159 -71 121 -66 L121 -46 L173 15 L253 15 L212 -36 Q254 -38 280.5 -53.5 Q307 -69 307 -102 Q307 -124 296.5 -139 Q286 -154 269 -163 Q252 -172 230 -176 Q208 -180 185 -180 Z M233 445 L233 98 L251 80 L348 80 L348 0 Q329 -3 307 -5 Q288 -7 263.5 -8.5 Q239 -10 213 -10 Q147 -10 114 17.5 Q81 45 81 114 L81 445 L19 445 L19 528 L63 528 L81 546 L138 670 L233 670 L233 528 L345 528 L345 445 L233 445 Z " />
<glyph glyph-name="Tcaron" unicode="&#x164;" horiz-adv-x="602" d="M23 700 L579 700 L579 499 L490 499 L490 578 L472 596 L382 596 L382 103 L399 85 L454 85 L454 0 L148 0 L148 85 L202 85 L220 103 L220 596 L130 596 L112 578 L112 499 L23 499 L23 700 Z M437 930 L466 895 L326 748 L277 748 L136 895 L165 930 L188 930 L301 861 L414 930 L437 930 Z " />
<glyph glyph-name="tcaron" unicode="&#x165;" horiz-adv-x="358" d="M298 582 L298 780 L407 780 L407 719 L388 582 L298 582 Z M233 445 L233 98 L251 80 L348 80 L348 0 Q329 -3 307 -5 Q288 -7 263.5 -8.5 Q239 -10 213 -10 Q147 -10 114 17.5 Q81 45 81 114 L81 445 L19 445 L19 528 L63 528 L81 546 L138 670 L233 670 L233 528 L345 528 L345 445 L233 445 Z " />
<glyph glyph-name="Tbar" unicode="&#x166;" horiz-adv-x="602" d="M23 700 L579 700 L579 499 L490 499 L490 578 L472 596 L382 596 L382 385 L482 385 L482 312 L382 312 L382 103 L399 85 L454 85 L454 0 L148 0 L148 85 L202 85 L220 103 L220 312 L120 312 L120 385 L220 385 L220 596 L130 596 L112 578 L112 499 L23 499 L23 700 Z " />
<glyph glyph-name="tbar" unicode="&#x167;" horiz-adv-x="361" d="M233 445 L233 335 L345 335 L345 262 L233 262 L233 98 L251 80 L348 80 L348 0 Q329 -3 307 -5 Q288 -7 263.5 -8.5 Q239 -10 213 -10 Q147 -10 114 17.5 Q81 45 81 114 L81 262 L24 262 L24 335 L81 335 L81 445 L19 445 L19 528 L63 528 L81 546 L138 670 L233 670 L233 528 L345 528 L345 445 L233 445 Z " />
<glyph glyph-name="Utilde" unicode="&#x168;" horiz-adv-x="679" d="M469 597 L451 615 L407 615 L407 700 L655 700 L655 615 L610 615 L593 597 L593 231 Q593 169 575.5 123.5 Q558 78 525.5 48.5 Q493 19 447.5 4.5 Q402 -10 346 -10 Q287 -10 239.5 4.5 Q192 19 158 48.5 Q124 78 105.5 123.5 Q87 169 87 231 L87 597 L69 615 L25 615 L25 700 L313 700 L313 615 L268 615 L251 597 L251 229 Q251 163 275 130 Q299 97 356 97 Q390 97 411.5 105.5 Q433 114 446 130.5 Q459 147 464 171.5 Q469 196 469 229 L469 597 Z M520 898 L520 853 Q520 802 496.5 779.5 Q473 757 433 757 Q412 757 393 762.5 Q374 768 356 775 Q338 782 322 787.5 Q306 793 291 793 Q283 793 278.5 791.5 Q274 790 271 788 Q267 786 266 784 L266 746 L202 746 L202 787 Q202 848 225.5 870 Q249 892 285 892 Q306 892 324.5 885.5 Q343 879 361 871.5 Q379 864 396.5 857.5 Q414 851 432 851 Q441 851 446 853 Q451 855 454 858 Q457 861 458 865 L458 898 L520 898 Z " />
<glyph glyph-name="utilde" unicode="&#x169;" horiz-adv-x="600" d="M476 530 Q506 530 514 516 Q522 502 522 486 L522 98 L540 80 L584 80 L584 0 L425 0 Q395 0 387 14 Q379 28 379 44 L379 62 L376 62 Q369 54 356 41.5 Q343 29 325 17.5 Q307 6 283.5 -2 Q260 -10 232 -10 Q187 -10 157.5 2.5 Q128 15 110.5 37 Q93 59 85.5 88 Q78 117 78 150 L78 427 L60 445 L16 445 L16 530 L184 530 Q214 530 222 514 Q230 498 230 481 L230 174 Q230 163 231.5 150.5 Q233 138 239 127.5 Q245 117 257 110 Q269 103 291 103 Q317 103 337.5 112.5 Q358 122 370 130 L370 427 L352 445 L308 445 L308 530 L476 530 Z M436 728 L436 683 Q436 632 412.5 609.5 Q389 587 349 587 Q328 587 309 592.5 Q290 598 272 605 Q254 612 238 617.5 Q222 623 207 623 Q199 623 194.5 621.5 Q190 620 187 618 Q183 616 182 614 L182 576 L118 576 L118 617 Q118 678 141.5 700 Q165 722 201 722 Q222 722 240.5 715.5 Q259 709 277 701.5 Q295 694 312.5 687.5 Q330 681 348 681 Q357 681 362 683 Q367 685 370 688 Q373 691 374 695 L374 728 L436 728 Z " />
<glyph glyph-name="Umacron" unicode="&#x16a;" horiz-adv-x="679" d="M469 597 L451 615 L407 615 L407 700 L655 700 L655 615 L610 615 L593 597 L593 231 Q593 169 575.5 123.5 Q558 78 525.5 48.5 Q493 19 447.5 4.5 Q402 -10 346 -10 Q287 -10 239.5 4.5 Q192 19 158 48.5 Q124 78 105.5 123.5 Q87 169 87 231 L87 597 L69 615 L25 615 L25 700 L313 700 L313 615 L268 615 L251 597 L251 229 Q251 163 275 130 Q299 97 356 97 Q390 97 411.5 105.5 Q433 114 446 130.5 Q459 147 464 171.5 Q469 196 469 229 L469 597 Z M229 876 L493 876 L493 788 L229 788 L229 876 Z " />
<glyph glyph-name="umacron" unicode="&#x16b;" horiz-adv-x="600" d="M476 530 Q506 530 514 516 Q522 502 522 486 L522 98 L540 80 L584 80 L584 0 L425 0 Q395 0 387 14 Q379 28 379 44 L379 62 L376 62 Q369 54 356 41.5 Q343 29 325 17.5 Q307 6 283.5 -2 Q260 -10 232 -10 Q187 -10 157.5 2.5 Q128 15 110.5 37 Q93 59 85.5 88 Q78 117 78 150 L78 427 L60 445 L16 445 L16 530 L184 530 Q214 530 222 514 Q230 498 230 481 L230 174 Q230 163 231.5 150.5 Q233 138 239 127.5 Q245 117 257 110 Q269 103 291 103 Q317 103 337.5 112.5 Q358 122 370 130 L370 427 L352 445 L308 445 L308 530 L476 530 Z M145 706 L409 706 L409 618 L145 618 L145 706 Z " />
<glyph glyph-name="Ubreve" unicode="&#x16c;" horiz-adv-x="679" d="M469 597 L451 615 L407 615 L407 700 L655 700 L655 615 L610 615 L593 597 L593 231 Q593 169 575.5 123.5 Q558 78 525.5 48.5 Q493 19 447.5 4.5 Q402 -10 346 -10 Q287 -10 239.5 4.5 Q192 19 158 48.5 Q124 78 105.5 123.5 Q87 169 87 231 L87 597 L69 615 L25 615 L25 700 L313 700 L313 615 L268 615 L251 597 L251 229 Q251 163 275 130 Q299 97 356 97 Q390 97 411.5 105.5 Q433 114 446 130.5 Q459 147 464 171.5 Q469 196 469 229 L469 597 Z M494 876 Q489 853 479 832.5 Q469 812 452.5 795.5 Q436 779 413.5 769.5 Q391 760 362 760 Q333 760 310.5 769.5 Q288 779 271.5 795.5 Q255 812 244.5 832.5 Q234 853 230 876 L300 895 Q306 875 321 858.5 Q336 842 363 842 Q392 842 409 857 Q426 872 432 891 L494 876 Z " />
<glyph glyph-name="ubreve" unicode="&#x16d;" horiz-adv-x="600" d="M476 530 Q506 530 514 516 Q522 502 522 486 L522 98 L540 80 L584 80 L584 0 L425 0 Q395 0 387 14 Q379 28 379 44 L379 62 L376 62 Q369 54 356 41.5 Q343 29 325 17.5 Q307 6 283.5 -2 Q260 -10 232 -10 Q187 -10 157.5 2.5 Q128 15 110.5 37 Q93 59 85.5 88 Q78 117 78 150 L78 427 L60 445 L16 445 L16 530 L184 530 Q214 530 222 514 Q230 498 230 481 L230 174 Q230 163 231.5 150.5 Q233 138 239 127.5 Q245 117 257 110 Q269 103 291 103 Q317 103 337.5 112.5 Q358 122 370 130 L370 427 L352 445 L308 445 L308 530 L476 530 Z M408 706 Q403 683 393 662.5 Q383 642 366.5 625.5 Q350 609 327.5 599.5 Q305 590 276 590 Q247 590 224.5 599.5 Q202 609 185.5 625.5 Q169 642 158.5 662.5 Q148 683 144 706 L214 725 Q220 705 235 688.5 Q250 672 277 672 Q306 672 323 687 Q340 702 346 721 L408 706 Z " />
<glyph glyph-name="Uring" unicode="&#x16e;" horiz-adv-x="679" d="M486 826 Q486 781 450 759.5 Q414 738 360 738 Q307 738 271 759.5 Q235 781 235 826 Q235 871 271 892.5 Q307 914 360 914 Q414 914 450 892.5 Q486 871 486 826 Z M404 826 Q404 870 360 870 Q317 870 317 826 Q317 782 360 782 Q404 782 404 826 Z M469 597 L451 615 L407 615 L407 700 L655 700 L655 615 L610 615 L593 597 L593 231 Q593 169 575.5 123.5 Q558 78 525.5 48.5 Q493 19 447.5 4.5 Q402 -10 346 -10 Q287 -10 239.5 4.5 Q192 19 158 48.5 Q124 78 105.5 123.5 Q87 169 87 231 L87 597 L69 615 L25 615 L25 700 L313 700 L313 615 L268 615 L251 597 L251 229 Q251 163 275 130 Q299 97 356 97 Q390 97 411.5 105.5 Q433 114 446 130.5 Q459 147 464 171.5 Q469 196 469 229 L469 597 Z " />
<glyph glyph-name="uring" unicode="&#x16f;" horiz-adv-x="600" d="M402 656 Q402 611 366 589.5 Q330 568 276 568 Q223 568 187 589.5 Q151 611 151 656 Q151 701 187 722.5 Q223 744 276 744 Q330 744 366 722.5 Q402 701 402 656 Z M320 656 Q320 700 276 700 Q233 700 233 656 Q233 612 276 612 Q320 612 320 656 Z M476 530 Q506 530 514 516 Q522 502 522 486 L522 98 L540 80 L584 80 L584 0 L425 0 Q395 0 387 14 Q379 28 379 44 L379 62 L376 62 Q369 54 356 41.5 Q343 29 325 17.5 Q307 6 283.5 -2 Q260 -10 232 -10 Q187 -10 157.5 2.5 Q128 15 110.5 37 Q93 59 85.5 88 Q78 117 78 150 L78 427 L60 445 L16 445 L16 530 L184 530 Q214 530 222 514 Q230 498 230 481 L230 174 Q230 163 231.5 150.5 Q233 138 239 127.5 Q245 117 257 110 Q269 103 291 103 Q317 103 337.5 112.5 Q358 122 370 130 L370 427 L352 445 L308 445 L308 530 L476 530 Z " />
<glyph glyph-name="Uhungarumlaut" unicode="&#x170;" horiz-adv-x="679" d="M281 747 L245 787 L364 926 L390 926 L446 867 L301 747 L281 747 Z M417 747 L391 784 L512 901 L538 901 L598 833 L437 747 L417 747 Z M469 597 L451 615 L407 615 L407 700 L655 700 L655 615 L610 615 L593 597 L593 231 Q593 169 575.5 123.5 Q558 78 525.5 48.5 Q493 19 447.5 4.5 Q402 -10 346 -10 Q287 -10 239.5 4.5 Q192 19 158 48.5 Q124 78 105.5 123.5 Q87 169 87 231 L87 597 L69 615 L25 615 L25 700 L313 700 L313 615 L268 615 L251 597 L251 229 Q251 163 275 130 Q299 97 356 97 Q390 97 411.5 105.5 Q433 114 446 130.5 Q459 147 464 171.5 Q469 196 469 229 L469 597 Z " />
<glyph glyph-name="uhungarumlaut" unicode="&#x171;" horiz-adv-x="600" d="M476 530 Q506 530 514 516 Q522 502 522 486 L522 98 L540 80 L584 80 L584 0 L425 0 Q395 0 387 14 Q379 28 379 44 L379 62 L376 62 Q369 54 356 41.5 Q343 29 325 17.5 Q307 6 283.5 -2 Q260 -10 232 -10 Q187 -10 157.5 2.5 Q128 15 110.5 37 Q93 59 85.5 88 Q78 117 78 150 L78 427 L60 445 L16 445 L16 530 L184 530 Q214 530 222 514 Q230 498 230 481 L230 174 Q230 163 231.5 150.5 Q233 138 239 127.5 Q245 117 257 110 Q269 103 291 103 Q317 103 337.5 112.5 Q358 122 370 130 L370 427 L352 445 L308 445 L308 530 L476 530 Z M198 577 L162 617 L281 756 L307 756 L363 697 L218 577 L198 577 Z M334 577 L308 614 L429 731 L455 731 L515 663 L354 577 L334 577 Z " />
<glyph glyph-name="Uogonek" unicode="&#x172;" horiz-adv-x="679" d="M360 -180 Q304 -180 271 -160.5 Q238 -141 238 -97 Q238 -68 254 -46 Q270 -24 296 -7 Q201 4 144 62.5 Q87 121 87 231 L87 597 L69 615 L25 615 L25 700 L313 700 L313 615 L268 615 L251 597 L251 229 Q251 163 275 130 Q299 97 356 97 Q390 97 411.5 105.5 Q433 114 446 130.5 Q459 147 464 171.5 Q469 196 469 229 L469 597 L451 615 L407 615 L407 700 L655 700 L655 615 L610 615 L593 597 L593 231 Q593 136 553.5 80.5 Q514 25 444 3 Q399 -11 370 -29.5 Q341 -48 341 -77 Q341 -106 355.5 -116 Q370 -126 393 -126 Q407 -126 424 -120 Q441 -114 447 -109 L468 -151 Q451 -163 421.5 -171.5 Q392 -180 360 -180 Z " />
<glyph glyph-name="uogonek" unicode="&#x173;" horiz-adv-x="600" d="M475 530 Q505 530 513 516 Q521 502 521 486 L521 98 L539 80 L583 80 L583 0 L551 0 Q505 -9 478.5 -28.5 Q452 -48 452 -77 Q452 -106 466.5 -116 Q481 -126 504 -126 Q518 -126 535 -120 Q552 -114 558 -109 L579 -151 Q562 -163 532.5 -171.5 Q503 -180 471 -180 Q415 -180 382 -160.5 Q349 -141 349 -97 Q349 -64 368.5 -40.5 Q388 -17 419 0 Q393 2 385.5 15.5 Q378 29 378 44 L378 62 L375 62 Q368 54 355 41.5 Q342 29 324 17.5 Q306 6 282.5 -2 Q259 -10 231 -10 Q186 -10 156.5 2.5 Q127 15 109.5 37 Q92 59 84.5 88 Q77 117 77 150 L77 427 L59 445 L15 445 L15 530 L183 530 Q213 530 221 514 Q229 498 229 481 L229 174 Q229 163 230.5 150.5 Q232 138 238 127.5 Q244 117 256 110 Q268 103 290 103 Q316 103 336.5 112.5 Q357 122 369 130 L369 427 L351 445 L307 445 L307 530 L475 530 Z " />
<glyph glyph-name="Wcircumflex" unicode="&#x174;" horiz-adv-x="962" d="M372 747 L343 782 L483 929 L532 929 L672 782 L643 747 L620 747 L508 816 L395 747 L372 747 Z M965 615 L930 615 L913 598 L735 -2 L601 -2 L485 407 L364 -2 L230 -2 L44 601 L31 615 L-4 615 L-4 700 L268 700 L268 615 L232 615 L215 597 L321 211 L454 700 L554 700 L688 218 L790 597 L774 615 L731 615 L731 700 L965 700 L965 615 Z " />
<glyph glyph-name="wcircumflex" unicode="&#x175;" horiz-adv-x="791" d="M287 577 L260 610 L397 756 L443 756 L580 610 L553 577 L531 577 L420 650 L309 577 L287 577 Z M463 530 L560 194 L630 427 L613 445 L578 445 L578 530 L783 530 L783 445 L752 445 L736 429 L595 -2 L485 -2 L400 273 L316 -2 L205 -2 L49 429 L34 445 L1 445 L1 530 L245 530 L245 445 L216 445 L201 427 L278 183 L378 530 L463 530 Z " />
<glyph glyph-name="Ycircumflex" unicode="&#x176;" horiz-adv-x="624" d="M238 259 L40 598 L24 615 L-11 615 L-11 700 L271 700 L271 615 L235 615 L221 600 L338 391 L448 598 L433 615 L390 615 L390 700 L622 700 L622 615 L589 615 L572 598 L400 287 L400 103 L417 85 L462 85 L462 0 L176 0 L176 85 L220 85 L238 103 L238 259 Z M191 747 L162 782 L302 929 L351 929 L491 782 L462 747 L439 747 L327 816 L214 747 L191 747 Z " />
<glyph glyph-name="ycircumflex" unicode="&#x177;" horiz-adv-x="558" d="M522 445 L504 427 L317 -72 L334 -90 L373 -90 L373 -170 L127 -170 L127 -90 L192 -90 L210 -72 L231 -13 L52 428 L35 445 L2 445 L2 530 L262 530 L262 445 L233 445 L216 427 L301 184 L388 427 L371 445 L338 445 L338 530 L552 530 L552 445 L522 445 Z M162 577 L135 610 L272 756 L318 756 L455 610 L428 577 L406 577 L295 650 L184 577 L162 577 Z " />
<glyph glyph-name="Ydieresis" unicode="&#x178;" horiz-adv-x="624" d="M238 259 L40 598 L24 615 L-11 615 L-11 700 L271 700 L271 615 L235 615 L221 600 L338 391 L448 598 L433 615 L390 615 L390 700 L622 700 L622 615 L589 615 L572 598 L400 287 L400 103 L417 85 L462 85 L462 0 L176 0 L176 85 L220 85 L238 103 L238 259 Z M179 839 Q179 865 197.5 884.5 Q216 904 245 904 Q274 904 291.5 884.5 Q309 865 309 839 Q309 812 291.5 793.5 Q274 775 245 775 Q216 775 197.5 793.5 Q179 812 179 839 Z M344 839 Q344 865 362 884.5 Q380 904 409 904 Q438 904 456 884.5 Q474 865 474 839 Q474 812 456 793.5 Q438 775 409 775 Q380 775 362 793.5 Q344 812 344 839 Z " />
<glyph glyph-name="Zacute" unicode="&#x179;" horiz-adv-x="606" d="M571 0 L34 0 L34 84 L366 597 L160 597 L144 581 L144 500 L47 500 L47 700 L553 700 L553 616 L223 104 L458 104 L474 120 L474 201 L571 201 L571 0 Z M282 747 L240 793 L371 926 L397 926 L468 838 L302 747 L282 747 Z " />
<glyph glyph-name="zacute" unicode="&#x17a;" horiz-adv-x="516" d="M257 577 L215 623 L346 756 L372 756 L443 668 L277 577 L257 577 Z M293 442 L150 442 L134 426 L134 358 L37 358 L37 530 L474 530 L474 456 L214 88 L374 88 L390 105 L390 172 L487 172 L487 0 L29 0 L29 68 L293 442 Z " />
<glyph glyph-name="Zdotaccent" unicode="&#x17b;" horiz-adv-x="606" d="M216 830 Q216 846 222.5 860.5 Q229 875 240.5 886 Q252 897 267.5 903.5 Q283 910 301 910 Q319 910 334.5 903.5 Q350 897 361.5 886 Q373 875 380 860.5 Q387 846 387 830 Q387 813 380 798.5 Q373 784 361.5 773 Q350 762 334.5 755.5 Q319 749 301 749 Q283 749 267.5 755.5 Q252 762 240.5 773 Q229 784 222.5 798.5 Q216 813 216 830 Z M571 0 L34 0 L34 84 L366 597 L160 597 L144 581 L144 500 L47 500 L47 700 L553 700 L553 616 L223 104 L458 104 L474 120 L474 201 L571 201 L571 0 Z " />
<glyph glyph-name="zdotaccent" unicode="&#x17c;" horiz-adv-x="516" d="M293 442 L150 442 L134 426 L134 358 L37 358 L37 530 L474 530 L474 456 L214 88 L374 88 L390 105 L390 172 L487 172 L487 0 L29 0 L29 68 L293 442 Z M171 660 Q171 676 177.5 690.5 Q184 705 195.5 716 Q207 727 222.5 733.5 Q238 740 256 740 Q274 740 289.5 733.5 Q305 727 316.5 716 Q328 705 335 690.5 Q342 676 342 660 Q342 643 335 628.5 Q328 614 316.5 603 Q305 592 289.5 585.5 Q274 579 256 579 Q238 579 222.5 585.5 Q207 592 195.5 603 Q184 614 177.5 628.5 Q171 643 171 660 Z " />
<glyph glyph-name="Zcaron" unicode="&#x17d;" horiz-adv-x="606" d="M571 0 L34 0 L34 84 L366 597 L160 597 L144 581 L144 500 L47 500 L47 700 L553 700 L553 616 L223 104 L458 104 L474 120 L474 201 L571 201 L571 0 Z M438 929 L467 894 L327 747 L278 747 L137 894 L166 929 L189 929 L302 860 L415 929 L438 929 Z " />
<glyph glyph-name="zcaron" unicode="&#x17e;" horiz-adv-x="516" d="M393 759 L422 724 L282 577 L233 577 L93 724 L122 759 L145 759 L257 690 L370 759 L393 759 Z M293 442 L150 442 L134 426 L134 358 L37 358 L37 530 L474 530 L474 456 L214 88 L374 88 L390 105 L390 172 L487 172 L487 0 L29 0 L29 68 L293 442 Z " />
<glyph glyph-name="longs" unicode="&#x17f;" horiz-adv-x="355" d="M389 611 L300 611 L300 649 L287 662 L286 662 Q271 662 262 654 Q253 646 248 633 Q243 620 241.5 602.5 Q240 585 240 567 L240 98 L257 80 L318 80 L318 0 L26 0 L26 80 L70 80 L88 98 L88 445 L26 445 L26 528 L70 528 L88 546 L88 558 Q88 592 98 625 Q108 658 130.5 683.5 Q153 709 190 724.5 Q227 740 281 740 Q307 740 326.5 738 Q346 736 360 734 Q376 731 389 729 L389 611 Z " />
<glyph glyph-name="florin" unicode="&#x192;" horiz-adv-x="503" d="M68 447 L166 447 L177 560 Q180 594 191.5 626.5 Q203 659 227 684 Q251 709 289.5 724.5 Q328 740 386 740 Q413 740 432.5 738 Q452 736 466 734 Q482 731 493 729 L481 615 L394 615 L399 648 L386 661 L385 661 Q362 661 348.5 640.5 Q335 620 330 569 L318 447 L428 447 L428 374 L310 374 L273 0 Q270 -34 258.5 -66.5 Q247 -99 223 -124 Q199 -149 160.5 -164.5 Q122 -180 64 -180 Q37 -180 17 -178.5 Q-3 -177 -17 -175 Q-33 -172 -43 -169 L-31 -54 L56 -54 L51 -87 L64 -100 L65 -100 Q87 -100 101 -80 Q115 -60 120 -9 L158 374 L68 374 L68 447 Z " />
<glyph glyph-name="uni0218" unicode="&#x218;" horiz-adv-x="559" d="M202 -258 L230 -210 L221 -190 Q187 -174 187 -132 Q187 -96 204.5 -77 Q222 -58 260 -58 Q297 -58 315.5 -76.5 Q334 -95 334 -128 Q334 -139 329.5 -151 Q325 -163 319 -175 L258 -287 L202 -258 Z M525 219 Q525 161 505.5 118 Q486 75 450 46.5 Q414 18 364 4 Q314 -10 254 -10 Q209 -10 170.5 -6 Q132 -2 104 3 Q71 9 44 17 L44 211 L141 211 L141 120 L159 102 Q179 98 202.5 96 Q226 94 254 94 Q318 94 343 118.5 Q368 143 368 182 Q368 201 362.5 215.5 Q357 230 344.5 242 Q332 254 310 264 Q288 274 255 283 Q203 298 164 316.5 Q125 335 99 361 Q73 387 60 422 Q47 457 47 505 Q47 553 66.5 591.5 Q86 630 121 656 Q156 682 203.5 696 Q251 710 308 710 Q350 710 385 706 Q420 702 446 697 Q476 691 501 684 L501 499 L404 499 L404 582 L387 599 Q370 602 351 604 Q332 606 310 606 Q256 606 226 584.5 Q196 563 196 527 Q196 512 199.5 499 Q203 486 216 473.5 Q229 461 253 449 Q277 437 319 425 Q367 411 405.5 392.5 Q444 374 470.5 349.5 Q497 325 511 293 Q525 261 525 219 Z " />
<glyph glyph-name="uni0219" unicode="&#x219;" horiz-adv-x="467" d="M158 -258 L186 -210 L177 -190 Q143 -174 143 -132 Q143 -96 160.5 -77 Q178 -58 216 -58 Q253 -58 271.5 -76.5 Q290 -95 290 -128 Q290 -139 285.5 -151 Q281 -163 275 -175 L214 -287 L158 -258 Z M439 168 Q439 125 422 92 Q405 59 375 36.5 Q345 14 303.5 2 Q262 -10 214 -10 Q172 -10 140 -7 Q108 -4 85 1 Q58 6 37 13 L37 162 L126 162 L126 103 L143 85 Q158 83 175 81.5 Q192 80 212 80 Q253 80 271.5 97.5 Q290 115 290 136 Q290 149 287 159 Q284 169 274 176.5 Q264 184 245 191 Q226 198 195 207 Q148 220 117.5 238 Q87 256 69.5 277.5 Q52 299 45 324.5 Q38 350 38 377 Q38 413 53.5 442.5 Q69 472 97.5 494 Q126 516 167.5 528 Q209 540 260 540 Q292 540 320.5 537 Q349 534 371 531 Q396 527 417 523 L417 378 L328 378 L328 430 L311 446 Q299 448 285.5 449.5 Q272 451 258 451 Q221 451 200.5 437 Q180 423 180 400 Q180 390 182 381.5 Q184 373 192.5 365.5 Q201 358 216.5 350.5 Q232 343 259 335 Q307 321 341 306 Q375 291 396.5 271.5 Q418 252 428.5 227 Q439 202 439 168 Z " />
<glyph glyph-name="uni021A" unicode="&#x21a;" horiz-adv-x="602" d="M247 -258 L275 -210 L266 -190 Q232 -174 232 -132 Q232 -96 249.5 -77 Q267 -58 305 -58 Q342 -58 360.5 -76.5 Q379 -95 379 -128 Q379 -139 374.5 -151 Q370 -163 364 -175 L303 -287 L247 -258 Z M23 700 L579 700 L579 499 L490 499 L490 578 L472 596 L382 596 L382 103 L399 85 L454 85 L454 0 L148 0 L148 85 L202 85 L220 103 L220 596 L130 596 L112 578 L112 499 L23 499 L23 700 Z " />
<glyph glyph-name="uni021B" unicode="&#x21b;" horiz-adv-x="359" d="M169 -258 L197 -210 L188 -190 Q154 -174 154 -132 Q154 -96 171.5 -77 Q189 -58 227 -58 Q264 -58 282.5 -76.5 Q301 -95 301 -128 Q301 -139 296.5 -151 Q292 -163 286 -175 L225 -287 L169 -258 Z M233 445 L233 98 L251 80 L348 80 L348 0 Q329 -3 307 -5 Q288 -7 263.5 -8.5 Q239 -10 213 -10 Q147 -10 114 17.5 Q81 45 81 114 L81 445 L19 445 L19 528 L63 528 L81 546 L138 670 L233 670 L233 528 L345 528 L345 445 L233 445 Z " />
<glyph glyph-name="uni0237" unicode="&#x237;" horiz-adv-x="300" d="M-67 -46 L22 -46 L22 -91 L35 -104 L36 -104 Q51 -104 60 -93.5 Q69 -83 74 -67 Q79 -51 80.5 -32.5 Q82 -14 82 1 L82 427 L64 445 L20 445 L20 530 L188 530 Q218 530 226 516 Q234 502 234 486 L234 10 Q234 -24 224 -58 Q214 -92 190.5 -119 Q167 -146 129.5 -163 Q92 -180 37 -180 Q-13 -180 -41 -175 Q-56 -172 -67 -169 L-67 -46 Z " />
<glyph glyph-name="circumflex" unicode="&#x2c6;" horiz-adv-x="400" d="M67 577 L40 610 L177 756 L223 756 L360 610 L333 577 L311 577 L200 650 L89 577 L67 577 Z " />
<glyph glyph-name="caron" unicode="&#x2c7;" horiz-adv-x="409" d="M340 759 L369 724 L229 577 L180 577 L40 724 L69 759 L92 759 L204 690 L317 759 L340 759 Z " />
<glyph glyph-name="uni02C9" unicode="&#x2c9;" horiz-adv-x="400" d="M68 706 L332 706 L332 618 L68 618 L68 706 Z " />
<glyph glyph-name="breve" unicode="&#x2d8;" horiz-adv-x="400" d="M332 706 Q327 683 317 662.5 Q307 642 290.5 625.5 Q274 609 251.5 599.5 Q229 590 200 590 Q171 590 148.5 599.5 Q126 609 109.5 625.5 Q93 642 82.5 662.5 Q72 683 68 706 L138 725 Q144 705 159 688.5 Q174 672 201 672 Q230 672 247 687 Q264 702 270 721 L332 706 Z " />
<glyph glyph-name="dotaccent" unicode="&#x2d9;" horiz-adv-x="371" d="M100 660 Q100 676 106.5 690.5 Q113 705 124.5 716 Q136 727 151.5 733.5 Q167 740 185 740 Q203 740 218.5 733.5 Q234 727 245.5 716 Q257 705 264 690.5 Q271 676 271 660 Q271 643 264 628.5 Q257 614 245.5 603 Q234 592 218.5 585.5 Q203 579 185 579 Q167 579 151.5 585.5 Q136 592 124.5 603 Q113 614 106.5 628.5 Q100 643 100 660 Z " />
<glyph glyph-name="ring" unicode="&#x2da;" horiz-adv-x="399" d="M325 656 Q325 611 289 589.5 Q253 568 199 568 Q146 568 110 589.5 Q74 611 74 656 Q74 701 110 722.5 Q146 744 199 744 Q253 744 289 722.5 Q325 701 325 656 Z M243 656 Q243 700 199 700 Q156 700 156 656 Q156 612 199 612 Q243 612 243 656 Z " />
<glyph glyph-name="ogonek" unicode="&#x2db;" horiz-adv-x="400" d="M291 4 Q235 -4 201.5 -24.5 Q168 -45 168 -77 Q168 -106 182.5 -116 Q197 -126 220 -126 Q234 -126 251 -120 Q268 -114 274 -109 L295 -151 Q278 -163 248.5 -171.5 Q219 -180 187 -180 Q131 -180 98 -160.5 Q65 -141 65 -97 Q65 -63 86 -38.5 Q107 -14 140 2.5 Q173 19 213 27.5 Q253 36 291 39 L291 4 Z " />
<glyph glyph-name="tilde" unicode="&#x2dc;" horiz-adv-x="400" d="M359 728 L359 683 Q359 632 335.5 609.5 Q312 587 272 587 Q251 587 232 592.5 Q213 598 195 605 Q177 612 161 617.5 Q145 623 130 623 Q122 623 117.5 621.5 Q113 620 110 618 Q106 616 105 614 L105 576 L41 576 L41 617 Q41 678 64.5 700 Q88 722 124 722 Q145 722 163.5 715.5 Q182 709 200 701.5 Q218 694 235.5 687.5 Q253 681 271 681 Q280 681 285 683 Q290 685 293 688 Q296 691 297 695 L297 728 L359 728 Z " />
<glyph glyph-name="hungarumlaut" unicode="&#x2dd;" horiz-adv-x="400" d="M59 577 L23 617 L142 756 L168 756 L224 697 L79 577 L59 577 Z M195 577 L169 614 L290 731 L316 731 L376 663 L215 577 L195 577 Z " />
<glyph glyph-name="uni0394" unicode="&#x394;" horiz-adv-x="651" d="M18 71 L256 702 L398 702 L645 69 L645 0 L18 0 L18 71 Z M121 86 L466 86 L286 571 L121 86 Z " />
<glyph glyph-name="uni03A9" unicode="&#x3a9;" horiz-adv-x="754" d="M414 163 Q460 191 487.5 217 Q515 243 530 272 Q545 301 550 334.5 Q555 368 555 412 Q555 515 509.5 560 Q464 605 377 605 Q290 605 244.5 560 Q199 515 199 412 Q199 368 204 334.5 Q209 301 224 272 Q239 243 266.5 217 Q294 191 340 163 L340 0 L32 0 L32 160 L120 160 L120 101 L134 87 L248 87 L248 114 Q189 141 149.5 172.5 Q110 204 86 240.5 Q62 277 52 319.5 Q42 362 42 412 Q42 491 67.5 547.5 Q93 604 138 640 Q183 676 244.5 693 Q306 710 377 710 Q448 710 509.5 693 Q571 676 616 640 Q661 604 686.5 547.5 Q712 491 712 412 Q712 362 702 319.5 Q692 277 668 240.5 Q644 204 604.5 172.5 Q565 141 506 114 L506 87 L620 87 L634 101 L634 160 L722 160 L722 0 L414 0 L414 163 Z " />
<glyph glyph-name="uni03BC" unicode="&#x3bc;" horiz-adv-x="614" d="M97 -187 L60 -171 L60 522 L178 539 L214 520 L209 273 L209 206 Q209 145 230 121 Q251 97 283 97 Q302 97 323.5 104 Q345 111 362 129 L362 522 L481 539 L517 520 L510 273 L510 154 Q510 124 519 111 Q528 98 546 98 Q557 98 574 99 Q591 100 608 105 L608 22 Q579 8 546.5 0 Q514 -8 491 -8 Q434 -8 410 11 Q386 30 377 65 L371 65 Q358 30 333 9.5 Q308 -11 275 -11 Q246 -11 223 2.5 Q200 16 186 48 L203 -89 L203 -165 L97 -187 Z " />
<glyph glyph-name="Wgrave" unicode="&#x1e80;" horiz-adv-x="962" d="M511 747 L491 747 L325 838 L396 926 L422 926 L553 793 L511 747 Z M965 615 L930 615 L913 598 L735 -2 L601 -2 L485 407 L364 -2 L230 -2 L44 601 L31 615 L-4 615 L-4 700 L268 700 L268 615 L232 615 L215 597 L321 211 L454 700 L554 700 L688 218 L790 597 L774 615 L731 615 L731 700 L965 700 L965 615 Z " />
<glyph glyph-name="wgrave" unicode="&#x1e81;" horiz-adv-x="791" d="M463 530 L560 194 L630 427 L613 445 L578 445 L578 530 L783 530 L783 445 L752 445 L736 429 L595 -2 L485 -2 L400 273 L316 -2 L205 -2 L49 429 L34 445 L1 445 L1 530 L245 530 L245 445 L216 445 L201 427 L278 183 L378 530 L463 530 Z M441 577 L421 577 L255 668 L326 756 L352 756 L483 623 L441 577 Z " />
<glyph glyph-name="Wacute" unicode="&#x1e82;" horiz-adv-x="962" d="M490 747 L448 793 L579 926 L605 926 L676 838 L510 747 L490 747 Z M965 615 L930 615 L913 598 L735 -2 L601 -2 L485 407 L364 -2 L230 -2 L44 601 L31 615 L-4 615 L-4 700 L268 700 L268 615 L232 615 L215 597 L321 211 L454 700 L554 700 L688 218 L790 597 L774 615 L731 615 L731 700 L965 700 L965 615 Z " />
<glyph glyph-name="wacute" unicode="&#x1e83;" horiz-adv-x="791" d="M420 577 L378 623 L509 756 L535 756 L606 668 L440 577 L420 577 Z M463 530 L560 194 L630 427 L613 445 L578 445 L578 530 L783 530 L783 445 L752 445 L736 429 L595 -2 L485 -2 L400 273 L316 -2 L205 -2 L49 429 L34 445 L1 445 L1 530 L245 530 L245 445 L216 445 L201 427 L278 183 L378 530 L463 530 Z " />
<glyph glyph-name="Wdieresis" unicode="&#x1e84;" horiz-adv-x="962" d="M965 615 L930 615 L913 598 L735 -2 L601 -2 L485 407 L364 -2 L230 -2 L44 601 L31 615 L-4 615 L-4 700 L268 700 L268 615 L232 615 L215 597 L321 211 L454 700 L554 700 L688 218 L790 597 L774 615 L731 615 L731 700 L965 700 L965 615 Z M360 839 Q360 865 378.5 884.5 Q397 904 426 904 Q455 904 472.5 884.5 Q490 865 490 839 Q490 812 472.5 793.5 Q455 775 426 775 Q397 775 378.5 793.5 Q360 812 360 839 Z M525 839 Q525 865 543 884.5 Q561 904 590 904 Q619 904 637 884.5 Q655 865 655 839 Q655 812 637 793.5 Q619 775 590 775 Q561 775 543 793.5 Q525 812 525 839 Z " />
<glyph glyph-name="wdieresis" unicode="&#x1e85;" horiz-adv-x="791" d="M272 669 Q272 695 290.5 714.5 Q309 734 338 734 Q367 734 384.5 714.5 Q402 695 402 669 Q402 642 384.5 623.5 Q367 605 338 605 Q309 605 290.5 623.5 Q272 642 272 669 Z M437 669 Q437 695 455 714.5 Q473 734 502 734 Q531 734 549 714.5 Q567 695 567 669 Q567 642 549 623.5 Q531 605 502 605 Q473 605 455 623.5 Q437 642 437 669 Z M463 530 L560 194 L630 427 L613 445 L578 445 L578 530 L783 530 L783 445 L752 445 L736 429 L595 -2 L485 -2 L400 273 L316 -2 L205 -2 L49 429 L34 445 L1 445 L1 530 L245 530 L245 445 L216 445 L201 427 L278 183 L378 530 L463 530 Z " />
<glyph glyph-name="endash" unicode="&#x2013;" horiz-adv-x="572" d="M62 375 L510 375 L510 270 L62 270 L62 375 Z " />
<glyph glyph-name="emdash" unicode="&#x2014;" horiz-adv-x="861" d="M62 375 L799 375 L799 270 L62 270 L62 375 Z " />
<glyph glyph-name="quoteleft" unicode="&#x2018;" horiz-adv-x="257" d="M214.003 509.004 Q214.003 472.007 193.004 450.508 Q172.005 429.009 129.008 429.009 Q86.0104 429.009 64.5117 450.508 Q43.0131 472.007 43.0131 509.004 Q43.0131 523.003 48.5127 536.503 Q54.0124 550.002 60.012 562.001 L139.007 709.992 L203.003 675.994 L165.006 603.999 L173.005 581 Q214.003 563.001 214.003 509.004 Z " />
<glyph glyph-name="quoteright" unicode="&#x2019;" horiz-adv-x="257" d="M43 630 Q43 667 64 688.5 Q85 710 128 710 Q171 710 192.5 688.5 Q214 667 214 630 Q214 616 208.5 602.5 Q203 589 197 577 L118 429 L54 463 L92 535 L84 558 Q43 576 43 630 Z " />
<glyph glyph-name="quotesinglbase" unicode="&#x201a;" horiz-adv-x="257" d="M43 71 Q43 108 64 129.5 Q85 151 128 151 Q171 151 192.5 129.5 Q214 108 214 71 Q214 57 208.5 43.5 Q203 30 197 18 L118 -130 L54 -96 L92 -24 L84 -1 Q43 17 43 71 Z " />
<glyph glyph-name="quotedblleft" unicode="&#x201c;" horiz-adv-x="454" d="M411.003 509.004 Q411.003 472.007 390.004 450.508 Q369.005 429.009 326.008 429.009 Q283.01 429.009 261.512 450.508 Q240.013 472.007 240.013 509.004 Q240.013 523.003 245.513 536.503 Q251.012 550.002 257.012 562.001 L336.007 709.992 L400.003 675.994 L362.006 603.999 L370.005 581 Q411.003 563.001 411.003 509.004 Z M214.003 509.004 Q214.003 472.007 193.004 450.508 Q172.005 429.009 129.008 429.009 Q86.0104 429.009 64.5117 450.508 Q43.0131 472.007 43.0131 509.004 Q43.0131 523.003 48.5127 536.503 Q54.0124 550.002 60.012 562.001 L139.007 709.992 L203.003 675.994 L165.006 603.999 L173.005 581 Q214.003 563.001 214.003 509.004 Z " />
<glyph glyph-name="quotedblright" unicode="&#x201d;" horiz-adv-x="452" d="M43 630 Q43 667 64 688.5 Q85 710 128 710 Q171 710 192.5 688.5 Q214 667 214 630 Q214 616 208.5 602.5 Q203 589 197 577 L118 429 L54 463 L92 535 L84 558 Q43 576 43 630 Z M238 630 Q238 667 259 688.5 Q280 710 323 710 Q366 710 387.5 688.5 Q409 667 409 630 Q409 616 403.5 602.5 Q398 589 392 577 L313 429 L249 463 L287 535 L279 558 Q238 576 238 630 Z " />
<glyph glyph-name="quotedblbase" unicode="&#x201e;" horiz-adv-x="452" d="M43 71 Q43 108 64 129.5 Q85 151 128 151 Q171 151 192.5 129.5 Q214 108 214 71 Q214 57 208.5 43.5 Q203 30 197 18 L118 -130 L54 -96 L92 -24 L84 -1 Q43 17 43 71 Z M238 71 Q238 108 259 129.5 Q280 151 323 151 Q366 151 387.5 129.5 Q409 108 409 71 Q409 57 403.5 43.5 Q398 30 392 18 L313 -130 L249 -96 L287 -24 L279 -1 Q238 17 238 71 Z " />
<glyph glyph-name="dagger" unicode="&#x2020;" horiz-adv-x="474" d="M28 537 L148 514 L201 514 L167 700 L312 700 L277 514 L326 514 L446 537 L446 417 L321 441 L282 441 L312 340 L271 0 L208 0 L167 340 L197 441 L154 441 L28 417 L28 537 Z " />
<glyph glyph-name="daggerdbl" unicode="&#x2021;" horiz-adv-x="510" d="M46 283 L172 259 L214 259 L185 350 L214 441 L172 441 L46 417 L46 537 L166 514 L219 514 L185 700 L330 700 L295 514 L344 514 L464 537 L464 417 L339 441 L301 441 L330 350 L301 259 L339 259 L464 283 L464 163 L344 186 L295 186 L330 0 L185 0 L219 186 L166 186 L46 163 L46 283 Z " />
<glyph glyph-name="bullet" unicode="&#x2022;" horiz-adv-x="382" d="M62.5 375.5 Q62.5 399.5 72.25 421.25 Q82 443 99.25 459.5 Q116.5 476 139.75 485.75 Q163 495.5 190 495.5 Q217 495.5 240.25 485.75 Q263.5 476 280.75 459.5 Q298 443 308.5 421.25 Q319 399.5 319 375.5 Q319 350 308.5 328.25 Q298 306.5 280.75 290 Q263.5 273.5 240.25 263.75 Q217 254 190 254 Q163 254 139.75 263.75 Q116.5 273.5 99.25 290 Q82 306.5 72.25 328.25 Q62.5 350 62.5 375.5 Z " />
<glyph glyph-name="ellipsis" unicode="&#x2026;" horiz-adv-x="692" d="M481 71 Q481 87 487.5 101.5 Q494 116 505.5 127 Q517 138 532.5 144.5 Q548 151 566 151 Q584 151 599.5 144.5 Q615 138 626.5 127 Q638 116 645 101.5 Q652 87 652 71 Q652 54 645 39.5 Q638 25 626.5 14 Q615 3 599.5 -3.5 Q584 -10 566 -10 Q548 -10 532.5 -3.5 Q517 3 505.5 14 Q494 25 487.5 39.5 Q481 54 481 71 Z M41 71 Q41 87 47.5 101.5 Q54 116 65.5 127 Q77 138 92.5 144.5 Q108 151 126 151 Q144 151 159.5 144.5 Q175 138 186.5 127 Q198 116 205 101.5 Q212 87 212 71 Q212 54 205 39.5 Q198 25 186.5 14 Q175 3 159.5 -3.5 Q144 -10 126 -10 Q108 -10 92.5 -3.5 Q77 3 65.5 14 Q54 25 47.5 39.5 Q41 54 41 71 Z M261 71 Q261 87 267.5 101.5 Q274 116 285.5 127 Q297 138 312.5 144.5 Q328 151 346 151 Q364 151 379.5 144.5 Q395 138 406.5 127 Q418 116 425 101.5 Q432 87 432 71 Q432 54 425 39.5 Q418 25 406.5 14 Q395 3 379.5 -3.5 Q364 -10 346 -10 Q328 -10 312.5 -3.5 Q297 3 285.5 14 Q274 25 267.5 39.5 Q261 54 261 71 Z " />
<glyph glyph-name="perthousand" unicode="&#x2030;" horiz-adv-x="990" d="M304 540 Q304 453 266.5 413 Q229 373 167 373 Q105 373 67.5 413.5 Q30 454 30 541 Q30 628 67 667.5 Q104 707 167 707 Q228 707 266 667 Q304 627 304 540 Z M208 540 Q208 592 200 616.5 Q192 641 167 641 Q142 641 134 616.5 Q126 592 126 541 Q126 490 134 464.5 Q142 439 167 439 Q192 439 200 464 Q208 489 208 540 Z M642 162 Q642 75 604.5 35 Q567 -5 505 -5 Q443 -5 405.5 35.5 Q368 76 368 163 Q368 250 405 289.5 Q442 329 505 329 Q566 329 604 289 Q642 249 642 162 Z M546 162 Q546 214 538 238.5 Q530 263 505 263 Q480 263 472 238.5 Q464 214 464 163 Q464 112 472 86.5 Q480 61 505 61 Q530 61 538 86 Q546 111 546 162 Z M962 161 Q962 74 924.5 34 Q887 -6 825 -6 Q763 -6 725.5 34.5 Q688 75 688 162 Q688 249 725 288.5 Q762 328 825 328 Q886 328 924 288 Q962 248 962 161 Z M866 161 Q866 213 858 237.5 Q850 262 825 262 Q800 262 792 237.5 Q784 213 784 162 Q784 111 792 85.5 Q800 60 825 60 Q850 60 858 85 Q866 110 866 161 Z M63 0 L550 700 L619 700 L133 0 L63 0 Z " />
<glyph glyph-name="guilsinglleft" unicode="&#x2039;" horiz-adv-x="312" d="M30.0172 232 L196.007 46 L273.002 46 L160.009 256 L273.002 463 L196.007 463 L30.0172 277 L30.0172 232 Z " />
<glyph glyph-name="guilsinglright" unicode="&#x203a;" horiz-adv-x="312" d="M282 232 L116 46 L39 46 L152 256 L39 463 L116 463 L282 277 L282 232 Z " />
<glyph glyph-name="fraction" unicode="&#x2044;" horiz-adv-x="90" d="M-232 0 L255 700 L324 700 L-162 0 L-232 0 Z " />
<glyph glyph-name="franc" unicode="&#x20a3;" horiz-adv-x="642" d="M59 430 L120 430 L120 597 L102 615 L58 615 L58 700 L613 700 L613 503 L519 503 L519 581 L501 598 L282 598 L282 430 L433 430 L433 357 L282 357 L282 310 L433 310 L433 237 L282 237 L282 103 L299 85 L364 85 L364 0 L58 0 L58 85 L102 85 L120 103 L120 237 L59 237 L59 310 L120 310 L120 357 L59 357 L59 430 Z " />
<glyph glyph-name="lira" unicode="&#x20a4;" horiz-adv-x="623" d="M47 430 L109 430 L109 474 Q109 518 123 560.5 Q137 603 167 636 Q197 669 245 689.5 Q293 710 362 710 Q407 710 444 702.5 Q481 695 508 687 Q540 676 565 664 L565 508 L472 508 L472 586 L459 598 Q442 604 422.5 607.5 Q403 611 380 611 Q351 611 330.5 604.5 Q310 598 296.5 582.5 Q283 567 277 540.5 Q271 514 271 474 L271 430 L421 430 L421 357 L271 357 L271 310 L421 310 L421 237 L271 237 L271 233 Q271 195 262 163.5 Q253 132 240 106 L467 106 L485 123 L485 211 L574 211 L574 0 L47 0 L47 85 L91 85 L109 103 L109 237 L47 237 L47 310 L109 310 L109 357 L47 357 L47 430 Z " />
<glyph glyph-name="peseta" unicode="&#x20a7;" horiz-adv-x="1496" d="M107 597 L89 615 L45 615 L45 700 L344 700 Q473 700 547.5 647.5 Q622 595 622 483 Q622 423 602.5 379 Q583 335 546.5 306.5 Q510 278 458.5 264 Q407 250 344 250 L269 250 L269 103 L286 85 L339 85 L339 0 L45 0 L45 85 L89 85 L107 103 L107 597 Z M269 602 L269 348 L344 348 Q408 348 431 379 Q454 410 454 475 Q454 538 431 570 Q408 602 344 602 L269 602 Z M1460 168 Q1460 125 1443 92 Q1426 59 1396 36.5 Q1366 14 1324.5 2 Q1283 -10 1235 -10 Q1193 -10 1161 -7 Q1129 -4 1106 1 Q1079 6 1058 13 L1058 162 L1147 162 L1147 103 L1164 85 Q1179 83 1196 81.5 Q1213 80 1233 80 Q1274 80 1292.5 97.5 Q1311 115 1311 136 Q1311 149 1308 159 Q1305 169 1295 176.5 Q1285 184 1266 191 Q1247 198 1216 207 Q1169 220 1138.5 238 Q1108 256 1090.5 277.5 Q1073 299 1066 324.5 Q1059 350 1059 377 Q1059 413 1074.5 442.5 Q1090 472 1118.5 494 Q1147 516 1188.5 528 Q1230 540 1281 540 Q1313 540 1341.5 537 Q1370 534 1392 531 Q1417 527 1438 523 L1438 378 L1349 378 L1349 430 L1332 446 Q1320 448 1306.5 449.5 Q1293 451 1279 451 Q1242 451 1221.5 437 Q1201 423 1201 400 Q1201 390 1203 381.5 Q1205 373 1213.5 365.5 Q1222 358 1237.5 350.5 Q1253 343 1280 335 Q1328 321 1362 306 Q1396 291 1417.5 271.5 Q1439 252 1449.5 227 Q1460 202 1460 168 Z M891 445 L891 98 L909 80 L1006 80 L1006 0 Q987 -3 965 -5 Q946 -7 921.5 -8.5 Q897 -10 871 -10 Q805 -10 772 17.5 Q739 45 739 114 L739 445 L677 445 L677 528 L721 528 L739 546 L796 670 L891 670 L891 528 L1003 528 L1003 445 L891 445 Z " />
<glyph glyph-name="Euro" unicode="&#x20ac;" horiz-adv-x="676" d="M31 448 L121 448 Q146 582 235.5 646 Q325 710 461 710 Q493 710 522 706.5 Q551 703 572 699 Q597 695 618 689 L618 523 L525 523 L525 593 L508 610 Q497 612 485.5 613 Q474 614 461 614 Q418 614 387 603 Q356 592 334.5 570.5 Q313 549 300.5 518 Q288 487 282 448 L451 448 L451 375 L277 375 L277 344 Q277 335 278 326 L451 326 L451 253 L284 253 Q298 172 340 131 Q382 90 469 90 L495 90 Q507 90 519 92 L537 110 L537 187 L630 187 L630 30 Q601 17 556 3.5 Q511 -10 441 -10 Q376 -10 322 6 Q268 22 227 54 Q186 86 158.5 135.5 Q131 185 120 253 L31 253 L31 326 L113 326 L113 375 L31 375 L31 448 Z " />
<glyph glyph-name="uni2113" unicode="&#x2113;" horiz-adv-x="456" d="M421 29 Q411 22 394.5 15 Q378 8 359.5 2.5 Q341 -3 323 -6.5 Q305 -10 292 -10 Q212 -10 167.5 14.5 Q123 39 117 101 L74 57 L17 125 L116 235 L116 538 Q116 586 128.5 621 Q141 656 163.5 678.5 Q186 701 217 711.5 Q248 722 284 722 Q314 722 340 714.5 Q366 707 386 690.5 Q406 674 417.5 647 Q429 620 429 582 Q429 543 418 503.5 Q407 464 384.5 422 Q362 380 326 333 Q290 286 241 232 L241 129 Q241 106 253 96.5 Q265 87 295 87 Q319 87 348 93.5 Q377 100 392 109 L421 29 Z M241 381 Q279 437 292 485.5 Q305 534 305 579 Q305 609 298.5 622.5 Q292 636 275 636 Q261 636 251 607.5 Q241 579 241 521 L241 381 Z " />
<glyph glyph-name="trademark" unicode="&#x2122;" horiz-adv-x="862" d="M502 576 L502 448 L510 440 L540 440 L540 387 L386 387 L386 440 L416 440 L424 448 L424 639 L416 647 L386 647 L386 700 L531 700 L597 555 L659 700 L803 700 L803 647 L773 647 L765 639 L765 448 L773 440 L803 440 L803 387 L635 387 L635 440 L665 440 L673 448 L673 582 L627 473 L547 473 L502 576 Z M64 700 L347 700 L347 589 L297 589 L297 624 L289 632 L252 632 L252 448 L259 440 L294 440 L294 387 L116 387 L116 440 L151 440 L159 448 L159 632 L122 632 L114 624 L114 589 L64 589 L64 700 Z " />
<glyph glyph-name="estimated" unicode="&#x212e;" horiz-adv-x="787" d="M565 370 L575 383 L575 587 Q546 622 500 641.5 Q454 661 400 661 Q281 661 218 587 L218 383 L227 370 L565 370 Z M218 307 L218 137 Q250 89 299.5 62.5 Q349 36 409 36 Q478 36 533.5 62.5 Q589 89 627 137 L700 137 Q646 66 575 28 Q504 -10 409 -10 Q332 -10 265.5 18 Q199 46 149 95 Q99 144 70.5 209 Q42 274 42 349 Q42 424 70.5 489.5 Q99 555 148 603.5 Q197 652 262 679.5 Q327 707 400 707 Q472 707 535 680 Q598 653 646 606.5 Q694 560 724 497.5 Q754 435 759 365 L759 363 L727 320 L227 320 L218 307 Z " />
<glyph glyph-name="partialdiff" unicode="&#x2202;" horiz-adv-x="546" d="M515 265 Q515 195 495.5 143 Q476 91 443 57 Q410 23 366 6.5 Q322 -10 272 -10 Q222 -10 178 6.5 Q134 23 101 57 Q68 91 48.5 143 Q29 195 29 265 Q29 335 48.5 387 Q68 439 101 473 Q134 507 178 523.5 Q222 540 272 540 Q288 540 303 537 Q273 582 235.5 621 Q198 660 164 690 L211 741 Q280 710 336.5 662.5 Q393 615 432.5 554 Q472 493 493.5 420 Q515 347 515 265 Z M357 265 Q357 353 339 397.5 Q321 442 272 442 Q223 442 205 397.5 Q187 353 187 265 Q187 177 205 132.5 Q223 88 272 88 Q321 88 339 132.5 Q357 177 357 265 Z " />
<glyph glyph-name="product" unicode="&#x220f;" horiz-adv-x="740" d="M45 700 L695 700 L695 615 L650 615 L633 597 L633 103 L650 85 L695 85 L695 0 L409 0 L409 85 L453 85 L471 103 L471 597 L453 615 L286 615 L269 597 L269 103 L286 85 L331 85 L331 0 L45 0 L45 85 L89 85 L107 103 L107 597 L89 615 L45 615 L45 700 Z " />
<glyph glyph-name="summation" unicode="&#x2211;" horiz-adv-x="607" d="M36 700 L528 700 L559 528 L485 514 L458 601 L440 618 L228 618 L358 392 L173 102 L458 102 L476 119 L497 196 L569 181 L534 0 L36 0 L36 70 L223 353 L36 632 L36 700 Z " />
<glyph glyph-name="minus" unicode="&#x2212;" horiz-adv-x="542" d="M57 386 L485 386 L485 291 L57 291 L57 386 Z " />
<glyph glyph-name="uni2215" unicode="&#x2215;" horiz-adv-x="528" d="M-13 0 L474 700 L543 700 L57 0 L-13 0 Z " />
<glyph glyph-name="uni2219" unicode="&#x2219;" horiz-adv-x="259" d="M44 378 Q44 394 50.5 408.5 Q57 423 68.5 434 Q80 445 95.5 451.5 Q111 458 129 458 Q147 458 162.5 451.5 Q178 445 189.5 434 Q201 423 208 408.5 Q215 394 215 378 Q215 361 208 346.5 Q201 332 189.5 321 Q178 310 162.5 303.5 Q147 297 129 297 Q111 297 95.5 303.5 Q80 310 68.5 321 Q57 332 50.5 346.5 Q44 361 44 378 Z " />
<glyph glyph-name="radical" unicode="&#x221a;" horiz-adv-x="566" d="M93 425 L16 390 L-7 447 L184 542 L350 208 L504 964 L564 957 L357 -64 L93 425 Z " />
</font>
</svg>
