<?xml version="1.0" encoding="UTF-8"?>
<svg xmlns="http://www.w3.org/2000/svg" xmlns:xlink="http://www.w3.org/1999/xlink" version="1.2" >
<font id="CO MdIt">
<font-face  font-family="CO" units-per-em="1000" ascent="1000" descent="-300" font-style="normal" font-weight="500" font-stretch="normal" cap-height="700" x-height="526" underline-position="-109" underline-thickness="73" />
<missing-glyph  horiz-adv-x="883" d="M75 349 Q75 424 103.5 490 Q132 556 181 604.5 Q230 653 296 681.5 Q362 710 437 710 Q512 710 578 681.5 Q644 653 692.5 604.5 Q741 556 769.5 490 Q798 424 798 349 Q798 274 769.5 209 Q741 144 691.5 95 Q642 46 576.5 18 Q511 -10 436 -10 Q361 -10 295 18 Q229 46 180.5 95 Q132 144 103.5 209 Q75 274 75 349 Z M136 349 Q136 287 159.5 232 Q183 177 223.5 136 Q264 95 318.5 71.5 Q373 48 436 48 Q499 48 553.5 71.5 Q608 95 648.5 136 Q689 177 712.5 232 Q736 287 736 349 Q736 412 713 467 Q690 522 649.5 563 Q609 604 554.5 627.5 Q500 651 437 651 Q374 651 319.5 627.5 Q265 604 224 563 Q183 522 159.5 467 Q136 412 136 349 Z M315 509 Q333 520 353 529 Q370 537 393.5 543 Q417 549 444 549 Q483 549 509.5 540 Q536 531 552.5 516 Q569 501 576.5 482.5 Q584 464 584 445 Q584 407 566 382.5 Q548 358 507 338 Q478 325 468 316.5 Q458 308 458 294 L458 282 L443 246 L406 246 L391 282 L391 294 Q391 328 408.5 344 Q426 360 458 376 Q490 392 497.5 408.5 Q505 425 505 441 Q505 464 489 482 Q473 500 435 500 Q415 500 399 495 Q383 490 370 485 L363 476 L363 425 L315 425 L315 509 Z M425 116 Q405 116 392 129 Q379 142 379 160 Q379 178 392 191 Q405 204 425 204 Q445 204 458.5 191 Q472 178 472 160 Q472 142 458.5 129 Q445 116 425 116 Z " />
<glyph glyph-name="NULL" d="" />
<glyph glyph-name="nonmarkingreturn" unicode="&#xd;" d="" />
<glyph glyph-name="space" unicode="&#x20;" horiz-adv-x="228" d="" />
<glyph glyph-name="exclam" unicode="&#x21;" horiz-adv-x="261" d="M6 49 Q6 65 12.5 79.5 Q19 94 31 105 Q43 116 59 123 Q75 130 94 130 Q120 130 136.5 112 Q153 94 153 71 Q153 39 128 14.5 Q103 -10 64 -10 Q40 -10 23 7.5 Q6 25 6 49 Z M82 206 L66 245 L106 510 L147 700 L284 700 L243 510 L170 245 L139 206 L82 206 Z " />
<glyph glyph-name="quotedbl" unicode="&#x22;" horiz-adv-x="370" d="M103 452 L122 620 L140 700 L243 700 L225 620 L174 452 L103 452 Z M259 452 L277 620 L294 700 L398 700 L381 620 L328 452 L259 452 Z " />
<glyph glyph-name="numbersign" unicode="&#x23;" horiz-adv-x="542" d="M466 152 L356 152 L306 0 L232 0 L282 152 L172 152 L122 0 L48 0 L98 152 L20 152 L20 214 L118 214 L152 315 L60 315 L60 377 L172 377 L222 528 L296 528 L246 377 L356 377 L406 528 L480 528 L430 377 L506 377 L506 315 L410 315 L376 214 L466 214 L466 152 Z M192 214 L302 214 L336 315 L226 315 L192 214 Z " />
<glyph glyph-name="dollar" unicode="&#x24;" horiz-adv-x="559" d="M500 234 Q500 178 480.5 135 Q461 92 426.5 62 Q392 32 345 14.5 Q298 -3 243 -7 L223 -102 L172 -102 L191 -10 Q147 -10 111.5 -5.5 Q76 -1 50 4 Q20 10 -3 17 L32 183 L105 183 L85 88 L99 72 Q116 67 144 64.5 Q172 62 207 62 L258 303 Q175 332 133.5 376 Q92 420 92 491 Q92 539 111 577.5 Q130 616 163.5 643.5 Q197 671 243 687 Q289 703 344 708 L361 787 L412 787 L395 710 Q433 709 464.5 705.5 Q496 702 519 697 Q545 692 567 685 L533 525 L461 525 L479 613 L466 629 Q449 633 429 635 Q409 637 380 638 L331 410 Q370 395 401.5 379 Q433 363 455 342.5 Q477 322 488.5 296 Q500 270 500 234 Z M379 194 Q379 228 362.5 248 Q346 268 305 285 L258 65 Q323 76 351 111 Q379 146 379 194 Z M209 525 Q209 490 224 469.5 Q239 449 285 429 L329 634 Q273 626 241 599.5 Q209 573 209 525 Z " />
<glyph glyph-name="percent" unicode="&#x25;" horiz-adv-x="707" d="M151 481 Q151 424 192 424 Q214 424 230.5 441.5 Q247 459 258 485 Q269 511 274.5 541 Q280 571 280 596 Q280 651 240 651 Q218 651 201.5 634.5 Q185 618 173.5 592.5 Q162 567 156.5 537.5 Q151 508 151 481 Z M354 589 Q354 543 342 503.5 Q330 464 308.5 434.5 Q287 405 256 388 Q225 371 187 371 Q135 371 106 400.5 Q77 430 77 487 Q77 532 88 571.5 Q99 611 120.5 641 Q142 671 173.5 688.5 Q205 706 245 706 Q295 706 324.5 676 Q354 646 354 589 Z M449 105 Q449 48 490 48 Q512 48 528.5 65.5 Q545 83 556 109 Q567 135 572.5 165 Q578 195 578 220 Q578 275 538 275 Q516 275 499.5 258.5 Q483 242 471.5 216.5 Q460 191 454.5 161.5 Q449 132 449 105 Z M652 213 Q652 167 640 127.5 Q628 88 606.5 58.5 Q585 29 554 12 Q523 -5 485 -5 Q433 -5 404 24.5 Q375 54 375 111 Q375 156 386 195.5 Q397 235 418.5 265 Q440 295 471.5 312.5 Q503 330 543 330 Q593 330 622.5 300 Q652 270 652 213 Z M586 700 L648 700 L142 0 L80 0 L586 700 Z " />
<glyph glyph-name="ampersand" unicode="&#x26;" horiz-adv-x="718" d="M688 329 L635 329 L616 313 Q599 276 575 234.5 Q551 193 519 153 L563 82 L580 67 L646 67 L631 0 L519 0 Q487 0 469.5 13.5 Q452 27 440 45 L428 64 Q383 30 328.5 10 Q274 -10 207 -10 Q153 -10 115 4.5 Q77 19 53 42.5 Q29 66 18 95.5 Q7 125 7 156 Q7 196 19.5 227 Q32 258 52 280.5 Q72 303 97.5 319 Q123 335 148.5 345.5 Q174 356 197 362 Q220 368 236 372 L233 378 Q210 416 202.5 453 Q195 490 195 513 Q195 556 210 592.5 Q225 629 252 655 Q279 681 317.5 695.5 Q356 710 403 710 Q445 710 475 700 Q505 690 524.5 672.5 Q544 655 553 632.5 Q562 610 562 586 Q562 547 546.5 516 Q531 485 505 460.5 Q479 436 446 417 Q413 398 378 382 L480 216 Q498 239 514 264.5 Q530 290 544 318 Q554 337 562 351.5 Q570 366 578.5 376 Q587 386 598.5 391 Q610 396 628 396 L702 396 L688 329 Z M255 70 Q290 70 324 83.5 Q358 97 391 123 L261 331 Q247 325 225 314.5 Q203 304 182 285.5 Q161 267 146 240.5 Q131 214 131 177 Q131 156 138.5 136.5 Q146 117 161.5 102.5 Q177 88 200 79 Q223 70 255 70 Z M306 548 Q306 528 313.5 501.5 Q321 475 338 449 L354 421 Q375 432 397 447 Q419 462 437 481.5 Q455 501 467 525.5 Q479 550 479 581 Q479 616 459 634 Q439 652 403 652 Q358 652 332 622 Q306 592 306 548 Z " />
<glyph glyph-name="quotesingle" unicode="&#x27;" horiz-adv-x="218" d="M103 452 L122 620 L140 700 L245 700 L228 620 L176 452 L103 452 Z " />
<glyph glyph-name="parenleft" unicode="&#x28;" horiz-adv-x="340" d="M211 -113 Q172 -85 139 -52.5 Q106 -20 82 17 Q58 54 44.5 95.5 Q31 137 31 183 Q31 218 38 250 L73 431 Q88 504 118.5 557.5 Q149 611 192 653 Q235 695 288 729 Q341 763 401 796 L420 763 Q375 730 337 694 Q299 658 269 617.5 Q239 577 218 531 Q197 485 186 431 L150 250 Q145 227 142.5 205.5 Q140 184 140 163 Q140 91 167 31 Q194 -29 242 -80 L211 -113 Z " />
<glyph glyph-name="parenright" unicode="&#x29;" horiz-adv-x="339" d="M148 796 Q187 768 220 735.5 Q253 703 277 666 Q301 629 314.5 587.5 Q328 546 328 500 Q328 465 321 433 L283 252 Q267 179 236.5 125.5 Q206 72 163.5 30 Q121 -12 68 -46 Q15 -80 -45 -113 L-64 -80 Q26 -13 87 65.5 Q148 144 171 252 L209 433 Q214 456 216.5 478 Q219 500 219 520 Q219 592 191.5 652 Q164 712 116 763 L148 796 Z " />
<glyph glyph-name="asterisk" unicode="&#x2a;" horiz-adv-x="453" d="M297 554 L369 613 L420 640 L459 563 L408 537 L308 511 L382 449 L416 403 L348 351 L313 397 L274 484 L234 397 L199 351 L131 403 L165 449 L238 511 L138 537 L87 563 L126 640 L178 613 L249 554 L231 643 L231 700 L316 700 L316 643 L297 554 Z " />
<glyph glyph-name="plus" unicode="&#x2b;" horiz-adv-x="499" d="M50 375 L218 375 L218 544 L296 544 L296 375 L464 375 L464 300 L296 300 L296 130 L218 130 L218 300 L50 300 L50 375 Z " />
<glyph glyph-name="comma" unicode="&#x2c;" horiz-adv-x="240" d="M0 46 Q0 61 5.5 75 Q11 89 21 100 Q31 111 45.5 117.5 Q60 124 78 124 Q107 124 124.5 107.5 Q142 91 142 67 Q142 49 134 35 Q126 21 117 9 L16 -124 L-28 -96 L25 -23 L21 0 Q10 8 5 20 Q0 32 0 46 Z " />
<glyph glyph-name="hyphen" unicode="&#x2d;" horiz-adv-x="359" d="M68 333 L304 333 L286 250 L50 250 L68 333 Z " />
<glyph glyph-name="period" unicode="&#x2e;" horiz-adv-x="238" d="M-1 46 Q-1 76 21.5 100 Q44 124 82 124 Q109 124 125 107 Q141 90 141 67 Q141 36 117.5 13 Q94 -10 56 -10 Q29 -10 14 6.5 Q-1 23 -1 46 Z " />
<glyph glyph-name="slash" unicode="&#x2f;" horiz-adv-x="435" d="M-63 -102 L435 787 L516 787 L18 -102 L-63 -102 Z " />
<glyph glyph-name="zero" unicode="0" horiz-adv-x="639" d="M277 -10 Q219 -10 176 9 Q133 28 104.5 61.5 Q76 95 62 140.5 Q48 186 48 240 Q48 291 56.5 346 Q65 401 83 453.5 Q101 506 128.5 552.5 Q156 599 193.5 634.5 Q231 670 278.5 690.5 Q326 711 385 711 Q443 711 485.5 692 Q528 673 556 639.5 Q584 606 598 559.5 Q612 513 612 459 Q612 408 603 353.5 Q594 299 576.5 247 Q559 195 531.5 148.5 Q504 102 466.5 66.5 Q429 31 382 10.5 Q335 -10 277 -10 Z M279 71 Q316 71 345.5 91.5 Q375 112 398 146 Q421 180 438 223.5 Q455 267 465.5 313 Q476 359 481 403.5 Q486 448 486 484 Q486 553 461 591 Q436 629 382 629 Q345 629 315 608.5 Q285 588 261.5 554 Q238 520 221.5 476.5 Q205 433 194.5 387 Q184 341 179 296.5 Q174 252 174 216 Q174 147 198 109 Q222 71 279 71 Z " />
<glyph glyph-name="one" unicode="1" horiz-adv-x="402" d="M196 657 Q238 657 264.5 672 Q291 687 302 710 L366 710 L232 83 L244 67 L339 67 L325 0 L-20 0 L-5 67 L89 67 L108 83 L212 572 L199 588 L106 588 L119 657 L196 657 Z " />
<glyph glyph-name="two" unicode="2" horiz-adv-x="571" d="M136 661 Q141 663 159.5 671 Q178 679 206.5 687.5 Q235 696 272.5 703 Q310 710 353 710 Q410 710 449 696 Q488 682 512.5 659.5 Q537 637 548 608.5 Q559 580 559 552 Q559 507 544 472 Q529 437 498 405.5 Q467 374 419 343 Q371 312 305 276 Q258 251 228.5 232.5 Q199 214 181 197.5 Q163 181 154.5 165 Q146 149 141 129 L133 98 L387 98 L406 113 L423 196 L497 196 L457 0 L-10 0 L16 128 Q23 162 37 189 Q51 216 77 242 Q103 268 144 294.5 Q185 321 245 353 Q292 378 326.5 399.5 Q361 421 383.5 442.5 Q406 464 417 488.5 Q428 513 428 543 Q428 581 403 603.5 Q378 626 320 626 Q289 626 264 620 Q239 614 219 607 L199 591 L181 509 L103 509 L136 661 Z " />
<glyph glyph-name="three" unicode="3" horiz-adv-x="559" d="M139 667 Q142 668 159.5 675 Q177 682 204 690 Q231 698 266 704 Q301 710 340 710 Q396 710 435.5 696.5 Q475 683 499.5 661 Q524 639 535 611 Q546 583 546 555 Q546 470 500.5 421.5 Q455 373 380 359 L380 356 Q427 341 458 309.5 Q489 278 489 222 Q489 179 473 137 Q457 95 423.5 62 Q390 29 336.5 8.5 Q283 -12 208 -12 Q160 -12 121.5 -5 Q83 2 55 10 Q22 20 -4 32 L28 184 L103 184 L85 100 L95 86 Q113 78 138 73 Q163 68 196 68 Q239 68 270 81 Q301 94 321.5 116 Q342 138 351.5 167.5 Q361 197 361 230 Q361 281 335.5 301.5 Q310 322 260 322 L188 322 L204 396 L275 396 Q305 396 331 404.5 Q357 413 376.5 430.5 Q396 448 407 474.5 Q418 501 418 538 Q418 556 413 573 Q408 590 395 603 Q382 616 361 623.5 Q340 631 309 631 Q280 631 257 625.5 Q234 620 217 613 L199 599 L180 515 L106 515 L139 667 Z " />
<glyph glyph-name="four" unicode="4" horiz-adv-x="588" d="M16 271 L430 710 L547 710 L454 271 L542 271 L528 197 L439 197 L414 83 L427 67 L500 67 L485 0 L177 0 L192 67 L272 67 L291 83 L315 197 L1 197 L16 271 Z M330 271 L396 578 L109 271 L330 271 Z " />
<glyph glyph-name="five" unicode="5" horiz-adv-x="554" d="M228 602 L188 419 L269 419 Q316 419 357.5 409.5 Q399 400 430 379 Q461 358 479 324 Q497 290 497 241 Q497 196 480 151 Q463 106 427 70 Q391 34 335 11.5 Q279 -11 201 -11 Q156 -11 118 -4 Q80 3 53 11 Q21 21 -4 34 L28 184 L105 184 L88 106 L101 90 Q118 83 143.5 78 Q169 73 201 73 Q245 73 277 86.5 Q309 100 329.5 121.5 Q350 143 359.5 171.5 Q369 200 369 230 Q369 288 333 309.5 Q297 331 238 331 L80 331 L159 700 L558 700 L520 517 L446 517 L460 586 L447 602 L228 602 Z " />
<glyph glyph-name="six" unicode="6" horiz-adv-x="587" d="M427 635 Q378 635 337 615 Q296 595 264 558.5 Q232 522 209.5 470 Q187 418 175 355 Q204 380 248 402 Q292 424 347 424 Q385 424 419 413.5 Q453 403 479 382 Q505 361 520 329 Q535 297 535 254 Q535 189 512 140 Q489 91 450.5 57.5 Q412 24 362.5 7 Q313 -10 260 -10 Q159 -10 101.5 48 Q44 106 44 229 Q44 275 52.5 328.5 Q61 382 80 435.5 Q99 489 129.5 538.5 Q160 588 203.5 626 Q247 664 304.5 687 Q362 710 435 710 Q496 710 535 699.5 Q574 689 580 686 L548 530 L471 530 L489 611 L475 627 Q456 635 427 635 Z M416 246 Q416 294 391 320 Q366 346 318 346 Q272 346 231 324.5 Q190 303 164 275 Q161 242 161 207 Q161 135 186.5 101 Q212 67 271 67 Q299 67 325 78 Q351 89 371.5 111 Q392 133 404 166.5 Q416 200 416 246 Z " />
<glyph glyph-name="seven" unicode="7" horiz-adv-x="506" d="M570 700 L556 635 L196 0 L61 0 L454 604 L183 604 L165 589 L148 515 L75 515 L114 700 L570 700 Z " />
<glyph glyph-name="eight" unicode="8" horiz-adv-x="586" d="M567 565 Q567 528 555 498.5 Q543 469 523 445.5 Q503 422 476.5 404 Q450 386 420 374 Q466 347 492.5 310.5 Q519 274 519 220 Q519 166 497.5 123 Q476 80 438.5 50.5 Q401 21 350 5.5 Q299 -10 239 -10 Q174 -10 131.5 3.5 Q89 17 63.5 39.5 Q38 62 28 90.5 Q18 119 18 149 Q18 200 37 235 Q56 270 83 294 Q110 318 140.5 331.5 Q171 345 195 352 Q158 376 134.5 410.5 Q111 445 111 497 Q111 544 130 583 Q149 622 183.5 650.5 Q218 679 264.5 694.5 Q311 710 367 710 Q424 710 462.5 697 Q501 684 524.5 663 Q548 642 557.5 616 Q567 590 567 565 Z M249 323 Q237 317 216 305 Q195 293 174.5 273.5 Q154 254 139 226.5 Q124 199 124 161 Q124 142 130.5 125 Q137 108 151 95 Q165 82 188.5 74 Q212 66 246 66 Q281 66 309 76.5 Q337 87 356.5 104.5 Q376 122 386 145 Q396 168 396 193 Q396 236 369 260.5 Q342 285 285 308 L249 323 Z M224 529 Q224 493 253.5 465 Q283 437 343 411 L359 404 Q379 414 398 428 Q417 442 431.5 459.5 Q446 477 455 499 Q464 521 464 548 Q464 585 437 609.5 Q410 634 356 634 Q296 634 260 605 Q224 576 224 529 Z " />
<glyph glyph-name="nine" unicode="9" horiz-adv-x="587" d="M182 65 Q230 65 271 85 Q312 105 344 142 Q376 179 398.5 231 Q421 283 433 346 Q404 320 360 298 Q316 276 262 276 Q224 276 189.5 286.5 Q155 297 129 318 Q103 339 88 371 Q73 403 73 447 Q73 511 96 560.5 Q119 610 157.5 643.5 Q196 677 245.5 694 Q295 711 348 711 Q448 711 505.5 653 Q563 595 563 472 Q563 426 554.5 372.5 Q546 319 527 265.5 Q508 212 478 162.5 Q448 113 404.5 74.5 Q361 36 304 13 Q247 -10 174 -10 Q144 -10 118.5 -7 Q93 -4 74 0.5 Q55 5 43.5 9 Q32 13 29 15 L60 170 L136 170 L120 89 L133 73 Q144 69 155.5 67 Q167 65 182 65 Z M193 454 Q193 407 217.5 380.5 Q242 354 290 354 Q336 354 377 375.5 Q418 397 444 425 Q447 458 447 493 Q447 565 422 599.5 Q397 634 337 634 Q308 634 282 623 Q256 612 236.5 589.5 Q217 567 205 533.5 Q193 500 193 454 Z " />
<glyph glyph-name="colon" unicode="&#x3a;" horiz-adv-x="263" d="M9 46 Q9 76 31.5 100 Q54 124 92 124 Q119 124 135 107 Q151 90 151 67 Q151 36 127.5 13 Q104 -10 66 -10 Q40 -10 24.5 6.5 Q9 23 9 46 Z M96 460 Q96 490 118.5 514 Q141 538 179 538 Q206 538 222 521 Q238 504 238 481 Q238 450 214 427 Q190 404 153 404 Q126 404 111 420.5 Q96 437 96 460 Z " />
<glyph glyph-name="semicolon" unicode="&#x3b;" horiz-adv-x="267" d="M11 46 Q11 61 16.5 75 Q22 89 32 100 Q42 111 57 117.5 Q72 124 90 124 Q119 124 136 107.5 Q153 91 153 67 Q153 49 145.5 35 Q138 21 128 9 L28 -124 L-16 -96 L37 -23 L33 0 Q11 17 11 46 Z M99 460 Q99 490 122 514 Q145 538 183 538 Q209 538 225 521 Q241 504 241 481 Q241 450 217.5 427 Q194 404 156 404 Q129 404 114 420.5 Q99 437 99 460 Z " />
<glyph glyph-name="less" unicode="&#x3c;" horiz-adv-x="541" d="M47 314 L47 369 L468 543 L468 461 L168 343 L468 221 L468 139 L47 314 Z " />
<glyph glyph-name="equal" unicode="&#x3d;" horiz-adv-x="585" d="M91 454 L505 454 L505 379 L91 379 L91 454 Z M87 293 L502 293 L502 218 L87 218 L87 293 Z " />
<glyph glyph-name="greater" unicode="&#x3e;" horiz-adv-x="530" d="M79 221 L379 343 L79 461 L79 543 L500 369 L500 314 L79 139 L79 221 Z " />
<glyph glyph-name="question" unicode="&#x3f;" horiz-adv-x="502" d="M109 657 Q136 672 169 683 Q198 693 236 701.5 Q274 710 319 710 Q373 710 411.5 698 Q450 686 474.5 666 Q499 646 511 620 Q523 594 523 566 Q523 530 514.5 501 Q506 472 486.5 447.5 Q467 423 435 401.5 Q403 380 356 360 Q330 349 313 340 Q296 331 285 323 Q274 315 268 306 Q262 297 260 285 L256 264 L221 206 L163 206 L150 264 L155 292 Q160 319 171 337.5 Q182 356 199.5 370 Q217 384 240 395 L291 421 Q349 449 371 479 Q393 509 393 552 Q393 585 367.5 607.5 Q342 630 280 630 Q243 630 219.5 622.5 Q196 615 190 613 L170 597 L152 515 L79 515 L109 657 Z M88 49 Q88 81 112 105.5 Q136 130 175 130 Q201 130 218 112 Q235 94 235 71 Q235 39 210.5 14.5 Q186 -10 147 -10 Q122 -10 105 7.5 Q88 25 88 49 Z " />
<glyph glyph-name="at" unicode="&#x40;" horiz-adv-x="861" d="M651 -51 Q610 -70 556.5 -82.5 Q503 -95 438 -95 Q413 -95 374.5 -91 Q336 -87 292.5 -74.5 Q249 -62 205.5 -38.5 Q162 -15 127 25 Q92 65 70 123 Q48 181 48 263 Q48 359 80 441 Q112 523 169.5 583 Q227 643 308.5 676.5 Q390 710 489 710 Q576 710 641.5 683 Q707 656 750.5 610 Q794 564 816 504.5 Q838 445 838 380 Q838 301 816 247 Q794 193 760 159.5 Q726 126 686 111.5 Q646 97 609 97 Q512 97 485 165 Q476 154 462.5 142.5 Q449 131 433 122 Q417 113 399 107 Q381 101 364 101 Q304 101 266 139.5 Q228 178 228 264 Q228 331 247.5 381 Q267 431 296.5 464 Q326 497 361.5 513.5 Q397 530 430 530 Q462 530 489 514 Q516 498 528 479 L543 507 Q548 515 553.5 518.5 Q559 522 573 522 L633 522 L579 254 Q576 239 576 222 Q576 197 589 178 Q602 159 640 159 Q662 159 684.5 171.5 Q707 184 725 211 Q743 238 754.5 280 Q766 322 766 380 Q766 434 748.5 483.5 Q731 533 696.5 570.5 Q662 608 610 630.5 Q558 653 489 653 Q406 653 338 623.5 Q270 594 221.5 542 Q173 490 146.5 418.5 Q120 347 120 263 Q120 194 138.5 145 Q157 96 186.5 62.5 Q216 29 252.5 9 Q289 -11 325 -21.5 Q361 -32 393 -35 Q425 -38 445 -38 Q507 -38 555 -29.5 Q603 -21 644 -7 L651 -51 Z M398 176 Q415 176 435.5 185 Q456 194 476 208 L476 223 Q476 233 477 244 Q478 255 481 268 L513 431 Q500 443 482.5 448.5 Q465 454 449 454 Q421 454 399.5 436 Q378 418 363 389.5 Q348 361 340.5 326.5 Q333 292 333 259 Q333 215 350.5 195.5 Q368 176 398 176 Z " />
<glyph glyph-name="A" unicode="A" horiz-adv-x="657" d="M414 193 L174 193 L115 81 L126 67 L178 67 L164 0 L-70 0 L-56 67 L-5 67 L14 83 L355 702 L469 702 L553 81 L566 67 L617 67 L602 0 L350 0 L364 67 L411 67 L427 81 L414 193 Z M215 269 L405 269 L371 563 L215 269 Z " />
<glyph glyph-name="B" unicode="B" horiz-adv-x="653" d="M-6 67 L48 67 L67 83 L181 617 L168 633 L113 633 L128 700 L414 700 Q518 700 575.5 662.5 Q633 625 633 547 Q633 475 593.5 431 Q554 387 485 364 L485 361 Q537 344 564.5 311.5 Q592 279 592 222 Q592 166 571 124.5 Q550 83 511.5 55 Q473 27 418 13.5 Q363 0 295 0 L-21 0 L-6 67 Z M258 398 L344 398 Q427 398 466.5 435.5 Q506 473 506 537 Q506 582 476 602.5 Q446 623 389 623 L307 623 L258 398 Z M190 77 L302 77 Q388 77 426.5 119 Q465 161 465 232 Q465 279 437 300 Q409 321 353 321 L243 321 L190 77 Z " />
<glyph glyph-name="C" unicode="C" horiz-adv-x="582" d="M485 24 Q454 11 410.5 0.5 Q367 -10 305 -10 Q181 -10 113.5 58 Q46 126 46 246 Q46 354 75 440 Q104 526 157 586 Q210 646 284.5 678 Q359 710 451 710 Q484 710 512.5 706.5 Q541 703 562.5 698.5 Q584 694 597.5 689 Q611 684 614 682 L579 516 L503 516 L521 603 L510 618 Q496 623 480.5 625.5 Q465 628 446 628 Q387 628 338 605.5 Q289 583 253 537.5 Q217 492 197 422 Q177 352 177 257 Q177 173 214 124 Q251 75 333 75 Q354 75 371 77 Q388 79 405 84 L424 99 L444 192 L520 192 L485 24 Z " />
<glyph glyph-name="D" unicode="D" horiz-adv-x="700" d="M-6 67 L49 67 L68 83 L181 617 L168 633 L113 633 L128 700 L407 700 Q468 700 517 684 Q566 668 600.5 636 Q635 604 654 556.5 Q673 509 673 446 Q673 339 645 256 Q617 173 565.5 116 Q514 59 441 29.5 Q368 0 278 0 L-21 0 L-6 67 Z M191 81 L297 81 Q347 81 391.5 104.5 Q436 128 469.5 174 Q503 220 522.5 288.5 Q542 357 542 447 Q542 534 505.5 576.5 Q469 619 390 619 L307 619 L191 81 Z " />
<glyph glyph-name="E" unicode="E" horiz-adv-x="613" d="M307 622 L260 395 L403 395 L421 410 L432 464 L499 464 L454 252 L387 252 L398 306 L386 320 L243 320 L192 78 L436 78 L455 93 L473 178 L546 178 L508 0 L-21 0 L-6 67 L49 67 L68 83 L181 617 L168 633 L113 633 L128 700 L647 700 L609 523 L536 523 L553 607 L541 622 L307 622 Z " />
<glyph glyph-name="F" unicode="F" horiz-adv-x="603" d="M307 620 L256 384 L413 384 L431 399 L442 452 L510 452 L465 240 L397 240 L408 293 L396 306 L239 306 L192 83 L204 67 L277 67 L262 0 L-21 0 L-6 67 L49 67 L68 83 L181 617 L168 633 L113 633 L128 700 L659 700 L621 523 L550 523 L568 605 L555 620 L307 620 Z " />
<glyph glyph-name="G" unicode="G" horiz-adv-x="634" d="M493 24 Q462 11 418.5 0.5 Q375 -10 312 -10 Q247 -10 197.5 8.5 Q148 27 114 60.5 Q80 94 63 141 Q46 188 46 245 Q46 355 75 441.5 Q104 528 157 587.5 Q210 647 284 678.5 Q358 710 447 710 Q520 710 568 699.5 Q616 689 629 682 L594 516 L520 516 L539 605 L528 618 Q493 630 446 630 Q385 630 335.5 607.5 Q286 585 250.5 539 Q215 493 196 422 Q177 351 177 255 Q177 169 216 118 Q255 67 333 67 Q370 67 394 75 L433 260 L420 276 L371 276 L387 343 L615 343 L600 276 L560 276 L543 260 L493 24 Z " />
<glyph glyph-name="H" unicode="H" horiz-adv-x="728" d="M494 317 L241 317 L192 83 L203 67 L259 67 L244 0 L-22 0 L-6 67 L48 67 L67 83 L181 617 L168 633 L113 633 L127 700 L393 700 L379 633 L323 633 L305 617 L259 398 L511 398 L557 617 L546 633 L491 633 L505 700 L771 700 L756 633 L701 633 L682 617 L569 83 L581 67 L637 67 L622 0 L356 0 L371 67 L426 67 L444 83 L494 317 Z " />
<glyph glyph-name="I" unicode="I" horiz-adv-x="351" d="M181 617 L168 633 L113 633 L128 700 L394 700 L379 633 L323 633 L305 617 L192 83 L204 67 L260 67 L245 0 L-21 0 L-6 67 L49 67 L68 83 L181 617 Z " />
<glyph glyph-name="J" unicode="J" horiz-adv-x="518" d="M358 617 L346 633 L291 633 L306 700 L572 700 L557 633 L501 633 L482 617 L393 193 Q373 97 311.5 43.5 Q250 -10 146 -10 Q99 -10 66.5 -2 Q34 6 14 16 Q-6 26 -16 35 Q-26 44 -29 46 L2 190 L84 190 L65 101 L74 87 Q101 71 134 71 Q192 71 223.5 98.5 Q255 126 266 183 L358 617 Z " />
<glyph glyph-name="K" unicode="K" horiz-adv-x="692" d="M245 0 L-21 0 L-6 67 L49 67 L68 83 L181 617 L168 633 L113 633 L128 700 L394 700 L379 633 L323 633 L306 617 L258 393 L328 393 L561 623 L555 633 L510 633 L525 700 L755 700 L740 633 L691 633 L670 621 L426 384 L567 80 L580 67 L632 67 L618 0 L359 0 L374 67 L426 67 L433 74 L323 323 L243 323 L192 82 L204 67 L259 67 L245 0 Z " />
<glyph glyph-name="L" unicode="L" horiz-adv-x="561" d="M192 80 L403 80 L423 96 L443 188 L515 188 L475 0 L-21 0 L-6 67 L49 67 L68 83 L181 617 L168 633 L113 633 L128 700 L394 700 L379 633 L323 633 L305 617 L192 80 Z " />
<glyph glyph-name="M" unicode="M" horiz-adv-x="823" d="M639 508 L419 214 L341 214 L248 491 L162 83 L174 67 L229 67 L215 0 L-22 0 L-7 67 L48 67 L67 83 L181 617 L168 633 L113 633 L128 700 L299 700 L414 333 L679 700 L866 700 L851 633 L796 633 L776 617 L663 83 L676 67 L731 67 L717 0 L461 0 L475 67 L531 67 L549 83 L639 508 Z " />
<glyph glyph-name="N" unicode="N" horiz-adv-x="713" d="M474 -3 L250 511 L159 83 L172 67 L227 67 L213 0 L-22 0 L-7 67 L47 67 L66 83 L180 617 L167 633 L112 633 L127 700 L292 700 L498 221 L582 617 L570 633 L515 633 L530 700 L764 700 L749 633 L694 633 L675 617 L544 -3 L474 -3 Z " />
<glyph glyph-name="O" unicode="O" horiz-adv-x="676" d="M405 710 Q468 710 514.5 690 Q561 670 591.5 635.5 Q622 601 637 554 Q652 507 652 453 Q652 376 630.5 294.5 Q609 213 565 145 Q521 77 453.5 33.5 Q386 -10 294 -10 Q231 -10 184 9.5 Q137 29 106 63.5 Q75 98 60 144.5 Q45 191 45 245 Q45 322 66 404.5 Q87 487 131 555 Q175 623 243 666.5 Q311 710 405 710 Z M399 626 Q359 626 326.5 606 Q294 586 269 553 Q244 520 226.5 478 Q209 436 197.5 391 Q186 346 180.5 302 Q175 258 175 222 Q175 151 203 112.5 Q231 74 297 74 Q337 74 369 93.5 Q401 113 426 145.5 Q451 178 469 220 Q487 262 498.5 306.5 Q510 351 515.5 394.5 Q521 438 521 474 Q521 548 493.5 587 Q466 626 399 626 Z " />
<glyph glyph-name="P" unicode="P" horiz-adv-x="634" d="M181 617 L168 633 L113 633 L128 700 L418 700 Q525 700 586.5 655 Q648 610 648 517 Q648 451 626 402.5 Q604 354 563.5 322 Q523 290 465 274 Q407 258 336 258 L229 258 L192 83 L204 67 L272 67 L257 0 L-21 0 L-6 67 L49 67 L68 83 L181 617 Z M307 622 L246 336 L351 336 Q429 336 474.5 379 Q520 422 520 512 Q520 567 492 594.5 Q464 622 401 622 L307 622 Z " />
<glyph glyph-name="Q" unicode="Q" horiz-adv-x="675" d="M405 710 Q468 710 514.5 690 Q561 670 591.5 635.5 Q622 601 637 554 Q652 507 652 453 Q652 388 637 319.5 Q622 251 590.5 189.5 Q559 128 511.5 79.5 Q464 31 400 8 L453 -62 L481 -75 L539 -75 L526 -142 L405 -142 Q374 -142 358 -132.5 Q342 -123 331 -106 L269 -9 Q212 -5 170 16 Q128 37 100 71 Q72 105 58.5 149.5 Q45 194 45 245 Q45 322 66 404.5 Q87 487 131 555 Q175 623 243 666.5 Q311 710 405 710 Z M399 626 Q359 626 326.5 606 Q294 586 269 553 Q244 520 226.5 478 Q209 436 197.5 391 Q186 346 180.5 302 Q175 258 175 222 Q175 151 203 112.5 Q231 74 297 74 Q337 74 369 93.5 Q401 113 426 145.5 Q451 178 469 220 Q487 262 498.5 306.5 Q510 351 515.5 394.5 Q521 438 521 474 Q521 548 493.5 587 Q466 626 399 626 Z " />
<glyph glyph-name="R" unicode="R" horiz-adv-x="669" d="M307 622 L253 369 L350 369 Q427 369 470 409.5 Q513 450 513 531 Q513 576 487.5 599 Q462 622 403 622 L307 622 Z M251 0 L-21 0 L-6 67 L49 67 L68 83 L181 617 L168 633 L113 633 L128 700 L423 700 Q527 700 585 659.5 Q643 619 643 536 Q643 486 625 449 Q607 412 579 386.5 Q551 361 515.5 347 Q480 333 446 330 L446 327 Q481 322 501.5 299.5 Q522 277 528 225 L545 82 L560 67 L603 67 L588 0 L465 0 Q439 0 429 13 Q419 26 417 46 L397 224 Q394 248 389.5 261.5 Q385 275 377.5 281.5 Q370 288 360 289.5 Q350 291 338 291 L237 291 L192 82 L204 67 L266 67 L251 0 Z " />
<glyph glyph-name="S" unicode="S" horiz-adv-x="553" d="M497 219 Q497 165 476.5 122.5 Q456 80 417.5 50.5 Q379 21 324.5 5.5 Q270 -10 203 -10 Q156 -10 118.5 -5 Q81 0 54 7 Q22 15 -2 25 L34 194 L112 194 L91 98 L105 81 Q122 77 148 73.5 Q174 70 209 70 Q253 70 284 80 Q315 90 335 106.5 Q355 123 364.5 145.5 Q374 168 374 193 Q374 230 347.5 254 Q321 278 259 304 Q221 320 190.5 338 Q160 356 138.5 378.5 Q117 401 105 429 Q93 457 93 493 Q93 547 113.5 587.5 Q134 628 171 655.5 Q208 683 259.5 696.5 Q311 710 372 710 Q416 710 450.5 705 Q485 700 510 694 Q539 687 561 679 L525 516 L447 516 L466 605 L453 621 Q434 625 412 627.5 Q390 630 364 630 Q294 630 252 602.5 Q210 575 210 524 Q210 504 215.5 489.5 Q221 475 234.5 461.5 Q248 448 271.5 434.5 Q295 421 331 405 Q371 387 402 367.5 Q433 348 454 326 Q475 304 486 277.5 Q497 251 497 219 Z " />
<glyph glyph-name="T" unicode="T" horiz-adv-x="577" d="M111 700 L635 700 L596 520 L523 520 L539 603 L528 619 L417 619 L305 83 L317 67 L383 67 L368 0 L84 0 L99 67 L161 67 L180 83 L293 619 L182 619 L163 603 L146 520 L72 520 L111 700 Z " />
<glyph glyph-name="U" unicode="U" horiz-adv-x="680" d="M549 617 L537 633 L482 633 L496 700 L736 700 L722 633 L666 633 L647 617 L566 232 Q539 103 470 46.5 Q401 -10 300 -10 Q195 -10 137 32 Q79 74 79 163 Q79 197 86 232 L167 617 L155 633 L100 633 L115 700 L382 700 L367 633 L311 633 L292 617 L211 231 Q204 199 204 169 Q204 124 230 98.5 Q256 73 314 73 Q380 73 415.5 112 Q451 151 468 231 L549 617 Z " />
<glyph glyph-name="V" unicode="V" horiz-adv-x="643" d="M125 618 L113 633 L65 633 L80 700 L334 700 L319 633 L269 633 L253 619 L300 148 L544 618 L534 633 L479 633 L494 700 L728 700 L713 633 L668 633 L650 618 L315 -2 L202 -2 L125 618 Z " />
<glyph glyph-name="W" unicode="W" horiz-adv-x="945" d="M127 619 L115 633 L67 633 L82 700 L334 700 L319 633 L269 633 L253 619 L277 182 L522 700 L616 700 L642 180 L851 617 L840 633 L787 633 L802 700 L1029 700 L1013 633 L967 633 L950 618 L646 -2 L540 -2 L507 464 L281 -2 L175 -2 L127 619 Z " />
<glyph glyph-name="X" unicode="X" horiz-adv-x="661" d="M-49 0 L-35 67 L12 67 L26 77 L278 356 L162 620 L149 633 L92 633 L107 700 L376 700 L361 633 L311 633 L300 622 L372 446 L533 624 L528 633 L482 633 L497 700 L720 700 L705 633 L659 633 L639 620 L407 374 L536 77 L546 67 L602 67 L588 0 L319 0 L333 67 L382 67 L395 79 L314 278 L139 77 L146 67 L187 67 L172 0 L-49 0 Z " />
<glyph glyph-name="Y" unicode="Y" horiz-adv-x="613" d="M115 0 L130 67 L185 67 L204 83 L243 271 L122 618 L109 633 L64 633 L79 700 L329 700 L314 633 L265 633 L250 619 L336 370 L516 618 L506 633 L457 633 L471 700 L695 700 L680 633 L635 633 L619 620 L374 295 L329 82 L340 67 L396 67 L382 0 L115 0 Z " />
<glyph glyph-name="Z" unicode="Z" horiz-adv-x="589" d="M-25 0 L-10 68 L448 620 L212 620 L193 605 L175 521 L98 521 L136 700 L618 700 L604 631 L149 81 L412 81 L430 96 L448 179 L524 179 L486 0 L-25 0 Z " />
<glyph glyph-name="bracketleft" unicode="&#x5b;" horiz-adv-x="305" d="M-22 -102 L167 786 L379 786 L367 729 L264 729 L100 -46 L202 -46 L190 -102 L-22 -102 Z " />
<glyph glyph-name="backslash" unicode="&#x5c;" horiz-adv-x="419" d="M124 787 L196 787 L312 -102 L240 -102 L124 787 Z " />
<glyph glyph-name="bracketright" unicode="&#x5d;" horiz-adv-x="305" d="M344.999 785.994 L156.01 -101.952 L-55.9769 -101.952 L-43.9776 -44.9555 L59.0161 -44.9555 L223.006 729.997 L121.012 729.997 L133.012 785.994 L344.999 785.994 Z " />
<glyph glyph-name="asciicircum" unicode="&#x5e;" horiz-adv-x="434" d="M337 385 L241 614 L148 385 L69 385 L203 700 L280 700 L417 385 L337 385 Z " />
<glyph glyph-name="underscore" unicode="&#x5f;" horiz-adv-x="494" d="M-81 -80 L413 -80 L399 -143 L-95 -143 L-81 -80 Z " />
<glyph glyph-name="grave" unicode="&#x60;" horiz-adv-x="378" d="M180 684 L249 751 L269 751 L360 615 L320 579 L305 579 L180 684 Z " />
<glyph glyph-name="a" unicode="a" horiz-adv-x="576" d="M22 178 Q22 252 42.5 317.5 Q63 383 99.5 432 Q136 481 185.5 509.5 Q235 538 293 538 Q336 538 366 523.5 Q396 509 415 487 L428 512 Q433 521 439 524.5 Q445 528 459 528 L536 528 L440 80 L453 63 L509 63 L495 0 L401 0 Q384 0 369 1.5 Q354 3 343 8.5 Q332 14 326.5 25 Q321 36 324 56 L328 80 L325 80 Q297 42 258 16 Q219 -10 173 -10 Q102 -10 62 40 Q22 90 22 178 Z M220 80 Q244 80 277 98.5 Q310 117 339 152 L394 417 Q380 432 360.5 443 Q341 454 312 454 Q274 454 242.5 431 Q211 408 188.5 370.5 Q166 333 154 284.5 Q142 236 142 185 Q142 131 161 105.5 Q180 80 220 80 Z " />
<glyph glyph-name="b" unicode="b" horiz-adv-x="575" d="M23 63 L41 80 L162 647 L150 663 L94 663 L108 730 L253 730 Q280 730 285.5 717.5 Q291 705 287 688 L237 451 Q264 488 302.5 513 Q341 538 386 538 Q458 538 497.5 486.5 Q537 435 537 347 Q537 273 516.5 208.5 Q496 144 459.5 95 Q423 46 373.5 18 Q324 -10 266 -10 Q224 -10 194 4 Q164 18 145 39 L142 39 L141 34 Q138 20 127.5 10 Q117 0 91 0 L-48 0 L-33 63 L23 63 Z M339 448 Q315 448 282.5 429.5 Q250 411 221 376 L164 110 Q178 95 198 84.5 Q218 74 247 74 Q285 74 316.5 96.5 Q348 119 370.5 156.5 Q393 194 405 242 Q417 290 417 340 Q417 396 398 422 Q379 448 339 448 Z " />
<glyph glyph-name="c" unicode="c" horiz-adv-x="470" d="M403 84 Q373 37 325 13.5 Q277 -10 216 -10 Q178 -10 143 1.5 Q108 13 81.5 37.5 Q55 62 39 100 Q23 138 23 191 Q23 275 47.5 339.5 Q72 404 114 448 Q156 492 211.5 515 Q267 538 328 538 Q386 538 423.5 528 Q461 518 467 515 L435 364 L360 364 L377 444 L365 458 Q347 463 320 463 Q275 463 242 440.5 Q209 418 187 381.5 Q165 345 154 299 Q143 253 143 206 Q143 136 173.5 102.5 Q204 69 255 69 Q292 69 323 87.5 Q354 106 374 125 L403 84 Z " />
<glyph glyph-name="d" unicode="d" horiz-adv-x="575" d="M495 0 L401 0 Q385 0 370 1.5 Q355 3 343.5 8.5 Q332 14 326.5 25 Q321 36 324 56 L328 80 L325 80 Q297 42 258 16 Q219 -10 173 -10 Q102 -10 62 40 Q22 90 22 178 Q22 252 42.5 317.5 Q63 383 99.5 432 Q136 481 185.5 509.5 Q235 538 293 538 Q334 538 363 524.5 Q392 511 411 491 L445 646 L432 663 L377 663 L391 730 L535 730 Q563 730 568.5 718 Q574 706 570 688 L441 80 L454 63 L509 63 L495 0 Z M142 185 Q142 131 161 105.5 Q180 80 220 80 Q244 80 277 98 Q310 116 339 151 L395 416 Q381 432 361 443 Q341 454 312 454 Q274 454 242.5 431 Q211 408 188.5 370.5 Q166 333 154 284.5 Q142 236 142 185 Z " />
<glyph glyph-name="e" unicode="e" horiz-adv-x="490" d="M223 -10 Q181 -10 145 1.5 Q109 13 82 37 Q55 61 39.5 99 Q24 137 24 191 Q24 273 47.5 337.5 Q71 402 111 446.5 Q151 491 202 514.5 Q253 538 309 538 Q381 538 427 504.5 Q473 471 473 408 Q473 372 457 343.5 Q441 315 415 294 Q389 273 355 258 Q321 243 284.5 233 Q248 223 211.5 217 Q175 211 144 207 L144 196 Q144 132 174 100.5 Q204 69 260 69 Q296 69 327.5 84 Q359 99 384 120 L413 76 Q399 61 381 45.5 Q363 30 339.5 17.5 Q316 5 287 -2.5 Q258 -10 223 -10 Z M300 466 Q276 466 252 454.5 Q228 443 207 419 Q186 395 170.5 358 Q155 321 148 269 Q179 273 216.5 279 Q254 285 286.5 298.5 Q319 312 341 335.5 Q363 359 363 398 Q363 432 346 449 Q329 466 300 466 Z " />
<glyph glyph-name="f" unicode="f" horiz-adv-x="333" d="M-130 -65 L-61 -65 L-71 -110 L-60 -123 Q-56 -124 -49 -124 Q-16 -124 2.5 -90 Q21 -56 31 -7 L119 461 L48 461 L61 526 L116 526 L136 542 L139 560 Q155 642 204.5 691 Q254 740 350 740 Q392 740 417.5 735.5 Q443 731 448 729 L425 621 L357 621 L367 670 L357 683 Q353 684 349 684 L343 684 Q307 684 287.5 652.5 Q268 621 257 567 L249 526 L369 526 L356 461 L236 461 L149 0 Q141 -39 126 -72 Q111 -105 86 -129 Q61 -153 26 -166.5 Q-9 -180 -56 -180 Q-101 -180 -124.5 -175.5 Q-148 -171 -152 -169 L-130 -65 Z " />
<glyph glyph-name="g" unicode="g" horiz-adv-x="537" d="M56 348 Q56 394 74 429.5 Q92 465 123 489 Q154 513 194 525.5 Q234 538 278 538 Q299 538 319 535.5 Q339 533 357 528 L546 528 L532 461 L459 461 L452 455 Q459 443 463 427.5 Q467 412 467 395 Q467 347 448.5 310.5 Q430 274 398.5 249.5 Q367 225 326.5 212 Q286 199 243 199 Q223 199 205 200.5 Q187 202 170 207 Q151 199 139.5 187 Q128 175 128 161 Q128 130 179 130 L313 130 Q379 130 422.5 100.5 Q466 71 466 5 Q466 -42 443.5 -76.5 Q421 -111 381.5 -134 Q342 -157 288 -168.5 Q234 -180 171 -180 Q127 -180 90 -174.5 Q53 -169 26.5 -156 Q0 -143 -15 -122 Q-30 -101 -30 -71 Q-30 -49 -20.5 -31.5 Q-11 -14 3.5 -0.5 Q18 13 35.5 22.5 Q53 32 70 38 Q22 60 22 114 Q22 185 116 230 Q88 248 72 277 Q56 306 56 348 Z M124 26 Q109 16 92 -3 Q75 -22 75 -53 Q75 -85 100.5 -103 Q126 -121 186 -121 Q261 -121 308.5 -97 Q356 -73 356 -28 Q356 3 336.5 14.5 Q317 26 272 26 L124 26 Z M166 352 Q166 307 187.5 284.5 Q209 262 247 262 Q295 262 326.5 295.5 Q358 329 358 385 Q358 432 336 453.5 Q314 475 274 475 Q227 475 196.5 441 Q166 407 166 352 Z " />
<glyph glyph-name="h" unicode="h" horiz-adv-x="572" d="M239 730 Q265 730 271 718 Q277 706 273 688 L223 451 Q236 467 253.5 482.5 Q271 498 291.5 510.5 Q312 523 336.5 530.5 Q361 538 389 538 Q449 538 480 505 Q511 472 511 417 Q511 394 505 367 L444 80 L457 63 L513 63 L499 0 L400 0 Q380 0 364 2.5 Q348 5 338 13 Q328 21 324.5 36.5 Q321 52 327 78 L387 359 Q389 368 390 377 Q391 386 391 394 Q391 417 380 432 Q369 447 335 447 Q300 447 265.5 426 Q231 405 207 378 L127 0 L10 0 L148 647 L136 663 L80 663 L95 730 L239 730 Z " />
<glyph glyph-name="i" unicode="i" horiz-adv-x="296" d="M120 444 L108 461 L52 461 L67 528 L212 528 Q240 528 245 515 Q250 502 246 485 L160 80 L173 63 L228 63 L215 0 L116 0 Q97 0 81.5 2 Q66 4 55.5 12 Q45 20 41 35.5 Q37 51 43 78 L120 444 Z M148 657 Q148 693 167.5 715 Q187 737 229 737 Q258 737 273 722.5 Q288 708 288 685 Q288 650 268.5 627.5 Q249 605 207 605 Q178 605 163 620 Q148 635 148 657 Z " />
<glyph glyph-name="j" unicode="j" horiz-adv-x="282" d="M215 528 Q243 528 248 515 Q253 502 249 485 L147 5 Q138 -37 123 -71 Q108 -105 83.5 -129.5 Q59 -154 23 -167 Q-13 -180 -63 -180 Q-106 -180 -128 -175.5 Q-150 -171 -153 -171 L-131 -63 L-62 -63 L-72 -111 L-62 -123 Q-61 -124 -56 -124 Q-39 -124 -26 -114.5 Q-13 -105 -2.5 -88.5 Q8 -72 15.5 -49.5 Q23 -27 29 -2 L123 444 L112 461 L53 461 L68 528 L215 528 Z M150 657 Q150 693 170 715 Q190 737 232 737 Q261 737 276 722.5 Q291 708 291 685 Q291 650 271 627.5 Q251 605 209 605 Q181 605 165.5 620 Q150 635 150 657 Z " />
<glyph glyph-name="k" unicode="k" horiz-adv-x="573" d="M341 313 L452 76 L465 63 L516 63 L503 0 L408 0 Q388 0 374 4.5 Q360 9 350 18 Q340 27 332.5 40.5 Q325 54 318 72 L238 258 L182 258 L127 0 L10 0 L148 647 L136 663 L80 663 L95 730 L239 730 Q265 730 271 718 Q277 706 273 688 L194 317 L243 317 L409 454 L405 461 L361 461 L375 528 L596 528 L582 461 L531 461 L512 452 L341 313 Z " />
<glyph glyph-name="l" unicode="l" horiz-adv-x="281" d="M148 647 L136 663 L80 663 L94 730 L239 730 Q267 730 272 717.5 Q277 705 274 688 L144 80 L157 63 L212 63 L198 0 L100 0 Q82 0 66 2.5 Q50 5 39.5 13 Q29 21 25 36 Q21 51 27 77 L148 647 Z " />
<glyph glyph-name="m" unicode="m" horiz-adv-x="876" d="M24 0 L120 444 L107 461 L50 461 L66 528 L207 528 Q234 528 239.5 515.5 Q245 503 241 486 L232 449 L235 449 Q263 483 303.5 510.5 Q344 538 397 538 Q451 538 482 510.5 Q513 483 519 437 Q533 455 550.5 473 Q568 491 589.5 505.5 Q611 520 636.5 529 Q662 538 692 538 Q752 538 783.5 504.5 Q815 471 815 417 Q815 395 809 370 L746 80 L759 63 L815 63 L801 0 L703 0 Q684 0 668 2 Q652 4 641.5 12 Q631 20 627 35.5 Q623 51 629 78 L690 359 Q692 368 693 377 Q694 386 694 394 Q694 417 683.5 432 Q673 447 638 447 Q621 447 604 441 Q587 435 571 425 Q555 415 540.5 403.5 Q526 392 516 381 Q516 378 514 370 L435 0 L318 0 L395 359 Q400 379 400 394 Q400 417 389.5 432 Q379 447 344 447 Q328 447 311.5 441.5 Q295 436 279.5 426.5 Q264 417 249.5 405 Q235 393 223 380 L141 0 L24 0 Z " />
<glyph glyph-name="n" unicode="n" horiz-adv-x="587" d="M24 0 L120 444 L107 461 L50 461 L66 528 L207 528 Q234 528 239 515.5 Q244 503 241 486 L232 449 L236 449 Q250 465 267 481 Q284 497 305 510 Q326 523 350.5 530.5 Q375 538 404 538 Q464 538 495 505 Q526 472 526 417 Q526 394 520 367 L459 80 L472 63 L527 63 L514 0 L415 0 Q396 0 380 2 Q364 4 353.5 12 Q343 20 339.5 35.5 Q336 51 342 78 L402 359 Q404 368 405 377 Q406 386 406 394 Q406 417 395 432 Q384 447 350 447 Q333 447 315.5 441.5 Q298 436 281 426.5 Q264 417 249 404.5 Q234 392 222 379 L141 0 L24 0 Z " />
<glyph glyph-name="o" unicode="o" horiz-adv-x="548" d="M145 197 Q145 129 165 98 Q185 67 232 67 Q269 67 298 92 Q327 117 347 156.5 Q367 196 377 245 Q387 294 387 342 Q387 401 367.5 431 Q348 461 301 461 Q263 461 233.5 436 Q204 411 184.5 372.5 Q165 334 155 287.5 Q145 241 145 197 Z M25 201 Q25 284 49 347 Q73 410 112 452.5 Q151 495 201 516.5 Q251 538 304 538 Q347 538 384 525.5 Q421 513 448.5 487.5 Q476 462 491.5 423.5 Q507 385 507 333 Q507 249 483 184.5 Q459 120 420 77 Q381 34 330.5 12 Q280 -10 228 -10 Q185 -10 148 3 Q111 16 83.5 42 Q56 68 40.5 107.5 Q25 147 25 201 Z " />
<glyph glyph-name="p" unicode="p" horiz-adv-x="574" d="M-85 -170 L-72 -107 L-15 -107 L4 -90 L118 445 L107 461 L50 461 L65 528 L206 528 Q234 528 239 515.5 Q244 503 240 486 L232 449 L235 449 Q262 487 300.5 512.5 Q339 538 385 538 Q457 538 497 486.5 Q537 435 537 347 Q537 273 516.5 208.5 Q496 144 459.5 95 Q423 46 373 18 Q323 -10 265 -10 Q225 -10 196 2.5 Q167 15 148 34 L122 -90 L134 -107 L194 -107 L180 -170 L-85 -170 Z M338 448 Q315 448 282.5 429.5 Q250 411 221 378 L164 109 Q178 95 198 84.5 Q218 74 247 74 Q285 74 316 96.5 Q347 119 369.5 156.5 Q392 194 404 242 Q416 290 416 340 Q416 396 397.5 422 Q379 448 338 448 Z " />
<glyph glyph-name="q" unicode="q" horiz-adv-x="574" d="M535 461 L517 444 L404 -90 L416 -107 L471 -107 L458 -170 L195 -170 L208 -107 L269 -107 L287 -90 L322 76 Q295 39 256.5 14.5 Q218 -10 173 -10 Q102 -10 62 40 Q22 90 22 178 Q22 252 42.5 317.5 Q63 383 99.5 432 Q136 481 185.5 509.5 Q235 538 293 538 Q335 538 364.5 523.5 Q394 509 413 489 L416 489 L417 493 Q421 508 431.5 518 Q442 528 468 528 L606 528 L591 461 L535 461 Z M220 80 Q244 80 276.5 98.5 Q309 117 338 150 L394 417 Q380 432 360.5 443 Q341 454 312 454 Q274 454 242.5 431 Q211 408 188.5 370.5 Q166 333 154 284.5 Q142 236 142 185 Q142 131 161 105.5 Q180 80 220 80 Z " />
<glyph glyph-name="r" unicode="r" horiz-adv-x="406" d="M120 444 L107 461 L50 461 L66 528 L207 528 Q235 528 239.5 515 Q244 502 240 486 L230 442 L235 442 Q244 454 259.5 470.5 Q275 487 296 502 Q317 517 343 527.5 Q369 538 400 538 Q415 538 425 536.5 Q435 535 437 535 L398 349 L328 349 L344 423 L332 438 Q297 431 267.5 412 Q238 393 221 372 L141 0 L24 0 L120 444 Z " />
<glyph glyph-name="s" unicode="s" horiz-adv-x="454" d="M391 168 Q391 126 373 92.5 Q355 59 323.5 36.5 Q292 14 249 2 Q206 -10 155 -10 Q116 -10 85 -5 Q54 0 33 6 Q7 13 -11 22 L17 158 L88 158 L73 84 L85 69 Q96 66 113.5 63 Q131 60 156 60 Q219 60 248.5 84.5 Q278 109 278 144 Q278 174 256.5 191.5 Q235 209 181 227 Q112 250 85 287.5 Q58 325 58 369 Q58 406 73 437 Q88 468 117 490.5 Q146 513 188.5 525.5 Q231 538 287 538 Q319 538 346.5 534.5 Q374 531 394 526 Q418 521 437 515 L409 381 L339 381 L351 449 L341 463 Q331 465 317.5 467 Q304 469 284 469 Q232 469 198.5 451 Q165 433 165 395 Q165 367 184 350.5 Q203 334 251 317 Q320 293 355.5 258.5 Q391 224 391 168 Z " />
<glyph glyph-name="t" unicode="t" horiz-adv-x="331" d="M236 461 L154 80 L167 63 L272 63 L258 0 Q235 -2 211 -4 Q191 -6 168 -7 Q145 -8 125 -8 Q72 -8 50.5 16.5 Q29 41 41 99 L119 461 L57 461 L70 526 L117 526 L136 542 L203 670 L279 670 L249 526 L357 526 L344 461 L236 461 Z " />
<glyph glyph-name="u" unicode="u" horiz-adv-x="583" d="M408 0 Q391 0 376 1.5 Q361 3 349.5 9 Q338 15 333 26 Q328 37 331 57 L335 78 L331 78 Q304 45 263.5 17.5 Q223 -10 169 -10 Q109 -10 77.5 23 Q46 56 46 111 Q46 134 52 160 L113 444 L100 461 L44 461 L59 528 L158 528 Q177 528 192.5 525.5 Q208 523 218.5 515 Q229 507 233 491.5 Q237 476 231 450 L171 168 Q166 148 166 134 Q166 111 177.5 95.5 Q189 80 222 80 Q255 80 288.5 101.5 Q322 123 346 151 L427 528 L543 528 L447 81 L460 63 L516 63 L502 0 L408 0 Z " />
<glyph glyph-name="v" unicode="v" horiz-adv-x="541" d="M99 445 L85 461 L37 461 L52 528 L132 528 Q145 528 159 526 Q173 524 185 517 Q197 510 205.5 495.5 Q214 481 218 457 L263 137 L431 444 L421 461 L374 461 L389 528 L480 528 Q502 528 515.5 521.5 Q529 515 534.5 504 Q540 493 538 479.5 Q536 466 527 451 L269 -2 L173 -2 L99 445 Z " />
<glyph glyph-name="w" unicode="w" horiz-adv-x="777" d="M98 446 L87 461 L37 461 L52 528 L129 528 Q142 528 155.5 526 Q169 524 180.5 517 Q192 510 200 496 Q208 482 211 458 L237 159 L419 528 L501 528 L528 156 L675 444 L665 461 L618 461 L633 528 L721 528 Q765 528 773.5 505 Q782 482 765 452 L527 -2 L440 -2 L411 338 L241 -2 L151 -2 L98 446 Z " />
<glyph glyph-name="x" unicode="x" horiz-adv-x="576" d="M159 0 L-48 0 L-34 63 L7 63 L21 73 L218 264 L126 445 L111 461 L51 461 L66 528 L166 528 Q186 528 199 523.5 Q212 519 222 510.5 Q232 502 239 489.5 Q246 477 254 460 L309 343 L424 452 L418 461 L381 461 L396 528 L600 528 L585 461 L538 461 L522 450 L341 284 L446 78 L461 63 L517 63 L504 0 L406 0 Q386 0 372.5 4.5 Q359 9 349 17.5 Q339 26 331.5 38.5 Q324 51 316 68 L253 201 L125 73 L131 63 L174 63 L159 0 Z " />
<glyph glyph-name="y" unicode="y" horiz-adv-x="549" d="M140 528 Q154 528 167.5 526 Q181 524 192.5 517 Q204 510 212.5 495.5 Q221 481 224 457 L268 142 L440 444 L430 461 L387 461 L402 528 L489 528 Q532 528 542.5 504.5 Q553 481 536 452 L226 -90 L237 -107 L291 -107 L279 -170 L42 -170 L54 -107 L116 -107 L136 -90 L181 -12 L106 445 L93 461 L37 461 L52 528 L140 528 Z " />
<glyph glyph-name="z" unicode="z" horiz-adv-x="505" d="M-28 0 L-16 53 L344 459 L165 459 L147 444 L132 370 L56 370 L89 528 L508 528 L497 474 L138 69 L331 69 L349 84 L364 158 L440 158 L407 0 L-28 0 Z " />
<glyph glyph-name="braceleft" unicode="&#x7b;" horiz-adv-x="350" d="M237 -103 Q221 -105 207.5 -106 Q194 -107 181 -107 Q115 -107 79.5 -80.5 Q44 -54 44 6 Q44 29 50 59 L84 221 Q88 240 90 253 Q92 266 92 277 Q92 299 79 307 Q66 315 34 318 L47 379 Q71 381 86 386 Q101 391 111 401.5 Q121 412 127 429.5 Q133 447 139 476 L170 624 Q179 668 194 699.5 Q209 731 232.5 751 Q256 771 290 780.5 Q324 790 372 790 Q385 790 398.5 789 Q412 788 426 786 L416 741 Q412 742 399.5 741 Q387 740 384 740 Q349 738 324 718.5 Q299 699 287 646 L258 509 Q248 461 237.5 432.5 Q227 404 213.5 387.5 Q200 371 182 363.5 Q164 356 139 350 L139 347 Q171 339 186 322 Q201 305 201 270 Q201 254 198 234.5 Q195 215 190 189 L157 37 Q153 18 153 0 Q153 -31 169.5 -43 Q186 -55 214 -57 Q215 -57 219.5 -57.5 Q224 -58 229 -58 L247 -58 L237 -103 Z " />
<glyph glyph-name="bar" unicode="&#x7c;" horiz-adv-x="273" d="M108 -102 L108 787 L182 787 L182 -102 L108 -102 Z " />
<glyph glyph-name="braceright" unicode="&#x7d;" horiz-adv-x="349" d="M130.014 785.994 Q146.013 787.994 159.513 788.994 Q173.012 789.993 186.011 789.993 Q252.007 789.993 287.505 763.495 Q323.003 736.997 323.003 677 Q323.003 654.002 317.003 624.004 L283.005 462.013 Q279.005 443.015 277.005 430.015 Q275.006 417.016 275.006 406.017 Q275.006 384.018 288.005 376.019 Q301.004 368.019 333.002 365.019 L320.003 304.023 Q296.004 302.023 281.005 297.024 Q266.006 292.024 256.007 281.525 Q246.007 271.025 240.008 253.526 Q234.008 236.027 228.008 207.029 L197.01 59.0381 Q188.011 15.0408 173.012 -16.4573 Q158.013 -47.9554 134.514 -67.9542 Q111.016 -87.9529 77.0177 -97.4524 Q43.0198 -106.952 -4.97729 -106.952 Q-17.9765 -106.952 -31.4757 -105.952 Q-44.9749 -104.952 -58.974 -102.952 L-48.9746 -57.9548 Q-44.9749 -58.9547 -32.4756 -57.9548 Q-19.9764 -56.9548 -16.9766 -56.9548 Q18.0213 -54.955 43.0198 -35.4561 Q68.0182 -15.9573 80.0175 37.0394 L109.016 174.031 Q119.015 222.028 129.514 250.526 Q140.014 279.025 153.513 295.524 Q167.012 312.023 185.011 319.522 Q203.01 327.022 228.008 333.021 L228.008 336.021 Q196.01 344.021 181.011 361.02 Q166.012 378.019 166.012 413.016 Q166.012 429.016 169.012 448.514 Q172.012 468.013 177.012 494.012 L210.01 646.002 Q214.009 665.001 214.009 683 Q214.009 713.998 197.51 725.997 Q181.011 737.997 153.013 739.997 Q152.013 739.997 147.513 740.496 Q143.014 740.996 138.014 740.996 L120.015 740.996 L130.014 785.994 Z " />
<glyph glyph-name="asciitilde" unicode="&#x7e;" horiz-adv-x="626" d="M55 286 Q83 335 123 364.5 Q163 394 213 394 Q248 394 278.5 382 Q309 370 336 355 Q363 340 387.5 328 Q412 316 436 316 Q454 316 472 325 L534 389 L579 351 Q550 302 509.5 273 Q469 244 419 244 Q384 244 354 256 Q324 268 297 283 Q270 298 245.5 310 Q221 322 197 322 Q179 322 161 313 L99 249 L55 286 Z " />
<glyph glyph-name="uni00A0" unicode="&#xa0;" horiz-adv-x="228" d="" />
<glyph glyph-name="exclamdown" unicode="&#xa1;" horiz-adv-x="252" d="M235 479.003 Q235 463.004 228.501 448.505 Q222.001 434.006 210.002 423.006 Q198.003 412.007 182.004 405.008 Q166.005 398.008 147.006 398.008 Q121.007 398.008 104.508 416.007 Q88.0093 434.006 88.0093 457.004 Q88.0093 489.002 113.008 513.501 Q138.006 537.999 177.004 537.999 Q201.002 537.999 218.001 520.5 Q235 503.002 235 479.003 Z M159.005 322.013 L175.004 283.015 L135.006 18.0311 L94.009 -171.957 L-42.9827 -171.957 L-1.98517 18.0311 L71.0104 283.015 L102.008 322.013 L159.005 322.013 Z " />
<glyph glyph-name="cent" unicode="&#xa2;" horiz-adv-x="494" d="M423 149 Q395 116 353.5 98 Q312 80 263 78 L245 -10 L194 -10 L213 80 Q178 85 148 99 Q118 113 95.5 137 Q73 161 60.5 195.5 Q48 230 48 276 Q48 357 70.5 419 Q93 481 131 524.5 Q169 568 220 593 Q271 618 328 624 L347 710 L398 710 L380 625 Q431 623 464 614 Q497 605 503 603 L471 455 L399 455 L416 534 L403 548 Q388 551 364 553 L279 153 L287 153 Q321 153 353 166.5 Q385 180 402 194 L423 149 Z M165 297 Q165 190 231 162 L312 548 Q274 539 246.5 514.5 Q219 490 201 455.5 Q183 421 174 380 Q165 339 165 297 Z " />
<glyph glyph-name="sterling" unicode="&#xa3;" horiz-adv-x="603" d="M-6 59 L46 59 L65 75 L116 315 L47 315 L60 374 L128 374 L153 486 Q162 531 183 571.5 Q204 612 237 642.5 Q270 673 315.5 691.5 Q361 710 420 710 Q466 710 503 704.5 Q540 699 566 692 Q597 684 620 675 L588 528 L516 528 L534 606 L523 618 Q518 619 494 625 Q470 631 432 631 Q367 631 330.5 599 Q294 567 277 486 L253 374 L403 374 L390 315 L240 315 L217 205 Q209 170 195.5 137 Q182 104 168 84 L418 84 L436 100 L455 189 L526 189 L486 0 L-20 0 L-6 59 Z " />
<glyph glyph-name="currency" unicode="&#xa4;" horiz-adv-x="532" d="M121 533 L202 451 Q216 459 233 464 Q250 469 269 469 Q287 469 304 464 Q321 459 336 451 L418 533 L475 476 L393 395 Q401 379 406 362 Q411 345 411 326 Q411 308 406 291 Q401 274 393 259 L474 178 L417 122 L336 203 Q305 186 269 186 Q232 186 201 203 L120 122 L63 178 L144 260 Q128 290 128 326 Q128 363 145 394 L64 476 L121 533 Z M194 326 Q194 310 200 295.5 Q206 281 216.5 270.5 Q227 260 241 254 Q255 248 270 248 Q300 248 322.5 271 Q345 294 345 326 Q345 359 322.5 382 Q300 405 270 405 Q239 405 216.5 382 Q194 359 194 326 Z " />
<glyph glyph-name="yen" unicode="&#xa5;" horiz-adv-x="674" d="M120 366 L244 366 L156 618 L143 633 L98 633 L112 700 L362 700 L348 633 L299 633 L284 619 L370 370 L550 618 L540 633 L490 633 L505 700 L728 700 L714 633 L669 633 L652 620 L460 366 L571 366 L559 306 L415 306 L407 295 L396 246 L545 246 L533 187 L384 187 L362 82 L374 67 L430 67 L415 0 L149 0 L164 67 L219 67 L238 83 L259 187 L82 187 L95 246 L272 246 L277 271 L265 306 L108 306 L120 366 Z " />
<glyph glyph-name="brokenbar" unicode="&#xa6;" horiz-adv-x="281" d="M112 -102 L112 271 L186 271 L186 -102 L112 -102 Z M112 415 L112 787 L186 787 L186 415 L112 415 Z " />
<glyph glyph-name="section" unicode="&#xa7;" horiz-adv-x="563" d="M511 290 Q511 227 479.5 187 Q448 147 397 125 Q418 105 428.5 79.5 Q439 54 439 21 Q439 -27 417.5 -64 Q396 -101 358.5 -127 Q321 -153 270 -166.5 Q219 -180 161 -180 Q119 -180 84.5 -177 Q50 -174 25 -169 Q-5 -164 -28 -157 L6 2 L74 2 L55 -87 L66 -102 Q84 -105 111.5 -107.5 Q139 -110 168 -110 Q241 -110 285 -82.5 Q329 -55 329 -3 Q329 12 323.5 24.5 Q318 37 304.5 48 Q291 59 268 70 Q245 81 210 92 Q170 105 138 117.5 Q106 130 83.5 146.5 Q61 163 49 185 Q37 207 37 240 Q37 304 68 343.5 Q99 383 150 404 Q108 445 108 509 Q108 557 129.5 594 Q151 631 188.5 657 Q226 683 277 696.5 Q328 710 386 710 Q428 710 462 706.5 Q496 703 522 698 Q552 693 576 687 L541 528 L473 528 L492 617 L481 632 Q463 635 436 637.5 Q409 640 380 640 Q306 640 262.5 612.5 Q219 585 219 533 Q219 518 224.5 505.5 Q230 493 243.5 482 Q257 471 279.5 460.5 Q302 450 337 439 Q377 426 409.5 413 Q442 400 464.5 383.5 Q487 367 499 345 Q511 323 511 290 Z M280 337 Q220 356 182 380 Q160 363 148 341.5 Q136 320 136 290 Q136 272 143 259 Q150 246 166 235.5 Q182 225 206.5 215 Q231 205 267 193 Q327 172 365 150 Q387 167 399 189 Q411 211 411 240 Q411 258 404 271.5 Q397 285 381 295.5 Q365 306 340.5 315.5 Q316 325 280 337 Z " />
<glyph glyph-name="dieresis" unicode="&#xa8;" horiz-adv-x="331" d="M122 655 Q122 680 141 699 Q160 718 191 718 Q212 718 224.5 704 Q237 690 237 672 Q237 647 217.5 628.5 Q198 610 168 610 Q146 610 134 623.5 Q122 637 122 655 Z M274 655 Q274 680 293 699 Q312 718 343 718 Q364 718 376.5 704 Q389 690 389 672 Q389 647 369.5 628.5 Q350 610 320 610 Q298 610 286 623.5 Q274 637 274 655 Z " />
<glyph glyph-name="copyright" unicode="&#xa9;" horiz-adv-x="820" d="M61 349 Q61 423 89 488.5 Q117 554 166 603 Q215 652 280 680.5 Q345 709 420 709 Q494 709 559.5 680.5 Q625 652 674 603 Q723 554 751.5 488.5 Q780 423 780 349 Q780 274 751.5 209 Q723 144 674 95 Q625 46 559.5 18 Q494 -10 420 -10 Q345 -10 280 18 Q215 46 166 95 Q117 144 89 209 Q61 274 61 349 Z M565 147 Q542 136 510.5 127.5 Q479 119 429 119 Q325 119 268 177.5 Q211 236 211 350 Q211 459 271 519 Q331 579 440 579 Q486 579 518.5 571.5 Q551 564 558 560 L558 438 L502 438 L502 499 L492 509 Q470 517 440 517 Q375 516 344.5 475 Q314 434 314 358 Q314 183 444 183 Q458 183 472.5 184.5 Q487 186 498 190 L509 201 L509 266 L565 266 L565 147 Z M109 349 Q109 283 133.5 225.5 Q158 168 200 125.5 Q242 83 298.5 58 Q355 33 420 33 Q484 33 540.5 58 Q597 83 639.5 125.5 Q682 168 706.5 225.5 Q731 283 731 349 Q731 415 706.5 472.5 Q682 530 639.5 573 Q597 616 540.5 641 Q484 666 420 666 Q355 666 298.5 641 Q242 616 200 573 Q158 530 133.5 472.5 Q109 415 109 349 Z " />
<glyph glyph-name="ordfeminine" unicode="&#xaa;" horiz-adv-x="412" d="M320 386 Q301 386 285 391.5 Q269 397 272 420 L274 437 L273 437 Q259 417 235 398.5 Q211 380 180 380 Q137 380 113.5 412 Q90 444 90 495 Q90 537 101 576 Q112 615 132.5 644.5 Q153 674 182 692 Q211 710 247 710 Q273 710 293 698.5 Q313 687 323 672 L335 693 Q339 699 342.5 701.5 Q346 704 355 704 L409 704 L353 438 L361 428 L393 428 L383 386 L320 386 Z M218 445 Q232 445 249.5 456 Q267 467 282 486 L312 626 Q295 648 267 648 Q246 648 229 637 Q212 626 200 607 Q188 588 181 563 Q174 538 174 510 Q174 481 184.5 463 Q195 445 218 445 Z " />
<glyph glyph-name="guillemotleft" unicode="&#xab;" horiz-adv-x="500" d="M32.0154 278.014 L230.003 463.003 L295.999 463.003 L123.01 253.016 L203.005 46.0283 L146.008 46.0283 L23.0159 235.017 L32.0154 278.014 Z M228.015 278.014 L426.003 463.003 L491.999 463.003 L319.01 253.016 L399.005 46.0283 L342.008 46.0283 L219.016 235.017 L228.015 278.014 Z " />
<glyph glyph-name="logicalnot" unicode="&#xac;" horiz-adv-x="573" d="M74 375 L488 375 L488 155 L413 155 L413 300 L74 300 L74 375 Z " />
<glyph glyph-name="uni00AD" unicode="&#xad;" horiz-adv-x="359" d="M68 333 L304 333 L286 250 L50 250 L68 333 Z " />
<glyph glyph-name="registered" unicode="&#xae;" horiz-adv-x="676" d="M77 421 Q77 481 99.5 533.5 Q122 586 161 625 Q200 664 252 687 Q304 710 363 710 Q423 710 475 687 Q527 664 566 625 Q605 586 627.5 533.5 Q650 481 650 421 Q650 361 627.5 308.5 Q605 256 566 217 Q527 178 475 155 Q423 132 363 132 Q304 132 252 155 Q200 178 161 217 Q122 256 99.5 308.5 Q77 361 77 421 Z M119 421 Q119 369 138 323 Q157 277 190.5 243 Q224 209 268.5 189 Q313 169 364 169 Q415 169 459.5 189 Q504 209 537 243.5 Q570 278 589.5 324 Q609 370 609 421 Q609 473 589.5 519 Q570 565 537 599 Q504 633 459.5 653 Q415 673 364 673 Q313 673 268.5 653 Q224 633 190.5 599 Q157 565 138 519 Q119 473 119 421 Z M244 308 L251 315 L251 529 L244 535 L219 535 L219 578 L373 578 Q431 578 464.5 557.5 Q498 537 498 491 Q498 472 491.5 458.5 Q485 445 475 435.5 Q465 426 452.5 420.5 Q440 415 428 413 L428 412 Q443 408 452 397.5 Q461 387 470 366 L491 315 L500 308 L518 308 L518 265 L446 265 Q433 265 427 270.5 Q421 276 419 285 L396 357 Q391 377 384 381.5 Q377 386 366 386 L324 386 L324 315 L331 308 L359 308 L359 265 L219 265 L219 308 L244 308 Z M324 527 L324 439 L372 439 Q399 439 410.5 450 Q422 461 422 484 Q422 504 410.5 515.5 Q399 527 372 527 L324 527 Z " />
<glyph glyph-name="macron" unicode="&#xaf;" horiz-adv-x="388" d="M167 692 L420 692 L405 622 L152 622 L167 692 Z " />
<glyph glyph-name="degree" unicode="&#xb0;" horiz-adv-x="384" d="M94 559 Q94 590 106 617.5 Q118 645 138.5 665.5 Q159 686 186 698 Q213 710 244 710 Q275 710 302.5 698 Q330 686 350.5 665.5 Q371 645 383 617.5 Q395 590 395 559 Q395 528 383 501 Q371 474 350.5 453.5 Q330 433 302.5 421 Q275 409 244 409 Q213 409 186 421 Q159 433 138.5 453.5 Q118 474 106 501 Q94 528 94 559 Z M160 559 Q160 541 167 525 Q174 509 185.5 497.5 Q197 486 212 479 Q227 472 244 472 Q261 472 276.5 479 Q292 486 303.5 497.5 Q315 509 321.5 525 Q328 541 328 559 Q328 577 321.5 593 Q315 609 303.5 621 Q292 633 276.5 640 Q261 647 244 647 Q227 647 212 640 Q197 633 185.5 621 Q174 609 167 593 Q160 577 160 559 Z " />
<glyph glyph-name="plusminus" unicode="&#xb1;" horiz-adv-x="563" d="M69 443 L239 443 L239 594 L314 594 L314 443 L484 443 L484 368 L314 368 L314 217 L239 217 L239 368 L69 368 L69 443 Z M68 162 L483 162 L483 88 L68 88 L68 162 Z " />
<glyph glyph-name="twosuperior" unicode="&#xb2;" horiz-adv-x="290" d="M143 813 Q158 819 176 824 Q191 828 210.5 831.5 Q230 835 253 835 Q307 835 328.5 812.5 Q350 790 350 763 Q350 742 344 725.5 Q338 709 323.5 694 Q309 679 286.5 664 Q264 649 231 631 Q212 620 199.5 613 Q187 606 179.5 600 Q172 594 168 588.5 Q164 583 162 576 L160 561 L261 561 L268 568 L277 605 L325 605 L304 506 L74 506 L87 566 Q91 584 98 597.5 Q105 611 117.5 623 Q130 635 149 647 Q168 659 196 675 Q238 698 255 713.5 Q272 729 272 755 Q272 767 264 776 Q256 785 236 785 Q222 785 211.5 782.5 Q201 780 193 777 L184 769 L177 737 L127 737 L143 813 Z " />
<glyph glyph-name="threesuperior" unicode="&#xb3;" horiz-adv-x="281" d="M92 596 L142 596 L134 563 L141 556 Q145 554 154.5 551.5 Q164 549 178 549 Q211 549 227 568.5 Q243 588 243 615 Q243 634 232 642 Q221 650 204 650 L164 650 L173 696 L212 696 Q236 696 252 709.5 Q268 723 268 753 Q268 767 259 777 Q250 787 227 787 Q215 787 206.5 785 Q198 783 193 781 L184 774 L176 742 L127 742 L143 818 Q158 822 175 826 Q189 829 208 832 Q227 835 247 835 Q299 835 320 812.5 Q341 790 341 762 Q341 692 271 672 L271 669 Q292 662 304 648 Q316 634 316 610 Q316 590 308.5 570.5 Q301 551 285 535.5 Q269 520 243 510.5 Q217 501 181 501 Q158 501 139 503.5 Q120 506 106 510 Q89 514 76 520 L92 596 Z " />
<glyph glyph-name="acute" unicode="&#xb4;" horiz-adv-x="378" d="M351 751 L391 684 L222 579 L204 579 L178 615 L327 751 L351 751 Z " />
<glyph glyph-name="paragraph" unicode="&#xb6;" horiz-adv-x="624" d="M450 700 L265 -170 L202 -170 L291 250 Q185 251 125 299.5 Q65 348 65 445 Q65 511 87.5 559 Q110 607 150.5 638.5 Q191 670 248.5 685 Q306 700 376 700 L450 700 Z M589 617 L422 -170 L359 -170 L544 700 L668 700 L653 633 L608 633 L589 617 Z " />
<glyph glyph-name="periodcentered" unicode="&#xb7;" horiz-adv-x="250" d="M67 364 Q67 394 89.5 418 Q112 442 150 442 Q177 442 193 425 Q209 408 209 385 Q209 354 185.5 331 Q162 308 124 308 Q97 308 82 324.5 Q67 341 67 364 Z " />
<glyph glyph-name="cedilla" unicode="&#xb8;" horiz-adv-x="392" d="M94 -48 L156 13 L218 12 L168 -39 Q206 -40 228.5 -54 Q251 -68 251 -95 Q251 -119 239.5 -135.5 Q228 -152 209.5 -161.5 Q191 -171 168 -175.5 Q145 -180 122 -180 Q91 -180 65.5 -172 Q40 -164 26 -153 L50 -117 Q58 -123 78.5 -130 Q99 -137 120 -137 Q140 -137 154.5 -130.5 Q169 -124 169 -104 Q169 -88 147.5 -78.5 Q126 -69 90 -65 L94 -48 Z " />
<glyph glyph-name="onesuperior" unicode="&#xb9;" horiz-adv-x="221" d="M178 807 Q193 807 205.5 815.5 Q218 824 223 833 L267 833 L207 553 L212 546 L256 546 L248 506 L72 506 L81 546 L123 546 L131 553 L177 762 L171 769 L128 769 L136 807 L178 807 Z " />
<glyph glyph-name="ordmasculine" unicode="&#xba;" horiz-adv-x="373" d="M383 584 Q383 533 368.5 494.5 Q354 456 330.5 430.5 Q307 405 276.5 392.5 Q246 380 214 380 Q161 380 125.5 410.5 Q90 441 90 505 Q90 556 104.5 594.5 Q119 633 143 658.5 Q167 684 197.5 697 Q228 710 260 710 Q312 710 347.5 679 Q383 648 383 584 Z M303 601 Q303 627 293.5 642 Q284 657 258 657 Q235 657 218.5 639.5 Q202 622 191 596.5 Q180 571 175 542 Q170 513 170 490 Q170 464 180 449 Q190 434 216 434 Q238 434 254.5 451 Q271 468 282 493 Q293 518 298 547.5 Q303 577 303 601 Z " />
<glyph glyph-name="guillemotright" unicode="&#xbb;" horiz-adv-x="500" d="M252 231 L54 46 L-12 46 L161 256 L81 463 L138 463 L261 274 L252 231 Z M448 231 L250 46 L184 46 L357 256 L277 463 L334 463 L457 274 L448 231 Z " />
<glyph glyph-name="onequarter" unicode="&#xbc;" horiz-adv-x="612" d="M288 128 L477 327 L548 327 L506 132 L546 132 L536 89 L496 89 L487 47 L493 40 L526 40 L518 0 L359 0 L367 40 L405 40 L414 47 L422 89 L279 89 L288 128 Z M433 132 L457 247 L347 132 L433 132 Z M163 677 Q178 677 190.5 685.5 Q203 694 208 703 L252 703 L192 423 L197 416 L241 416 L233 376 L57 376 L66 416 L108 416 L116 423 L162 632 L156 639 L113 639 L121 677 L163 677 Z M532 700 L594 700 L88 0 L26 0 L532 700 Z " />
<glyph glyph-name="onehalf" unicode="&#xbd;" horiz-adv-x="631" d="M373 307 Q388 313 406 318 Q421 322 440.5 325.5 Q460 329 483 329 Q537 329 558.5 306.5 Q580 284 580 257 Q580 236 574 219.5 Q568 203 553.5 188 Q539 173 516.5 158 Q494 143 461 125 Q442 114 429.5 107 Q417 100 409.5 94 Q402 88 398 82.5 Q394 77 392 70 L390 55 L491 55 L498 62 L507 99 L555 99 L534 0 L304 0 L317 60 Q321 78 328 91.5 Q335 105 347.5 117 Q360 129 379 141 Q398 153 426 169 Q468 192 485 207.5 Q502 223 502 249 Q502 261 494 270 Q486 279 466 279 Q452 279 441.5 276.5 Q431 274 423 271 L414 263 L407 231 L357 231 L373 307 Z M163 677 Q178 677 190.5 685.5 Q203 694 208 703 L252 703 L192 423 L197 416 L241 416 L233 376 L57 376 L66 416 L108 416 L116 423 L162 632 L156 639 L113 639 L121 677 L163 677 Z M532 700 L594 700 L88 0 L26 0 L532 700 Z " />
<glyph glyph-name="threequarters" unicode="&#xbe;" horiz-adv-x="645" d="M321 128 L510 327 L581 327 L539 132 L579 132 L569 89 L529 89 L520 47 L526 40 L559 40 L551 0 L392 0 L400 40 L438 40 L447 47 L455 89 L312 89 L321 128 Z M466 132 L490 247 L380 132 L466 132 Z M564 700 L626 700 L120 0 L58 0 L564 700 Z M75 466 L125 466 L117 433 L124 426 Q128 424 137.5 421.5 Q147 419 161 419 Q194 419 210 438.5 Q226 458 226 485 Q226 504 215 512 Q204 520 187 520 L147 520 L156 566 L195 566 Q219 566 235 579.5 Q251 593 251 623 Q251 637 242 647 Q233 657 210 657 Q198 657 189.5 655 Q181 653 176 651 L167 644 L159 612 L110 612 L126 688 Q141 692 158 696 Q172 699 191 702 Q210 705 230 705 Q282 705 303 682.5 Q324 660 324 632 Q324 562 254 542 L254 539 Q275 532 287 518 Q299 504 299 480 Q299 460 291.5 440.5 Q284 421 268 405.5 Q252 390 226 380.5 Q200 371 164 371 Q141 371 122 373.5 Q103 376 89 380 Q72 384 59 390 L75 466 Z " />
<glyph glyph-name="questiondown" unicode="&#xbf;" horiz-adv-x="497" d="M376.007 -126.96 Q349.008 -141.959 316.01 -152.958 Q287.012 -162.958 249.014 -171.457 Q211.017 -179.957 166.019 -179.957 Q112.023 -179.957 73.5251 -167.957 Q35.0275 -155.958 10.529 -135.959 Q-13.9695 -115.961 -25.9688 -89.9622 Q-37.9681 -63.9637 -37.9681 -35.9655 Q-37.9681 0.0323486 -29.4686 29.0306 Q-20.9691 58.0288 -1.47031 82.5273 Q18.0285 107.026 50.0266 128.525 Q82.0246 150.023 129.022 170.022 Q155.02 181.021 172.019 190.021 Q189.018 199.02 200.017 207.02 Q211.017 215.019 217.016 224.019 Q223.016 233.018 225.016 245.017 L229.016 266.016 L264.013 324.013 L322.01 324.013 L335.009 266.016 L330.009 238.018 Q325.01 211.019 314.01 192.521 Q303.011 174.022 285.512 160.023 Q268.013 146.023 245.015 135.024 L194.018 109.026 Q136.021 81.0274 114.023 51.0292 Q92.024 21.0311 92.024 -21.9663 Q92.024 -54.9643 117.522 -77.4629 Q143.021 -99.9615 205.017 -99.9615 Q242.015 -99.9615 265.513 -92.462 Q289.012 -84.9625 295.012 -82.9626 L315.01 -66.9636 L333.009 15.0314 L406.005 15.0314 L376.007 -126.96 Z M397.005 481.003 Q397.005 449.005 373.007 424.506 Q349.008 400.008 310.011 400.008 Q284.012 400.008 267.013 418.007 Q250.014 436.006 250.014 459.004 Q250.014 491.002 274.513 515.501 Q299.011 539.999 338.009 539.999 Q363.007 539.999 380.006 522.5 Q397.005 505.002 397.005 481.003 Z " />
<glyph glyph-name="Agrave" unicode="&#xc0;" horiz-adv-x="657" d="M414 193 L174 193 L115 81 L126 67 L178 67 L164 0 L-70 0 L-56 67 L-5 67 L14 83 L355 702 L469 702 L553 81 L566 67 L617 67 L602 0 L350 0 L364 67 L411 67 L427 81 L414 193 Z M215 269 L405 269 L371 563 L215 269 Z M397 752 L272 856 L342 924 L361 924 L452 788 L412 752 L397 752 Z " />
<glyph glyph-name="Aacute" unicode="&#xc1;" horiz-adv-x="657" d="M414 193 L174 193 L115 81 L126 67 L178 67 L164 0 L-70 0 L-56 67 L-5 67 L14 83 L355 702 L469 702 L553 81 L566 67 L617 67 L602 0 L350 0 L364 67 L411 67 L427 81 L414 193 Z M215 269 L405 269 L371 563 L215 269 Z M412 752 L387 788 L535 924 L559 924 L599 856 L431 752 L412 752 Z " />
<glyph glyph-name="Acircumflex" unicode="&#xc2;" horiz-adv-x="657" d="M414 193 L174 193 L115 81 L126 67 L178 67 L164 0 L-70 0 L-56 67 L-5 67 L14 83 L355 702 L469 702 L553 81 L566 67 L617 67 L602 0 L350 0 L364 67 L411 67 L427 81 L414 193 Z M215 269 L405 269 L371 563 L215 269 Z M284 751 L268 778 L425 926 L465 926 L560 778 L532 751 L518 751 L430 839 L307 751 L284 751 Z " />
<glyph glyph-name="Atilde" unicode="&#xc3;" horiz-adv-x="657" d="M414 193 L174 193 L115 81 L126 67 L178 67 L164 0 L-70 0 L-56 67 L-5 67 L14 83 L355 702 L469 702 L553 81 L566 67 L617 67 L602 0 L350 0 L364 67 L411 67 L427 81 L414 193 Z M215 269 L405 269 L371 563 L215 269 Z M596 897 L587 856 Q577 811 555 789.5 Q533 768 491 768 Q472 768 454 775 Q436 782 418 790 Q400 798 383 805 Q366 812 349 812 Q332 812 323.5 805 Q315 798 314 793 L305 757 L254 757 L262 796 Q273 847 295 869 Q317 891 356 891 Q375 891 393 883.5 Q411 876 429 866.5 Q447 857 465.5 849.5 Q484 842 504 842 Q524 842 531.5 851 Q539 860 540 865 L547 897 L596 897 Z " />
<glyph glyph-name="Adieresis" unicode="&#xc4;" horiz-adv-x="657" d="M414 193 L174 193 L115 81 L126 67 L178 67 L164 0 L-70 0 L-56 67 L-5 67 L14 83 L355 702 L469 702 L553 81 L566 67 L617 67 L602 0 L350 0 L364 67 L411 67 L427 81 L414 193 Z M215 269 L405 269 L371 563 L215 269 Z M296 828 Q296 852 315 871 Q334 890 364 890 Q385 890 398 876.5 Q411 863 411 845 Q411 819 391.5 801 Q372 783 342 783 Q320 783 308 796 Q296 809 296 828 Z M448 828 Q448 852 466.5 871 Q485 890 516 890 Q537 890 550 876.5 Q563 863 563 845 Q563 819 543.5 801 Q524 783 494 783 Q472 783 460 796 Q448 809 448 828 Z " />
<glyph glyph-name="Aring" unicode="&#xc5;" horiz-adv-x="657" d="M414 193 L174 193 L115 81 L126 67 L178 67 L164 0 L-70 0 L-56 67 L-5 67 L14 83 L355 702 L469 702 L553 81 L566 67 L617 67 L602 0 L350 0 L364 67 L411 67 L427 81 L414 193 Z M215 269 L405 269 L371 563 L215 269 Z M444 914 Q491 914 519 894.5 Q547 875 547 838 Q547 813 536 795 Q525 777 507 765.5 Q489 754 465 748.5 Q441 743 415 743 Q370 743 341 761 Q312 779 312 814 Q312 840 322.5 859 Q333 878 351 890 Q369 902 393 908 Q417 914 444 914 Z M376 818 Q376 780 420 780 Q451 780 467 796 Q483 812 483 838 Q483 877 438 877 Q409 877 392.5 861 Q376 845 376 818 Z " />
<glyph glyph-name="AE" unicode="&#xc6;" horiz-adv-x="964" d="M-6 67 L12 82 L484 700 L998 700 L960 523 L889 523 L906 607 L894 622 L656 622 L610 395 L756 395 L774 410 L785 464 L851 464 L806 252 L740 252 L751 306 L739 320 L592 320 L542 78 L789 78 L808 93 L827 178 L897 178 L859 0 L330 0 L345 67 L400 67 L419 83 L442 195 L206 195 L117 76 L124 67 L176 67 L162 0 L-71 0 L-57 67 L-6 67 Z M522 620 L261 270 L459 270 L533 620 L522 620 Z " />
<glyph glyph-name="Ccedilla" unicode="&#xc7;" horiz-adv-x="582" d="M485 24 Q454 11 410.5 0.5 Q367 -10 305 -10 Q181 -10 113.5 58 Q46 126 46 246 Q46 354 75 440 Q104 526 157 586 Q210 646 284.5 678 Q359 710 451 710 Q484 710 512.5 706.5 Q541 703 562.5 698.5 Q584 694 597.5 689 Q611 684 614 682 L579 516 L503 516 L521 603 L510 618 Q496 623 480.5 625.5 Q465 628 446 628 Q387 628 338 605.5 Q289 583 253 537.5 Q217 492 197 422 Q177 352 177 257 Q177 173 214 124 Q251 75 333 75 Q354 75 371 77 Q388 79 405 84 L424 99 L444 192 L520 192 L485 24 Z M193 -48 L255 13 L317 12 L267 -39 Q305 -40 327.5 -54 Q350 -68 350 -95 Q350 -119 338.5 -135.5 Q327 -152 308.5 -161.5 Q290 -171 267 -175.5 Q244 -180 221 -180 Q190 -180 164.5 -172 Q139 -164 125 -153 L149 -117 Q157 -123 177.5 -130 Q198 -137 219 -137 Q239 -137 253.5 -130.5 Q268 -124 268 -104 Q268 -88 246.5 -78.5 Q225 -69 189 -65 L193 -48 Z " />
<glyph glyph-name="Egrave" unicode="&#xc8;" horiz-adv-x="613" d="M405 752 L280 856 L350 924 L369 924 L460 788 L420 752 L405 752 Z M307 622 L260 395 L403 395 L421 410 L432 464 L499 464 L454 252 L387 252 L398 306 L386 320 L243 320 L192 78 L436 78 L455 93 L473 178 L546 178 L508 0 L-21 0 L-6 67 L49 67 L68 83 L181 617 L168 633 L113 633 L128 700 L647 700 L609 523 L536 523 L553 607 L541 622 L307 622 Z " />
<glyph glyph-name="Eacute" unicode="&#xc9;" horiz-adv-x="613" d="M307 622 L260 395 L403 395 L421 410 L432 464 L499 464 L454 252 L387 252 L398 306 L386 320 L243 320 L192 78 L436 78 L455 93 L473 178 L546 178 L508 0 L-21 0 L-6 67 L49 67 L68 83 L181 617 L168 633 L113 633 L128 700 L647 700 L609 523 L536 523 L553 607 L541 622 L307 622 Z M420 752 L395 788 L543 924 L567 924 L607 856 L439 752 L420 752 Z " />
<glyph glyph-name="Ecircumflex" unicode="&#xca;" horiz-adv-x="613" d="M292 751 L276 778 L433 926 L473 926 L568 778 L540 751 L526 751 L438 839 L315 751 L292 751 Z M307 622 L260 395 L403 395 L421 410 L432 464 L499 464 L454 252 L387 252 L398 306 L386 320 L243 320 L192 78 L436 78 L455 93 L473 178 L546 178 L508 0 L-21 0 L-6 67 L49 67 L68 83 L181 617 L168 633 L113 633 L128 700 L647 700 L609 523 L536 523 L553 607 L541 622 L307 622 Z " />
<glyph glyph-name="Edieresis" unicode="&#xcb;" horiz-adv-x="613" d="M307 622 L260 395 L403 395 L421 410 L432 464 L499 464 L454 252 L387 252 L398 306 L386 320 L243 320 L192 78 L436 78 L455 93 L473 178 L546 178 L508 0 L-21 0 L-6 67 L49 67 L68 83 L181 617 L168 633 L113 633 L128 700 L647 700 L609 523 L536 523 L553 607 L541 622 L307 622 Z M304 828 Q304 852 323 871 Q342 890 372 890 Q393 890 406 876.5 Q419 863 419 845 Q419 819 399.5 801 Q380 783 350 783 Q328 783 316 796 Q304 809 304 828 Z M456 828 Q456 852 474.5 871 Q493 890 524 890 Q545 890 558 876.5 Q571 863 571 845 Q571 819 551.5 801 Q532 783 502 783 Q480 783 468 796 Q456 809 456 828 Z " />
<glyph glyph-name="Igrave" unicode="&#xcc;" horiz-adv-x="351" d="M181 617 L168 633 L113 633 L128 700 L394 700 L379 633 L323 633 L305 617 L192 83 L204 67 L260 67 L245 0 L-21 0 L-6 67 L49 67 L68 83 L181 617 Z M260 752 L135 856 L205 924 L224 924 L315 788 L275 752 L260 752 Z " />
<glyph glyph-name="Iacute" unicode="&#xcd;" horiz-adv-x="351" d="M181 617 L168 633 L113 633 L128 700 L394 700 L379 633 L323 633 L305 617 L192 83 L204 67 L260 67 L245 0 L-21 0 L-6 67 L49 67 L68 83 L181 617 Z M275 752 L250 788 L398 924 L422 924 L462 856 L294 752 L275 752 Z " />
<glyph glyph-name="Icircumflex" unicode="&#xce;" horiz-adv-x="351" d="M181 617 L168 633 L113 633 L128 700 L394 700 L379 633 L323 633 L305 617 L192 83 L204 67 L260 67 L245 0 L-21 0 L-6 67 L49 67 L68 83 L181 617 Z M147 751 L131 778 L288 926 L328 926 L423 778 L395 751 L381 751 L293 839 L170 751 L147 751 Z " />
<glyph glyph-name="Idieresis" unicode="&#xcf;" horiz-adv-x="351" d="M181 617 L168 633 L113 633 L128 700 L394 700 L379 633 L323 633 L305 617 L192 83 L204 67 L260 67 L245 0 L-21 0 L-6 67 L49 67 L68 83 L181 617 Z M159 828 Q159 852 178 871 Q197 890 227 890 Q248 890 261 876.5 Q274 863 274 845 Q274 819 254.5 801 Q235 783 205 783 Q183 783 171 796 Q159 809 159 828 Z M311 828 Q311 852 329.5 871 Q348 890 379 890 Q400 890 413 876.5 Q426 863 426 845 Q426 819 406.5 801 Q387 783 357 783 Q335 783 323 796 Q311 809 311 828 Z " />
<glyph glyph-name="Eth" unicode="&#xd0;" horiz-adv-x="701" d="M56 387 L133 387 L182 617 L169 633 L114 633 L129 700 L408 700 Q469 700 518 684 Q567 668 601.5 636 Q636 604 655 556.5 Q674 509 674 446 Q674 339 646 256 Q618 173 566.5 116 Q515 59 442 29.5 Q369 0 279 0 L-20 0 L-5 67 L50 67 L69 83 L120 328 L41 328 L56 387 Z M258 387 L410 387 L395 328 L245 328 L192 81 L298 81 Q348 81 392.5 104.5 Q437 128 470.5 174 Q504 220 523.5 288.5 Q543 357 543 447 Q543 534 506.5 576.5 Q470 619 391 619 L308 619 L258 387 Z " />
<glyph glyph-name="Ntilde" unicode="&#xd1;" horiz-adv-x="713" d="M623 897 L614 856 Q604 811 582 789.5 Q560 768 518 768 Q499 768 481 775 Q463 782 445 790 Q427 798 410 805 Q393 812 376 812 Q359 812 350.5 805 Q342 798 341 793 L332 757 L281 757 L289 796 Q300 847 322 869 Q344 891 383 891 Q402 891 420 883.5 Q438 876 456 866.5 Q474 857 492.5 849.5 Q511 842 531 842 Q551 842 558.5 851 Q566 860 567 865 L574 897 L623 897 Z M474 -3 L250 511 L159 83 L172 67 L227 67 L213 0 L-22 0 L-7 67 L47 67 L66 83 L180 617 L167 633 L112 633 L127 700 L292 700 L498 221 L582 617 L570 633 L515 633 L530 700 L764 700 L749 633 L694 633 L675 617 L544 -3 L474 -3 Z " />
<glyph glyph-name="Ograve" unicode="&#xd2;" horiz-adv-x="676" d="M423 752 L298 856 L368 924 L387 924 L478 788 L438 752 L423 752 Z M405 710 Q468 710 514.5 690 Q561 670 591.5 635.5 Q622 601 637 554 Q652 507 652 453 Q652 376 630.5 294.5 Q609 213 565 145 Q521 77 453.5 33.5 Q386 -10 294 -10 Q231 -10 184 9.5 Q137 29 106 63.5 Q75 98 60 144.5 Q45 191 45 245 Q45 322 66 404.5 Q87 487 131 555 Q175 623 243 666.5 Q311 710 405 710 Z M399 626 Q359 626 326.5 606 Q294 586 269 553 Q244 520 226.5 478 Q209 436 197.5 391 Q186 346 180.5 302 Q175 258 175 222 Q175 151 203 112.5 Q231 74 297 74 Q337 74 369 93.5 Q401 113 426 145.5 Q451 178 469 220 Q487 262 498.5 306.5 Q510 351 515.5 394.5 Q521 438 521 474 Q521 548 493.5 587 Q466 626 399 626 Z " />
<glyph glyph-name="Oacute" unicode="&#xd3;" horiz-adv-x="676" d="M438 752 L413 788 L561 924 L585 924 L625 856 L457 752 L438 752 Z M405 710 Q468 710 514.5 690 Q561 670 591.5 635.5 Q622 601 637 554 Q652 507 652 453 Q652 376 630.5 294.5 Q609 213 565 145 Q521 77 453.5 33.5 Q386 -10 294 -10 Q231 -10 184 9.5 Q137 29 106 63.5 Q75 98 60 144.5 Q45 191 45 245 Q45 322 66 404.5 Q87 487 131 555 Q175 623 243 666.5 Q311 710 405 710 Z M399 626 Q359 626 326.5 606 Q294 586 269 553 Q244 520 226.5 478 Q209 436 197.5 391 Q186 346 180.5 302 Q175 258 175 222 Q175 151 203 112.5 Q231 74 297 74 Q337 74 369 93.5 Q401 113 426 145.5 Q451 178 469 220 Q487 262 498.5 306.5 Q510 351 515.5 394.5 Q521 438 521 474 Q521 548 493.5 587 Q466 626 399 626 Z " />
<glyph glyph-name="Ocircumflex" unicode="&#xd4;" horiz-adv-x="676" d="M310 751 L294 778 L451 926 L491 926 L586 778 L558 751 L544 751 L456 839 L333 751 L310 751 Z M405 710 Q468 710 514.5 690 Q561 670 591.5 635.5 Q622 601 637 554 Q652 507 652 453 Q652 376 630.5 294.5 Q609 213 565 145 Q521 77 453.5 33.5 Q386 -10 294 -10 Q231 -10 184 9.5 Q137 29 106 63.5 Q75 98 60 144.5 Q45 191 45 245 Q45 322 66 404.5 Q87 487 131 555 Q175 623 243 666.5 Q311 710 405 710 Z M399 626 Q359 626 326.5 606 Q294 586 269 553 Q244 520 226.5 478 Q209 436 197.5 391 Q186 346 180.5 302 Q175 258 175 222 Q175 151 203 112.5 Q231 74 297 74 Q337 74 369 93.5 Q401 113 426 145.5 Q451 178 469 220 Q487 262 498.5 306.5 Q510 351 515.5 394.5 Q521 438 521 474 Q521 548 493.5 587 Q466 626 399 626 Z " />
<glyph glyph-name="Otilde" unicode="&#xd5;" horiz-adv-x="676" d="M405 710 Q468 710 514.5 690 Q561 670 591.5 635.5 Q622 601 637 554 Q652 507 652 453 Q652 376 630.5 294.5 Q609 213 565 145 Q521 77 453.5 33.5 Q386 -10 294 -10 Q231 -10 184 9.5 Q137 29 106 63.5 Q75 98 60 144.5 Q45 191 45 245 Q45 322 66 404.5 Q87 487 131 555 Q175 623 243 666.5 Q311 710 405 710 Z M399 626 Q359 626 326.5 606 Q294 586 269 553 Q244 520 226.5 478 Q209 436 197.5 391 Q186 346 180.5 302 Q175 258 175 222 Q175 151 203 112.5 Q231 74 297 74 Q337 74 369 93.5 Q401 113 426 145.5 Q451 178 469 220 Q487 262 498.5 306.5 Q510 351 515.5 394.5 Q521 438 521 474 Q521 548 493.5 587 Q466 626 399 626 Z M622 897 L613 856 Q603 811 581 789.5 Q559 768 517 768 Q498 768 480 775 Q462 782 444 790 Q426 798 409 805 Q392 812 375 812 Q358 812 349.5 805 Q341 798 340 793 L331 757 L280 757 L288 796 Q299 847 321 869 Q343 891 382 891 Q401 891 419 883.5 Q437 876 455 866.5 Q473 857 491.5 849.5 Q510 842 530 842 Q550 842 557.5 851 Q565 860 566 865 L573 897 L622 897 Z " />
<glyph glyph-name="Odieresis" unicode="&#xd6;" horiz-adv-x="676" d="M405 710 Q468 710 514.5 690 Q561 670 591.5 635.5 Q622 601 637 554 Q652 507 652 453 Q652 376 630.5 294.5 Q609 213 565 145 Q521 77 453.5 33.5 Q386 -10 294 -10 Q231 -10 184 9.5 Q137 29 106 63.5 Q75 98 60 144.5 Q45 191 45 245 Q45 322 66 404.5 Q87 487 131 555 Q175 623 243 666.5 Q311 710 405 710 Z M399 626 Q359 626 326.5 606 Q294 586 269 553 Q244 520 226.5 478 Q209 436 197.5 391 Q186 346 180.5 302 Q175 258 175 222 Q175 151 203 112.5 Q231 74 297 74 Q337 74 369 93.5 Q401 113 426 145.5 Q451 178 469 220 Q487 262 498.5 306.5 Q510 351 515.5 394.5 Q521 438 521 474 Q521 548 493.5 587 Q466 626 399 626 Z M322 828 Q322 852 341 871 Q360 890 390 890 Q411 890 424 876.5 Q437 863 437 845 Q437 819 417.5 801 Q398 783 368 783 Q346 783 334 796 Q322 809 322 828 Z M474 828 Q474 852 492.5 871 Q511 890 542 890 Q563 890 576 876.5 Q589 863 589 845 Q589 819 569.5 801 Q550 783 520 783 Q498 783 486 796 Q474 809 474 828 Z " />
<glyph glyph-name="multiply" unicode="&#xd7;" horiz-adv-x="500" d="M65 200 L197 331 L65 463 L122 519 L254 388 L385 519 L442 463 L310 331 L443 200 L386 142 L254 275 L121 142 L65 200 Z " />
<glyph glyph-name="Oslash" unicode="&#xd8;" horiz-adv-x="678" d="M406 710 Q467 710 512 691.5 Q557 673 588 640 L652 710 L718 710 L617 600 Q653 538 653 453 Q653 376 631.5 294.5 Q610 213 566 145 Q522 77 454.5 33.5 Q387 -10 295 -10 Q236 -10 192 6.5 Q148 23 117 53 L60 -10 L-7 -10 L86 91 Q66 123 56 162 Q46 201 46 245 Q46 322 67 404.5 Q88 487 132 555 Q176 623 244 666.5 Q312 710 406 710 Z M400 626 Q360 626 327.5 606 Q295 586 270 553 Q245 520 227.5 478 Q210 436 198.5 391 Q187 346 181.5 302 Q176 258 176 222 L176 206 Q176 199 177 191 L511 556 Q499 591 472 608.5 Q445 626 400 626 Z M298 74 Q338 74 370 93.5 Q402 113 427 145.5 Q452 178 470 220 Q488 262 499.5 306.5 Q511 351 516.5 394.5 Q522 438 522 474 L522 484 Q522 490 521 495 L191 134 Q205 105 230.5 89.5 Q256 74 298 74 Z " />
<glyph glyph-name="Ugrave" unicode="&#xd9;" horiz-adv-x="680" d="M432 752 L307 856 L377 924 L396 924 L487 788 L447 752 L432 752 Z M549 617 L537 633 L482 633 L496 700 L736 700 L722 633 L666 633 L647 617 L566 232 Q539 103 470 46.5 Q401 -10 300 -10 Q195 -10 137 32 Q79 74 79 163 Q79 197 86 232 L167 617 L155 633 L100 633 L115 700 L382 700 L367 633 L311 633 L292 617 L211 231 Q204 199 204 169 Q204 124 230 98.5 Q256 73 314 73 Q380 73 415.5 112 Q451 151 468 231 L549 617 Z " />
<glyph glyph-name="Uacute" unicode="&#xda;" horiz-adv-x="680" d="M549 617 L537 633 L482 633 L496 700 L736 700 L722 633 L666 633 L647 617 L566 232 Q539 103 470 46.5 Q401 -10 300 -10 Q195 -10 137 32 Q79 74 79 163 Q79 197 86 232 L167 617 L155 633 L100 633 L115 700 L382 700 L367 633 L311 633 L292 617 L211 231 Q204 199 204 169 Q204 124 230 98.5 Q256 73 314 73 Q380 73 415.5 112 Q451 151 468 231 L549 617 Z M447 752 L422 788 L570 924 L594 924 L634 856 L466 752 L447 752 Z " />
<glyph glyph-name="Ucircumflex" unicode="&#xdb;" horiz-adv-x="680" d="M319 751 L303 778 L460 926 L500 926 L595 778 L567 751 L553 751 L465 839 L342 751 L319 751 Z M549 617 L537 633 L482 633 L496 700 L736 700 L722 633 L666 633 L647 617 L566 232 Q539 103 470 46.5 Q401 -10 300 -10 Q195 -10 137 32 Q79 74 79 163 Q79 197 86 232 L167 617 L155 633 L100 633 L115 700 L382 700 L367 633 L311 633 L292 617 L211 231 Q204 199 204 169 Q204 124 230 98.5 Q256 73 314 73 Q380 73 415.5 112 Q451 151 468 231 L549 617 Z " />
<glyph glyph-name="Udieresis" unicode="&#xdc;" horiz-adv-x="680" d="M549 617 L537 633 L482 633 L496 700 L736 700 L722 633 L666 633 L647 617 L566 232 Q539 103 470 46.5 Q401 -10 300 -10 Q195 -10 137 32 Q79 74 79 163 Q79 197 86 232 L167 617 L155 633 L100 633 L115 700 L382 700 L367 633 L311 633 L292 617 L211 231 Q204 199 204 169 Q204 124 230 98.5 Q256 73 314 73 Q380 73 415.5 112 Q451 151 468 231 L549 617 Z M331 828 Q331 852 350 871 Q369 890 399 890 Q420 890 433 876.5 Q446 863 446 845 Q446 819 426.5 801 Q407 783 377 783 Q355 783 343 796 Q331 809 331 828 Z M483 828 Q483 852 501.5 871 Q520 890 551 890 Q572 890 585 876.5 Q598 863 598 845 Q598 819 578.5 801 Q559 783 529 783 Q507 783 495 796 Q483 809 483 828 Z " />
<glyph glyph-name="Yacute" unicode="&#xdd;" horiz-adv-x="613" d="M115 0 L130 67 L185 67 L204 83 L243 271 L122 618 L109 633 L64 633 L79 700 L329 700 L314 633 L265 633 L250 619 L336 370 L516 618 L506 633 L457 633 L471 700 L695 700 L680 633 L635 633 L619 620 L374 295 L329 82 L340 67 L396 67 L382 0 L115 0 Z M421 752 L396 788 L544 924 L568 924 L608 856 L440 752 L421 752 Z " />
<glyph glyph-name="Ygrave" unicode="&#x1ef2;" horiz-adv-x="613" d="M115 0 L130 67 L185 67 L204 83 L243 271 L122 618 L109 633 L64 633 L79 700 L329 700 L314 633 L265 633 L250 619 L336 370 L516 618 L506 633 L457 633 L471 700 L695 700 L680 633 L635 633 L619 620 L374 295 L329 82 L340 67 L396 67 L382 0 L115 0 Z M394 752 L269 856 L339 924 L358 924 L449 788 L409 752 L394 752 Z " />
<glyph glyph-name="Thorn" unicode="&#xde;" horiz-adv-x="635" d="M245 0 L-21 0 L-6 67 L49 67 L68 83 L181 617 L168 633 L113 633 L128 700 L394 700 L379 633 L323 633 L305 617 L294 563 L392 563 Q499 563 559.5 520.5 Q620 478 620 388 Q620 327 598 281.5 Q576 236 536 206 Q496 176 438.5 161 Q381 146 311 146 L206 146 L192 83 L204 67 L259 67 L245 0 Z M277 484 L222 226 L327 226 Q403 226 447 265 Q491 304 491 386 Q491 434 463.5 459 Q436 484 374 484 L277 484 Z " />
<glyph glyph-name="germandbls" unicode="&#xdf;" horiz-adv-x="596" d="M336 132 L323 69 L333 54 Q341 52 354 52 Q433 52 433 129 Q433 156 414.5 182 Q396 208 369 237 Q339 271 323 298 Q307 325 307 354 Q307 383 318 402.5 Q329 422 346 437.5 Q363 453 382 466.5 Q401 480 418 498.5 Q435 517 446 543 Q457 569 457 609 Q457 650 435 668.5 Q413 687 381 687 Q360 687 341 681.5 Q322 676 306 662 Q290 648 277.5 623.5 Q265 599 257 561 L142 0 Q134 -38 119 -71 Q104 -104 79 -128 Q54 -152 19 -166 Q-16 -180 -62 -180 Q-107 -180 -130 -175.5 Q-153 -171 -157 -169 L-135 -65 L-66 -65 L-76 -110 L-66 -123 Q-63 -124 -59 -124 L-54 -124 Q-22 -124 -3 -90 Q16 -56 26 -7 L122 461 L49 461 L63 526 L119 526 L138 542 L140 552 Q148 590 168 624.5 Q188 659 219.5 684.5 Q251 710 293 725 Q335 740 386 740 Q416 740 446.5 733 Q477 726 501.5 711 Q526 696 541 671.5 Q556 647 556 612 Q556 579 545.5 555 Q535 531 518.5 512.5 Q502 494 483.5 480.5 Q465 467 448.5 454 Q432 441 421.5 427.5 Q411 414 411 397 Q411 377 424.5 359.5 Q438 342 461 313 Q476 292 491 272.5 Q506 253 517.5 233 Q529 213 536 192 Q543 171 543 147 Q543 112 530 83 Q517 54 493 33.5 Q469 13 436.5 1.5 Q404 -10 365 -10 Q336 -10 314 -7 Q292 -4 278 1 Q260 6 249 13 L274 132 L336 132 Z " />
<glyph glyph-name="agrave" unicode="&#xe0;" horiz-adv-x="576" d="M22 178 Q22 252 42.5 317.5 Q63 383 99.5 432 Q136 481 185.5 509.5 Q235 538 293 538 Q336 538 366 523.5 Q396 509 415 487 L428 512 Q433 521 439 524.5 Q445 528 459 528 L536 528 L440 80 L453 63 L509 63 L495 0 L401 0 Q384 0 369 1.5 Q354 3 343 8.5 Q332 14 326.5 25 Q321 36 324 56 L328 80 L325 80 Q297 42 258 16 Q219 -10 173 -10 Q102 -10 62 40 Q22 90 22 178 Z M220 80 Q244 80 277 98.5 Q310 117 339 152 L394 417 Q380 432 360.5 443 Q341 454 312 454 Q274 454 242.5 431 Q211 408 188.5 370.5 Q166 333 154 284.5 Q142 236 142 185 Q142 131 161 105.5 Q180 80 220 80 Z M184 684 L253 751 L273 751 L364 615 L324 579 L309 579 L184 684 Z " />
<glyph glyph-name="aacute" unicode="&#xe1;" horiz-adv-x="576" d="M22 178 Q22 252 42.5 317.5 Q63 383 99.5 432 Q136 481 185.5 509.5 Q235 538 293 538 Q336 538 366 523.5 Q396 509 415 487 L428 512 Q433 521 439 524.5 Q445 528 459 528 L536 528 L440 80 L453 63 L509 63 L495 0 L401 0 Q384 0 369 1.5 Q354 3 343 8.5 Q332 14 326.5 25 Q321 36 324 56 L328 80 L325 80 Q297 42 258 16 Q219 -10 173 -10 Q102 -10 62 40 Q22 90 22 178 Z M220 80 Q244 80 277 98.5 Q310 117 339 152 L394 417 Q380 432 360.5 443 Q341 454 312 454 Q274 454 242.5 431 Q211 408 188.5 370.5 Q166 333 154 284.5 Q142 236 142 185 Q142 131 161 105.5 Q180 80 220 80 Z M465 751 L505 684 L336 579 L318 579 L292 615 L441 751 L465 751 Z " />
<glyph glyph-name="acircumflex" unicode="&#xe2;" horiz-adv-x="576" d="M22 178 Q22 252 42.5 317.5 Q63 383 99.5 432 Q136 481 185.5 509.5 Q235 538 293 538 Q336 538 366 523.5 Q396 509 415 487 L428 512 Q433 521 439 524.5 Q445 528 459 528 L536 528 L440 80 L453 63 L509 63 L495 0 L401 0 Q384 0 369 1.5 Q354 3 343 8.5 Q332 14 326.5 25 Q321 36 324 56 L328 80 L325 80 Q297 42 258 16 Q219 -10 173 -10 Q102 -10 62 40 Q22 90 22 178 Z M220 80 Q244 80 277 98.5 Q310 117 339 152 L394 417 Q380 432 360.5 443 Q341 454 312 454 Q274 454 242.5 431 Q211 408 188.5 370.5 Q166 333 154 284.5 Q142 236 142 185 Q142 131 161 105.5 Q180 80 220 80 Z M200 576 L184 603 L341 751 L381 751 L475 603 L448 576 L434 576 L346 665 L222 576 L200 576 Z " />
<glyph glyph-name="atilde" unicode="&#xe3;" horiz-adv-x="576" d="M22 178 Q22 252 42.5 317.5 Q63 383 99.5 432 Q136 481 185.5 509.5 Q235 538 293 538 Q336 538 366 523.5 Q396 509 415 487 L428 512 Q433 521 439 524.5 Q445 528 459 528 L536 528 L440 80 L453 63 L509 63 L495 0 L401 0 Q384 0 369 1.5 Q354 3 343 8.5 Q332 14 326.5 25 Q321 36 324 56 L328 80 L325 80 Q297 42 258 16 Q219 -10 173 -10 Q102 -10 62 40 Q22 90 22 178 Z M220 80 Q244 80 277 98.5 Q310 117 339 152 L394 417 Q380 432 360.5 443 Q341 454 312 454 Q274 454 242.5 431 Q211 408 188.5 370.5 Q166 333 154 284.5 Q142 236 142 185 Q142 131 161 105.5 Q180 80 220 80 Z M424 668 Q443 668 450.5 676 Q458 684 460 691 L467 723 L516 723 L507 682 Q497 636 475 614.5 Q453 593 411 593 Q392 593 373.5 600 Q355 607 337 615.5 Q319 624 302 631 Q285 638 268 638 Q251 638 243 632 Q235 626 233 619 L225 583 L174 583 L182 621 Q193 673 215 695 Q237 717 275 717 Q294 717 312 709.5 Q330 702 348.5 692.5 Q367 683 385.5 675.5 Q404 668 424 668 Z " />
<glyph glyph-name="adieresis" unicode="&#xe4;" horiz-adv-x="576" d="M22 178 Q22 252 42.5 317.5 Q63 383 99.5 432 Q136 481 185.5 509.5 Q235 538 293 538 Q336 538 366 523.5 Q396 509 415 487 L428 512 Q433 521 439 524.5 Q445 528 459 528 L536 528 L440 80 L453 63 L509 63 L495 0 L401 0 Q384 0 369 1.5 Q354 3 343 8.5 Q332 14 326.5 25 Q321 36 324 56 L328 80 L325 80 Q297 42 258 16 Q219 -10 173 -10 Q102 -10 62 40 Q22 90 22 178 Z M220 80 Q244 80 277 98.5 Q310 117 339 152 L394 417 Q380 432 360.5 443 Q341 454 312 454 Q274 454 242.5 431 Q211 408 188.5 370.5 Q166 333 154 284.5 Q142 236 142 185 Q142 131 161 105.5 Q180 80 220 80 Z M214 655 Q214 680 233 699 Q252 718 283 718 Q304 718 316.5 704 Q329 690 329 672 Q329 647 309.5 628.5 Q290 610 260 610 Q238 610 226 623.5 Q214 637 214 655 Z M366 655 Q366 680 385 699 Q404 718 435 718 Q456 718 468.5 704 Q481 690 481 672 Q481 647 461.5 628.5 Q442 610 412 610 Q390 610 378 623.5 Q366 637 366 655 Z " />
<glyph glyph-name="aring" unicode="&#xe5;" horiz-adv-x="576" d="M22 178 Q22 252 42.5 317.5 Q63 383 99.5 432 Q136 481 185.5 509.5 Q235 538 293 538 Q336 538 366 523.5 Q396 509 415 487 L428 512 Q433 521 439 524.5 Q445 528 459 528 L536 528 L440 80 L453 63 L509 63 L495 0 L401 0 Q384 0 369 1.5 Q354 3 343 8.5 Q332 14 326.5 25 Q321 36 324 56 L328 80 L325 80 Q297 42 258 16 Q219 -10 173 -10 Q102 -10 62 40 Q22 90 22 178 Z M220 80 Q244 80 277 98.5 Q310 117 339 152 L394 417 Q380 432 360.5 443 Q341 454 312 454 Q274 454 242.5 431 Q211 408 188.5 370.5 Q166 333 154 284.5 Q142 236 142 185 Q142 131 161 105.5 Q180 80 220 80 Z M360 742 Q407 742 435.5 722.5 Q464 703 464 666 Q464 641 453 623 Q442 605 424 593 Q406 581 382 575.5 Q358 570 332 570 Q287 570 258 588.5 Q229 607 229 642 Q229 668 239.5 687 Q250 706 267.5 718 Q285 730 309 736 Q333 742 360 742 Z M292 646 Q292 608 337 608 Q367 608 383.5 624 Q400 640 400 666 Q400 704 355 704 Q325 704 308.5 688 Q292 672 292 646 Z " />
<glyph glyph-name="ae" unicode="&#xe6;" horiz-adv-x="773" d="M114 510 Q118 511 133.5 516 Q149 521 173.5 525.5 Q198 530 229.5 534 Q261 538 296 538 Q354 538 386 519.5 Q418 501 429 464 Q464 500 506.5 519 Q549 538 596 538 Q632 538 661.5 529.5 Q691 521 712.5 505 Q734 489 746 464.5 Q758 440 758 409 Q758 373 742.5 345.5 Q727 318 701 298 Q675 278 641 264.5 Q607 251 571 243 Q535 235 498.5 231 Q462 227 432 226 L432 193 Q432 67 548 67 Q580 67 609.5 77.5 Q639 88 667 107 L691 58 Q662 33 617.5 11.5 Q573 -10 510 -10 Q450 -10 403 13.5 Q356 37 333 88 Q323 77 304.5 60.5 Q286 44 261.5 28.5 Q237 13 206 1.5 Q175 -10 140 -10 Q101 -10 74 1 Q47 12 30.5 30.5 Q14 49 7 73.5 Q0 98 0 124 Q0 166 14.5 197.5 Q29 229 55.5 250 Q82 271 119 281.5 Q156 292 200 292 L325 292 L338 349 Q340 361 342 372 Q344 383 344 393 Q344 423 326 441 Q308 459 258 459 Q241 459 223.5 456.5 Q206 454 189 450 L172 436 L156 362 L82 362 L114 510 Z M587 465 Q564 465 541.5 455 Q519 445 499 424 Q479 403 463.5 370 Q448 337 440 291 Q471 291 508.5 294.5 Q546 298 577.5 309.5 Q609 321 630.5 342 Q652 363 652 399 Q652 432 634 448.5 Q616 465 587 465 Z M313 186 Q313 196 313.5 206 Q314 216 315 226 L218 226 Q177 226 147.5 207.5 Q118 189 118 145 Q118 115 132.5 97.5 Q147 80 182 80 Q224 80 259.5 97.5 Q295 115 318 132 Q316 145 314.5 158 Q313 171 313 186 Z " />
<glyph glyph-name="ccedilla" unicode="&#xe7;" horiz-adv-x="470" d="M403 84 Q373 37 325 13.5 Q277 -10 216 -10 Q178 -10 143 1.5 Q108 13 81.5 37.5 Q55 62 39 100 Q23 138 23 191 Q23 275 47.5 339.5 Q72 404 114 448 Q156 492 211.5 515 Q267 538 328 538 Q386 538 423.5 528 Q461 518 467 515 L435 364 L360 364 L377 444 L365 458 Q347 463 320 463 Q275 463 242 440.5 Q209 418 187 381.5 Q165 345 154 299 Q143 253 143 206 Q143 136 173.5 102.5 Q204 69 255 69 Q292 69 323 87.5 Q354 106 374 125 L403 84 Z M114 -48 L176 13 L238 12 L188 -39 Q226 -40 248.5 -54 Q271 -68 271 -95 Q271 -119 259.5 -135.5 Q248 -152 229.5 -161.5 Q211 -171 188 -175.5 Q165 -180 142 -180 Q111 -180 85.5 -172 Q60 -164 46 -153 L70 -117 Q78 -123 98.5 -130 Q119 -137 140 -137 Q160 -137 174.5 -130.5 Q189 -124 189 -104 Q189 -88 167.5 -78.5 Q146 -69 110 -65 L114 -48 Z " />
<glyph glyph-name="egrave" unicode="&#xe8;" horiz-adv-x="490" d="M223 -10 Q181 -10 145 1.5 Q109 13 82 37 Q55 61 39.5 99 Q24 137 24 191 Q24 273 47.5 337.5 Q71 402 111 446.5 Q151 491 202 514.5 Q253 538 309 538 Q381 538 427 504.5 Q473 471 473 408 Q473 372 457 343.5 Q441 315 415 294 Q389 273 355 258 Q321 243 284.5 233 Q248 223 211.5 217 Q175 211 144 207 L144 196 Q144 132 174 100.5 Q204 69 260 69 Q296 69 327.5 84 Q359 99 384 120 L413 76 Q399 61 381 45.5 Q363 30 339.5 17.5 Q316 5 287 -2.5 Q258 -10 223 -10 Z M300 466 Q276 466 252 454.5 Q228 443 207 419 Q186 395 170.5 358 Q155 321 148 269 Q179 273 216.5 279 Q254 285 286.5 298.5 Q319 312 341 335.5 Q363 359 363 398 Q363 432 346 449 Q329 466 300 466 Z M177 684 L246 751 L266 751 L357 615 L317 579 L302 579 L177 684 Z " />
<glyph glyph-name="eacute" unicode="&#xe9;" horiz-adv-x="490" d="M458 751 L498 684 L329 579 L311 579 L285 615 L434 751 L458 751 Z M223 -10 Q181 -10 145 1.5 Q109 13 82 37 Q55 61 39.5 99 Q24 137 24 191 Q24 273 47.5 337.5 Q71 402 111 446.5 Q151 491 202 514.5 Q253 538 309 538 Q381 538 427 504.5 Q473 471 473 408 Q473 372 457 343.5 Q441 315 415 294 Q389 273 355 258 Q321 243 284.5 233 Q248 223 211.5 217 Q175 211 144 207 L144 196 Q144 132 174 100.5 Q204 69 260 69 Q296 69 327.5 84 Q359 99 384 120 L413 76 Q399 61 381 45.5 Q363 30 339.5 17.5 Q316 5 287 -2.5 Q258 -10 223 -10 Z M300 466 Q276 466 252 454.5 Q228 443 207 419 Q186 395 170.5 358 Q155 321 148 269 Q179 273 216.5 279 Q254 285 286.5 298.5 Q319 312 341 335.5 Q363 359 363 398 Q363 432 346 449 Q329 466 300 466 Z " />
<glyph glyph-name="ecircumflex" unicode="&#xea;" horiz-adv-x="490" d="M193 576 L177 603 L334 751 L374 751 L468 603 L441 576 L427 576 L339 665 L215 576 L193 576 Z M223 -10 Q181 -10 145 1.5 Q109 13 82 37 Q55 61 39.5 99 Q24 137 24 191 Q24 273 47.5 337.5 Q71 402 111 446.5 Q151 491 202 514.5 Q253 538 309 538 Q381 538 427 504.5 Q473 471 473 408 Q473 372 457 343.5 Q441 315 415 294 Q389 273 355 258 Q321 243 284.5 233 Q248 223 211.5 217 Q175 211 144 207 L144 196 Q144 132 174 100.5 Q204 69 260 69 Q296 69 327.5 84 Q359 99 384 120 L413 76 Q399 61 381 45.5 Q363 30 339.5 17.5 Q316 5 287 -2.5 Q258 -10 223 -10 Z M300 466 Q276 466 252 454.5 Q228 443 207 419 Q186 395 170.5 358 Q155 321 148 269 Q179 273 216.5 279 Q254 285 286.5 298.5 Q319 312 341 335.5 Q363 359 363 398 Q363 432 346 449 Q329 466 300 466 Z " />
<glyph glyph-name="edieresis" unicode="&#xeb;" horiz-adv-x="490" d="M207 655 Q207 680 226 699 Q245 718 276 718 Q297 718 309.5 704 Q322 690 322 672 Q322 647 302.5 628.5 Q283 610 253 610 Q231 610 219 623.5 Q207 637 207 655 Z M359 655 Q359 680 378 699 Q397 718 428 718 Q449 718 461.5 704 Q474 690 474 672 Q474 647 454.5 628.5 Q435 610 405 610 Q383 610 371 623.5 Q359 637 359 655 Z M223 -10 Q181 -10 145 1.5 Q109 13 82 37 Q55 61 39.5 99 Q24 137 24 191 Q24 273 47.5 337.5 Q71 402 111 446.5 Q151 491 202 514.5 Q253 538 309 538 Q381 538 427 504.5 Q473 471 473 408 Q473 372 457 343.5 Q441 315 415 294 Q389 273 355 258 Q321 243 284.5 233 Q248 223 211.5 217 Q175 211 144 207 L144 196 Q144 132 174 100.5 Q204 69 260 69 Q296 69 327.5 84 Q359 99 384 120 L413 76 Q399 61 381 45.5 Q363 30 339.5 17.5 Q316 5 287 -2.5 Q258 -10 223 -10 Z M300 466 Q276 466 252 454.5 Q228 443 207 419 Q186 395 170.5 358 Q155 321 148 269 Q179 273 216.5 279 Q254 285 286.5 298.5 Q319 312 341 335.5 Q363 359 363 398 Q363 432 346 449 Q329 466 300 466 Z " />
<glyph glyph-name="igrave" unicode="&#xec;" horiz-adv-x="297" d="M121 444 L109 461 L53 461 L68 528 L213 528 Q241 528 246 515 Q251 502 247 485 L161 80 L174 63 L229 63 L216 0 L117 0 Q98 0 82.5 2 Q67 4 56.5 12 Q46 20 42 35.5 Q38 51 44 78 L121 444 Z M63 684 L132 751 L152 751 L243 615 L203 579 L188 579 L63 684 Z " />
<glyph glyph-name="iacute" unicode="&#xed;" horiz-adv-x="296" d="M332 751 L372 684 L203 579 L185 579 L159 615 L308 751 L332 751 Z M120 444 L108 461 L52 461 L67 528 L212 528 Q240 528 245 515 Q250 502 246 485 L160 80 L173 63 L228 63 L215 0 L116 0 Q97 0 81.5 2 Q66 4 55.5 12 Q45 20 41 35.5 Q37 51 43 78 L120 444 Z " />
<glyph glyph-name="icircumflex" unicode="&#xee;" horiz-adv-x="297" d="M64 576 L48 603 L205 751 L245 751 L339 603 L312 576 L298 576 L210 665 L86 576 L64 576 Z M121 444 L109 461 L53 461 L68 528 L213 528 Q241 528 246 515 Q251 502 247 485 L161 80 L174 63 L229 63 L216 0 L117 0 Q98 0 82.5 2 Q67 4 56.5 12 Q46 20 42 35.5 Q38 51 44 78 L121 444 Z " />
<glyph glyph-name="idieresis" unicode="&#xef;" horiz-adv-x="296" d="M73 655 Q73 680 92 699 Q111 718 142 718 Q163 718 175.5 704 Q188 690 188 672 Q188 647 168.5 628.5 Q149 610 119 610 Q97 610 85 623.5 Q73 637 73 655 Z M225 655 Q225 680 244 699 Q263 718 294 718 Q315 718 327.5 704 Q340 690 340 672 Q340 647 320.5 628.5 Q301 610 271 610 Q249 610 237 623.5 Q225 637 225 655 Z M120 444 L108 461 L52 461 L67 528 L212 528 Q240 528 245 515 Q250 502 246 485 L160 80 L173 63 L228 63 L215 0 L116 0 Q97 0 81.5 2 Q66 4 55.5 12 Q45 20 41 35.5 Q37 51 43 78 L120 444 Z " />
<glyph glyph-name="eth" unicode="&#xf0;" horiz-adv-x="549" d="M245 619 L308 646 Q284 675 255 699 L302 741 Q348 717 384 679 L467 715 L479 671 L416 643 Q441 610 458.5 572.5 Q476 535 487 495 Q498 455 503 414 Q508 373 508 333 Q508 248 484 184 Q460 120 420.5 77 Q381 34 331 12 Q281 -10 229 -10 Q186 -10 148.5 3 Q111 16 83.5 42 Q56 68 40.5 107.5 Q25 147 25 201 Q25 284 48.5 347 Q72 410 110.5 452.5 Q149 495 198.5 516.5 Q248 538 300 538 Q322 538 342 533 Q362 528 377 517 Q369 543 358.5 566 Q348 589 335 610 L254 576 L245 619 Z M146 197 Q146 129 165.5 98 Q185 67 232 67 Q270 67 299 92 Q328 117 347.5 156.5 Q367 196 377 245 Q387 294 387 342 Q387 401 367.5 431 Q348 461 301 461 Q263 461 234 436 Q205 411 185.5 372.5 Q166 334 156 287.5 Q146 241 146 197 Z " />
<glyph glyph-name="ntilde" unicode="&#xf1;" horiz-adv-x="587" d="M24 0 L120 444 L107 461 L50 461 L66 528 L207 528 Q234 528 239 515.5 Q244 503 241 486 L232 449 L236 449 Q250 465 267 481 Q284 497 305 510 Q326 523 350.5 530.5 Q375 538 404 538 Q464 538 495 505 Q526 472 526 417 Q526 394 520 367 L459 80 L472 63 L527 63 L514 0 L415 0 Q396 0 380 2 Q364 4 353.5 12 Q343 20 339.5 35.5 Q336 51 342 78 L402 359 Q404 368 405 377 Q406 386 406 394 Q406 417 395 432 Q384 447 350 447 Q333 447 315.5 441.5 Q298 436 281 426.5 Q264 417 249 404.5 Q234 392 222 379 L141 0 L24 0 Z M446 668 Q465 668 472.5 676 Q480 684 482 691 L489 723 L538 723 L529 682 Q519 636 497 614.5 Q475 593 433 593 Q414 593 395.5 600 Q377 607 359 615.5 Q341 624 324 631 Q307 638 290 638 Q273 638 265 632 Q257 626 255 619 L247 583 L196 583 L204 621 Q215 673 237 695 Q259 717 297 717 Q316 717 334 709.5 Q352 702 370.5 692.5 Q389 683 407.5 675.5 Q426 668 446 668 Z " />
<glyph glyph-name="ograve" unicode="&#xf2;" horiz-adv-x="548" d="M145 197 Q145 129 165 98 Q185 67 232 67 Q269 67 298 92 Q327 117 347 156.5 Q367 196 377 245 Q387 294 387 342 Q387 401 367.5 431 Q348 461 301 461 Q263 461 233.5 436 Q204 411 184.5 372.5 Q165 334 155 287.5 Q145 241 145 197 Z M25 201 Q25 284 49 347 Q73 410 112 452.5 Q151 495 201 516.5 Q251 538 304 538 Q347 538 384 525.5 Q421 513 448.5 487.5 Q476 462 491.5 423.5 Q507 385 507 333 Q507 249 483 184.5 Q459 120 420 77 Q381 34 330.5 12 Q280 -10 228 -10 Q185 -10 148 3 Q111 16 83.5 42 Q56 68 40.5 107.5 Q25 147 25 201 Z M189 684 L258 751 L278 751 L369 615 L329 579 L314 579 L189 684 Z " />
<glyph glyph-name="oacute" unicode="&#xf3;" horiz-adv-x="548" d="M470 751 L510 684 L341 579 L323 579 L297 615 L446 751 L470 751 Z M145 197 Q145 129 165 98 Q185 67 232 67 Q269 67 298 92 Q327 117 347 156.5 Q367 196 377 245 Q387 294 387 342 Q387 401 367.5 431 Q348 461 301 461 Q263 461 233.5 436 Q204 411 184.5 372.5 Q165 334 155 287.5 Q145 241 145 197 Z M25 201 Q25 284 49 347 Q73 410 112 452.5 Q151 495 201 516.5 Q251 538 304 538 Q347 538 384 525.5 Q421 513 448.5 487.5 Q476 462 491.5 423.5 Q507 385 507 333 Q507 249 483 184.5 Q459 120 420 77 Q381 34 330.5 12 Q280 -10 228 -10 Q185 -10 148 3 Q111 16 83.5 42 Q56 68 40.5 107.5 Q25 147 25 201 Z " />
<glyph glyph-name="ocircumflex" unicode="&#xf4;" horiz-adv-x="548" d="M205 576 L189 603 L346 751 L386 751 L480 603 L453 576 L439 576 L351 665 L227 576 L205 576 Z M145 197 Q145 129 165 98 Q185 67 232 67 Q269 67 298 92 Q327 117 347 156.5 Q367 196 377 245 Q387 294 387 342 Q387 401 367.5 431 Q348 461 301 461 Q263 461 233.5 436 Q204 411 184.5 372.5 Q165 334 155 287.5 Q145 241 145 197 Z M25 201 Q25 284 49 347 Q73 410 112 452.5 Q151 495 201 516.5 Q251 538 304 538 Q347 538 384 525.5 Q421 513 448.5 487.5 Q476 462 491.5 423.5 Q507 385 507 333 Q507 249 483 184.5 Q459 120 420 77 Q381 34 330.5 12 Q280 -10 228 -10 Q185 -10 148 3 Q111 16 83.5 42 Q56 68 40.5 107.5 Q25 147 25 201 Z " />
<glyph glyph-name="otilde" unicode="&#xf5;" horiz-adv-x="548" d="M145 197 Q145 129 165 98 Q185 67 232 67 Q269 67 298 92 Q327 117 347 156.5 Q367 196 377 245 Q387 294 387 342 Q387 401 367.5 431 Q348 461 301 461 Q263 461 233.5 436 Q204 411 184.5 372.5 Q165 334 155 287.5 Q145 241 145 197 Z M25 201 Q25 284 49 347 Q73 410 112 452.5 Q151 495 201 516.5 Q251 538 304 538 Q347 538 384 525.5 Q421 513 448.5 487.5 Q476 462 491.5 423.5 Q507 385 507 333 Q507 249 483 184.5 Q459 120 420 77 Q381 34 330.5 12 Q280 -10 228 -10 Q185 -10 148 3 Q111 16 83.5 42 Q56 68 40.5 107.5 Q25 147 25 201 Z M429 668 Q448 668 455.5 676 Q463 684 465 691 L472 723 L521 723 L512 682 Q502 636 480 614.5 Q458 593 416 593 Q397 593 378.5 600 Q360 607 342 615.5 Q324 624 307 631 Q290 638 273 638 Q256 638 248 632 Q240 626 238 619 L230 583 L179 583 L187 621 Q198 673 220 695 Q242 717 280 717 Q299 717 317 709.5 Q335 702 353.5 692.5 Q372 683 390.5 675.5 Q409 668 429 668 Z " />
<glyph glyph-name="odieresis" unicode="&#xf6;" horiz-adv-x="548" d="M219 655 Q219 680 238 699 Q257 718 288 718 Q309 718 321.5 704 Q334 690 334 672 Q334 647 314.5 628.5 Q295 610 265 610 Q243 610 231 623.5 Q219 637 219 655 Z M371 655 Q371 680 390 699 Q409 718 440 718 Q461 718 473.5 704 Q486 690 486 672 Q486 647 466.5 628.5 Q447 610 417 610 Q395 610 383 623.5 Q371 637 371 655 Z M145 197 Q145 129 165 98 Q185 67 232 67 Q269 67 298 92 Q327 117 347 156.5 Q367 196 377 245 Q387 294 387 342 Q387 401 367.5 431 Q348 461 301 461 Q263 461 233.5 436 Q204 411 184.5 372.5 Q165 334 155 287.5 Q145 241 145 197 Z M25 201 Q25 284 49 347 Q73 410 112 452.5 Q151 495 201 516.5 Q251 538 304 538 Q347 538 384 525.5 Q421 513 448.5 487.5 Q476 462 491.5 423.5 Q507 385 507 333 Q507 249 483 184.5 Q459 120 420 77 Q381 34 330.5 12 Q280 -10 228 -10 Q185 -10 148 3 Q111 16 83.5 42 Q56 68 40.5 107.5 Q25 147 25 201 Z " />
<glyph glyph-name="divide" unicode="&#xf7;" horiz-adv-x="522" d="M212 497 Q212 520 228.5 536.5 Q245 553 268 553 Q291 553 307.5 536.5 Q324 520 324 497 Q324 474 307.5 458 Q291 442 268 442 Q245 442 228.5 458 Q212 474 212 497 Z M212 172 Q212 195 228.5 211.5 Q245 228 268 228 Q291 228 307.5 211.5 Q324 195 324 172 Q324 149 307.5 133 Q291 117 268 117 Q245 117 228.5 133 Q212 149 212 172 Z M61 373 L475 373 L475 297 L61 297 L61 373 Z " />
<glyph glyph-name="oslash" unicode="&#xf8;" horiz-adv-x="550" d="M26 201 Q26 284 50 347 Q74 410 113 452.5 Q152 495 202 516.5 Q252 538 305 538 Q393 538 448 488 L495 538 L559 538 L479 452 Q493 429 500.5 399 Q508 369 508 333 Q508 249 484 184.5 Q460 120 421 77 Q382 34 331.5 12 Q281 -10 229 -10 Q146 -10 92 35 L50 -10 L-15 -10 L60 71 Q26 122 26 201 Z M146 197 L146 180 Q146 172 147 164 L378 412 Q358 461 302 461 Q264 461 234.5 436 Q205 411 185.5 372.5 Q166 334 156 287.5 Q146 241 146 197 Z M388 354 L160 109 Q180 67 233 67 Q270 67 299 92 Q328 117 348 156.5 Q368 196 378 245 Q388 294 388 342 L388 354 Z " />
<glyph glyph-name="ugrave" unicode="&#xf9;" horiz-adv-x="583" d="M408 0 Q391 0 376 1.5 Q361 3 349.5 9 Q338 15 333 26 Q328 37 331 57 L335 78 L331 78 Q304 45 263.5 17.5 Q223 -10 169 -10 Q109 -10 77.5 23 Q46 56 46 111 Q46 134 52 160 L113 444 L100 461 L44 461 L59 528 L158 528 Q177 528 192.5 525.5 Q208 523 218.5 515 Q229 507 233 491.5 Q237 476 231 450 L171 168 Q166 148 166 134 Q166 111 177.5 95.5 Q189 80 222 80 Q255 80 288.5 101.5 Q322 123 346 151 L427 528 L543 528 L447 81 L460 63 L516 63 L502 0 L408 0 Z M194 684 L263 751 L283 751 L374 615 L334 579 L319 579 L194 684 Z " />
<glyph glyph-name="uacute" unicode="&#xfa;" horiz-adv-x="583" d="M475 751 L515 684 L346 579 L328 579 L302 615 L451 751 L475 751 Z M408 0 Q391 0 376 1.5 Q361 3 349.5 9 Q338 15 333 26 Q328 37 331 57 L335 78 L331 78 Q304 45 263.5 17.5 Q223 -10 169 -10 Q109 -10 77.5 23 Q46 56 46 111 Q46 134 52 160 L113 444 L100 461 L44 461 L59 528 L158 528 Q177 528 192.5 525.5 Q208 523 218.5 515 Q229 507 233 491.5 Q237 476 231 450 L171 168 Q166 148 166 134 Q166 111 177.5 95.5 Q189 80 222 80 Q255 80 288.5 101.5 Q322 123 346 151 L427 528 L543 528 L447 81 L460 63 L516 63 L502 0 L408 0 Z " />
<glyph glyph-name="ucircumflex" unicode="&#xfb;" horiz-adv-x="583" d="M210 576 L194 603 L351 751 L391 751 L485 603 L458 576 L444 576 L356 665 L232 576 L210 576 Z M408 0 Q391 0 376 1.5 Q361 3 349.5 9 Q338 15 333 26 Q328 37 331 57 L335 78 L331 78 Q304 45 263.5 17.5 Q223 -10 169 -10 Q109 -10 77.5 23 Q46 56 46 111 Q46 134 52 160 L113 444 L100 461 L44 461 L59 528 L158 528 Q177 528 192.5 525.5 Q208 523 218.5 515 Q229 507 233 491.5 Q237 476 231 450 L171 168 Q166 148 166 134 Q166 111 177.5 95.5 Q189 80 222 80 Q255 80 288.5 101.5 Q322 123 346 151 L427 528 L543 528 L447 81 L460 63 L516 63 L502 0 L408 0 Z " />
<glyph glyph-name="udieresis" unicode="&#xfc;" horiz-adv-x="583" d="M225 655 Q225 680 244 699 Q263 718 294 718 Q315 718 327.5 704 Q340 690 340 672 Q340 647 320.5 628.5 Q301 610 271 610 Q249 610 237 623.5 Q225 637 225 655 Z M377 655 Q377 680 396 699 Q415 718 446 718 Q467 718 479.5 704 Q492 690 492 672 Q492 647 472.5 628.5 Q453 610 423 610 Q401 610 389 623.5 Q377 637 377 655 Z M408 0 Q391 0 376 1.5 Q361 3 349.5 9 Q338 15 333 26 Q328 37 331 57 L335 78 L331 78 Q304 45 263.5 17.5 Q223 -10 169 -10 Q109 -10 77.5 23 Q46 56 46 111 Q46 134 52 160 L113 444 L100 461 L44 461 L59 528 L158 528 Q177 528 192.5 525.5 Q208 523 218.5 515 Q229 507 233 491.5 Q237 476 231 450 L171 168 Q166 148 166 134 Q166 111 177.5 95.5 Q189 80 222 80 Q255 80 288.5 101.5 Q322 123 346 151 L427 528 L543 528 L447 81 L460 63 L516 63 L502 0 L408 0 Z " />
<glyph glyph-name="yacute" unicode="&#xfd;" horiz-adv-x="549" d="M140 528 Q154 528 167.5 526 Q181 524 192.5 517 Q204 510 212.5 495.5 Q221 481 224 457 L268 142 L440 444 L430 461 L387 461 L402 528 L489 528 Q532 528 542.5 504.5 Q553 481 536 452 L226 -90 L237 -107 L291 -107 L279 -170 L42 -170 L54 -107 L116 -107 L136 -90 L181 -12 L106 445 L93 461 L37 461 L52 528 L140 528 Z M472 751 L512 684 L343 579 L325 579 L299 615 L448 751 L472 751 Z " />
<glyph glyph-name="ygrave" unicode="&#x1ef3;" horiz-adv-x="549" d="M140 528 Q154 528 167.5 526 Q181 524 192.5 517 Q204 510 212.5 495.5 Q221 481 224 457 L268 142 L440 444 L430 461 L387 461 L402 528 L489 528 Q532 528 542.5 504.5 Q553 481 536 452 L226 -90 L237 -107 L291 -107 L279 -170 L42 -170 L54 -107 L116 -107 L136 -90 L181 -12 L106 445 L93 461 L37 461 L52 528 L140 528 Z M182 684 L251 751 L271 751 L362 615 L322 579 L307 579 L182 684 Z " />
<glyph glyph-name="thorn" unicode="&#xfe;" horiz-adv-x="560" d="M222 451 Q250 488 288 513 Q326 538 371 538 Q443 538 483 486.5 Q523 435 523 347 Q523 273 502.5 208.5 Q482 144 445.5 95 Q409 46 359 18 Q309 -10 251 -10 Q211 -10 182 2.5 Q153 15 134 35 L108 -90 L118 -107 L179 -107 L165 -170 L-97 -170 L-84 -107 L-29 -107 L-9 -90 L147 647 L136 663 L79 663 L94 730 L238 730 Q266 730 271.5 717.5 Q277 705 273 688 L222 451 Z M324 448 Q301 448 268.5 429.5 Q236 411 207 377 L150 109 Q164 95 184 84.5 Q204 74 233 74 Q271 74 302 96.5 Q333 119 355.5 156.5 Q378 194 390 242 Q402 290 402 340 Q402 396 383.5 422 Q365 448 324 448 Z " />
<glyph glyph-name="ydieresis" unicode="&#xff;" horiz-adv-x="549" d="M140 528 Q154 528 167.5 526 Q181 524 192.5 517 Q204 510 212.5 495.5 Q221 481 224 457 L268 142 L440 444 L430 461 L387 461 L402 528 L489 528 Q532 528 542.5 504.5 Q553 481 536 452 L226 -90 L237 -107 L291 -107 L279 -170 L42 -170 L54 -107 L116 -107 L136 -90 L181 -12 L106 445 L93 461 L37 461 L52 528 L140 528 Z M220 655 Q220 680 239 699 Q258 718 289 718 Q310 718 322.5 704 Q335 690 335 672 Q335 647 315.5 628.5 Q296 610 266 610 Q244 610 232 623.5 Q220 637 220 655 Z M372 655 Q372 680 391 699 Q410 718 441 718 Q462 718 474.5 704 Q487 690 487 672 Q487 647 467.5 628.5 Q448 610 418 610 Q396 610 384 623.5 Q372 637 372 655 Z " />
<glyph glyph-name="Amacron" unicode="&#x100;" horiz-adv-x="657" d="M414 193 L174 193 L115 81 L126 67 L178 67 L164 0 L-70 0 L-56 67 L-5 67 L14 83 L355 702 L469 702 L553 81 L566 67 L617 67 L602 0 L350 0 L364 67 L411 67 L427 81 L414 193 Z M215 269 L405 269 L371 563 L215 269 Z M310 865 L563 865 L548 795 L295 795 L310 865 Z " />
<glyph glyph-name="amacron" unicode="&#x101;" horiz-adv-x="576" d="M22 178 Q22 252 42.5 317.5 Q63 383 99.5 432 Q136 481 185.5 509.5 Q235 538 293 538 Q336 538 366 523.5 Q396 509 415 487 L428 512 Q433 521 439 524.5 Q445 528 459 528 L536 528 L440 80 L453 63 L509 63 L495 0 L401 0 Q384 0 369 1.5 Q354 3 343 8.5 Q332 14 326.5 25 Q321 36 324 56 L328 80 L325 80 Q297 42 258 16 Q219 -10 173 -10 Q102 -10 62 40 Q22 90 22 178 Z M220 80 Q244 80 277 98.5 Q310 117 339 152 L394 417 Q380 432 360.5 443 Q341 454 312 454 Q274 454 242.5 431 Q211 408 188.5 370.5 Q166 333 154 284.5 Q142 236 142 185 Q142 131 161 105.5 Q180 80 220 80 Z M225 692 L478 692 L463 622 L210 622 L225 692 Z " />
<glyph glyph-name="Abreve" unicode="&#x102;" horiz-adv-x="657" d="M414 193 L174 193 L115 81 L126 67 L178 67 L164 0 L-70 0 L-56 67 L-5 67 L14 83 L355 702 L469 702 L553 81 L566 67 L617 67 L602 0 L350 0 L364 67 L411 67 L427 81 L414 193 Z M215 269 L405 269 L371 563 L215 269 Z M564 878 Q556 856 543 835.5 Q530 815 511.5 799.5 Q493 784 469 774.5 Q445 765 417 765 Q390 765 371 774.5 Q352 784 339.5 799.5 Q327 815 321 835.5 Q315 856 315 878 L371 894 Q372 869 384.5 850 Q397 831 428 831 Q460 831 481.5 849.5 Q503 868 514 891 L564 878 Z " />
<glyph glyph-name="abreve" unicode="&#x103;" horiz-adv-x="576" d="M22 178 Q22 252 42.5 317.5 Q63 383 99.5 432 Q136 481 185.5 509.5 Q235 538 293 538 Q336 538 366 523.5 Q396 509 415 487 L428 512 Q433 521 439 524.5 Q445 528 459 528 L536 528 L440 80 L453 63 L509 63 L495 0 L401 0 Q384 0 369 1.5 Q354 3 343 8.5 Q332 14 326.5 25 Q321 36 324 56 L328 80 L325 80 Q297 42 258 16 Q219 -10 173 -10 Q102 -10 62 40 Q22 90 22 178 Z M220 80 Q244 80 277 98.5 Q310 117 339 152 L394 417 Q380 432 360.5 443 Q341 454 312 454 Q274 454 242.5 431 Q211 408 188.5 370.5 Q166 333 154 284.5 Q142 236 142 185 Q142 131 161 105.5 Q180 80 220 80 Z M479 705 Q471 683 458 662 Q445 641 426.5 625 Q408 609 384 599.5 Q360 590 332 590 Q305 590 286 599.5 Q267 609 255 625 Q243 641 237 661.5 Q231 682 231 705 L286 720 Q287 696 300 676.5 Q313 657 343 657 Q375 657 397 675.5 Q419 694 430 717 L479 705 Z " />
<glyph glyph-name="Aogonek" unicode="&#x104;" horiz-adv-x="656" d="M413 193 L174 193 L115 81 L126 67 L178 67 L163 0 L-71 0 L-56 67 L-5 67 L14 83 L355 702 L469 702 L553 81 L566 67 L617 67 L602 0 L557 0 Q505 -10 469 -32.5 Q433 -55 433 -93 Q433 -117 446.5 -126.5 Q460 -136 483 -136 Q500 -136 520.5 -129 Q541 -122 551 -116 L561 -151 Q542 -163 511.5 -171.5 Q481 -180 449 -180 Q401 -180 375 -162.5 Q349 -145 349 -109 Q349 -71 376 -44 Q403 -17 443 0 L350 0 L364 67 L411 67 L426 81 L413 193 Z M214 269 L404 269 L370 563 L214 269 Z " />
<glyph glyph-name="aogonek" unicode="&#x105;" horiz-adv-x="576" d="M22 178 Q22 252 42.5 317.5 Q63 383 99.5 432 Q136 481 185.5 509.5 Q235 538 293 538 Q336 538 366 523.5 Q396 509 415 487 L428 512 Q433 521 439 524.5 Q445 528 459 528 L536 528 L440 80 L453 63 L509 63 L495 0 L467 0 Q441 -5 418 -13 Q395 -21 378 -32.5 Q361 -44 351.5 -59 Q342 -74 342 -93 Q342 -117 355 -126.5 Q368 -136 391 -136 Q409 -136 429.5 -129 Q450 -122 459 -116 L469 -151 Q450 -163 420 -171.5 Q390 -180 358 -180 Q310 -180 284 -162.5 Q258 -145 258 -109 Q258 -68 287 -41 Q316 -14 358 3 Q340 8 329.5 19 Q319 30 324 56 L328 80 L325 80 Q297 42 258 16 Q219 -10 173 -10 Q102 -10 62 40 Q22 90 22 178 Z M220 80 Q244 80 277 98.5 Q310 117 339 152 L394 417 Q380 432 360.5 443 Q341 454 312 454 Q274 454 242.5 431 Q211 408 188.5 370.5 Q166 333 154 284.5 Q142 236 142 185 Q142 131 161 105.5 Q180 80 220 80 Z " />
<glyph glyph-name="Cacute" unicode="&#x106;" horiz-adv-x="582" d="M485 24 Q454 11 410.5 0.5 Q367 -10 305 -10 Q181 -10 113.5 58 Q46 126 46 246 Q46 354 75 440 Q104 526 157 586 Q210 646 284.5 678 Q359 710 451 710 Q484 710 512.5 706.5 Q541 703 562.5 698.5 Q584 694 597.5 689 Q611 684 614 682 L579 516 L503 516 L521 603 L510 618 Q496 623 480.5 625.5 Q465 628 446 628 Q387 628 338 605.5 Q289 583 253 537.5 Q217 492 197 422 Q177 352 177 257 Q177 173 214 124 Q251 75 333 75 Q354 75 371 77 Q388 79 405 84 L424 99 L444 192 L520 192 L485 24 Z M464 752 L439 788 L587 924 L611 924 L651 856 L483 752 L464 752 Z " />
<glyph glyph-name="cacute" unicode="&#x107;" horiz-adv-x="470" d="M474 751 L514 684 L345 579 L327 579 L301 615 L450 751 L474 751 Z M403 84 Q373 37 325 13.5 Q277 -10 216 -10 Q178 -10 143 1.5 Q108 13 81.5 37.5 Q55 62 39 100 Q23 138 23 191 Q23 275 47.5 339.5 Q72 404 114 448 Q156 492 211.5 515 Q267 538 328 538 Q386 538 423.5 528 Q461 518 467 515 L435 364 L360 364 L377 444 L365 458 Q347 463 320 463 Q275 463 242 440.5 Q209 418 187 381.5 Q165 345 154 299 Q143 253 143 206 Q143 136 173.5 102.5 Q204 69 255 69 Q292 69 323 87.5 Q354 106 374 125 L403 84 Z " />
<glyph glyph-name="Ccircumflex" unicode="&#x108;" horiz-adv-x="582" d="M485 24 Q454 11 410.5 0.5 Q367 -10 305 -10 Q181 -10 113.5 58 Q46 126 46 246 Q46 354 75 440 Q104 526 157 586 Q210 646 284.5 678 Q359 710 451 710 Q484 710 512.5 706.5 Q541 703 562.5 698.5 Q584 694 597.5 689 Q611 684 614 682 L579 516 L503 516 L521 603 L510 618 Q496 623 480.5 625.5 Q465 628 446 628 Q387 628 338 605.5 Q289 583 253 537.5 Q217 492 197 422 Q177 352 177 257 Q177 173 214 124 Q251 75 333 75 Q354 75 371 77 Q388 79 405 84 L424 99 L444 192 L520 192 L485 24 Z M336 751 L320 778 L477 926 L517 926 L612 778 L584 751 L570 751 L482 839 L359 751 L336 751 Z " />
<glyph glyph-name="ccircumflex" unicode="&#x109;" horiz-adv-x="470" d="M210 576 L194 603 L351 751 L391 751 L485 603 L458 576 L444 576 L356 665 L232 576 L210 576 Z M403 84 Q373 37 325 13.5 Q277 -10 216 -10 Q178 -10 143 1.5 Q108 13 81.5 37.5 Q55 62 39 100 Q23 138 23 191 Q23 275 47.5 339.5 Q72 404 114 448 Q156 492 211.5 515 Q267 538 328 538 Q386 538 423.5 528 Q461 518 467 515 L435 364 L360 364 L377 444 L365 458 Q347 463 320 463 Q275 463 242 440.5 Q209 418 187 381.5 Q165 345 154 299 Q143 253 143 206 Q143 136 173.5 102.5 Q204 69 255 69 Q292 69 323 87.5 Q354 106 374 125 L403 84 Z " />
<glyph glyph-name="Cdotaccent" unicode="&#x10a;" horiz-adv-x="582" d="M412 822 Q412 853 434.5 876.5 Q457 900 495 900 Q522 900 538 883 Q554 866 554 843 Q554 812 530.5 789 Q507 766 469 766 Q442 766 427 782.5 Q412 799 412 822 Z M485 24 Q454 11 410.5 0.5 Q367 -10 305 -10 Q181 -10 113.5 58 Q46 126 46 246 Q46 354 75 440 Q104 526 157 586 Q210 646 284.5 678 Q359 710 451 710 Q484 710 512.5 706.5 Q541 703 562.5 698.5 Q584 694 597.5 689 Q611 684 614 682 L579 516 L503 516 L521 603 L510 618 Q496 623 480.5 625.5 Q465 628 446 628 Q387 628 338 605.5 Q289 583 253 537.5 Q217 492 197 422 Q177 352 177 257 Q177 173 214 124 Q251 75 333 75 Q354 75 371 77 Q388 79 405 84 L424 99 L444 192 L520 192 L485 24 Z " />
<glyph glyph-name="cdotaccent" unicode="&#x10b;" horiz-adv-x="470" d="M403 84 Q373 37 325 13.5 Q277 -10 216 -10 Q178 -10 143 1.5 Q108 13 81.5 37.5 Q55 62 39 100 Q23 138 23 191 Q23 275 47.5 339.5 Q72 404 114 448 Q156 492 211.5 515 Q267 538 328 538 Q386 538 423.5 528 Q461 518 467 515 L435 364 L360 364 L377 444 L365 458 Q347 463 320 463 Q275 463 242 440.5 Q209 418 187 381.5 Q165 345 154 299 Q143 253 143 206 Q143 136 173.5 102.5 Q204 69 255 69 Q292 69 323 87.5 Q354 106 374 125 L403 84 Z M286 650 Q286 680 308.5 704 Q331 728 369 728 Q396 728 411.5 711.5 Q427 695 427 672 Q427 640 403.5 617 Q380 594 342 594 Q316 594 301 610.5 Q286 627 286 650 Z " />
<glyph glyph-name="Ccaron" unicode="&#x10c;" horiz-adv-x="582" d="M485 24 Q454 11 410.5 0.5 Q367 -10 305 -10 Q181 -10 113.5 58 Q46 126 46 246 Q46 354 75 440 Q104 526 157 586 Q210 646 284.5 678 Q359 710 451 710 Q484 710 512.5 706.5 Q541 703 562.5 698.5 Q584 694 597.5 689 Q611 684 614 682 L579 516 L503 516 L521 603 L510 618 Q496 623 480.5 625.5 Q465 628 446 628 Q387 628 338 605.5 Q289 583 253 537.5 Q217 492 197 422 Q177 352 177 257 Q177 173 214 124 Q251 75 333 75 Q354 75 371 77 Q388 79 405 84 L424 99 L444 192 L520 192 L485 24 Z M483 752 L443 752 L348 900 L376 927 L390 927 L477 838 L601 927 L623 927 L640 900 L483 752 Z " />
<glyph glyph-name="ccaron" unicode="&#x10d;" horiz-adv-x="470" d="M362 579 L323 579 L228 727 L256 754 L270 754 L357 666 L481 754 L503 754 L520 727 L362 579 Z M403 84 Q373 37 325 13.5 Q277 -10 216 -10 Q178 -10 143 1.5 Q108 13 81.5 37.5 Q55 62 39 100 Q23 138 23 191 Q23 275 47.5 339.5 Q72 404 114 448 Q156 492 211.5 515 Q267 538 328 538 Q386 538 423.5 528 Q461 518 467 515 L435 364 L360 364 L377 444 L365 458 Q347 463 320 463 Q275 463 242 440.5 Q209 418 187 381.5 Q165 345 154 299 Q143 253 143 206 Q143 136 173.5 102.5 Q204 69 255 69 Q292 69 323 87.5 Q354 106 374 125 L403 84 Z " />
<glyph glyph-name="Dcaron" unicode="&#x10e;" horiz-adv-x="700" d="M-6 67 L49 67 L68 83 L181 617 L168 633 L113 633 L128 700 L407 700 Q468 700 517 684 Q566 668 600.5 636 Q635 604 654 556.5 Q673 509 673 446 Q673 339 645 256 Q617 173 565.5 116 Q514 59 441 29.5 Q368 0 278 0 L-21 0 L-6 67 Z M191 81 L297 81 Q347 81 391.5 104.5 Q436 128 469.5 174 Q503 220 522.5 288.5 Q542 357 542 447 Q542 534 505.5 576.5 Q469 619 390 619 L307 619 L191 81 Z M453 752 L413 752 L318 900 L346 927 L360 927 L447 838 L571 927 L593 927 L610 900 L453 752 Z " />
<glyph glyph-name="dcaron" unicode="&#x10f;" horiz-adv-x="604" d="M617 582 L657 780 L740 780 L725 708 L685 582 L617 582 Z M495 0 L401 0 Q385 0 370 1.5 Q355 3 343.5 8.5 Q332 14 326.5 25 Q321 36 324 56 L328 80 L325 80 Q297 42 258 16 Q219 -10 173 -10 Q102 -10 62 40 Q22 90 22 178 Q22 252 42.5 317.5 Q63 383 99.5 432 Q136 481 185.5 509.5 Q235 538 293 538 Q334 538 363 524.5 Q392 511 411 491 L445 646 L432 663 L377 663 L391 730 L535 730 Q563 730 568.5 718 Q574 706 570 688 L441 80 L454 63 L509 63 L495 0 Z M142 185 Q142 131 161 105.5 Q180 80 220 80 Q244 80 277 98 Q310 116 339 151 L395 416 Q381 432 361 443 Q341 454 312 454 Q274 454 242.5 431 Q211 408 188.5 370.5 Q166 333 154 284.5 Q142 236 142 185 Z " />
<glyph glyph-name="Dcroat" unicode="&#x110;" horiz-adv-x="701" d="M56 387 L133 387 L182 617 L169 633 L114 633 L129 700 L408 700 Q469 700 518 684 Q567 668 601.5 636 Q636 604 655 556.5 Q674 509 674 446 Q674 339 646 256 Q618 173 566.5 116 Q515 59 442 29.5 Q369 0 279 0 L-20 0 L-5 67 L50 67 L69 83 L120 328 L41 328 L56 387 Z M258 387 L410 387 L395 328 L245 328 L192 81 L298 81 Q348 81 392.5 104.5 Q437 128 470.5 174 Q504 220 523.5 288.5 Q543 357 543 447 Q543 534 506.5 576.5 Q470 619 391 619 L308 619 L258 387 Z " />
<glyph glyph-name="dcroat" unicode="&#x111;" horiz-adv-x="575" d="M326 626 L440 626 L445 646 L432 663 L377 663 L391 730 L535 730 Q563 730 568.5 718 Q574 706 570 688 L557 626 L635 626 L624 573 L545 573 L441 80 L454 63 L509 63 L495 0 L401 0 Q385 0 370 1.5 Q355 3 343.5 8.5 Q332 14 326.5 25 Q321 36 324 56 L328 80 L325 80 Q297 42 258 16 Q219 -10 173 -10 Q102 -10 62 40 Q22 90 22 178 Q22 252 42.5 317.5 Q63 383 99.5 432 Q136 481 185.5 509.5 Q235 538 293 538 Q334 538 363 524.5 Q392 511 411 491 L428 573 L315 573 L326 626 Z M142 185 Q142 131 161 105.5 Q180 80 220 80 Q244 80 277 98 Q310 116 339 151 L395 416 Q381 432 361 443 Q341 454 312 454 Q274 454 242.5 431 Q211 408 188.5 370.5 Q166 333 154 284.5 Q142 236 142 185 Z " />
<glyph glyph-name="Emacron" unicode="&#x112;" horiz-adv-x="613" d="M307 622 L260 395 L403 395 L421 410 L432 464 L499 464 L454 252 L387 252 L398 306 L386 320 L243 320 L192 78 L436 78 L455 93 L473 178 L546 178 L508 0 L-21 0 L-6 67 L49 67 L68 83 L181 617 L168 633 L113 633 L128 700 L647 700 L609 523 L536 523 L553 607 L541 622 L307 622 Z M318 865 L571 865 L556 795 L303 795 L318 865 Z " />
<glyph glyph-name="emacron" unicode="&#x113;" horiz-adv-x="490" d="M223 -10 Q181 -10 145 1.5 Q109 13 82 37 Q55 61 39.5 99 Q24 137 24 191 Q24 273 47.5 337.5 Q71 402 111 446.5 Q151 491 202 514.5 Q253 538 309 538 Q381 538 427 504.5 Q473 471 473 408 Q473 372 457 343.5 Q441 315 415 294 Q389 273 355 258 Q321 243 284.5 233 Q248 223 211.5 217 Q175 211 144 207 L144 196 Q144 132 174 100.5 Q204 69 260 69 Q296 69 327.5 84 Q359 99 384 120 L413 76 Q399 61 381 45.5 Q363 30 339.5 17.5 Q316 5 287 -2.5 Q258 -10 223 -10 Z M300 466 Q276 466 252 454.5 Q228 443 207 419 Q186 395 170.5 358 Q155 321 148 269 Q179 273 216.5 279 Q254 285 286.5 298.5 Q319 312 341 335.5 Q363 359 363 398 Q363 432 346 449 Q329 466 300 466 Z M218 692 L471 692 L456 622 L203 622 L218 692 Z " />
<glyph glyph-name="Ebreve" unicode="&#x114;" horiz-adv-x="613" d="M307 622 L260 395 L403 395 L421 410 L432 464 L499 464 L454 252 L387 252 L398 306 L386 320 L243 320 L192 78 L436 78 L455 93 L473 178 L546 178 L508 0 L-21 0 L-6 67 L49 67 L68 83 L181 617 L168 633 L113 633 L128 700 L647 700 L609 523 L536 523 L553 607 L541 622 L307 622 Z M572 878 Q564 856 551 835.5 Q538 815 519.5 799.5 Q501 784 477 774.5 Q453 765 425 765 Q398 765 379 774.5 Q360 784 347.5 799.5 Q335 815 329 835.5 Q323 856 323 878 L379 894 Q380 869 392.5 850 Q405 831 436 831 Q468 831 489.5 849.5 Q511 868 522 891 L572 878 Z " />
<glyph glyph-name="ebreve" unicode="&#x115;" horiz-adv-x="490" d="M223 -10 Q181 -10 145 1.5 Q109 13 82 37 Q55 61 39.5 99 Q24 137 24 191 Q24 273 47.5 337.5 Q71 402 111 446.5 Q151 491 202 514.5 Q253 538 309 538 Q381 538 427 504.5 Q473 471 473 408 Q473 372 457 343.5 Q441 315 415 294 Q389 273 355 258 Q321 243 284.5 233 Q248 223 211.5 217 Q175 211 144 207 L144 196 Q144 132 174 100.5 Q204 69 260 69 Q296 69 327.5 84 Q359 99 384 120 L413 76 Q399 61 381 45.5 Q363 30 339.5 17.5 Q316 5 287 -2.5 Q258 -10 223 -10 Z M300 466 Q276 466 252 454.5 Q228 443 207 419 Q186 395 170.5 358 Q155 321 148 269 Q179 273 216.5 279 Q254 285 286.5 298.5 Q319 312 341 335.5 Q363 359 363 398 Q363 432 346 449 Q329 466 300 466 Z M472 705 Q464 683 451 662 Q438 641 419.5 625 Q401 609 377 599.5 Q353 590 325 590 Q298 590 279 599.5 Q260 609 248 625 Q236 641 230 661.5 Q224 682 224 705 L279 720 Q280 696 293 676.5 Q306 657 336 657 Q368 657 390 675.5 Q412 694 423 717 L472 705 Z " />
<glyph glyph-name="Edotaccent" unicode="&#x116;" horiz-adv-x="613" d="M367 822 Q367 853 389.5 876.5 Q412 900 450 900 Q477 900 493 883 Q509 866 509 843 Q509 812 485.5 789 Q462 766 424 766 Q397 766 382 782.5 Q367 799 367 822 Z M307 622 L260 395 L403 395 L421 410 L432 464 L499 464 L454 252 L387 252 L398 306 L386 320 L243 320 L192 78 L436 78 L455 93 L473 178 L546 178 L508 0 L-21 0 L-6 67 L49 67 L68 83 L181 617 L168 633 L113 633 L128 700 L647 700 L609 523 L536 523 L553 607 L541 622 L307 622 Z " />
<glyph glyph-name="edotaccent" unicode="&#x117;" horiz-adv-x="490" d="M223 -10 Q181 -10 145 1.5 Q109 13 82 37 Q55 61 39.5 99 Q24 137 24 191 Q24 273 47.5 337.5 Q71 402 111 446.5 Q151 491 202 514.5 Q253 538 309 538 Q381 538 427 504.5 Q473 471 473 408 Q473 372 457 343.5 Q441 315 415 294 Q389 273 355 258 Q321 243 284.5 233 Q248 223 211.5 217 Q175 211 144 207 L144 196 Q144 132 174 100.5 Q204 69 260 69 Q296 69 327.5 84 Q359 99 384 120 L413 76 Q399 61 381 45.5 Q363 30 339.5 17.5 Q316 5 287 -2.5 Q258 -10 223 -10 Z M300 466 Q276 466 252 454.5 Q228 443 207 419 Q186 395 170.5 358 Q155 321 148 269 Q179 273 216.5 279 Q254 285 286.5 298.5 Q319 312 341 335.5 Q363 359 363 398 Q363 432 346 449 Q329 466 300 466 Z M269 650 Q269 680 291.5 704 Q314 728 352 728 Q379 728 394.5 711.5 Q410 695 410 672 Q410 640 386.5 617 Q363 594 325 594 Q299 594 284 610.5 Q269 627 269 650 Z " />
<glyph glyph-name="Eogonek" unicode="&#x118;" horiz-adv-x="611" d="M306 622 L259 395 L402 395 L420 410 L431 464 L498 464 L453 252 L386 252 L397 306 L385 320 L242 320 L191 78 L435 78 L454 93 L472 178 L545 178 L507 0 L458 0 Q406 -10 370 -32.5 Q334 -55 334 -93 Q334 -117 347 -126.5 Q360 -136 383 -136 Q401 -136 421.5 -129 Q442 -122 451 -116 L461 -151 Q442 -163 412 -171.5 Q382 -180 350 -180 Q302 -180 276 -162.5 Q250 -145 250 -109 Q250 -71 276.5 -44 Q303 -17 344 0 L-22 0 L-7 67 L48 67 L67 83 L180 617 L167 633 L112 633 L127 700 L646 700 L608 523 L535 523 L552 607 L540 622 L306 622 Z " />
<glyph glyph-name="eogonek" unicode="&#x119;" horiz-adv-x="490" d="M226 -180 Q178 -180 152 -162 Q126 -144 126 -106 Q126 -74 143 -49.5 Q160 -25 188 -7 Q153 -3 122.5 10.5 Q92 24 70 48.5 Q48 73 35.5 108 Q23 143 23 191 Q23 273 46.5 337.5 Q70 402 110 446.5 Q150 491 201.5 514.5 Q253 538 309 538 Q345 538 374.5 529.5 Q404 521 426 504.5 Q448 488 460 463.5 Q472 439 472 408 Q472 353 438 317 Q404 281 354 258.5 Q304 236 247 224.5 Q190 213 143 208 L143 196 Q143 131 173.5 100 Q204 69 259 69 Q295 69 326.5 84 Q358 99 384 120 L413 76 Q393 54 365.5 33 Q338 12 296 0 Q258 -11 234 -36 Q210 -61 210 -90 Q210 -116 223 -126 Q236 -136 259 -136 Q276 -136 297 -129 Q318 -122 327 -116 L337 -151 Q318 -163 288 -171.5 Q258 -180 226 -180 Z M300 466 Q276 466 252 454.5 Q228 443 207 419 Q186 395 170.5 358 Q155 321 148 269 Q179 273 216.5 279 Q254 285 286.5 298.5 Q319 312 341 335.5 Q363 359 363 398 Q363 432 345.5 449 Q328 466 300 466 Z " />
<glyph glyph-name="Ecaron" unicode="&#x11a;" horiz-adv-x="613" d="M307 622 L260 395 L403 395 L421 410 L432 464 L499 464 L454 252 L387 252 L398 306 L386 320 L243 320 L192 78 L436 78 L455 93 L473 178 L546 178 L508 0 L-21 0 L-6 67 L49 67 L68 83 L181 617 L168 633 L113 633 L128 700 L647 700 L609 523 L536 523 L553 607 L541 622 L307 622 Z M444 752 L404 752 L309 900 L337 927 L351 927 L438 838 L562 927 L584 927 L601 900 L444 752 Z " />
<glyph glyph-name="ecaron" unicode="&#x11b;" horiz-adv-x="490" d="M345 579 L306 579 L211 727 L239 754 L253 754 L340 666 L464 754 L486 754 L503 727 L345 579 Z M223 -10 Q181 -10 145 1.5 Q109 13 82 37 Q55 61 39.5 99 Q24 137 24 191 Q24 273 47.5 337.5 Q71 402 111 446.5 Q151 491 202 514.5 Q253 538 309 538 Q381 538 427 504.5 Q473 471 473 408 Q473 372 457 343.5 Q441 315 415 294 Q389 273 355 258 Q321 243 284.5 233 Q248 223 211.5 217 Q175 211 144 207 L144 196 Q144 132 174 100.5 Q204 69 260 69 Q296 69 327.5 84 Q359 99 384 120 L413 76 Q399 61 381 45.5 Q363 30 339.5 17.5 Q316 5 287 -2.5 Q258 -10 223 -10 Z M300 466 Q276 466 252 454.5 Q228 443 207 419 Q186 395 170.5 358 Q155 321 148 269 Q179 273 216.5 279 Q254 285 286.5 298.5 Q319 312 341 335.5 Q363 359 363 398 Q363 432 346 449 Q329 466 300 466 Z " />
<glyph glyph-name="Gcircumflex" unicode="&#x11c;" horiz-adv-x="634" d="M331 751 L315 778 L472 926 L512 926 L607 778 L579 751 L565 751 L477 839 L354 751 L331 751 Z M493 24 Q462 11 418.5 0.5 Q375 -10 312 -10 Q247 -10 197.5 8.5 Q148 27 114 60.5 Q80 94 63 141 Q46 188 46 245 Q46 355 75 441.5 Q104 528 157 587.5 Q210 647 284 678.5 Q358 710 447 710 Q520 710 568 699.5 Q616 689 629 682 L594 516 L520 516 L539 605 L528 618 Q493 630 446 630 Q385 630 335.5 607.5 Q286 585 250.5 539 Q215 493 196 422 Q177 351 177 255 Q177 169 216 118 Q255 67 333 67 Q370 67 394 75 L433 260 L420 276 L371 276 L387 343 L615 343 L600 276 L560 276 L543 260 L493 24 Z " />
<glyph glyph-name="gcircumflex" unicode="&#x11d;" horiz-adv-x="537" d="M171 576 L155 603 L312 751 L352 751 L446 603 L419 576 L405 576 L317 665 L193 576 L171 576 Z M56 348 Q56 394 74 429.5 Q92 465 123 489 Q154 513 194 525.5 Q234 538 278 538 Q299 538 319 535.5 Q339 533 357 528 L546 528 L532 461 L459 461 L452 455 Q459 443 463 427.5 Q467 412 467 395 Q467 347 448.5 310.5 Q430 274 398.5 249.5 Q367 225 326.5 212 Q286 199 243 199 Q223 199 205 200.5 Q187 202 170 207 Q151 199 139.5 187 Q128 175 128 161 Q128 130 179 130 L313 130 Q379 130 422.5 100.5 Q466 71 466 5 Q466 -42 443.5 -76.5 Q421 -111 381.5 -134 Q342 -157 288 -168.5 Q234 -180 171 -180 Q127 -180 90 -174.5 Q53 -169 26.5 -156 Q0 -143 -15 -122 Q-30 -101 -30 -71 Q-30 -49 -20.5 -31.5 Q-11 -14 3.5 -0.5 Q18 13 35.5 22.5 Q53 32 70 38 Q22 60 22 114 Q22 185 116 230 Q88 248 72 277 Q56 306 56 348 Z M124 26 Q109 16 92 -3 Q75 -22 75 -53 Q75 -85 100.5 -103 Q126 -121 186 -121 Q261 -121 308.5 -97 Q356 -73 356 -28 Q356 3 336.5 14.5 Q317 26 272 26 L124 26 Z M166 352 Q166 307 187.5 284.5 Q209 262 247 262 Q295 262 326.5 295.5 Q358 329 358 385 Q358 432 336 453.5 Q314 475 274 475 Q227 475 196.5 441 Q166 407 166 352 Z " />
<glyph glyph-name="Gbreve" unicode="&#x11e;" horiz-adv-x="634" d="M493 24 Q462 11 418.5 0.5 Q375 -10 312 -10 Q247 -10 197.5 8.5 Q148 27 114 60.5 Q80 94 63 141 Q46 188 46 245 Q46 355 75 441.5 Q104 528 157 587.5 Q210 647 284 678.5 Q358 710 447 710 Q520 710 568 699.5 Q616 689 629 682 L594 516 L520 516 L539 605 L528 618 Q493 630 446 630 Q385 630 335.5 607.5 Q286 585 250.5 539 Q215 493 196 422 Q177 351 177 255 Q177 169 216 118 Q255 67 333 67 Q370 67 394 75 L433 260 L420 276 L371 276 L387 343 L615 343 L600 276 L560 276 L543 260 L493 24 Z M611 878 Q603 856 590 835.5 Q577 815 558.5 799.5 Q540 784 516 774.5 Q492 765 464 765 Q437 765 418 774.5 Q399 784 386.5 799.5 Q374 815 368 835.5 Q362 856 362 878 L418 894 Q419 869 431.5 850 Q444 831 475 831 Q507 831 528.5 849.5 Q550 868 561 891 L611 878 Z " />
<glyph glyph-name="gbreve" unicode="&#x11f;" horiz-adv-x="537" d="M56 348 Q56 394 74 429.5 Q92 465 123 489 Q154 513 194 525.5 Q234 538 278 538 Q299 538 319 535.5 Q339 533 357 528 L546 528 L532 461 L459 461 L452 455 Q459 443 463 427.5 Q467 412 467 395 Q467 347 448.5 310.5 Q430 274 398.5 249.5 Q367 225 326.5 212 Q286 199 243 199 Q223 199 205 200.5 Q187 202 170 207 Q151 199 139.5 187 Q128 175 128 161 Q128 130 179 130 L313 130 Q379 130 422.5 100.5 Q466 71 466 5 Q466 -42 443.5 -76.5 Q421 -111 381.5 -134 Q342 -157 288 -168.5 Q234 -180 171 -180 Q127 -180 90 -174.5 Q53 -169 26.5 -156 Q0 -143 -15 -122 Q-30 -101 -30 -71 Q-30 -49 -20.5 -31.5 Q-11 -14 3.5 -0.5 Q18 13 35.5 22.5 Q53 32 70 38 Q22 60 22 114 Q22 185 116 230 Q88 248 72 277 Q56 306 56 348 Z M124 26 Q109 16 92 -3 Q75 -22 75 -53 Q75 -85 100.5 -103 Q126 -121 186 -121 Q261 -121 308.5 -97 Q356 -73 356 -28 Q356 3 336.5 14.5 Q317 26 272 26 L124 26 Z M166 352 Q166 307 187.5 284.5 Q209 262 247 262 Q295 262 326.5 295.5 Q358 329 358 385 Q358 432 336 453.5 Q314 475 274 475 Q227 475 196.5 441 Q166 407 166 352 Z M450 705 Q442 683 429 662 Q416 641 397.5 625 Q379 609 355 599.5 Q331 590 303 590 Q276 590 257 599.5 Q238 609 226 625 Q214 641 208 661.5 Q202 682 202 705 L257 720 Q258 696 271 676.5 Q284 657 314 657 Q346 657 368 675.5 Q390 694 401 717 L450 705 Z " />
<glyph glyph-name="Gdotaccent" unicode="&#x120;" horiz-adv-x="634" d="M407 822 Q407 853 429.5 876.5 Q452 900 490 900 Q517 900 533 883 Q549 866 549 843 Q549 812 525.5 789 Q502 766 464 766 Q437 766 422 782.5 Q407 799 407 822 Z M493 24 Q462 11 418.5 0.5 Q375 -10 312 -10 Q247 -10 197.5 8.5 Q148 27 114 60.5 Q80 94 63 141 Q46 188 46 245 Q46 355 75 441.5 Q104 528 157 587.5 Q210 647 284 678.5 Q358 710 447 710 Q520 710 568 699.5 Q616 689 629 682 L594 516 L520 516 L539 605 L528 618 Q493 630 446 630 Q385 630 335.5 607.5 Q286 585 250.5 539 Q215 493 196 422 Q177 351 177 255 Q177 169 216 118 Q255 67 333 67 Q370 67 394 75 L433 260 L420 276 L371 276 L387 343 L615 343 L600 276 L560 276 L543 260 L493 24 Z " />
<glyph glyph-name="gdotaccent" unicode="&#x121;" horiz-adv-x="537" d="M56 348 Q56 394 74 429.5 Q92 465 123 489 Q154 513 194 525.5 Q234 538 278 538 Q299 538 319 535.5 Q339 533 357 528 L546 528 L532 461 L459 461 L452 455 Q459 443 463 427.5 Q467 412 467 395 Q467 347 448.5 310.5 Q430 274 398.5 249.5 Q367 225 326.5 212 Q286 199 243 199 Q223 199 205 200.5 Q187 202 170 207 Q151 199 139.5 187 Q128 175 128 161 Q128 130 179 130 L313 130 Q379 130 422.5 100.5 Q466 71 466 5 Q466 -42 443.5 -76.5 Q421 -111 381.5 -134 Q342 -157 288 -168.5 Q234 -180 171 -180 Q127 -180 90 -174.5 Q53 -169 26.5 -156 Q0 -143 -15 -122 Q-30 -101 -30 -71 Q-30 -49 -20.5 -31.5 Q-11 -14 3.5 -0.5 Q18 13 35.5 22.5 Q53 32 70 38 Q22 60 22 114 Q22 185 116 230 Q88 248 72 277 Q56 306 56 348 Z M124 26 Q109 16 92 -3 Q75 -22 75 -53 Q75 -85 100.5 -103 Q126 -121 186 -121 Q261 -121 308.5 -97 Q356 -73 356 -28 Q356 3 336.5 14.5 Q317 26 272 26 L124 26 Z M166 352 Q166 307 187.5 284.5 Q209 262 247 262 Q295 262 326.5 295.5 Q358 329 358 385 Q358 432 336 453.5 Q314 475 274 475 Q227 475 196.5 441 Q166 407 166 352 Z M248 650 Q248 680 270.5 704 Q293 728 331 728 Q358 728 373.5 711.5 Q389 695 389 672 Q389 640 365.5 617 Q342 594 304 594 Q278 594 263 610.5 Q248 627 248 650 Z " />
<glyph glyph-name="uni0122" unicode="&#x122;" horiz-adv-x="634" d="M255 -202 L253 -181 Q232 -169 232 -141 Q232 -115 251 -94.5 Q270 -74 302 -74 Q327 -74 342 -87.5 Q357 -101 357 -123 Q357 -138 350.5 -151 Q344 -164 335 -176 L255 -281 Q254 -281 248.5 -277.5 Q243 -274 235 -269 Q226 -264 216 -257 L255 -202 Z M493 24 Q462 11 418.5 0.5 Q375 -10 312 -10 Q247 -10 197.5 8.5 Q148 27 114 60.5 Q80 94 63 141 Q46 188 46 245 Q46 355 75 441.5 Q104 528 157 587.5 Q210 647 284 678.5 Q358 710 447 710 Q520 710 568 699.5 Q616 689 629 682 L594 516 L520 516 L539 605 L528 618 Q493 630 446 630 Q385 630 335.5 607.5 Q286 585 250.5 539 Q215 493 196 422 Q177 351 177 255 Q177 169 216 118 Q255 67 333 67 Q370 67 394 75 L433 260 L420 276 L371 276 L387 343 L615 343 L600 276 L560 276 L543 260 L493 24 Z " />
<glyph glyph-name="uni0123" unicode="&#x123;" horiz-adv-x="537" d="M385 662 Q385 636 366 615 Q347 594 314 594 Q289 594 274.5 608 Q260 622 260 643 Q260 659 266.5 671.5 Q273 684 281 696 L361 799 L399 776 L361 723 L364 701 Q385 688 385 662 Z M56 348 Q56 394 74 429.5 Q92 465 123 489 Q154 513 194 525.5 Q234 538 278 538 Q299 538 319 535.5 Q339 533 357 528 L546 528 L532 461 L459 461 L452 455 Q459 443 463 427.5 Q467 412 467 395 Q467 347 448.5 310.5 Q430 274 398.5 249.5 Q367 225 326.5 212 Q286 199 243 199 Q223 199 205 200.5 Q187 202 170 207 Q151 199 139.5 187 Q128 175 128 161 Q128 130 179 130 L313 130 Q379 130 422.5 100.5 Q466 71 466 5 Q466 -42 443.5 -76.5 Q421 -111 381.5 -134 Q342 -157 288 -168.5 Q234 -180 171 -180 Q127 -180 90 -174.5 Q53 -169 26.5 -156 Q0 -143 -15 -122 Q-30 -101 -30 -71 Q-30 -49 -20.5 -31.5 Q-11 -14 3.5 -0.5 Q18 13 35.5 22.5 Q53 32 70 38 Q22 60 22 114 Q22 185 116 230 Q88 248 72 277 Q56 306 56 348 Z M124 26 Q109 16 92 -3 Q75 -22 75 -53 Q75 -85 100.5 -103 Q126 -121 186 -121 Q261 -121 308.5 -97 Q356 -73 356 -28 Q356 3 336.5 14.5 Q317 26 272 26 L124 26 Z M166 352 Q166 307 187.5 284.5 Q209 262 247 262 Q295 262 326.5 295.5 Q358 329 358 385 Q358 432 336 453.5 Q314 475 274 475 Q227 475 196.5 441 Q166 407 166 352 Z " />
<glyph glyph-name="Hcircumflex" unicode="&#x124;" horiz-adv-x="728" d="M494 317 L241 317 L192 83 L203 67 L259 67 L244 0 L-22 0 L-6 67 L48 67 L67 83 L181 617 L168 633 L113 633 L127 700 L393 700 L379 633 L323 633 L305 617 L259 398 L511 398 L557 617 L546 633 L491 633 L505 700 L771 700 L756 633 L701 633 L682 617 L569 83 L581 67 L637 67 L622 0 L356 0 L371 67 L426 67 L444 83 L494 317 Z M329 751 L313 778 L470 926 L510 926 L605 778 L577 751 L563 751 L475 839 L352 751 L329 751 Z " />
<glyph glyph-name="hcircumflex" unicode="&#x125;" horiz-adv-x="572" d="M81 773 L65 800 L222 948 L262 948 L356 800 L329 773 L315 773 L227 862 L103 773 L81 773 Z M239 730 Q265 730 271 718 Q277 706 273 688 L223 451 Q236 467 253.5 482.5 Q271 498 291.5 510.5 Q312 523 336.5 530.5 Q361 538 389 538 Q449 538 480 505 Q511 472 511 417 Q511 394 505 367 L444 80 L457 63 L513 63 L499 0 L400 0 Q380 0 364 2.5 Q348 5 338 13 Q328 21 324.5 36.5 Q321 52 327 78 L387 359 Q389 368 390 377 Q391 386 391 394 Q391 417 380 432 Q369 447 335 447 Q300 447 265.5 426 Q231 405 207 378 L127 0 L10 0 L148 647 L136 663 L80 663 L95 730 L239 730 Z " />
<glyph glyph-name="Hbar" unicode="&#x126;" horiz-adv-x="728" d="M95 550 L167 550 L182 617 L169 633 L114 633 L128 700 L394 700 L380 633 L324 633 L306 617 L292 550 L544 550 L558 617 L547 633 L492 633 L506 700 L772 700 L757 633 L702 633 L683 617 L668 550 L739 550 L725 491 L656 491 L570 83 L582 67 L638 67 L623 0 L357 0 L372 67 L427 67 L445 83 L495 317 L242 317 L193 83 L204 67 L260 67 L245 0 L-21 0 L-5 67 L49 67 L68 83 L155 491 L79 491 L95 550 Z M512 398 L531 491 L279 491 L260 398 L512 398 Z " />
<glyph glyph-name="hbar" unicode="&#x127;" horiz-adv-x="572" d="M239 730 Q265 730 271 718 Q277 706 273 688 L260 626 L378 626 L368 573 L248 573 L223 451 Q236 467 253.5 482.5 Q271 498 291.5 510.5 Q312 523 336.5 530.5 Q361 538 389 538 Q449 538 480 505 Q511 472 511 417 Q511 394 505 367 L444 80 L457 63 L513 63 L499 0 L400 0 Q380 0 364 2.5 Q348 5 338 13 Q328 21 324.5 36.5 Q321 52 327 78 L387 359 Q389 368 390 377 Q391 386 391 394 Q391 417 380 432 Q369 447 335 447 Q300 447 265.5 426 Q231 405 207 378 L127 0 L10 0 L132 573 L60 573 L71 626 L143 626 L148 647 L136 663 L80 663 L95 730 L239 730 Z " />
<glyph glyph-name="Itilde" unicode="&#x128;" horiz-adv-x="351" d="M181 617 L168 633 L113 633 L128 700 L394 700 L379 633 L323 633 L305 617 L192 83 L204 67 L260 67 L245 0 L-21 0 L-6 67 L49 67 L68 83 L181 617 Z M458 897 L449 856 Q439 811 417 789.5 Q395 768 353 768 Q334 768 316 775 Q298 782 280 790 Q262 798 245 805 Q228 812 211 812 Q194 812 185.5 805 Q177 798 176 793 L167 757 L116 757 L124 796 Q135 847 157 869 Q179 891 218 891 Q237 891 255 883.5 Q273 876 291 866.5 Q309 857 327.5 849.5 Q346 842 366 842 Q386 842 393.5 851 Q401 860 402 865 L409 897 L458 897 Z " />
<glyph glyph-name="itilde" unicode="&#x129;" horiz-adv-x="297" d="M121 444 L109 461 L53 461 L68 528 L213 528 Q241 528 246 515 Q251 502 247 485 L161 80 L174 63 L229 63 L216 0 L117 0 Q98 0 82.5 2 Q67 4 56.5 12 Q46 20 42 35.5 Q38 51 44 78 L121 444 Z M277 668 Q296 668 303.5 676 Q311 684 313 691 L320 723 L369 723 L360 682 Q350 636 328 614.5 Q306 593 264 593 Q245 593 226.5 600 Q208 607 190 615.5 Q172 624 155 631 Q138 638 121 638 Q104 638 96 632 Q88 626 86 619 L78 583 L27 583 L35 621 Q46 673 68 695 Q90 717 128 717 Q147 717 165 709.5 Q183 702 201.5 692.5 Q220 683 238.5 675.5 Q257 668 277 668 Z " />
<glyph glyph-name="Imacron" unicode="&#x12a;" horiz-adv-x="351" d="M181 617 L168 633 L113 633 L128 700 L394 700 L379 633 L323 633 L305 617 L192 83 L204 67 L260 67 L245 0 L-21 0 L-6 67 L49 67 L68 83 L181 617 Z M173 865 L426 865 L411 795 L158 795 L173 865 Z " />
<glyph glyph-name="imacron" unicode="&#x12b;" horiz-adv-x="296" d="M120 444 L108 461 L52 461 L67 528 L212 528 Q240 528 245 515 Q250 502 246 485 L160 80 L173 63 L228 63 L215 0 L116 0 Q97 0 81.5 2 Q66 4 55.5 12 Q45 20 41 35.5 Q37 51 43 78 L120 444 Z M79 692 L332 692 L317 622 L64 622 L79 692 Z " />
<glyph glyph-name="Iogonek" unicode="&#x12e;" horiz-adv-x="350" d="M180 617 L167 633 L112 633 L127 700 L393 700 L378 633 L322 633 L304 617 L191 83 L203 67 L259 67 L244 0 L187 0 Q134 -10 98.5 -32.5 Q63 -55 63 -93 Q63 -117 76.5 -126.5 Q90 -136 113 -136 Q130 -136 150.5 -129 Q171 -122 181 -116 L191 -151 Q172 -163 141.5 -171.5 Q111 -180 79 -180 Q31 -180 5 -162.5 Q-21 -145 -21 -109 Q-21 -71 5.5 -44 Q32 -17 73 0 L-22 0 L-7 67 L48 67 L67 83 L180 617 Z " />
<glyph glyph-name="iogonek" unicode="&#x12f;" horiz-adv-x="296" d="M120 444 L108 461 L52 461 L67 528 L212 528 Q240 528 245 515 Q250 502 246 485 L160 80 L173 63 L228 63 L215 0 L187 0 Q135 -10 100 -32.5 Q65 -55 65 -93 Q65 -117 78 -126.5 Q91 -136 114 -136 Q131 -136 151 -129 Q171 -122 180 -116 L190 -151 Q171 -163 141.5 -171.5 Q112 -180 81 -180 Q33 -180 6.5 -162.5 Q-20 -145 -20 -109 Q-20 -69 8 -42 Q36 -15 78 2 Q55 7 45 23.5 Q35 40 43 78 L120 444 Z M148 657 Q148 693 167.5 715 Q187 737 229 737 Q258 737 273 722.5 Q288 708 288 685 Q288 650 268.5 627.5 Q249 605 207 605 Q178 605 163 620 Q148 635 148 657 Z " />
<glyph glyph-name="Idotaccent" unicode="&#x130;" horiz-adv-x="351" d="M181 617 L168 633 L113 633 L128 700 L394 700 L379 633 L323 633 L305 617 L192 83 L204 67 L260 67 L245 0 L-21 0 L-6 67 L49 67 L68 83 L181 617 Z M222 822 Q222 853 244.5 876.5 Q267 900 305 900 Q332 900 348 883 Q364 866 364 843 Q364 812 340.5 789 Q317 766 279 766 Q252 766 237 782.5 Q222 799 222 822 Z " />
<glyph glyph-name="dotlessi" unicode="&#x131;" horiz-adv-x="297" d="M120 444 L108 461 L52 461 L67 528 L212 528 Q240 528 245 515 Q250 502 246 485 L160 80 L173 63 L228 63 L215 0 L116 0 Q97 0 81.5 2 Q66 4 55.5 12 Q45 20 41 35.5 Q37 51 43 78 L120 444 Z " />
<glyph glyph-name="IJ" unicode="&#x132;" horiz-adv-x="660" d="M173 617 L160 633 L105 633 L120 700 L386 700 L371 633 L316 633 L297 617 L234 310 L245 294 L301 294 L286 227 L20 227 L35 294 L90 294 L109 310 L173 617 Z M502 617 L490 633 L435 633 L450 700 L715 700 L701 633 L645 633 L627 617 L537 193 Q517 97 450.5 43.5 Q384 -10 272 -10 Q220 -10 185 -2 Q150 6 128 16 Q106 26 95 35 Q84 44 81 46 L112 187 L193 187 L175 101 L184 87 Q200 77 220 73.5 Q240 70 260 70 Q326 70 362 98 Q398 126 410 183 L502 617 Z " />
<glyph glyph-name="ij" unicode="&#x133;" horiz-adv-x="579" d="M121 444 L109 461 L53 461 L68 528 L213 528 Q241 528 246 515 Q251 502 247 485 L161 80 L174 63 L229 63 L216 0 L117 0 Q98 0 82.5 2 Q67 4 56.5 12 Q46 20 42 35.5 Q38 51 44 78 L121 444 Z M149 657 Q149 693 168.5 715 Q188 737 230 737 Q259 737 274 722.5 Q289 708 289 685 Q289 650 269.5 627.5 Q250 605 208 605 Q179 605 164 620 Q149 635 149 657 Z M511 528 Q539 528 544 515 Q549 502 545 485 L443 5 Q434 -37 419 -71 Q404 -105 379.5 -129.5 Q355 -154 319 -167 Q283 -180 233 -180 Q190 -180 168 -175.5 Q146 -171 143 -171 L165 -63 L234 -63 L224 -111 L234 -123 Q235 -124 240 -124 Q257 -124 270 -114.5 Q283 -105 293.5 -88.5 Q304 -72 311.5 -49.5 Q319 -27 325 -2 L419 444 L408 461 L349 461 L364 528 L511 528 Z M446 657 Q446 693 466 715 Q486 737 528 737 Q557 737 572 722.5 Q587 708 587 685 Q587 650 567 627.5 Q547 605 505 605 Q477 605 461.5 620 Q446 635 446 657 Z " />
<glyph glyph-name="Jcircumflex" unicode="&#x134;" horiz-adv-x="518" d="M358 617 L346 633 L291 633 L306 700 L572 700 L557 633 L501 633 L482 617 L393 193 Q373 97 311.5 43.5 Q250 -10 146 -10 Q99 -10 66.5 -2 Q34 6 14 16 Q-6 26 -16 35 Q-26 44 -29 46 L2 190 L84 190 L65 101 L74 87 Q101 71 134 71 Q192 71 223.5 98.5 Q255 126 266 183 L358 617 Z M323 751 L307 778 L464 926 L504 926 L599 778 L571 751 L557 751 L469 839 L346 751 L323 751 Z " />
<glyph glyph-name="jcircumflex" unicode="&#x135;" horiz-adv-x="281" d="M61 576 L45 603 L202 751 L242 751 L336 603 L309 576 L295 576 L207 665 L83 576 L61 576 Z M146 5 Q137 -37 122 -71 Q107 -105 82.5 -129.5 Q58 -154 22 -167 Q-14 -180 -64 -180 Q-106 -180 -128.5 -175.5 Q-151 -171 -153 -171 L-131 -63 L-63 -63 L-73 -111 L-63 -123 Q-61 -124 -57 -124 Q-40 -124 -26.5 -114.5 Q-13 -105 -3 -88.5 Q7 -72 14.5 -49.5 Q22 -27 28 -2 L122 444 L110 461 L54 461 L69 528 L213 528 Q241 528 246.5 515 Q252 502 248 485 L146 5 Z " />
<glyph glyph-name="uni0136" unicode="&#x136;" horiz-adv-x="692" d="M245 -202 L243 -181 Q222 -169 222 -141 Q222 -115 241 -94.5 Q260 -74 292 -74 Q317 -74 332 -87.5 Q347 -101 347 -123 Q347 -138 340.5 -151 Q334 -164 325 -176 L245 -281 Q244 -281 238.5 -277.5 Q233 -274 225 -269 Q216 -264 206 -257 L245 -202 Z M245 0 L-21 0 L-6 67 L49 67 L68 83 L181 617 L168 633 L113 633 L128 700 L394 700 L379 633 L323 633 L306 617 L258 393 L328 393 L561 623 L555 633 L510 633 L525 700 L755 700 L740 633 L691 633 L670 621 L426 384 L567 80 L580 67 L632 67 L618 0 L359 0 L374 67 L426 67 L433 74 L323 323 L243 323 L192 82 L204 67 L259 67 L245 0 Z " />
<glyph glyph-name="uni0137" unicode="&#x137;" horiz-adv-x="573" d="M185 -202 L183 -181 Q162 -169 162 -141 Q162 -115 181 -94.5 Q200 -74 232 -74 Q257 -74 272 -87.5 Q287 -101 287 -123 Q287 -138 280.5 -151 Q274 -164 265 -176 L185 -281 Q184 -281 178.5 -277.5 Q173 -274 165 -269 Q156 -264 146 -257 L185 -202 Z M341 313 L452 76 L465 63 L516 63 L503 0 L408 0 Q388 0 374 4.5 Q360 9 350 18 Q340 27 332.5 40.5 Q325 54 318 72 L238 258 L182 258 L127 0 L10 0 L148 647 L136 663 L80 663 L95 730 L239 730 Q265 730 271 718 Q277 706 273 688 L194 317 L243 317 L409 454 L405 461 L361 461 L375 528 L596 528 L582 461 L531 461 L512 452 L341 313 Z " />
<glyph glyph-name="kgreenlandic" unicode="&#x138;" horiz-adv-x="586" d="M209 317 L260 317 L426 454 L422 461 L388 461 L403 528 L613 528 L598 461 L547 461 L526 450 L357 316 L469 76 L482 63 L528 63 L515 0 L423 0 Q403 0 389 4.5 Q375 9 365 18 Q355 27 347 40.5 Q339 54 332 72 L253 258 L197 258 L142 0 L25 0 L120 444 L108 461 L52 461 L67 528 L211 528 Q239 528 244 515 Q249 502 245 485 L209 317 Z " />
<glyph glyph-name="Lacute" unicode="&#x139;" horiz-adv-x="561" d="M274 752 L249 788 L397 924 L421 924 L461 856 L293 752 L274 752 Z M192 80 L403 80 L423 96 L443 188 L515 188 L475 0 L-21 0 L-6 67 L49 67 L68 83 L181 617 L168 633 L113 633 L128 700 L394 700 L379 633 L323 633 L305 617 L192 80 Z " />
<glyph glyph-name="lacute" unicode="&#x13a;" horiz-adv-x="280" d="M368 947 L408 880 L239 775 L221 775 L195 811 L344 947 L368 947 Z M148 647 L136 663 L80 663 L94 730 L239 730 Q267 730 272 717.5 Q277 705 274 688 L144 80 L157 63 L212 63 L198 0 L100 0 Q82 0 66 2.5 Q50 5 39.5 13 Q29 21 25 36 Q21 51 27 77 L148 647 Z " />
<glyph glyph-name="uni013B" unicode="&#x13b;" horiz-adv-x="561" d="M213 -202 L211 -181 Q190 -169 190 -141 Q190 -115 209 -94.5 Q228 -74 260 -74 Q285 -74 300 -87.5 Q315 -101 315 -123 Q315 -138 308.5 -151 Q302 -164 293 -176 L213 -281 Q212 -281 206.5 -277.5 Q201 -274 193 -269 Q184 -264 174 -257 L213 -202 Z M192 80 L403 80 L423 96 L443 188 L515 188 L475 0 L-21 0 L-6 67 L49 67 L68 83 L181 617 L168 633 L113 633 L128 700 L394 700 L379 633 L323 633 L305 617 L192 80 Z " />
<glyph glyph-name="uni013C" unicode="&#x13c;" horiz-adv-x="281" d="M23 -202 L21 -181 Q0 -169 0 -141 Q0 -115 19 -94.5 Q38 -74 70 -74 Q95 -74 110 -87.5 Q125 -101 125 -123 Q125 -138 118.5 -151 Q112 -164 103 -176 L23 -281 Q22 -281 16.5 -277.5 Q11 -274 3 -269 Q-6 -264 -16 -257 L23 -202 Z M148 647 L136 663 L80 663 L94 730 L239 730 Q267 730 272 717.5 Q277 705 274 688 L144 80 L157 63 L212 63 L198 0 L100 0 Q82 0 66 2.5 Q50 5 39.5 13 Q29 21 25 36 Q21 51 27 77 L148 647 Z " />
<glyph glyph-name="Lcaron" unicode="&#x13d;" horiz-adv-x="563" d="M477 582 L517 780 L600 780 L585 708 L545 582 L477 582 Z M191 80 L402 80 L422 96 L442 188 L514 188 L474 0 L-22 0 L-7 67 L48 67 L67 83 L180 617 L167 633 L112 633 L127 700 L393 700 L378 633 L322 633 L304 617 L191 80 Z " />
<glyph glyph-name="lcaron" unicode="&#x13e;" horiz-adv-x="307" d="M313 582 L353 780 L436 780 L421 708 L381 582 L313 582 Z M148 647 L136 663 L80 663 L94 730 L239 730 Q267 730 272 717.5 Q277 705 274 688 L144 80 L157 63 L212 63 L198 0 L100 0 Q82 0 66 2.5 Q50 5 39.5 13 Q29 21 25 36 Q21 51 27 77 L148 647 Z " />
<glyph glyph-name="Ldot" unicode="&#x13f;" horiz-adv-x="579" d="M402 364 Q402 394 424.5 418 Q447 442 485 442 Q512 442 528 425 Q544 408 544 385 Q544 354 520.5 331 Q497 308 459 308 Q432 308 417 324.5 Q402 341 402 364 Z M192 80 L403 80 L423 96 L443 188 L515 188 L475 0 L-21 0 L-6 67 L49 67 L68 83 L181 617 L168 633 L113 633 L128 700 L394 700 L379 633 L323 633 L305 617 L192 80 Z " />
<glyph glyph-name="ldot" unicode="&#x140;" horiz-adv-x="381" d="M269 356 Q269 386 291.5 410 Q314 434 352 434 Q379 434 395 417 Q411 400 411 377 Q411 346 387.5 323 Q364 300 326 300 Q299 300 284 316.5 Q269 333 269 356 Z M148 647 L136 663 L80 663 L94 730 L239 730 Q267 730 272 717.5 Q277 705 274 688 L144 80 L157 63 L212 63 L198 0 L100 0 Q82 0 66 2.5 Q50 5 39.5 13 Q29 21 25 36 Q21 51 27 77 L148 647 Z " />
<glyph glyph-name="Lslash" unicode="&#x141;" horiz-adv-x="562" d="M264 416 L397 481 L381 406 L248 341 L193 80 L405 80 L424 96 L444 188 L517 188 L476 0 L-20 0 L-4 67 L50 67 L69 83 L110 277 L20 233 L35 308 L126 352 L182 617 L170 633 L114 633 L129 700 L395 700 L380 633 L325 633 L307 617 L264 416 Z " />
<glyph glyph-name="lslash" unicode="&#x142;" horiz-adv-x="311" d="M20 309 L106 354 L169 647 L157 663 L100 663 L115 730 L260 730 Q287 730 292.5 717.5 Q298 705 294 688 L237 421 L341 477 L324 401 L221 346 L164 80 L177 63 L233 63 L219 0 L120 0 Q102 0 86 2.5 Q70 5 59.5 13 Q49 21 45.5 36 Q42 51 47 77 L90 279 L4 233 L20 309 Z " />
<glyph glyph-name="Nacute" unicode="&#x143;" horiz-adv-x="713" d="M439 752 L414 788 L562 924 L586 924 L626 856 L458 752 L439 752 Z M474 -3 L250 511 L159 83 L172 67 L227 67 L213 0 L-22 0 L-7 67 L47 67 L66 83 L180 617 L167 633 L112 633 L127 700 L292 700 L498 221 L582 617 L570 633 L515 633 L530 700 L764 700 L749 633 L694 633 L675 617 L544 -3 L474 -3 Z " />
<glyph glyph-name="nacute" unicode="&#x144;" horiz-adv-x="587" d="M502 751 L542 684 L373 579 L355 579 L329 615 L478 751 L502 751 Z M24 0 L120 444 L107 461 L50 461 L66 528 L207 528 Q234 528 239 515.5 Q244 503 241 486 L232 449 L236 449 Q250 465 267 481 Q284 497 305 510 Q326 523 350.5 530.5 Q375 538 404 538 Q464 538 495 505 Q526 472 526 417 Q526 394 520 367 L459 80 L472 63 L527 63 L514 0 L415 0 Q396 0 380 2 Q364 4 353.5 12 Q343 20 339.5 35.5 Q336 51 342 78 L402 359 Q404 368 405 377 Q406 386 406 394 Q406 417 395 432 Q384 447 350 447 Q333 447 315.5 441.5 Q298 436 281 426.5 Q264 417 249 404.5 Q234 392 222 379 L141 0 L24 0 Z " />
<glyph glyph-name="uni0145" unicode="&#x145;" horiz-adv-x="713" d="M248 -202 L246 -181 Q225 -169 225 -141 Q225 -115 244 -94.5 Q263 -74 295 -74 Q320 -74 335 -87.5 Q350 -101 350 -123 Q350 -138 343.5 -151 Q337 -164 328 -176 L248 -281 Q247 -281 241.5 -277.5 Q236 -274 228 -269 Q219 -264 209 -257 L248 -202 Z M474 -3 L250 511 L159 83 L172 67 L227 67 L213 0 L-22 0 L-7 67 L47 67 L66 83 L180 617 L167 633 L112 633 L127 700 L292 700 L498 221 L582 617 L570 633 L515 633 L530 700 L764 700 L749 633 L694 633 L675 617 L544 -3 L474 -3 Z " />
<glyph glyph-name="uni0146" unicode="&#x146;" horiz-adv-x="587" d="M190 -202 L188 -181 Q167 -169 167 -141 Q167 -115 186 -94.5 Q205 -74 237 -74 Q262 -74 277 -87.5 Q292 -101 292 -123 Q292 -138 285.5 -151 Q279 -164 270 -176 L190 -281 Q189 -281 183.5 -277.5 Q178 -274 170 -269 Q161 -264 151 -257 L190 -202 Z M24 0 L120 444 L107 461 L50 461 L66 528 L207 528 Q234 528 239 515.5 Q244 503 241 486 L232 449 L236 449 Q250 465 267 481 Q284 497 305 510 Q326 523 350.5 530.5 Q375 538 404 538 Q464 538 495 505 Q526 472 526 417 Q526 394 520 367 L459 80 L472 63 L527 63 L514 0 L415 0 Q396 0 380 2 Q364 4 353.5 12 Q343 20 339.5 35.5 Q336 51 342 78 L402 359 Q404 368 405 377 Q406 386 406 394 Q406 417 395 432 Q384 447 350 447 Q333 447 315.5 441.5 Q298 436 281 426.5 Q264 417 249 404.5 Q234 392 222 379 L141 0 L24 0 Z " />
<glyph glyph-name="Ncaron" unicode="&#x147;" horiz-adv-x="713" d="M474 -3 L250 511 L159 83 L172 67 L227 67 L213 0 L-22 0 L-7 67 L47 67 L66 83 L180 617 L167 633 L112 633 L127 700 L292 700 L498 221 L582 617 L570 633 L515 633 L530 700 L764 700 L749 633 L694 633 L675 617 L544 -3 L474 -3 Z M462 752 L422 752 L327 900 L355 927 L369 927 L456 838 L580 927 L602 927 L619 900 L462 752 Z " />
<glyph glyph-name="ncaron" unicode="&#x148;" horiz-adv-x="587" d="M390 579 L351 579 L256 727 L284 754 L298 754 L385 666 L509 754 L531 754 L548 727 L390 579 Z M24 0 L120 444 L107 461 L50 461 L66 528 L207 528 Q234 528 239 515.5 Q244 503 241 486 L232 449 L236 449 Q250 465 267 481 Q284 497 305 510 Q326 523 350.5 530.5 Q375 538 404 538 Q464 538 495 505 Q526 472 526 417 Q526 394 520 367 L459 80 L472 63 L527 63 L514 0 L415 0 Q396 0 380 2 Q364 4 353.5 12 Q343 20 339.5 35.5 Q336 51 342 78 L402 359 Q404 368 405 377 Q406 386 406 394 Q406 417 395 432 Q384 447 350 447 Q333 447 315.5 441.5 Q298 436 281 426.5 Q264 417 249 404.5 Q234 392 222 379 L141 0 L24 0 Z " />
<glyph glyph-name="napostrophe" unicode="&#x149;" horiz-adv-x="587" d="M120 655 L118 676 Q97 688 97 716 Q97 742 116 762.5 Q135 783 167 783 Q192 783 207 769.5 Q222 756 222 734 Q222 719 215.5 706 Q209 693 200 681 L120 576 Q119 576 113.5 579.5 Q108 583 100 588 Q91 593 81 600 L120 655 Z M24 0 L120 444 L107 461 L50 461 L66 528 L207 528 Q234 528 239 515.5 Q244 503 241 486 L232 449 L236 449 Q250 465 267 481 Q284 497 305 510 Q326 523 350.5 530.5 Q375 538 404 538 Q464 538 495 505 Q526 472 526 417 Q526 394 520 367 L459 80 L472 63 L527 63 L514 0 L415 0 Q396 0 380 2 Q364 4 353.5 12 Q343 20 339.5 35.5 Q336 51 342 78 L402 359 Q404 368 405 377 Q406 386 406 394 Q406 417 395 432 Q384 447 350 447 Q333 447 315.5 441.5 Q298 436 281 426.5 Q264 417 249 404.5 Q234 392 222 379 L141 0 L24 0 Z " />
<glyph glyph-name="Omacron" unicode="&#x14c;" horiz-adv-x="676" d="M405 710 Q468 710 514.5 690 Q561 670 591.5 635.5 Q622 601 637 554 Q652 507 652 453 Q652 376 630.5 294.5 Q609 213 565 145 Q521 77 453.5 33.5 Q386 -10 294 -10 Q231 -10 184 9.5 Q137 29 106 63.5 Q75 98 60 144.5 Q45 191 45 245 Q45 322 66 404.5 Q87 487 131 555 Q175 623 243 666.5 Q311 710 405 710 Z M399 626 Q359 626 326.5 606 Q294 586 269 553 Q244 520 226.5 478 Q209 436 197.5 391 Q186 346 180.5 302 Q175 258 175 222 Q175 151 203 112.5 Q231 74 297 74 Q337 74 369 93.5 Q401 113 426 145.5 Q451 178 469 220 Q487 262 498.5 306.5 Q510 351 515.5 394.5 Q521 438 521 474 Q521 548 493.5 587 Q466 626 399 626 Z M336 865 L589 865 L574 795 L321 795 L336 865 Z " />
<glyph glyph-name="omacron" unicode="&#x14d;" horiz-adv-x="548" d="M230 692 L483 692 L468 622 L215 622 L230 692 Z M145 197 Q145 129 165 98 Q185 67 232 67 Q269 67 298 92 Q327 117 347 156.5 Q367 196 377 245 Q387 294 387 342 Q387 401 367.5 431 Q348 461 301 461 Q263 461 233.5 436 Q204 411 184.5 372.5 Q165 334 155 287.5 Q145 241 145 197 Z M25 201 Q25 284 49 347 Q73 410 112 452.5 Q151 495 201 516.5 Q251 538 304 538 Q347 538 384 525.5 Q421 513 448.5 487.5 Q476 462 491.5 423.5 Q507 385 507 333 Q507 249 483 184.5 Q459 120 420 77 Q381 34 330.5 12 Q280 -10 228 -10 Q185 -10 148 3 Q111 16 83.5 42 Q56 68 40.5 107.5 Q25 147 25 201 Z " />
<glyph glyph-name="Obreve" unicode="&#x14e;" horiz-adv-x="676" d="M405 710 Q468 710 514.5 690 Q561 670 591.5 635.5 Q622 601 637 554 Q652 507 652 453 Q652 376 630.5 294.5 Q609 213 565 145 Q521 77 453.5 33.5 Q386 -10 294 -10 Q231 -10 184 9.5 Q137 29 106 63.5 Q75 98 60 144.5 Q45 191 45 245 Q45 322 66 404.5 Q87 487 131 555 Q175 623 243 666.5 Q311 710 405 710 Z M399 626 Q359 626 326.5 606 Q294 586 269 553 Q244 520 226.5 478 Q209 436 197.5 391 Q186 346 180.5 302 Q175 258 175 222 Q175 151 203 112.5 Q231 74 297 74 Q337 74 369 93.5 Q401 113 426 145.5 Q451 178 469 220 Q487 262 498.5 306.5 Q510 351 515.5 394.5 Q521 438 521 474 Q521 548 493.5 587 Q466 626 399 626 Z M590 878 Q582 856 569 835.5 Q556 815 537.5 799.5 Q519 784 495 774.5 Q471 765 443 765 Q416 765 397 774.5 Q378 784 365.5 799.5 Q353 815 347 835.5 Q341 856 341 878 L397 894 Q398 869 410.5 850 Q423 831 454 831 Q486 831 507.5 849.5 Q529 868 540 891 L590 878 Z " />
<glyph glyph-name="obreve" unicode="&#x14f;" horiz-adv-x="548" d="M145 197 Q145 129 165 98 Q185 67 232 67 Q269 67 298 92 Q327 117 347 156.5 Q367 196 377 245 Q387 294 387 342 Q387 401 367.5 431 Q348 461 301 461 Q263 461 233.5 436 Q204 411 184.5 372.5 Q165 334 155 287.5 Q145 241 145 197 Z M25 201 Q25 284 49 347 Q73 410 112 452.5 Q151 495 201 516.5 Q251 538 304 538 Q347 538 384 525.5 Q421 513 448.5 487.5 Q476 462 491.5 423.5 Q507 385 507 333 Q507 249 483 184.5 Q459 120 420 77 Q381 34 330.5 12 Q280 -10 228 -10 Q185 -10 148 3 Q111 16 83.5 42 Q56 68 40.5 107.5 Q25 147 25 201 Z M484 705 Q476 683 463 662 Q450 641 431.5 625 Q413 609 389 599.5 Q365 590 337 590 Q310 590 291 599.5 Q272 609 260 625 Q248 641 242 661.5 Q236 682 236 705 L291 720 Q292 696 305 676.5 Q318 657 348 657 Q380 657 402 675.5 Q424 694 435 717 L484 705 Z " />
<glyph glyph-name="Ohungarumlaut" unicode="&#x150;" horiz-adv-x="676" d="M363 752 L344 783 L479 924 L503 924 L540 878 L379 752 L363 752 Z M488 752 L473 781 L617 905 L640 905 L675 852 L505 752 L488 752 Z M405 710 Q468 710 514.5 690 Q561 670 591.5 635.5 Q622 601 637 554 Q652 507 652 453 Q652 376 630.5 294.5 Q609 213 565 145 Q521 77 453.5 33.5 Q386 -10 294 -10 Q231 -10 184 9.5 Q137 29 106 63.5 Q75 98 60 144.5 Q45 191 45 245 Q45 322 66 404.5 Q87 487 131 555 Q175 623 243 666.5 Q311 710 405 710 Z M399 626 Q359 626 326.5 606 Q294 586 269 553 Q244 520 226.5 478 Q209 436 197.5 391 Q186 346 180.5 302 Q175 258 175 222 Q175 151 203 112.5 Q231 74 297 74 Q337 74 369 93.5 Q401 113 426 145.5 Q451 178 469 220 Q487 262 498.5 306.5 Q510 351 515.5 394.5 Q521 438 521 474 Q521 548 493.5 587 Q466 626 399 626 Z " />
<glyph glyph-name="ohungarumlaut" unicode="&#x151;" horiz-adv-x="548" d="M258 579 L237 610 L372 751 L395 751 L432 705 L274 579 L258 579 Z M381 579 L365 609 L509 732 L533 732 L568 680 L398 579 L381 579 Z M145 197 Q145 129 165 98 Q185 67 232 67 Q269 67 298 92 Q327 117 347 156.5 Q367 196 377 245 Q387 294 387 342 Q387 401 367.5 431 Q348 461 301 461 Q263 461 233.5 436 Q204 411 184.5 372.5 Q165 334 155 287.5 Q145 241 145 197 Z M25 201 Q25 284 49 347 Q73 410 112 452.5 Q151 495 201 516.5 Q251 538 304 538 Q347 538 384 525.5 Q421 513 448.5 487.5 Q476 462 491.5 423.5 Q507 385 507 333 Q507 249 483 184.5 Q459 120 420 77 Q381 34 330.5 12 Q280 -10 228 -10 Q185 -10 148 3 Q111 16 83.5 42 Q56 68 40.5 107.5 Q25 147 25 201 Z " />
<glyph glyph-name="OE" unicode="&#x152;" horiz-adv-x="962" d="M418 710 Q459 710 494.5 707.5 Q530 705 561 700 L997 700 L958 523 L888 523 L905 607 L893 622 L655 622 L609 395 L755 395 L773 410 L784 464 L849 464 L804 252 L739 252 L750 306 L738 320 L591 320 L541 78 L788 78 L807 93 L825 176 L895 176 L858 0 L416 0 Q363 -10 296 -10 Q178 -10 112 53.5 Q46 117 46 245 Q46 345 71.5 430 Q97 515 145 577.5 Q193 640 262 675 Q331 710 418 710 Z M174 231 Q174 154 206.5 113.5 Q239 73 313 73 Q376 73 418 88 L529 609 Q510 617 482.5 622 Q455 627 417 627 Q364 627 319.5 602 Q275 577 243 527 Q211 477 192.5 403 Q174 329 174 231 Z " />
<glyph glyph-name="oe" unicode="&#x153;" horiz-adv-x="836" d="M821 409 Q821 373 805.5 345 Q790 317 764 296 Q738 275 704 260.5 Q670 246 634 236 Q598 226 562 219.5 Q526 213 495 210 L495 193 Q495 67 612 67 Q644 67 673.5 78.5 Q703 90 731 110 L756 62 Q727 34 682 12 Q637 -10 574 -10 Q517 -10 472.5 12 Q428 34 405 82 Q369 36 322 13 Q275 -10 226 -10 Q183 -10 146.5 3 Q110 16 83 41.5 Q56 67 40.5 106 Q25 145 25 198 Q25 282 48.5 345.5 Q72 409 111 451.5 Q150 494 200 515.5 Q250 537 302 537 Q355 537 396.5 512 Q438 487 459 436 Q498 486 550.5 512 Q603 538 660 538 Q731 538 776 505 Q821 472 821 409 Z M142 180 Q142 124 161 94.5 Q180 65 230 65 Q268 65 297 90.5 Q326 116 346 156.5 Q366 197 376 248.5 Q386 300 386 351 Q386 404 367 433 Q348 462 298 462 Q260 462 230.5 436.5 Q201 411 181.5 370.5 Q162 330 152 280 Q142 230 142 180 Z M651 465 Q627 465 603.5 454 Q580 443 559 419.5 Q538 396 522.5 359.5 Q507 323 500 271 Q531 275 568 281 Q605 287 637.5 300 Q670 313 692 336.5 Q714 360 714 399 Q714 432 697 448.5 Q680 465 651 465 Z " />
<glyph glyph-name="Racute" unicode="&#x154;" horiz-adv-x="669" d="M307 622 L253 369 L350 369 Q427 369 470 409.5 Q513 450 513 531 Q513 576 487.5 599 Q462 622 403 622 L307 622 Z M251 0 L-21 0 L-6 67 L49 67 L68 83 L181 617 L168 633 L113 633 L128 700 L423 700 Q527 700 585 659.5 Q643 619 643 536 Q643 486 625 449 Q607 412 579 386.5 Q551 361 515.5 347 Q480 333 446 330 L446 327 Q481 322 501.5 299.5 Q522 277 528 225 L545 82 L560 67 L603 67 L588 0 L465 0 Q439 0 429 13 Q419 26 417 46 L397 224 Q394 248 389.5 261.5 Q385 275 377.5 281.5 Q370 288 360 289.5 Q350 291 338 291 L237 291 L192 82 L204 67 L266 67 L251 0 Z M412 752 L387 788 L535 924 L559 924 L599 856 L431 752 L412 752 Z " />
<glyph glyph-name="racute" unicode="&#x155;" horiz-adv-x="407" d="M428 751 L468 684 L299 579 L281 579 L255 615 L404 751 L428 751 Z M120 444 L107 461 L50 461 L66 528 L207 528 Q235 528 239.5 515 Q244 502 240 486 L230 442 L235 442 Q244 454 259.5 470.5 Q275 487 296 502 Q317 517 343 527.5 Q369 538 400 538 Q415 538 425 536.5 Q435 535 437 535 L398 349 L328 349 L344 423 L332 438 Q297 431 267.5 412 Q238 393 221 372 L141 0 L24 0 L120 444 Z " />
<glyph glyph-name="uni0156" unicode="&#x156;" horiz-adv-x="669" d="M253 -202 L251 -181 Q230 -169 230 -141 Q230 -115 249 -94.5 Q268 -74 300 -74 Q325 -74 340 -87.5 Q355 -101 355 -123 Q355 -138 348.5 -151 Q342 -164 333 -176 L253 -281 Q252 -281 246.5 -277.5 Q241 -274 233 -269 Q224 -264 214 -257 L253 -202 Z M307 622 L253 369 L350 369 Q427 369 470 409.5 Q513 450 513 531 Q513 576 487.5 599 Q462 622 403 622 L307 622 Z M251 0 L-21 0 L-6 67 L49 67 L68 83 L181 617 L168 633 L113 633 L128 700 L423 700 Q527 700 585 659.5 Q643 619 643 536 Q643 486 625 449 Q607 412 579 386.5 Q551 361 515.5 347 Q480 333 446 330 L446 327 Q481 322 501.5 299.5 Q522 277 528 225 L545 82 L560 67 L603 67 L588 0 L465 0 Q439 0 429 13 Q419 26 417 46 L397 224 Q394 248 389.5 261.5 Q385 275 377.5 281.5 Q370 288 360 289.5 Q350 291 338 291 L237 291 L192 82 L204 67 L266 67 L251 0 Z " />
<glyph glyph-name="uni0157" unicode="&#x157;" horiz-adv-x="407" d="M22 -202 L20 -181 Q-1 -169 -1 -141 Q-1 -115 18 -94.5 Q37 -74 69 -74 Q94 -74 109 -87.5 Q124 -101 124 -123 Q124 -138 117.5 -151 Q111 -164 102 -176 L22 -281 Q21 -281 15.5 -277.5 Q10 -274 2 -269 Q-7 -264 -17 -257 L22 -202 Z M120 444 L107 461 L50 461 L66 528 L207 528 Q235 528 239.5 515 Q244 502 240 486 L230 442 L235 442 Q244 454 259.5 470.5 Q275 487 296 502 Q317 517 343 527.5 Q369 538 400 538 Q415 538 425 536.5 Q435 535 437 535 L398 349 L328 349 L344 423 L332 438 Q297 431 267.5 412 Q238 393 221 372 L141 0 L24 0 L120 444 Z " />
<glyph glyph-name="Rcaron" unicode="&#x158;" horiz-adv-x="669" d="M307 622 L253 369 L350 369 Q427 369 470 409.5 Q513 450 513 531 Q513 576 487.5 599 Q462 622 403 622 L307 622 Z M251 0 L-21 0 L-6 67 L49 67 L68 83 L181 617 L168 633 L113 633 L128 700 L423 700 Q527 700 585 659.5 Q643 619 643 536 Q643 486 625 449 Q607 412 579 386.5 Q551 361 515.5 347 Q480 333 446 330 L446 327 Q481 322 501.5 299.5 Q522 277 528 225 L545 82 L560 67 L603 67 L588 0 L465 0 Q439 0 429 13 Q419 26 417 46 L397 224 Q394 248 389.5 261.5 Q385 275 377.5 281.5 Q370 288 360 289.5 Q350 291 338 291 L237 291 L192 82 L204 67 L266 67 L251 0 Z M436 752 L396 752 L301 900 L329 927 L343 927 L430 838 L554 927 L576 927 L593 900 L436 752 Z " />
<glyph glyph-name="rcaron" unicode="&#x159;" horiz-adv-x="407" d="M311 579 L272 579 L177 727 L205 754 L219 754 L306 666 L430 754 L452 754 L469 727 L311 579 Z M120 444 L107 461 L50 461 L66 528 L207 528 Q235 528 239.5 515 Q244 502 240 486 L230 442 L235 442 Q244 454 259.5 470.5 Q275 487 296 502 Q317 517 343 527.5 Q369 538 400 538 Q415 538 425 536.5 Q435 535 437 535 L398 349 L328 349 L344 423 L332 438 Q297 431 267.5 412 Q238 393 221 372 L141 0 L24 0 L120 444 Z " />
<glyph glyph-name="Sacute" unicode="&#x15a;" horiz-adv-x="553" d="M497 219 Q497 165 476.5 122.5 Q456 80 417.5 50.5 Q379 21 324.5 5.5 Q270 -10 203 -10 Q156 -10 118.5 -5 Q81 0 54 7 Q22 15 -2 25 L34 194 L112 194 L91 98 L105 81 Q122 77 148 73.5 Q174 70 209 70 Q253 70 284 80 Q315 90 335 106.5 Q355 123 364.5 145.5 Q374 168 374 193 Q374 230 347.5 254 Q321 278 259 304 Q221 320 190.5 338 Q160 356 138.5 378.5 Q117 401 105 429 Q93 457 93 493 Q93 547 113.5 587.5 Q134 628 171 655.5 Q208 683 259.5 696.5 Q311 710 372 710 Q416 710 450.5 705 Q485 700 510 694 Q539 687 561 679 L525 516 L447 516 L466 605 L453 621 Q434 625 412 627.5 Q390 630 364 630 Q294 630 252 602.5 Q210 575 210 524 Q210 504 215.5 489.5 Q221 475 234.5 461.5 Q248 448 271.5 434.5 Q295 421 331 405 Q371 387 402 367.5 Q433 348 454 326 Q475 304 486 277.5 Q497 251 497 219 Z M382 752 L357 788 L505 924 L529 924 L569 856 L401 752 L382 752 Z " />
<glyph glyph-name="sacute" unicode="&#x15b;" horiz-adv-x="454" d="M425 751 L465 684 L296 579 L278 579 L252 615 L401 751 L425 751 Z M391 168 Q391 126 373 92.5 Q355 59 323.5 36.5 Q292 14 249 2 Q206 -10 155 -10 Q116 -10 85 -5 Q54 0 33 6 Q7 13 -11 22 L17 158 L88 158 L73 84 L85 69 Q96 66 113.5 63 Q131 60 156 60 Q219 60 248.5 84.5 Q278 109 278 144 Q278 174 256.5 191.5 Q235 209 181 227 Q112 250 85 287.5 Q58 325 58 369 Q58 406 73 437 Q88 468 117 490.5 Q146 513 188.5 525.5 Q231 538 287 538 Q319 538 346.5 534.5 Q374 531 394 526 Q418 521 437 515 L409 381 L339 381 L351 449 L341 463 Q331 465 317.5 467 Q304 469 284 469 Q232 469 198.5 451 Q165 433 165 395 Q165 367 184 350.5 Q203 334 251 317 Q320 293 355.5 258.5 Q391 224 391 168 Z " />
<glyph glyph-name="Scircumflex" unicode="&#x15c;" horiz-adv-x="553" d="M497 219 Q497 165 476.5 122.5 Q456 80 417.5 50.5 Q379 21 324.5 5.5 Q270 -10 203 -10 Q156 -10 118.5 -5 Q81 0 54 7 Q22 15 -2 25 L34 194 L112 194 L91 98 L105 81 Q122 77 148 73.5 Q174 70 209 70 Q253 70 284 80 Q315 90 335 106.5 Q355 123 364.5 145.5 Q374 168 374 193 Q374 230 347.5 254 Q321 278 259 304 Q221 320 190.5 338 Q160 356 138.5 378.5 Q117 401 105 429 Q93 457 93 493 Q93 547 113.5 587.5 Q134 628 171 655.5 Q208 683 259.5 696.5 Q311 710 372 710 Q416 710 450.5 705 Q485 700 510 694 Q539 687 561 679 L525 516 L447 516 L466 605 L453 621 Q434 625 412 627.5 Q390 630 364 630 Q294 630 252 602.5 Q210 575 210 524 Q210 504 215.5 489.5 Q221 475 234.5 461.5 Q248 448 271.5 434.5 Q295 421 331 405 Q371 387 402 367.5 Q433 348 454 326 Q475 304 486 277.5 Q497 251 497 219 Z M254 751 L238 778 L395 926 L435 926 L530 778 L502 751 L488 751 L400 839 L277 751 L254 751 Z " />
<glyph glyph-name="scircumflex" unicode="&#x15d;" horiz-adv-x="454" d="M160 576 L144 603 L301 751 L341 751 L435 603 L408 576 L394 576 L306 665 L182 576 L160 576 Z M391 168 Q391 126 373 92.5 Q355 59 323.5 36.5 Q292 14 249 2 Q206 -10 155 -10 Q116 -10 85 -5 Q54 0 33 6 Q7 13 -11 22 L17 158 L88 158 L73 84 L85 69 Q96 66 113.5 63 Q131 60 156 60 Q219 60 248.5 84.5 Q278 109 278 144 Q278 174 256.5 191.5 Q235 209 181 227 Q112 250 85 287.5 Q58 325 58 369 Q58 406 73 437 Q88 468 117 490.5 Q146 513 188.5 525.5 Q231 538 287 538 Q319 538 346.5 534.5 Q374 531 394 526 Q418 521 437 515 L409 381 L339 381 L351 449 L341 463 Q331 465 317.5 467 Q304 469 284 469 Q232 469 198.5 451 Q165 433 165 395 Q165 367 184 350.5 Q203 334 251 317 Q320 293 355.5 258.5 Q391 224 391 168 Z " />
<glyph glyph-name="Scedilla" unicode="&#x15e;" horiz-adv-x="553" d="M497 219 Q497 165 476.5 122.5 Q456 80 417.5 50.5 Q379 21 324.5 5.5 Q270 -10 203 -10 Q156 -10 118.5 -5 Q81 0 54 7 Q22 15 -2 25 L34 194 L112 194 L91 98 L105 81 Q122 77 148 73.5 Q174 70 209 70 Q253 70 284 80 Q315 90 335 106.5 Q355 123 364.5 145.5 Q374 168 374 193 Q374 230 347.5 254 Q321 278 259 304 Q221 320 190.5 338 Q160 356 138.5 378.5 Q117 401 105 429 Q93 457 93 493 Q93 547 113.5 587.5 Q134 628 171 655.5 Q208 683 259.5 696.5 Q311 710 372 710 Q416 710 450.5 705 Q485 700 510 694 Q539 687 561 679 L525 516 L447 516 L466 605 L453 621 Q434 625 412 627.5 Q390 630 364 630 Q294 630 252 602.5 Q210 575 210 524 Q210 504 215.5 489.5 Q221 475 234.5 461.5 Q248 448 271.5 434.5 Q295 421 331 405 Q371 387 402 367.5 Q433 348 454 326 Q475 304 486 277.5 Q497 251 497 219 Z M103 -48 L165 13 L227 12 L177 -39 Q215 -40 237.5 -54 Q260 -68 260 -95 Q260 -119 248.5 -135.5 Q237 -152 218.5 -161.5 Q200 -171 177 -175.5 Q154 -180 131 -180 Q100 -180 74.5 -172 Q49 -164 35 -153 L59 -117 Q67 -123 87.5 -130 Q108 -137 129 -137 Q149 -137 163.5 -130.5 Q178 -124 178 -104 Q178 -88 156.5 -78.5 Q135 -69 99 -65 L103 -48 Z " />
<glyph glyph-name="scedilla" unicode="&#x15f;" horiz-adv-x="455" d="M392 168 Q392 126 374 92.5 Q356 59 324.5 36.5 Q293 14 250 2 Q207 -10 156 -10 Q117 -10 86 -5 Q55 0 34 6 Q8 13 -10 22 L18 158 L89 158 L74 84 L86 69 Q97 66 114.5 63 Q132 60 157 60 Q220 60 249.5 84.5 Q279 109 279 144 Q279 174 257.5 191.5 Q236 209 182 227 Q113 250 86 287.5 Q59 325 59 369 Q59 406 74 437 Q89 468 118 490.5 Q147 513 189.5 525.5 Q232 538 288 538 Q320 538 347.5 534.5 Q375 531 395 526 Q419 521 438 515 L410 381 L340 381 L352 449 L342 463 Q332 465 318.5 467 Q305 469 285 469 Q233 469 199.5 451 Q166 433 166 395 Q166 367 185 350.5 Q204 334 252 317 Q321 293 356.5 258.5 Q392 224 392 168 Z M58 -48 L120 13 L182 12 L132 -39 Q170 -40 192.5 -54 Q215 -68 215 -95 Q215 -119 203.5 -135.5 Q192 -152 173.5 -161.5 Q155 -171 132 -175.5 Q109 -180 86 -180 Q55 -180 29.5 -172 Q4 -164 -10 -153 L14 -117 Q22 -123 42.5 -130 Q63 -137 84 -137 Q104 -137 118.5 -130.5 Q133 -124 133 -104 Q133 -88 111.5 -78.5 Q90 -69 54 -65 L58 -48 Z " />
<glyph glyph-name="Scaron" unicode="&#x160;" horiz-adv-x="553" d="M497 219 Q497 165 476.5 122.5 Q456 80 417.5 50.5 Q379 21 324.5 5.5 Q270 -10 203 -10 Q156 -10 118.5 -5 Q81 0 54 7 Q22 15 -2 25 L34 194 L112 194 L91 98 L105 81 Q122 77 148 73.5 Q174 70 209 70 Q253 70 284 80 Q315 90 335 106.5 Q355 123 364.5 145.5 Q374 168 374 193 Q374 230 347.5 254 Q321 278 259 304 Q221 320 190.5 338 Q160 356 138.5 378.5 Q117 401 105 429 Q93 457 93 493 Q93 547 113.5 587.5 Q134 628 171 655.5 Q208 683 259.5 696.5 Q311 710 372 710 Q416 710 450.5 705 Q485 700 510 694 Q539 687 561 679 L525 516 L447 516 L466 605 L453 621 Q434 625 412 627.5 Q390 630 364 630 Q294 630 252 602.5 Q210 575 210 524 Q210 504 215.5 489.5 Q221 475 234.5 461.5 Q248 448 271.5 434.5 Q295 421 331 405 Q371 387 402 367.5 Q433 348 454 326 Q475 304 486 277.5 Q497 251 497 219 Z M405 752 L365 752 L270 900 L298 927 L312 927 L399 838 L523 927 L545 927 L562 900 L405 752 Z " />
<glyph glyph-name="scaron" unicode="&#x161;" horiz-adv-x="454" d="M312 579 L273 579 L178 727 L206 754 L220 754 L307 666 L431 754 L453 754 L470 727 L312 579 Z M391 168 Q391 126 373 92.5 Q355 59 323.5 36.5 Q292 14 249 2 Q206 -10 155 -10 Q116 -10 85 -5 Q54 0 33 6 Q7 13 -11 22 L17 158 L88 158 L73 84 L85 69 Q96 66 113.5 63 Q131 60 156 60 Q219 60 248.5 84.5 Q278 109 278 144 Q278 174 256.5 191.5 Q235 209 181 227 Q112 250 85 287.5 Q58 325 58 369 Q58 406 73 437 Q88 468 117 490.5 Q146 513 188.5 525.5 Q231 538 287 538 Q319 538 346.5 534.5 Q374 531 394 526 Q418 521 437 515 L409 381 L339 381 L351 449 L341 463 Q331 465 317.5 467 Q304 469 284 469 Q232 469 198.5 451 Q165 433 165 395 Q165 367 184 350.5 Q203 334 251 317 Q320 293 355.5 258.5 Q391 224 391 168 Z " />
<glyph glyph-name="uni0162" unicode="&#x162;" horiz-adv-x="577" d="M149 -48 L211 13 L273 12 L223 -39 Q261 -40 283.5 -54 Q306 -68 306 -95 Q306 -119 294.5 -135.5 Q283 -152 264.5 -161.5 Q246 -171 223 -175.5 Q200 -180 177 -180 Q146 -180 120.5 -172 Q95 -164 81 -153 L105 -117 Q113 -123 133.5 -130 Q154 -137 175 -137 Q195 -137 209.5 -130.5 Q224 -124 224 -104 Q224 -88 202.5 -78.5 Q181 -69 145 -65 L149 -48 Z M111 700 L635 700 L596 520 L523 520 L539 603 L528 619 L417 619 L305 83 L317 67 L383 67 L368 0 L84 0 L99 67 L161 67 L180 83 L293 619 L182 619 L163 603 L146 520 L72 520 L111 700 Z " />
<glyph glyph-name="uni0163" unicode="&#x163;" horiz-adv-x="331" d="M65 -48 L127 13 L189 12 L139 -39 Q177 -40 199.5 -54 Q222 -68 222 -95 Q222 -119 210.5 -135.5 Q199 -152 180.5 -161.5 Q162 -171 139 -175.5 Q116 -180 93 -180 Q62 -180 36.5 -172 Q11 -164 -3 -153 L21 -117 Q29 -123 49.5 -130 Q70 -137 91 -137 Q111 -137 125.5 -130.5 Q140 -124 140 -104 Q140 -88 118.5 -78.5 Q97 -69 61 -65 L65 -48 Z M236 461 L154 80 L167 63 L272 63 L258 0 Q235 -2 211 -4 Q191 -6 168 -7 Q145 -8 125 -8 Q72 -8 50.5 16.5 Q29 41 41 99 L119 461 L57 461 L70 526 L117 526 L136 542 L203 670 L279 670 L249 526 L357 526 L344 461 L236 461 Z " />
<glyph glyph-name="Tcaron" unicode="&#x164;" horiz-adv-x="577" d="M111 700 L635 700 L596 520 L523 520 L539 603 L528 619 L417 619 L305 83 L317 67 L383 67 L368 0 L84 0 L99 67 L161 67 L180 83 L293 619 L182 619 L163 603 L146 520 L72 520 L111 700 Z M408 752 L368 752 L273 900 L301 927 L315 927 L402 838 L526 927 L548 927 L565 900 L408 752 Z " />
<glyph glyph-name="tcaron" unicode="&#x165;" horiz-adv-x="331" d="M327 582 L367 780 L450 780 L435 708 L395 582 L327 582 Z M236 461 L154 80 L167 63 L272 63 L258 0 Q235 -2 211 -4 Q191 -6 168 -7 Q145 -8 125 -8 Q72 -8 50.5 16.5 Q29 41 41 99 L119 461 L57 461 L70 526 L117 526 L136 542 L203 670 L279 670 L249 526 L357 526 L344 461 L236 461 Z " />
<glyph glyph-name="Tbar" unicode="&#x166;" horiz-adv-x="580" d="M112 700 L636 700 L597 520 L524 520 L540 603 L529 619 L418 619 L369 385 L476 385 L462 325 L356 325 L306 83 L318 67 L384 67 L369 0 L85 0 L100 67 L162 67 L181 83 L232 325 L118 325 L132 385 L244 385 L294 619 L183 619 L164 603 L147 520 L73 520 L112 700 Z " />
<glyph glyph-name="tbar" unicode="&#x167;" horiz-adv-x="333" d="M236 461 L207 328 L314 328 L303 271 L196 271 L155 80 L168 63 L272 63 L259 0 Q236 -2 212 -4 Q192 -6 168.5 -7 Q145 -8 125 -8 Q72 -8 51 16.5 Q30 41 42 99 L79 271 L26 271 L37 328 L91 328 L120 461 L58 461 L71 526 L117 526 L136 542 L204 670 L280 670 L249 526 L357 526 L344 461 L236 461 Z " />
<glyph glyph-name="Utilde" unicode="&#x168;" horiz-adv-x="680" d="M549 617 L537 633 L482 633 L496 700 L736 700 L722 633 L666 633 L647 617 L566 232 Q539 103 470 46.5 Q401 -10 300 -10 Q195 -10 137 32 Q79 74 79 163 Q79 197 86 232 L167 617 L155 633 L100 633 L115 700 L382 700 L367 633 L311 633 L292 617 L211 231 Q204 199 204 169 Q204 124 230 98.5 Q256 73 314 73 Q380 73 415.5 112 Q451 151 468 231 L549 617 Z M631 897 L622 856 Q612 811 590 789.5 Q568 768 526 768 Q507 768 489 775 Q471 782 453 790 Q435 798 418 805 Q401 812 384 812 Q367 812 358.5 805 Q350 798 349 793 L340 757 L289 757 L297 796 Q308 847 330 869 Q352 891 391 891 Q410 891 428 883.5 Q446 876 464 866.5 Q482 857 500.5 849.5 Q519 842 539 842 Q559 842 566.5 851 Q574 860 575 865 L582 897 L631 897 Z " />
<glyph glyph-name="utilde" unicode="&#x169;" horiz-adv-x="583" d="M408 0 Q391 0 376 1.5 Q361 3 349.5 9 Q338 15 333 26 Q328 37 331 57 L335 78 L331 78 Q304 45 263.5 17.5 Q223 -10 169 -10 Q109 -10 77.5 23 Q46 56 46 111 Q46 134 52 160 L113 444 L100 461 L44 461 L59 528 L158 528 Q177 528 192.5 525.5 Q208 523 218.5 515 Q229 507 233 491.5 Q237 476 231 450 L171 168 Q166 148 166 134 Q166 111 177.5 95.5 Q189 80 222 80 Q255 80 288.5 101.5 Q322 123 346 151 L427 528 L543 528 L447 81 L460 63 L516 63 L502 0 L408 0 Z M434 668 Q453 668 460.5 676 Q468 684 470 691 L477 723 L526 723 L517 682 Q507 636 485 614.5 Q463 593 421 593 Q402 593 383.5 600 Q365 607 347 615.5 Q329 624 312 631 Q295 638 278 638 Q261 638 253 632 Q245 626 243 619 L235 583 L184 583 L192 621 Q203 673 225 695 Q247 717 285 717 Q304 717 322 709.5 Q340 702 358.5 692.5 Q377 683 395.5 675.5 Q414 668 434 668 Z " />
<glyph glyph-name="Umacron" unicode="&#x16a;" horiz-adv-x="680" d="M549 617 L537 633 L482 633 L496 700 L736 700 L722 633 L666 633 L647 617 L566 232 Q539 103 470 46.5 Q401 -10 300 -10 Q195 -10 137 32 Q79 74 79 163 Q79 197 86 232 L167 617 L155 633 L100 633 L115 700 L382 700 L367 633 L311 633 L292 617 L211 231 Q204 199 204 169 Q204 124 230 98.5 Q256 73 314 73 Q380 73 415.5 112 Q451 151 468 231 L549 617 Z M345 865 L598 865 L583 795 L330 795 L345 865 Z " />
<glyph glyph-name="umacron" unicode="&#x16b;" horiz-adv-x="583" d="M408 0 Q391 0 376 1.5 Q361 3 349.5 9 Q338 15 333 26 Q328 37 331 57 L335 78 L331 78 Q304 45 263.5 17.5 Q223 -10 169 -10 Q109 -10 77.5 23 Q46 56 46 111 Q46 134 52 160 L113 444 L100 461 L44 461 L59 528 L158 528 Q177 528 192.5 525.5 Q208 523 218.5 515 Q229 507 233 491.5 Q237 476 231 450 L171 168 Q166 148 166 134 Q166 111 177.5 95.5 Q189 80 222 80 Q255 80 288.5 101.5 Q322 123 346 151 L427 528 L543 528 L447 81 L460 63 L516 63 L502 0 L408 0 Z M235 692 L488 692 L473 622 L220 622 L235 692 Z " />
<glyph glyph-name="Ubreve" unicode="&#x16c;" horiz-adv-x="680" d="M549 617 L537 633 L482 633 L496 700 L736 700 L722 633 L666 633 L647 617 L566 232 Q539 103 470 46.5 Q401 -10 300 -10 Q195 -10 137 32 Q79 74 79 163 Q79 197 86 232 L167 617 L155 633 L100 633 L115 700 L382 700 L367 633 L311 633 L292 617 L211 231 Q204 199 204 169 Q204 124 230 98.5 Q256 73 314 73 Q380 73 415.5 112 Q451 151 468 231 L549 617 Z M599 878 Q591 856 578 835.5 Q565 815 546.5 799.5 Q528 784 504 774.5 Q480 765 452 765 Q425 765 406 774.5 Q387 784 374.5 799.5 Q362 815 356 835.5 Q350 856 350 878 L406 894 Q407 869 419.5 850 Q432 831 463 831 Q495 831 516.5 849.5 Q538 868 549 891 L599 878 Z " />
<glyph glyph-name="ubreve" unicode="&#x16d;" horiz-adv-x="583" d="M408 0 Q391 0 376 1.5 Q361 3 349.5 9 Q338 15 333 26 Q328 37 331 57 L335 78 L331 78 Q304 45 263.5 17.5 Q223 -10 169 -10 Q109 -10 77.5 23 Q46 56 46 111 Q46 134 52 160 L113 444 L100 461 L44 461 L59 528 L158 528 Q177 528 192.5 525.5 Q208 523 218.5 515 Q229 507 233 491.5 Q237 476 231 450 L171 168 Q166 148 166 134 Q166 111 177.5 95.5 Q189 80 222 80 Q255 80 288.5 101.5 Q322 123 346 151 L427 528 L543 528 L447 81 L460 63 L516 63 L502 0 L408 0 Z M489 705 Q481 683 468 662 Q455 641 436.5 625 Q418 609 394 599.5 Q370 590 342 590 Q315 590 296 599.5 Q277 609 265 625 Q253 641 247 661.5 Q241 682 241 705 L296 720 Q297 696 310 676.5 Q323 657 353 657 Q385 657 407 675.5 Q429 694 440 717 L489 705 Z " />
<glyph glyph-name="Uring" unicode="&#x16e;" horiz-adv-x="680" d="M479 914 Q526 914 554 894.5 Q582 875 582 838 Q582 813 571 795 Q560 777 542 765.5 Q524 754 500 748.5 Q476 743 450 743 Q405 743 376 761 Q347 779 347 814 Q347 840 357.5 859 Q368 878 386 890 Q404 902 428 908 Q452 914 479 914 Z M411 818 Q411 780 455 780 Q486 780 502 796 Q518 812 518 838 Q518 877 473 877 Q444 877 427.5 861 Q411 845 411 818 Z M549 617 L537 633 L482 633 L496 700 L736 700 L722 633 L666 633 L647 617 L566 232 Q539 103 470 46.5 Q401 -10 300 -10 Q195 -10 137 32 Q79 74 79 163 Q79 197 86 232 L167 617 L155 633 L100 633 L115 700 L382 700 L367 633 L311 633 L292 617 L211 231 Q204 199 204 169 Q204 124 230 98.5 Q256 73 314 73 Q380 73 415.5 112 Q451 151 468 231 L549 617 Z " />
<glyph glyph-name="uring" unicode="&#x16f;" horiz-adv-x="583" d="M371 742 Q418 742 446.5 722.5 Q475 703 475 666 Q475 641 464 623 Q453 605 435 593 Q417 581 393 575.5 Q369 570 343 570 Q298 570 269 588.5 Q240 607 240 642 Q240 668 250.5 687 Q261 706 278.5 718 Q296 730 320 736 Q344 742 371 742 Z M303 646 Q303 608 348 608 Q378 608 394.5 624 Q411 640 411 666 Q411 704 366 704 Q336 704 319.5 688 Q303 672 303 646 Z M408 0 Q391 0 376 1.5 Q361 3 349.5 9 Q338 15 333 26 Q328 37 331 57 L335 78 L331 78 Q304 45 263.5 17.5 Q223 -10 169 -10 Q109 -10 77.5 23 Q46 56 46 111 Q46 134 52 160 L113 444 L100 461 L44 461 L59 528 L158 528 Q177 528 192.5 525.5 Q208 523 218.5 515 Q229 507 233 491.5 Q237 476 231 450 L171 168 Q166 148 166 134 Q166 111 177.5 95.5 Q189 80 222 80 Q255 80 288.5 101.5 Q322 123 346 151 L427 528 L543 528 L447 81 L460 63 L516 63 L502 0 L408 0 Z " />
<glyph glyph-name="Uhungarumlaut" unicode="&#x170;" horiz-adv-x="680" d="M372 752 L353 783 L488 924 L512 924 L549 878 L388 752 L372 752 Z M497 752 L482 781 L626 905 L649 905 L684 852 L514 752 L497 752 Z M549 617 L537 633 L482 633 L496 700 L736 700 L722 633 L666 633 L647 617 L566 232 Q539 103 470 46.5 Q401 -10 300 -10 Q195 -10 137 32 Q79 74 79 163 Q79 197 86 232 L167 617 L155 633 L100 633 L115 700 L382 700 L367 633 L311 633 L292 617 L211 231 Q204 199 204 169 Q204 124 230 98.5 Q256 73 314 73 Q380 73 415.5 112 Q451 151 468 231 L549 617 Z " />
<glyph glyph-name="uhungarumlaut" unicode="&#x171;" horiz-adv-x="583" d="M408 0 Q391 0 376 1.5 Q361 3 349.5 9 Q338 15 333 26 Q328 37 331 57 L335 78 L331 78 Q304 45 263.5 17.5 Q223 -10 169 -10 Q109 -10 77.5 23 Q46 56 46 111 Q46 134 52 160 L113 444 L100 461 L44 461 L59 528 L158 528 Q177 528 192.5 525.5 Q208 523 218.5 515 Q229 507 233 491.5 Q237 476 231 450 L171 168 Q166 148 166 134 Q166 111 177.5 95.5 Q189 80 222 80 Q255 80 288.5 101.5 Q322 123 346 151 L427 528 L543 528 L447 81 L460 63 L516 63 L502 0 L408 0 Z M263 579 L242 610 L377 751 L400 751 L437 705 L279 579 L263 579 Z M386 579 L370 609 L514 732 L538 732 L573 680 L403 579 L386 579 Z " />
<glyph glyph-name="Uogonek" unicode="&#x172;" horiz-adv-x="681" d="M297 -180 Q249 -180 223 -162.5 Q197 -145 197 -109 Q197 -73 222 -49.5 Q247 -26 283 -8 L276 -8 Q182 -4 130.5 37.5 Q79 79 79 163 Q79 197 86 232 L167 617 L155 633 L100 633 L115 700 L382 700 L367 633 L311 633 L292 617 L211 231 Q204 199 204 169 Q204 124 230 98.5 Q256 73 314 73 Q380 73 415.5 112 Q451 151 468 231 L549 617 L537 633 L482 633 L496 700 L736 700 L722 633 L666 633 L647 617 L566 232 Q546 139 507.5 88 Q469 37 413 12 Q387 0 363 -11 Q339 -22 321 -34 Q303 -46 292 -60.5 Q281 -75 281 -93 Q281 -116 294 -125 Q307 -134 330 -134 Q347 -134 368 -127.5 Q389 -121 398 -115 L408 -151 Q389 -163 359 -171.5 Q329 -180 297 -180 Z " />
<glyph glyph-name="uogonek" unicode="&#x173;" horiz-adv-x="582" d="M466 0 Q415 -10 379.5 -32.5 Q344 -55 344 -93 Q344 -116 357 -125 Q370 -134 393 -134 Q411 -134 431.5 -127.5 Q452 -121 461 -115 L472 -151 Q453 -163 422.5 -171.5 Q392 -180 360 -180 Q312 -180 286 -162.5 Q260 -145 260 -109 Q260 -68 289.5 -40.5 Q319 -13 362 4 Q345 9 335 20.5 Q325 32 330 57 L334 78 L330 78 Q303 45 262.5 17.5 Q222 -10 168 -10 Q108 -10 76.5 23 Q45 56 45 111 Q45 134 51 160 L112 444 L99 461 L43 461 L58 528 L157 528 Q176 528 191.5 525.5 Q207 523 217.5 515 Q228 507 232 491.5 Q236 476 230 450 L170 168 Q165 148 165 134 Q165 111 176.5 95.5 Q188 80 221 80 Q254 80 287.5 101.5 Q321 123 345 151 L426 528 L542 528 L446 81 L459 63 L515 63 L501 0 L466 0 Z " />
<glyph glyph-name="Wcircumflex" unicode="&#x174;" horiz-adv-x="945" d="M448 751 L432 778 L589 926 L629 926 L724 778 L696 751 L682 751 L594 839 L471 751 L448 751 Z M127 619 L115 633 L67 633 L82 700 L334 700 L319 633 L269 633 L253 619 L277 182 L522 700 L616 700 L642 180 L851 617 L840 633 L787 633 L802 700 L1029 700 L1013 633 L967 633 L950 618 L646 -2 L540 -2 L507 464 L281 -2 L175 -2 L127 619 Z " />
<glyph glyph-name="wcircumflex" unicode="&#x175;" horiz-adv-x="777" d="M334 576 L318 603 L475 751 L515 751 L609 603 L582 576 L568 576 L480 665 L356 576 L334 576 Z M98 446 L87 461 L37 461 L52 528 L129 528 Q142 528 155.5 526 Q169 524 180.5 517 Q192 510 200 496 Q208 482 211 458 L237 159 L419 528 L501 528 L528 156 L675 444 L665 461 L618 461 L633 528 L721 528 Q765 528 773.5 505 Q782 482 765 452 L527 -2 L440 -2 L411 338 L241 -2 L151 -2 L98 446 Z " />
<glyph glyph-name="Ycircumflex" unicode="&#x176;" horiz-adv-x="613" d="M115 0 L130 67 L185 67 L204 83 L243 271 L122 618 L109 633 L64 633 L79 700 L329 700 L314 633 L265 633 L250 619 L336 370 L516 618 L506 633 L457 633 L471 700 L695 700 L680 633 L635 633 L619 620 L374 295 L329 82 L340 67 L396 67 L382 0 L115 0 Z M293 751 L277 778 L434 926 L474 926 L569 778 L541 751 L527 751 L439 839 L316 751 L293 751 Z " />
<glyph glyph-name="ycircumflex" unicode="&#x177;" horiz-adv-x="549" d="M140 528 Q154 528 167.5 526 Q181 524 192.5 517 Q204 510 212.5 495.5 Q221 481 224 457 L268 142 L440 444 L430 461 L387 461 L402 528 L489 528 Q532 528 542.5 504.5 Q553 481 536 452 L226 -90 L237 -107 L291 -107 L279 -170 L42 -170 L54 -107 L116 -107 L136 -90 L181 -12 L106 445 L93 461 L37 461 L52 528 L140 528 Z M207 576 L191 603 L348 751 L388 751 L482 603 L455 576 L441 576 L353 665 L229 576 L207 576 Z " />
<glyph glyph-name="Ydieresis" unicode="&#x178;" horiz-adv-x="613" d="M115 0 L130 67 L185 67 L204 83 L243 271 L122 618 L109 633 L64 633 L79 700 L329 700 L314 633 L265 633 L250 619 L336 370 L516 618 L506 633 L457 633 L471 700 L695 700 L680 633 L635 633 L619 620 L374 295 L329 82 L340 67 L396 67 L382 0 L115 0 Z M297 828 Q297 852 316 871 Q335 890 365 890 Q386 890 399 876.5 Q412 863 412 845 Q412 819 392.5 801 Q373 783 343 783 Q321 783 309 796 Q297 809 297 828 Z M449 828 Q449 852 467.5 871 Q486 890 517 890 Q538 890 551 876.5 Q564 863 564 845 Q564 819 544.5 801 Q525 783 495 783 Q473 783 461 796 Q449 809 449 828 Z " />
<glyph glyph-name="Zacute" unicode="&#x179;" horiz-adv-x="589" d="M-25 0 L-10 68 L448 620 L212 620 L193 605 L175 521 L98 521 L136 700 L618 700 L604 631 L149 81 L412 81 L430 96 L448 179 L524 179 L486 0 L-25 0 Z M388 752 L363 788 L511 924 L535 924 L575 856 L407 752 L388 752 Z " />
<glyph glyph-name="zacute" unicode="&#x17a;" horiz-adv-x="505" d="M445 751 L485 684 L316 579 L298 579 L272 615 L421 751 L445 751 Z M-28 0 L-16 53 L344 459 L165 459 L147 444 L132 370 L56 370 L89 528 L508 528 L497 474 L138 69 L331 69 L349 84 L364 158 L440 158 L407 0 L-28 0 Z " />
<glyph glyph-name="Zdotaccent" unicode="&#x17b;" horiz-adv-x="589" d="M335 822 Q335 853 357.5 876.5 Q380 900 418 900 Q445 900 461 883 Q477 866 477 843 Q477 812 453.5 789 Q430 766 392 766 Q365 766 350 782.5 Q335 799 335 822 Z M-25 0 L-10 68 L448 620 L212 620 L193 605 L175 521 L98 521 L136 700 L618 700 L604 631 L149 81 L412 81 L430 96 L448 179 L524 179 L486 0 L-25 0 Z " />
<glyph glyph-name="zdotaccent" unicode="&#x17c;" horiz-adv-x="505" d="M-28 0 L-16 53 L344 459 L165 459 L147 444 L132 370 L56 370 L89 528 L508 528 L497 474 L138 69 L331 69 L349 84 L364 158 L440 158 L407 0 L-28 0 Z M257 650 Q257 680 279.5 704 Q302 728 340 728 Q367 728 382.5 711.5 Q398 695 398 672 Q398 640 374.5 617 Q351 594 313 594 Q287 594 272 610.5 Q257 627 257 650 Z " />
<glyph glyph-name="Zcaron" unicode="&#x17d;" horiz-adv-x="589" d="M-25 0 L-10 68 L448 620 L212 620 L193 605 L175 521 L98 521 L136 700 L618 700 L604 631 L149 81 L412 81 L430 96 L448 179 L524 179 L486 0 L-25 0 Z M411 752 L371 752 L276 900 L304 927 L318 927 L405 838 L529 927 L551 927 L568 900 L411 752 Z " />
<glyph glyph-name="zcaron" unicode="&#x17e;" horiz-adv-x="505" d="M332 579 L293 579 L198 727 L226 754 L240 754 L327 666 L451 754 L473 754 L490 727 L332 579 Z M-28 0 L-16 53 L344 459 L165 459 L147 444 L132 370 L56 370 L89 528 L508 528 L497 474 L138 69 L331 69 L349 84 L364 158 L440 158 L407 0 L-28 0 Z " />
<glyph glyph-name="longs" unicode="&#x17f;" horiz-adv-x="311" d="M148 0 Q141 -38 125.5 -70.5 Q110 -103 85.5 -127.5 Q61 -152 26 -166 Q-9 -180 -56 -180 Q-101 -180 -124 -175.5 Q-147 -171 -151 -169 L-129 -65 L-61 -65 L-70 -110 L-60 -123 Q-56 -124 -48 -124 Q-16 -124 2.5 -90 Q21 -56 30 -7 L120 461 L48 461 L62 526 L117 526 L136 542 L140 560 Q149 598 165 631 Q181 664 206.5 688 Q232 712 268 726 Q304 740 352 740 Q397 740 421 735.5 Q445 731 449 729 L427 621 L358 621 L369 670 L358 683 Q354 684 344 684 Q309 684 290 652.5 Q271 621 259 567 L148 0 Z " />
<glyph glyph-name="florin" unicode="&#x192;" horiz-adv-x="482" d="M94 440 L200 440 L238 561 Q251 603 268.5 636.5 Q286 670 312 693 Q338 716 374 728 Q410 740 460 740 Q509 740 534.5 735.5 Q560 731 564 729 L531 624 L463 624 L477 670 L467 683 Q461 685 455 685 Q423 685 399.5 658 Q376 631 356 569 L317 440 L431 440 L418 380 L297 380 L177 -1 Q163 -44 146 -77 Q129 -110 103.5 -133 Q78 -156 42 -168 Q6 -180 -45 -180 Q-94 -180 -119.5 -175.5 Q-145 -171 -149 -169 L-115 -64 L-47 -64 L-62 -110 L-52 -123 Q-46 -125 -40 -125 Q-10 -125 14.5 -98 Q39 -71 59 -9 L180 380 L81 380 L94 440 Z " />
<glyph glyph-name="uni0218" unicode="&#x218;" horiz-adv-x="553" d="M149 -202 L147 -181 Q126 -169 126 -141 Q126 -115 145 -94.5 Q164 -74 196 -74 Q221 -74 236 -87.5 Q251 -101 251 -123 Q251 -138 244.5 -151 Q238 -164 229 -176 L149 -281 Q148 -281 142.5 -277.5 Q137 -274 129 -269 Q120 -264 110 -257 L149 -202 Z M497 219 Q497 165 476.5 122.5 Q456 80 417.5 50.5 Q379 21 324.5 5.5 Q270 -10 203 -10 Q156 -10 118.5 -5 Q81 0 54 7 Q22 15 -2 25 L34 194 L112 194 L91 98 L105 81 Q122 77 148 73.5 Q174 70 209 70 Q253 70 284 80 Q315 90 335 106.5 Q355 123 364.5 145.5 Q374 168 374 193 Q374 230 347.5 254 Q321 278 259 304 Q221 320 190.5 338 Q160 356 138.5 378.5 Q117 401 105 429 Q93 457 93 493 Q93 547 113.5 587.5 Q134 628 171 655.5 Q208 683 259.5 696.5 Q311 710 372 710 Q416 710 450.5 705 Q485 700 510 694 Q539 687 561 679 L525 516 L447 516 L466 605 L453 621 Q434 625 412 627.5 Q390 630 364 630 Q294 630 252 602.5 Q210 575 210 524 Q210 504 215.5 489.5 Q221 475 234.5 461.5 Q248 448 271.5 434.5 Q295 421 331 405 Q371 387 402 367.5 Q433 348 454 326 Q475 304 486 277.5 Q497 251 497 219 Z " />
<glyph glyph-name="uni0219" unicode="&#x219;" horiz-adv-x="454" d="M104 -202 L102 -181 Q81 -169 81 -141 Q81 -115 100 -94.5 Q119 -74 151 -74 Q176 -74 191 -87.5 Q206 -101 206 -123 Q206 -138 199.5 -151 Q193 -164 184 -176 L104 -281 Q103 -281 97.5 -277.5 Q92 -274 84 -269 Q75 -264 65 -257 L104 -202 Z M391 168 Q391 126 373 92.5 Q355 59 323.5 36.5 Q292 14 249 2 Q206 -10 155 -10 Q116 -10 85 -5 Q54 0 33 6 Q7 13 -11 22 L17 158 L88 158 L73 84 L85 69 Q96 66 113.5 63 Q131 60 156 60 Q219 60 248.5 84.5 Q278 109 278 144 Q278 174 256.5 191.5 Q235 209 181 227 Q112 250 85 287.5 Q58 325 58 369 Q58 406 73 437 Q88 468 117 490.5 Q146 513 188.5 525.5 Q231 538 287 538 Q319 538 346.5 534.5 Q374 531 394 526 Q418 521 437 515 L409 381 L339 381 L351 449 L341 463 Q331 465 317.5 467 Q304 469 284 469 Q232 469 198.5 451 Q165 433 165 395 Q165 367 184 350.5 Q203 334 251 317 Q320 293 355.5 258.5 Q391 224 391 168 Z " />
<glyph glyph-name="uni021A" unicode="&#x21a;" horiz-adv-x="577" d="M157 -202 L155 -181 Q134 -169 134 -141 Q134 -115 153 -94.5 Q172 -74 204 -74 Q229 -74 244 -87.5 Q259 -101 259 -123 Q259 -138 252.5 -151 Q246 -164 237 -176 L157 -281 Q156 -281 150.5 -277.5 Q145 -274 137 -269 Q128 -264 118 -257 L157 -202 Z M111 700 L635 700 L596 520 L523 520 L539 603 L528 619 L417 619 L305 83 L317 67 L383 67 L368 0 L84 0 L99 67 L161 67 L180 83 L293 619 L182 619 L163 603 L146 520 L72 520 L111 700 Z " />
<glyph glyph-name="uni021B" unicode="&#x21b;" horiz-adv-x="331" d="M71 -202 L69 -181 Q48 -169 48 -141 Q48 -115 67 -94.5 Q86 -74 118 -74 Q143 -74 158 -87.5 Q173 -101 173 -123 Q173 -138 166.5 -151 Q160 -164 151 -176 L71 -281 Q70 -281 64.5 -277.5 Q59 -274 51 -269 Q42 -264 32 -257 L71 -202 Z M236 461 L154 80 L167 63 L272 63 L258 0 Q235 -2 211 -4 Q191 -6 168 -7 Q145 -8 125 -8 Q72 -8 50.5 16.5 Q29 41 41 99 L119 461 L57 461 L70 526 L117 526 L136 542 L203 670 L279 670 L249 526 L357 526 L344 461 L236 461 Z " />
<glyph glyph-name="uni0237" unicode="&#x237;" horiz-adv-x="281" d="M146 5 Q137 -37 122 -71 Q107 -105 82.5 -129.5 Q58 -154 22 -167 Q-14 -180 -64 -180 Q-106 -180 -128.5 -175.5 Q-151 -171 -153 -171 L-131 -63 L-63 -63 L-73 -111 L-63 -123 Q-61 -124 -57 -124 Q-40 -124 -26.5 -114.5 Q-13 -105 -3 -88.5 Q7 -72 14.5 -49.5 Q22 -27 28 -2 L122 444 L110 461 L54 461 L69 528 L213 528 Q241 528 246.5 515 Q252 502 248 485 L146 5 Z " />
<glyph glyph-name="circumflex" unicode="&#x2c6;" horiz-adv-x="392" d="M151 576 L135 603 L292 751 L332 751 L426 603 L399 576 L385 576 L297 665 L173 576 L151 576 Z " />
<glyph glyph-name="caron" unicode="&#x2c7;" horiz-adv-x="392" d="M285 579 L246 579 L151 727 L179 754 L193 754 L280 666 L404 754 L426 754 L443 727 L285 579 Z " />
<glyph glyph-name="uni02C9" unicode="&#x2c9;" horiz-adv-x="388" d="M166 697 L420 697 L405 627 L151 627 L166 697 Z " />
<glyph glyph-name="breve" unicode="&#x2d8;" horiz-adv-x="392" d="M421 705 Q413 683 400 662 Q387 641 368.5 625 Q350 609 326 599.5 Q302 590 274 590 Q247 590 228 599.5 Q209 609 197 625 Q185 641 179 661.5 Q173 682 173 705 L228 720 Q229 696 242 676.5 Q255 657 285 657 Q317 657 339 675.5 Q361 694 372 717 L421 705 Z " />
<glyph glyph-name="dotaccent" unicode="&#x2d9;" horiz-adv-x="214" d="M166 650 Q166 680 188.5 704 Q211 728 249 728 Q276 728 291.5 711.5 Q307 695 307 672 Q307 640 283.5 617 Q260 594 222 594 Q196 594 181 610.5 Q166 627 166 650 Z " />
<glyph glyph-name="ring" unicode="&#x2da;" horiz-adv-x="392" d="M296 742 Q343 742 371.5 722.5 Q400 703 400 666 Q400 641 389 623 Q378 605 360 593 Q342 581 318 575.5 Q294 570 268 570 Q223 570 194 588.5 Q165 607 165 642 Q165 668 175.5 687 Q186 706 203.5 718 Q221 730 245 736 Q269 742 296 742 Z M228 646 Q228 608 273 608 Q303 608 319.5 624 Q336 640 336 666 Q336 704 291 704 Q261 704 244.5 688 Q228 672 228 646 Z " />
<glyph glyph-name="ogonek" unicode="&#x2db;" horiz-adv-x="392" d="M215 -151 Q196 -163 165.5 -171.5 Q135 -180 103 -180 Q55 -180 29 -162.5 Q3 -145 3 -109 Q3 -75 25.5 -49.5 Q48 -24 82.5 -7 Q117 10 158 20 Q199 30 237 33 L232 4 Q202 -1 176 -9 Q150 -17 130 -29 Q110 -41 98.5 -57 Q87 -73 87 -93 Q87 -116 100.5 -125 Q114 -134 137 -134 Q154 -134 175 -127.5 Q196 -121 205 -115 L215 -151 Z " />
<glyph glyph-name="tilde" unicode="&#x2dc;" horiz-adv-x="392" d="M366 668 Q385 668 392.5 676 Q400 684 402 691 L409 723 L458 723 L449 682 Q439 636 417 614.5 Q395 593 353 593 Q334 593 315.5 600 Q297 607 279 615.5 Q261 624 244 631 Q227 638 210 638 Q193 638 185 632 Q177 626 175 619 L167 583 L116 583 L124 621 Q135 673 157 695 Q179 717 217 717 Q236 717 254 709.5 Q272 702 290.5 692.5 Q309 683 327.5 675.5 Q346 668 366 668 Z " />
<glyph glyph-name="hungarumlaut" unicode="&#x2dd;" horiz-adv-x="392" d="M147 579 L126 610 L261 751 L284 751 L321 705 L163 579 L147 579 Z M270 579 L254 609 L398 732 L422 732 L457 680 L287 579 L270 579 Z " />
<glyph glyph-name="uni0394" unicode="&#x394;" horiz-adv-x="650" d="M-32 56 L353 702 L465 702 L583 54 L571 0 L-44 0 L-32 56 Z M93 84 L444 84 L364 556 L93 84 Z " />
<glyph glyph-name="uni03A9" unicode="&#x3a9;" horiz-adv-x="757" d="M377 136 Q489 192 542 272 Q595 352 595 468 Q595 503 586.5 532.5 Q578 562 560 583 Q542 604 513.5 615.5 Q485 627 445 627 Q385 627 338.5 604 Q292 581 260.5 541.5 Q229 502 213 448.5 Q197 395 197 334 Q197 303 203 277 Q209 251 222 227.5 Q235 204 255 182 Q275 160 302 136 L273 0 L-8 0 L25 155 L95 155 L81 86 L92 72 L213 72 L221 106 Q147 155 111 209 Q75 263 75 341 Q75 422 100.5 490 Q126 558 174.5 607 Q223 656 292.5 683.5 Q362 711 449 711 Q509 711 558.5 696 Q608 681 644 650 Q680 619 700 572.5 Q720 526 720 463 Q720 337 649.5 248.5 Q579 160 445 97 L440 72 L581 72 L598 86 L612 155 L683 155 L650 0 L348 0 L377 136 Z " />
<glyph glyph-name="uni03BC" unicode="&#x3bc;" horiz-adv-x="595" d="M1 -186 L-23 -175 L66 250 L124 522 L225 534 L244 517 L191 283 Q177 221 171 191.5 Q165 162 165 146 Q165 108 185.5 93 Q206 78 239 78 Q262 78 290.5 87 Q319 96 342 122 L428 522 L525 534 L548 516 L494 286 Q477 218 467 167.5 Q457 117 457 102 Q457 88 463 81 Q469 74 486 74 Q496 74 510.5 75 Q525 76 539 80 L531 20 Q503 6 474.5 -1 Q446 -8 423 -8 Q376 -8 359.5 11 Q343 30 343 64 L339 64 Q316 29 285 9 Q254 -11 218 -11 Q183 -11 157.5 3.5 Q132 18 124 53 L108 -89 L91 -167 L1 -186 Z " />
<glyph glyph-name="Wgrave" unicode="&#x1e80;" horiz-adv-x="945" d="M561 752 L436 856 L506 924 L525 924 L616 788 L576 752 L561 752 Z M127 619 L115 633 L67 633 L82 700 L334 700 L319 633 L269 633 L253 619 L277 182 L522 700 L616 700 L642 180 L851 617 L840 633 L787 633 L802 700 L1029 700 L1013 633 L967 633 L950 618 L646 -2 L540 -2 L507 464 L281 -2 L175 -2 L127 619 Z " />
<glyph glyph-name="wgrave" unicode="&#x1e81;" horiz-adv-x="777" d="M98 446 L87 461 L37 461 L52 528 L129 528 Q142 528 155.5 526 Q169 524 180.5 517 Q192 510 200 496 Q208 482 211 458 L237 159 L419 528 L501 528 L528 156 L675 444 L665 461 L618 461 L633 528 L721 528 Q765 528 773.5 505 Q782 482 765 452 L527 -2 L440 -2 L411 338 L241 -2 L151 -2 L98 446 Z M330 684 L399 751 L419 751 L510 615 L470 579 L455 579 L330 684 Z " />
<glyph glyph-name="Wacute" unicode="&#x1e82;" horiz-adv-x="945" d="M576 752 L551 788 L699 924 L723 924 L763 856 L595 752 L576 752 Z M127 619 L115 633 L67 633 L82 700 L334 700 L319 633 L269 633 L253 619 L277 182 L522 700 L616 700 L642 180 L851 617 L840 633 L787 633 L802 700 L1029 700 L1013 633 L967 633 L950 618 L646 -2 L540 -2 L507 464 L281 -2 L175 -2 L127 619 Z " />
<glyph glyph-name="wacute" unicode="&#x1e83;" horiz-adv-x="777" d="M600 751 L640 684 L471 579 L453 579 L427 615 L576 751 L600 751 Z M98 446 L87 461 L37 461 L52 528 L129 528 Q142 528 155.5 526 Q169 524 180.5 517 Q192 510 200 496 Q208 482 211 458 L237 159 L419 528 L501 528 L528 156 L675 444 L665 461 L618 461 L633 528 L721 528 Q765 528 773.5 505 Q782 482 765 452 L527 -2 L440 -2 L411 338 L241 -2 L151 -2 L98 446 Z " />
<glyph glyph-name="Wdieresis" unicode="&#x1e84;" horiz-adv-x="945" d="M127 619 L115 633 L67 633 L82 700 L334 700 L319 633 L269 633 L253 619 L277 182 L522 700 L616 700 L642 180 L851 617 L840 633 L787 633 L802 700 L1029 700 L1013 633 L967 633 L950 618 L646 -2 L540 -2 L507 464 L281 -2 L175 -2 L127 619 Z M460 828 Q460 852 479 871 Q498 890 528 890 Q549 890 562 876.5 Q575 863 575 845 Q575 819 555.5 801 Q536 783 506 783 Q484 783 472 796 Q460 809 460 828 Z M612 828 Q612 852 630.5 871 Q649 890 680 890 Q701 890 714 876.5 Q727 863 727 845 Q727 819 707.5 801 Q688 783 658 783 Q636 783 624 796 Q612 809 612 828 Z " />
<glyph glyph-name="wdieresis" unicode="&#x1e85;" horiz-adv-x="777" d="M347 655 Q347 680 366 699 Q385 718 416 718 Q437 718 449.5 704 Q462 690 462 672 Q462 647 442.5 628.5 Q423 610 393 610 Q371 610 359 623.5 Q347 637 347 655 Z M499 655 Q499 680 518 699 Q537 718 568 718 Q589 718 601.5 704 Q614 690 614 672 Q614 647 594.5 628.5 Q575 610 545 610 Q523 610 511 623.5 Q499 637 499 655 Z M98 446 L87 461 L37 461 L52 528 L129 528 Q142 528 155.5 526 Q169 524 180.5 517 Q192 510 200 496 Q208 482 211 458 L237 159 L419 528 L501 528 L528 156 L675 444 L665 461 L618 461 L633 528 L721 528 Q765 528 773.5 505 Q782 482 765 452 L527 -2 L440 -2 L411 338 L241 -2 L151 -2 L98 446 Z " />
<glyph glyph-name="endash" unicode="&#x2013;" horiz-adv-x="552" d="M74 364 L503 364 L485 281 L55 281 L74 364 Z " />
<glyph glyph-name="emdash" unicode="&#x2014;" horiz-adv-x="835" d="M74 364 L786 364 L768 281 L55 281 L74 364 Z " />
<glyph glyph-name="quoteleft" unicode="&#x2018;" horiz-adv-x="232" d="M230 546.003 Q230 531.004 224.5 517.005 Q219.001 503.005 209.001 492.006 Q199.002 481.007 184.503 474.507 Q170.004 468.008 152.005 468.008 Q123.007 468.008 105.508 484.507 Q88.0087 501.006 88.0087 525.004 Q88.0087 543.003 96.0082 557.002 Q104.008 571.001 113.007 583.001 L214.001 715.992 L257.998 687.994 L205.002 614.999 L209.001 592 Q220.001 584 225 572.001 Q230 560.002 230 546.003 Z " />
<glyph glyph-name="quoteright" unicode="&#x2019;" horiz-adv-x="229" d="M122 632 Q122 647 127.5 661 Q133 675 143 686 Q153 697 167.5 703.5 Q182 710 200 710 Q229 710 246.5 693.5 Q264 677 264 653 Q264 635 256 621 Q248 607 239 595 L138 462 L94 490 L147 563 L143 586 Q132 594 127 606 Q122 618 122 632 Z " />
<glyph glyph-name="quotesinglbase" unicode="&#x201a;" horiz-adv-x="240" d="M0 46 Q0 61 5.5 75 Q11 89 21 100 Q31 111 45.5 117.5 Q60 124 78 124 Q107 124 124.5 107.5 Q142 91 142 67 Q142 49 134 35 Q126 21 117 9 L16 -124 L-28 -96 L25 -23 L21 0 Q10 8 5 20 Q0 32 0 46 Z " />
<glyph glyph-name="quotedblleft" unicode="&#x201c;" horiz-adv-x="404" d="M230 546.003 Q230 531.004 224.5 517.005 Q219.001 503.005 209.001 492.006 Q199.002 481.007 184.503 474.507 Q170.004 468.008 152.005 468.008 Q123.007 468.008 105.508 484.507 Q88.0087 501.006 88.0087 525.004 Q88.0087 543.003 96.0082 557.002 Q104.008 571.001 113.007 583.001 L214.001 715.992 L257.998 687.994 L205.002 614.999 L209.001 592 Q220.001 584 225 572.001 Q230 560.002 230 546.003 Z M403 546.003 Q403 531.004 397.5 517.005 Q392.001 503.005 382.001 492.006 Q372.002 481.007 357.503 474.507 Q343.004 468.008 325.005 468.008 Q296.007 468.008 278.508 484.507 Q261.009 501.006 261.009 525.004 Q261.009 543.003 269.008 557.002 Q277.008 571.001 286.007 583.001 L387.001 715.992 L430.998 687.994 L378.002 614.999 L382.001 592 Q393.001 584 398 572.001 Q403 560.002 403 546.003 Z " />
<glyph glyph-name="quotedblright" unicode="&#x201d;" horiz-adv-x="401" d="M122 632 Q122 647 127.5 661 Q133 675 143 686 Q153 697 167.5 703.5 Q182 710 200 710 Q229 710 246.5 693.5 Q264 677 264 653 Q264 635 256 621 Q248 607 239 595 L138 462 L94 490 L147 563 L143 586 Q132 594 127 606 Q122 618 122 632 Z M294 632 Q294 647 299.5 661 Q305 675 315 686 Q325 697 339.5 703.5 Q354 710 372 710 Q401 710 418.5 693.5 Q436 677 436 653 Q436 635 428 621 Q420 607 411 595 L310 462 L266 490 L319 563 L315 586 Q304 594 299 606 Q294 618 294 632 Z " />
<glyph glyph-name="quotedblbase" unicode="&#x201e;" horiz-adv-x="412" d="M0 46 Q0 61 5.5 75 Q11 89 21 100 Q31 111 45.5 117.5 Q60 124 78 124 Q107 124 124.5 107.5 Q142 91 142 67 Q142 49 134 35 Q126 21 117 9 L16 -124 L-28 -96 L25 -23 L21 0 Q10 8 5 20 Q0 32 0 46 Z M172 46 Q172 61 177.5 75 Q183 89 193 100 Q203 111 217.5 117.5 Q232 124 250 124 Q279 124 296.5 107.5 Q314 91 314 67 Q314 49 306 35 Q298 21 289 9 L188 -124 L144 -96 L197 -23 L193 0 Q182 8 177 20 Q172 32 172 46 Z " />
<glyph glyph-name="dagger" unicode="&#x2020;" horiz-adv-x="470" d="M77 525 L191 507 L250 507 L266 700 L378 700 L309 507 L365 507 L487 525 L467 429 L349 448 L301 448 L301 340 L198 0 L148 0 L189 340 L235 448 L185 448 L57 429 L77 525 Z " />
<glyph glyph-name="daggerdbl" unicode="&#x2021;" horiz-adv-x="510" d="M43 271 L163 252 L212 252 L210 350 L254 448 L205 448 L77 429 L97 525 L211 507 L270 507 L285 700 L398 700 L330 507 L385 507 L507 525 L487 429 L368 448 L322 448 L323 350 L280 252 L326 252 L453 271 L433 175 L319 193 L264 193 L249 0 L136 0 L204 193 L145 193 L23 175 L43 271 Z " />
<glyph glyph-name="bullet" unicode="&#x2022;" horiz-adv-x="356" d="M84.5 357 Q84.5 402 118.25 438 Q152 474 209 474 Q249.5 474 273.5 448.5 Q297.5 423 297.5 388.5 Q297.5 342 262.25 307.5 Q227 273 170 273 Q129.5 273 107 297.75 Q84.5 322.5 84.5 357 Z " />
<glyph glyph-name="ellipsis" unicode="&#x2026;" horiz-adv-x="669" d="M430 46 Q430 76 452.5 100 Q475 124 513 124 Q540 124 556 107 Q572 90 572 67 Q572 36 548.5 13 Q525 -10 487 -10 Q460 -10 445 6.5 Q430 23 430 46 Z M-1 46 Q-1 76 21.5 100 Q44 124 82 124 Q109 124 125 107 Q141 90 141 67 Q141 36 117.5 13 Q94 -10 56 -10 Q29 -10 14 6.5 Q-1 23 -1 46 Z M215 46 Q215 76 237.5 100 Q260 124 298 124 Q325 124 341 107 Q357 90 357 67 Q357 36 333.5 13 Q310 -10 272 -10 Q245 -10 230 6.5 Q215 23 215 46 Z " />
<glyph glyph-name="perthousand" unicode="&#x2030;" horiz-adv-x="1020" d="M151 481 Q151 424 192 424 Q214 424 230.5 441.5 Q247 459 258 485 Q269 511 274.5 541 Q280 571 280 596 Q280 651 240 651 Q218 651 201.5 634.5 Q185 618 173.5 592.5 Q162 567 156.5 537.5 Q151 508 151 481 Z M354 589 Q354 543 342 503.5 Q330 464 308.5 434.5 Q287 405 256 388 Q225 371 187 371 Q135 371 106 400.5 Q77 430 77 487 Q77 532 88 571.5 Q99 611 120.5 641 Q142 671 173.5 688.5 Q205 706 245 706 Q295 706 324.5 676 Q354 646 354 589 Z M449 105 Q449 48 490 48 Q512 48 528.5 65.5 Q545 83 556 109 Q567 135 572.5 165 Q578 195 578 220 Q578 275 538 275 Q516 275 499.5 258.5 Q483 242 471.5 216.5 Q460 191 454.5 161.5 Q449 132 449 105 Z M652 213 Q652 167 640 127.5 Q628 88 606.5 58.5 Q585 29 554 12 Q523 -5 485 -5 Q433 -5 404 24.5 Q375 54 375 111 Q375 156 386 195.5 Q397 235 418.5 265 Q440 295 471.5 312.5 Q503 330 543 330 Q593 330 622.5 300 Q652 270 652 213 Z M763 105 Q763 48 804 48 Q826 48 842.5 65.5 Q859 83 870 109 Q881 135 886.5 165 Q892 195 892 220 Q892 275 852 275 Q830 275 813.5 258.5 Q797 242 785.5 216.5 Q774 191 768.5 161.5 Q763 132 763 105 Z M966 213 Q966 167 954 127.5 Q942 88 920.5 58.5 Q899 29 868 12 Q837 -5 799 -5 Q747 -5 718 24.5 Q689 54 689 111 Q689 156 700 195.5 Q711 235 732.5 265 Q754 295 785.5 312.5 Q817 330 857 330 Q907 330 936.5 300 Q966 270 966 213 Z M586 700 L648 700 L142 0 L80 0 L586 700 Z " />
<glyph glyph-name="guilsinglleft" unicode="&#x2039;" horiz-adv-x="304" d="M32.0154 278.014 L230.003 463.003 L295.999 463.003 L123.01 253.016 L203.005 46.0283 L146.008 46.0283 L23.0159 235.017 L32.0154 278.014 Z " />
<glyph glyph-name="guilsinglright" unicode="&#x203a;" horiz-adv-x="304" d="M252 231 L54 46 L-12 46 L161 256 L81 463 L138 463 L261 274 L252 231 Z " />
<glyph glyph-name="fraction" unicode="&#x2044;" horiz-adv-x="90" d="M278 700 L340 700 L-166 0 L-228 0 L278 700 Z " />
<glyph glyph-name="franc" unicode="&#x20a3;" horiz-adv-x="623" d="M270 366 L258 310 L429 310 L417 251 L246 251 L210 83 L222 67 L295 67 L280 0 L-3 0 L12 67 L67 67 L86 83 L121 251 L49 251 L62 310 L133 310 L145 366 L72 366 L85 425 L158 425 L198 617 L186 633 L131 633 L146 700 L677 700 L639 523 L568 523 L585 605 L573 620 L325 620 L283 425 L453 425 L440 366 L270 366 Z " />
<glyph glyph-name="lira" unicode="&#x20a4;" horiz-adv-x="609" d="M257 366 L245 310 L396 310 L384 251 L233 251 L223 205 Q215 170 201.5 137 Q188 104 174 84 L424 84 L442 100 L462 189 L532 189 L492 0 L-13 0 L0 59 L52 59 L71 75 L108 251 L40 251 L53 310 L121 310 L133 366 L64 366 L76 425 L145 425 L159 486 Q168 530 189 570.5 Q210 611 243 642 Q276 673 321.5 691.5 Q367 710 426 710 Q472 710 509 704.5 Q546 699 572 692 Q603 684 626 675 L595 528 L522 528 L540 606 L529 618 Q524 620 500.5 625.5 Q477 631 438 631 Q373 631 336.5 599 Q300 567 283 486 L270 425 L420 425 L407 366 L257 366 Z " />
<glyph glyph-name="peseta" unicode="&#x20a7;" horiz-adv-x="1428" d="M183 617 L170 633 L115 633 L130 700 L420 700 Q527 700 588.5 655 Q650 610 650 517 Q650 451 628 402.5 Q606 354 565.5 322 Q525 290 467 274 Q409 258 338 258 L231 258 L194 83 L206 67 L274 67 L259 0 L-19 0 L-4 67 L51 67 L70 83 L183 617 Z M309 622 L248 336 L353 336 Q431 336 476.5 379 Q522 422 522 512 Q522 567 494 594.5 Q466 622 403 622 L309 622 Z M1359 168 Q1359 126 1341 92.5 Q1323 59 1291.5 36.5 Q1260 14 1217 2 Q1174 -10 1123 -10 Q1084 -10 1053 -5 Q1022 0 1001 6 Q975 13 957 22 L985 158 L1056 158 L1041 84 L1053 69 Q1064 66 1081.5 63 Q1099 60 1124 60 Q1187 60 1216.5 84.5 Q1246 109 1246 144 Q1246 174 1224.5 191.5 Q1203 209 1149 227 Q1080 250 1053 287.5 Q1026 325 1026 369 Q1026 406 1041 437 Q1056 468 1085 490.5 Q1114 513 1156.5 525.5 Q1199 538 1255 538 Q1287 538 1314.5 534.5 Q1342 531 1362 526 Q1386 521 1405 515 L1377 381 L1307 381 L1319 449 L1309 463 Q1299 465 1285.5 467 Q1272 469 1252 469 Q1200 469 1166.5 451 Q1133 433 1133 395 Q1133 367 1152 350.5 Q1171 334 1219 317 Q1288 293 1323.5 258.5 Q1359 224 1359 168 Z M873 461 L791 80 L804 63 L909 63 L895 0 Q872 -2 848 -4 Q828 -6 805 -7 Q782 -8 762 -8 Q709 -8 687.5 16.5 Q666 41 678 99 L756 461 L694 461 L707 526 L754 526 L773 542 L840 670 L916 670 L886 526 L994 526 L981 461 L873 461 Z " />
<glyph glyph-name="Euro" unicode="&#x20ac;" horiz-adv-x="658" d="M547 24 Q517 11 473.5 0.5 Q430 -10 369 -10 Q310 -10 262.5 7 Q215 24 181.5 57 Q148 90 130 137.5 Q112 185 112 245 L112 259 L25 259 L37 318 L115 318 Q117 332 119 346.5 Q121 361 123 375 L48 375 L61 434 L138 434 Q180 568 279 639 Q378 710 521 710 Q552 710 579.5 706.5 Q607 703 627 698.5 Q647 694 660 689 Q673 684 676 682 L644 531 L572 531 L588 607 L577 623 Q563 627 547.5 629.5 Q532 632 512 632 Q424 632 359 585.5 Q294 539 262 434 L459 434 L446 375 L248 375 Q243 348 242 318 L435 318 L423 259 L239 259 L239 249 Q239 166 277.5 119 Q316 72 400 72 Q420 72 437 73.5 Q454 75 470 80 L489 96 L507 176 L579 176 L547 24 Z " />
<glyph glyph-name="uni2113" unicode="&#x2113;" horiz-adv-x="436" d="M346 28 Q333 21 315 14.5 Q297 8 277.5 2.5 Q258 -3 239 -6.5 Q220 -10 204 -10 Q145 -10 109.5 9 Q74 28 72 75 Q72 84 73 95 Q74 106 76 118 L14 66 L-22 122 Q12 151 42.5 178 Q73 205 100 230 L166 541 Q176 589 195 623.5 Q214 658 238.5 680 Q263 702 291.5 712.5 Q320 723 350 723 Q404 723 436 696.5 Q468 670 468 616 Q468 548 404.5 452.5 Q341 357 196 224 L176 129 Q174 122 174 116 L174 103 Q174 83 187.5 75.5 Q201 68 229 68 Q253 68 284 75 Q315 82 336 92 L346 28 Z M224 353 Q304 441 337 507 Q370 573 370 611 Q370 634 361.5 643.5 Q353 653 339 653 Q288 653 261 524 L224 353 Z " />
<glyph glyph-name="trademark" unicode="&#x2122;" horiz-adv-x="864" d="M133 700 L399 700 L399 601 L357 601 L357 638 L351 645 L303 645 L303 438 L309 431 L346 431 L346 387 L185 387 L185 431 L222 431 L229 438 L229 645 L182 645 L175 638 L175 601 L133 601 L133 700 Z M540 598 L540 438 L547 431 L580 431 L580 387 L438 387 L438 431 L470 431 L477 438 L477 650 L470 656 L438 656 L438 700 L562 700 L638 547 L711 700 L834 700 L834 656 L800 656 L794 650 L794 438 L801 431 L834 431 L834 387 L681 387 L681 431 L714 431 L721 438 L721 603 L662 480 L599 480 L540 598 Z " />
<glyph glyph-name="estimated" unicode="&#x212e;" horiz-adv-x="799" d="M606 364 L616 377 L616 583 Q583 622 531.5 645 Q480 668 420 668 Q355 668 305.5 645.5 Q256 623 221 583 L221 377 L230 364 L606 364 Z M221 312 L221 134 Q255 84 307.5 56.5 Q360 29 429 29 Q501 29 559.5 57 Q618 85 657 134 L720 134 Q666 65 595 27.5 Q524 -10 429 -10 Q352 -10 285.5 18 Q219 46 169 95 Q119 144 90.5 209 Q62 274 62 349 Q62 424 90.5 489.5 Q119 555 168 603.5 Q217 652 282 679.5 Q347 707 420 707 Q492 707 555 680 Q618 653 666 606.5 Q714 560 744 497.5 Q774 435 779 365 L779 363 L747 325 L230 325 L221 312 Z " />
</font>
</svg>
